<svg width="48.000000" height="48.000000" viewBox="0 0 48 48" fill="none" xmlns="http://www.w3.org/2000/svg" xmlns:xlink="http://www.w3.org/1999/xlink">
	<desc>
			Created with Pixso.
	</desc>
	<defs/>
	<rect id="矩形 278" rx="8.000000" width="48.000000" height="48.000000" fill="#DDDDE4" fill-opacity="1.000000"/>
	<g opacity="0.000000">
		<rect id="rect" width="32.000000" height="32.000000" transform="matrix(-1 0 0 1 40 8)" fill="#000000" fill-opacity="0.860000"/>
	</g>
	<path id="合并" d="M32.4668 22.6699L23.5078 13.7109C23.1113 13.3145 23.1113 12.6934 23.5078 12.2969C23.9033 11.9004 24.5264 11.9004 24.9219 12.2969L36 23.375L24.9219 34.4531C24.5264 34.8496 23.9033 34.8496 23.5078 34.4531C23.1113 34.0566 23.1113 33.4355 23.5078 33.0391L31.877 24.6699L11.9199 24.6699C11.3594 24.6699 10.9199 24.2305 10.9199 23.6699C10.9199 23.1094 11.3594 22.6699 11.9199 22.6699L32.4668 22.6699Z" clip-rule="evenodd" fill="#000000" fill-opacity="0.860000" fill-rule="evenodd"/>
</svg>
