<svg width="48.000000" height="48.000000" viewBox="0 0 48 48" fill="none" xmlns="http://www.w3.org/2000/svg" xmlns:xlink="http://www.w3.org/1999/xlink">
	<desc>
			Created with Pixso.
	</desc>
	<defs/>
	<rect width="48.000000" height="48.000000"/>
	<path id="合并" d="M25.3184 11.166L25.3184 23.3184L37.4697 23.3184C38.0293 23.3184 38.4697 23.7578 38.4697 24.3184C38.4697 24.8789 38.0293 25.3184 37.4697 25.3184L25.3184 25.3184L25.3184 37.4707C25.3184 38.0312 24.8779 38.4707 24.3184 38.4707C23.7588 38.4707 23.3184 38.0312 23.3184 37.4707L23.3184 25.3184L11.167 25.3184C10.6074 25.3184 10.167 24.8789 10.167 24.3184C10.167 23.7578 10.6074 23.3184 11.167 23.3184L23.3184 23.3184L23.3184 11.166C23.3184 10.6055 23.7588 10.166 24.3184 10.166C24.8779 10.166 25.3184 10.6055 25.3184 11.166Z" clip-rule="evenodd" fill="#000000" fill-opacity="0.860000" fill-rule="evenodd"/>
</svg>
