<svg width="48.000000" height="48.000000" viewBox="0 0 48 48" fill="none" xmlns="http://www.w3.org/2000/svg" xmlns:xlink="http://www.w3.org/1999/xlink">
	<desc>
			Created with Pixso.
	</desc>
	<defs/>
	<rect width="48.000000" height="48.000000"/>
	<g opacity="0.000000">
		<rect id="rect" x="8.000000" y="8.000000" width="32.000000" height="32.000000" fill="#000000" fill-opacity="0.860000"/>
	</g>
	<rect id="矩形 275" rx="8.000000" width="48.000000" height="48.000000" fill="#DDDDE4" fill-opacity="1.000000"/>
	<path id="合并" d="M24.4922 13.7109L15.5332 22.6699L36.0801 22.6699C36.6406 22.6699 37.0801 23.1094 37.0801 23.6699C37.0801 24.2305 36.6406 24.6699 36.0801 24.6699L16.123 24.6699L24.4922 33.0391C24.8887 33.4355 24.8887 34.0566 24.4922 34.4531C24.0967 34.8496 23.4736 34.8496 23.0781 34.4531L12 23.375L23.0781 12.2969C23.4736 11.9004 24.0967 11.9004 24.4922 12.2969C24.8887 12.6934 24.8887 13.3145 24.4922 13.7109Z" clip-rule="evenodd" fill="#000000" fill-opacity="0.860000" fill-rule="evenodd"/>
</svg>
