<svg width="48.000000" height="48.000000" viewBox="0 0 48 48" fill="none" xmlns="http://www.w3.org/2000/svg" xmlns:xlink="http://www.w3.org/1999/xlink">
	<desc>
			Created with Pixso.
	</desc>
	<defs/>
	<rect width="48.000000" height="48.000000"/>
	<path id="合并" d="M21.1758 11.1719L9.29688 23.0508C8.90137 23.4453 8.90137 24.0684 9.29688 24.4648C9.69336 24.8594 10.3154 24.8594 10.7109 24.4648L22.5898 12.5859C22.7012 12.4746 22.8223 12.3789 22.9531 12.2969C23.0479 12.2383 23.1465 12.1895 23.251 12.1465C23.3604 12.1016 23.4717 12.0684 23.585 12.043C23.7217 12.0137 23.8613 12 24.0039 12C24.1475 12 24.2871 12.0137 24.4238 12.043C24.5371 12.0684 24.6484 12.1016 24.7578 12.1465C24.8613 12.1895 24.9609 12.2383 25.0557 12.2969C25.1855 12.3789 25.3066 12.4746 25.4189 12.5859L37.2969 24.4648C37.6934 24.8613 38.3154 24.8613 38.7109 24.4648C39.1074 24.0684 39.1074 23.4473 38.7109 23.0508L26.833 11.1719C26.626 10.9648 26.4014 10.7832 26.1611 10.6289L26.1602 10.6289C25.9551 10.498 25.7383 10.3867 25.5088 10.293C25.2793 10.1992 25.0449 10.1289 24.8066 10.0801C24.5449 10.0273 24.2773 10 24.0049 10C23.7314 10 23.4639 10.0273 23.2021 10.0801C22.9639 10.1289 22.7295 10.1992 22.5 10.293C22.2705 10.3867 22.0527 10.498 21.8477 10.6289C21.6074 10.7832 21.3828 10.9648 21.1758 11.1719ZM13.0029 24.7578C13.0029 24.1973 13.4424 23.7578 14.0029 23.7578C14.5625 23.7578 15.0029 24.1973 15.0029 24.7578L15.0029 32.2129C15.0029 32.4473 15.0283 32.6738 15.0791 32.8945C15.1182 33.0605 15.1709 33.2227 15.2383 33.3809C15.3076 33.5449 15.3906 33.7012 15.4863 33.8496C15.5996 34.0234 15.7314 34.1855 15.8818 34.334C16.0312 34.4844 16.1934 34.6172 16.3672 34.7305C16.5146 34.8262 16.6709 34.9082 16.835 34.9785C16.9941 35.0449 17.1562 35.0977 17.3223 35.1367C17.543 35.1875 17.7695 35.2129 18.0029 35.2129L19.0029 35.2129L19.0029 29.5762C19.0029 29.2227 19.04 28.875 19.1152 28.5371L19.1152 28.5371C19.1777 28.252 19.2666 27.9746 19.3818 27.7012C19.498 27.4258 19.6367 27.166 19.7979 26.9219C19.9756 26.6543 20.1816 26.4023 20.4141 26.1699C20.6475 25.9355 20.8984 25.7305 21.168 25.5527L21.168 25.5527C21.4121 25.3906 21.6719 25.2539 21.9453 25.1367C22.2188 25.0215 22.498 24.9316 22.7832 24.8691C23.1211 24.7949 23.4668 24.7578 23.8213 24.7578C24.1758 24.7578 24.5215 24.7949 24.8594 24.8691L24.8594 24.8691L24.8604 24.8691C25.1445 24.9316 25.4238 25.0215 25.6973 25.1367C25.9717 25.252 26.2305 25.3906 26.4746 25.5527L26.4746 25.5527L26.4746 25.5527C26.7441 25.7305 26.9951 25.9355 27.2285 26.1699C27.4619 26.4023 27.667 26.6543 27.8447 26.9219C28.0059 27.166 28.1445 27.4258 28.2607 27.7012C28.376 27.9746 28.4658 28.252 28.5283 28.5371C28.6025 28.875 28.6396 29.2227 28.6396 29.5762L28.6396 35.2129L30.3672 35.2129C30.5996 35.2129 30.8262 35.1875 31.0479 35.1367C31.2129 35.0977 31.375 35.0449 31.5342 34.9785C31.6992 34.9082 31.8545 34.8262 32.002 34.7305C32.1758 34.6172 32.3379 34.4844 32.4883 34.334C32.6377 34.1855 32.7695 34.0234 32.8828 33.8496C32.9785 33.7012 33.0615 33.5449 33.1318 33.3809C33.1982 33.2227 33.252 33.0605 33.29 32.8945C33.3408 32.6738 33.3672 32.4453 33.3672 32.2129L33.3672 24.7578C33.3672 24.1973 33.8066 23.7578 34.3672 23.7578C34.9268 23.7578 35.3672 24.1973 35.3672 24.7578L35.3672 32.2129C35.3672 32.582 35.3281 32.9414 35.251 33.291C35.1855 33.5879 35.0938 33.877 34.9736 34.1602C34.8535 34.4453 34.709 34.7129 34.542 34.9668C34.3574 35.2461 34.1445 35.5078 33.9023 35.75C33.6602 35.9902 33.3994 36.2051 33.1201 36.3887C32.8662 36.5566 32.5977 36.6992 32.3135 36.8203C32.0303 36.9395 31.7402 37.0332 31.4453 37.0977C31.0938 37.1758 30.7344 37.2129 30.3672 37.2129L18.0029 37.2129C17.6348 37.2129 17.2754 37.1758 16.9248 37.0977C16.6289 37.0332 16.3398 36.9395 16.0566 36.8203C15.7715 36.6992 15.5029 36.5566 15.25 36.3887C14.9697 36.2051 14.709 35.9902 14.4668 35.75C14.2256 35.5078 14.0117 35.2461 13.8271 34.9668C13.6602 34.7129 13.5166 34.4453 13.3965 34.1602C13.2764 33.877 13.1836 33.5879 13.1182 33.291C13.041 32.9414 13.0029 32.582 13.0029 32.2129L13.0029 24.7578ZM26.6396 29.5762L26.6396 35.2129L21.0029 35.2129L21.0029 29.5762C21.0029 29.3574 21.0273 29.1426 21.0762 28.9355L21.0762 28.9355C21.1113 28.7812 21.1611 28.6289 21.2246 28.4785C21.2891 28.3262 21.3672 28.1797 21.457 28.041L21.457 28.041C21.5635 27.877 21.6875 27.7246 21.8291 27.584C21.9697 27.4414 22.1221 27.3184 22.2852 27.2129L22.2852 27.2129C22.4238 27.1211 22.5703 27.0449 22.7246 26.9785C22.874 26.916 23.0254 26.8672 23.1807 26.8301L23.1807 26.8301C23.3887 26.7812 23.6025 26.7578 23.8213 26.7578C24.041 26.7578 24.2539 26.7812 24.4619 26.8301L24.4619 26.8301L24.4619 26.8301C24.6172 26.8672 24.7695 26.916 24.918 26.9785C25.0723 27.0449 25.2188 27.1211 25.3574 27.2129L25.3574 27.2129C25.5205 27.3184 25.6729 27.4414 25.8145 27.584C25.9551 27.7246 26.0791 27.877 26.1855 28.041C26.2754 28.1777 26.3535 28.3242 26.4189 28.4785C26.4814 28.6289 26.5312 28.7812 26.5674 28.9355C26.6152 29.1426 26.6396 29.3574 26.6396 29.5762Z" clip-rule="evenodd" fill="#000000" fill-opacity="0.860000" fill-rule="evenodd"/>
</svg>
