<svg width="50.000000" height="48.000000" viewBox="0 0 50 48" fill="none" xmlns="http://www.w3.org/2000/svg" xmlns:xlink="http://www.w3.org/1999/xlink">
	<desc>
			Created with Pixso.
	</desc>
	<defs/>
	<rect id="矩形 277" rx="8.000000" width="50.000000" height="48.000000" fill="#DDDDE4" fill-opacity="1.000000"/>
	<path id="合并" d="M22.0576 11.1719L9.68359 23.0508C9.27051 23.4453 9.27051 24.0684 9.68359 24.4648C10.0957 24.8594 10.7441 24.8594 11.1562 24.4648L23.5303 12.5859C23.6465 12.4746 23.7725 12.3789 23.9082 12.2969C24.0068 12.2383 24.1104 12.1895 24.2188 12.1465C24.333 12.1016 24.4492 12.0684 24.5674 12.043C24.709 12.0137 24.8545 12 25.0039 12C25.1523 12 25.2979 12.0137 25.4404 12.043C25.5586 12.0684 25.6738 12.1016 25.7881 12.1465C25.8965 12.1895 26 12.2383 26.0986 12.2969C26.2344 12.3789 26.3604 12.4746 26.4766 12.5859L38.8496 24.4648C39.2627 24.8613 39.9111 24.8613 40.3232 24.4648C40.7354 24.0684 40.7354 23.4473 40.3232 23.0508L27.9502 11.1719Q27.6816 10.9141 27.3779 10.7109Q27.3145 10.6699 27.25 10.6289C27.0361 10.498 26.8096 10.3867 26.5713 10.293C26.332 10.1992 26.0879 10.1289 25.8389 10.0801C25.5664 10.0273 25.2881 10 25.0039 10Q24.5771 10 24.168 10.0801C23.9189 10.1289 23.6758 10.1992 23.4365 10.293C23.1973 10.3867 22.9707 10.498 22.7568 10.6289C22.5059 10.7832 22.2734 10.9648 22.0576 11.1719ZM13.584 24.7637C13.584 24.2031 14.0244 23.7637 14.584 23.7637C15.1445 23.7637 15.584 24.2031 15.584 24.7637L15.584 32.2188Q15.584 32.5684 15.6611 32.9004L15.6611 32.9004Q15.7188 33.1484 15.8193 33.3867Q15.9238 33.6328 16.0684 33.8555Q16.2383 34.1152 16.4629 34.3398Q16.6875 34.5664 16.9482 34.7363Q17.1699 34.8789 17.417 34.9844Q17.6553 35.084 17.9033 35.1426Q18.2354 35.2188 18.584 35.2188L19.835 35.2188L19.835 29.7402Q19.835 29.1914 19.9502 28.668L19.9502 28.668L19.9502 28.668Q20.0479 28.2266 20.2266 27.8027Q20.4062 27.3789 20.6562 27L20.6562 27Q20.9316 26.582 21.293 26.2207Q21.6543 25.8613 22.0713 25.584L22.0713 25.584L22.0713 25.584Q22.4502 25.334 22.874 25.1562Q23.2979 24.9766 23.7393 24.8789Q24.2627 24.7637 24.8125 24.7637Q25.3613 24.7637 25.8848 24.8789L25.8857 24.8789L25.8857 24.8789L25.8857 24.8789Q26.3271 24.9766 26.75 25.1562Q27.1738 25.334 27.5518 25.584L27.5527 25.584L27.5527 25.584Q27.9707 25.8613 28.332 26.2207Q28.6934 26.582 28.9688 27L28.9688 27Q29.2188 27.3789 29.3984 27.8027Q29.5771 28.2266 29.6738 28.668L29.6738 28.668L29.6748 28.668Q29.79 29.1914 29.79 29.7402L29.79 35.2188L31.7969 35.2188Q32.1465 35.2188 32.4775 35.1426L32.4775 35.1426Q32.7256 35.084 32.9639 34.9844Q33.2109 34.8789 33.4326 34.7363L33.4326 34.7363Q33.6934 34.5664 33.918 34.3398Q34.1436 34.1152 34.3125 33.8555L34.3135 33.8555Q34.457 33.6348 34.5615 33.3867Q34.6621 33.1484 34.7197 32.9004L34.7197 32.9004L34.7197 32.9004Q34.7969 32.5684 34.7969 32.2188L34.7969 24.7637C34.7969 24.2031 35.2373 23.7637 35.7969 23.7637C36.3564 23.7637 36.7969 24.2031 36.7969 24.7637L36.7969 32.2188Q36.7969 32.7715 36.6807 33.2969Q36.583 33.7402 36.4033 34.166Q36.2236 34.5918 35.9727 34.9727L35.9727 34.9727Q35.6953 35.3926 35.332 35.7559Q34.9697 36.1172 34.5498 36.3945Q34.1699 36.6465 33.7432 36.8262Q33.3184 37.0059 32.875 37.1035Q32.3486 37.2188 31.7969 37.2188L18.584 37.2188Q18.0322 37.2188 17.5059 37.1035L17.5059 37.1035L17.5059 37.1035Q17.0625 37.0059 16.6377 36.8262Q16.2109 36.6465 15.8311 36.3945L15.8311 36.3945Q15.4121 36.1172 15.0488 35.7559Q14.6855 35.3926 14.4092 34.9727Q14.1582 34.5918 13.9775 34.166Q13.7979 33.7402 13.7002 33.2969Q13.584 32.7715 13.584 32.2188L13.584 24.7637ZM27.79 29.7402L27.79 35.2188L21.835 35.2188L21.835 29.7402Q21.835 29.3945 21.9111 29.0664L21.9111 29.0664Q21.9688 28.8184 22.0684 28.582Q22.1719 28.3379 22.3154 28.1172L22.3154 28.1172L22.3154 28.1172Q22.4844 27.8594 22.707 27.6367Q22.9297 27.4121 23.1895 27.2441L23.1895 27.2441Q23.4092 27.1016 23.6533 26.998Q23.8896 26.8965 24.1367 26.8398Q24.4658 26.7637 24.8125 26.7637Q25.1592 26.7637 25.4883 26.8398Q25.7344 26.8965 25.9707 26.998Q26.2158 27.1016 26.4355 27.2441L26.4355 27.2441L26.4355 27.2441L26.4365 27.2441Q26.6943 27.4121 26.918 27.6367Q27.1406 27.8594 27.3096 28.1172L27.3096 28.1191Q27.4521 28.3379 27.5557 28.582Q27.6562 28.8184 27.7129 29.0664L27.7129 29.0664Q27.79 29.3945 27.79 29.7402Z" clip-rule="evenodd" fill="#000000" fill-opacity="0.860000" fill-rule="evenodd"/>
</svg>
