<svg width="48.000000" height="48.000000" viewBox="0 0 48 48" fill="none" xmlns="http://www.w3.org/2000/svg" xmlns:xlink="http://www.w3.org/1999/xlink">
	<desc>
			Created with Pixso.
	</desc>
	<defs/>
	<rect width="48.000000" height="48.000000"/>
	<path id="合并" d="M33.5674 33.4043C32.2939 34.666 30.8906 35.6172 29.3564 36.2578C27.7822 36.9141 26.0703 37.2422 24.2217 37.2422C22.373 37.2422 20.6611 36.9141 19.0869 36.2578C17.5527 35.6172 16.1494 34.666 14.876 33.4023C13.5674 32.1035 12.5898 30.6699 11.9443 29.0996C11.3145 27.5703 11 25.9102 11 24.1211C11 22.332 11.3145 20.6719 11.9443 19.1426C12.5898 17.5723 13.5674 16.1387 14.876 14.8398C16.1494 13.5762 17.5527 12.625 19.0869 11.9863C20.6611 11.3281 22.373 11 24.2217 11C26.0713 11 27.7822 11.3281 29.3574 11.9863C30.8916 12.625 32.2949 13.5762 33.5684 14.8398C34.877 16.1387 35.8545 17.5723 36.5 19.1426C36.8828 20.0723 37.1494 21.0508 37.2988 22.0762L38.3086 20.3242C38.5879 19.8379 39.1885 19.6777 39.6729 19.957C40.1582 20.2383 40.3193 20.8398 40.04 21.3242L37.3428 26.0098L32.6689 23.3047C32.1846 23.0234 32.0234 22.4219 32.3027 21.9375C32.582 21.4512 33.1826 21.291 33.668 21.5703L35.3428 22.541C35.2207 21.6211 34.9893 20.7441 34.6484 19.9141C34.1016 18.5801 33.2715 17.3633 32.1602 16.2598C31.0811 15.1895 29.8926 14.3828 28.5938 13.8398C27.2539 13.2793 25.7969 13 24.2217 13C22.6475 13 21.1904 13.2793 19.8506 13.8398C18.5518 14.3828 17.3623 15.1895 16.2842 16.2598C15.1729 17.3633 14.3428 18.5801 13.7959 19.9141C13.2656 21.207 13 22.6094 13 24.1211C13 25.6328 13.2656 27.0352 13.7959 28.3281C14.3428 29.6621 15.1729 30.8809 16.2842 31.9824C17.3623 33.0527 18.5518 33.8594 19.8506 34.4023C21.1904 34.9629 22.6475 35.2422 24.2217 35.2422C25.7959 35.2422 27.2529 34.9629 28.5928 34.4023C29.8916 33.8594 31.0811 33.0527 32.1592 31.9824C32.5566 31.5879 33.1797 31.5918 33.5732 31.9883C33.9678 32.3867 33.9648 33.0098 33.5674 33.4043Z" clip-rule="evenodd" fill="#000000" fill-opacity="0.860000" fill-rule="evenodd"/>
</svg>
