<svg width="48.000000" height="48.000000" viewBox="0 0 48 48" fill="none" xmlns="http://www.w3.org/2000/svg" xmlns:xlink="http://www.w3.org/1999/xlink">
	<desc>
			Created with Pixso.
	</desc>
	<defs/>
	<rect width="48.000000" height="48.000000"/>
	<rect id="矩形 276" rx="8.000000" width="48.000000" height="48.000000" fill="#DDDDE4" fill-opacity="1.000000"/>
	<path id="合并" d="M33.5654 33.4043Q31.6553 35.2969 29.3545 36.2578Q26.9932 37.2422 24.2197 37.2422Q21.4473 37.2422 19.085 36.2578Q16.7842 35.2969 14.874 33.4023Q12.9111 31.4551 11.9424 29.0996Q10.998 26.8047 10.998 24.1211Q10.998 21.4375 11.9424 19.1426Q12.9111 16.7871 14.874 14.8398Q16.7842 12.9453 19.085 11.9863Q21.4473 11 24.2197 11Q26.9932 11 29.3555 11.9863Q31.6562 12.9453 33.5664 14.8398Q35.5293 16.7871 36.498 19.1426Q37.0732 20.541 37.2979 22.084L38.3115 20.3242C38.5908 19.8379 39.1914 19.6777 39.6758 19.957C40.1611 20.2383 40.3223 20.8398 40.043 21.3242L37.3457 26.0098L32.6719 23.3047C32.1875 23.0234 32.0264 22.4219 32.3057 21.9375C32.585 21.4512 33.1855 21.291 33.6709 21.5703L35.3398 22.5371Q35.1572 21.1582 34.6465 19.9141Q33.8252 17.9141 32.1582 16.2598Q30.54 14.6562 28.5918 13.8398Q26.582 13 24.2197 13Q21.8584 13 19.8486 13.8398Q17.9004 14.6562 16.2822 16.2598Q14.6152 17.9141 13.7939 19.9141Q12.998 21.8535 12.998 24.1211Q12.998 26.3887 13.7939 28.3281Q14.6152 30.3281 16.2822 31.9824Q17.9004 33.5879 19.8486 34.4023Q21.8584 35.2422 24.2197 35.2422Q26.5811 35.2422 28.5908 34.4023Q30.5391 33.5879 32.1572 31.9824C32.5547 31.5879 33.1777 31.5918 33.5713 31.9883C33.9658 32.3867 33.9629 33.0098 33.5654 33.4043Z" clip-rule="evenodd" fill="#000000" fill-opacity="0.860000" fill-rule="evenodd"/>
</svg>
