<svg width="48.000000" height="48.000000" viewBox="0 0 48 48" fill="none" xmlns="http://www.w3.org/2000/svg" xmlns:xlink="http://www.w3.org/1999/xlink">
	<desc>
			Created with Pixso.
	</desc>
	<defs/>
	<rect width="48.000000" height="48.000000"/>
	<path id="合并" d="M36.6777 22.6289L17.6201 10.5137C17.0762 10.168 16.5332 9.99609 15.9912 10L15.9912 10C15.4492 10.0039 14.9092 10.1816 14.3691 10.5332C13.8301 10.8867 13.4492 11.3105 13.2295 11.8047L13.2295 11.8047C13.0088 12.2988 12.9473 12.8652 13.0449 13.502L14.6895 24.1641C14.7051 24.2656 14.7051 24.3672 14.6895 24.4688L13.0459 35.1289C12.9473 35.7656 13.0088 36.332 13.2295 36.8262C13.4492 37.3223 13.8301 37.7461 14.3691 38.0977C14.9092 38.4512 15.4492 38.6289 15.9912 38.6328C16.5332 38.6348 17.0762 38.4648 17.6201 38.1191L36.6777 26.0039C36.9863 25.8066 37.2188 25.5684 37.373 25.2871C37.5273 25.0059 37.6045 24.6816 37.6045 24.3164C37.6045 23.9492 37.5273 23.627 37.373 23.3457C37.2188 23.0645 36.9863 22.8242 36.6777 22.6289ZM15.4629 12.209C15.8232 11.9727 16.1846 11.9707 16.5469 12.2012L35.6045 24.3164L16.5469 36.4297C16.1846 36.6602 15.8232 36.6582 15.4629 36.4238C15.2832 36.3066 15.1572 36.166 15.083 36C15.0098 35.8359 14.9893 35.6465 15.0225 35.4336L16.583 25.3164L22.5156 25.3164C23.0762 25.3164 23.5156 24.877 23.5156 24.3164C23.5156 23.7559 23.0762 23.3164 22.5156 23.3164L16.583 23.3164L15.0225 13.1973C14.9561 12.7734 15.1035 12.4434 15.4629 12.209Z" clip-rule="evenodd" fill="#000000" fill-opacity="0.860000" fill-rule="evenodd"/>
</svg>
