<svg viewBox="0 0 240 240" xmlns="http://www.w3.org/2000/svg" xmlns:xlink="http://www.w3.org/1999/xlink" width="240.000000" height="240.000000" fill="none">
	<defs>
		<linearGradient id="paint_linear_0" x1="179.839905" x2="51.1244049" y1="198.354156" y2="50.2429504" gradientUnits="userSpaceOnUse">
			<stop stop-color="rgb(82,140,255)" offset="0" stop-opacity="1" />
			<stop stop-color="rgb(152,186,255)" offset="1" stop-opacity="1" />
		</linearGradient>
		<radialGradient id="paint_radial_0" cx="0" cy="0" r="1" gradientUnits="userSpaceOnUse" gradientTransform="matrix(38.4434,0,0,38.4434,152.243,72.8758)">
			<stop stop-color="rgb(255,254.745,254.745)" offset="0" stop-opacity="1" />
			<stop stop-color="rgb(255,254.745,254.745)" offset="1" stop-opacity="0" />
		</radialGradient>
	</defs>
	<rect id="start_icon 1" width="240.000015" height="240.000015" x="0.000000" y="0.000000" />
	<rect id="画板 272" width="240.000015" height="240.000015" x="0.000000" y="0.000000" fill="rgb(255,255,255)" fill-opacity="0" />
	<g id="组合 508">
		<path id="circle" d="M22.0312 120C22.0312 65.8933 65.8933 22.0312 120 22.0312C174.107 22.0312 217.969 65.8933 217.969 120C217.969 174.107 174.107 217.969 120 217.969C65.8933 217.969 22.0312 174.107 22.0312 120Z" fill="url(#paint_linear_0)" fill-opacity="0.899999976" fill-rule="evenodd" />
		<path id="合并" d="M41.1802 94.7272C43.7337 95.6352 47.5284 95.6402 52.6797 92.3005C52.6797 92.3005 57.3721 92.0573 58.6537 98.1181C58.6537 98.1181 53.3549 126.554 69.4709 128.215C69.4709 128.215 75.2895 131.455 77.1148 138.555C77.1148 138.555 81.333 143.545 84.3162 139.257C85.3602 137.756 84.8883 133.887 84.3381 129.378C83.3164 121.002 82.0252 110.417 89.6752 108.691C89.6752 108.691 92.9836 109.371 94.5647 104.984C94.9128 104.019 95.7051 103.244 96.7301 103.193C100.243 103.018 108.003 103.234 108.737 108.461C108.737 108.461 111.456 122.082 115.631 120.248C115.631 120.248 119.692 123.891 119.365 103.489C119.365 103.489 125.461 80.7775 131.668 84.2888C132.295 84.6438 132.8 84.6364 133.106 83.9836C134.047 81.9778 135.128 77.8858 126.5 80.6296C125.468 80.958 124.687 81.8142 123.967 82.6238C123.148 83.5444 121.68 84.5948 119.191 84.754C119.173 84.7558 110.809 85.5186 107.316 80.9351C106.336 79.6493 106.948 76.642 108.103 75.5107C110.378 73.2817 114.203 70.7933 118.084 73.885C118.385 74.1244 118.776 74.2326 119.111 74.0455C120.414 73.3195 123.532 70.4887 123.565 60.0136C123.57 58.7509 124.506 57.666 125.74 57.396C128.585 56.7731 133.062 55.242 132.13 51.8669C132.13 51.8669 137.202 47.3626 125.353 41.0362C125.353 41.0362 123.12 35.4636 130.102 37.0602C134.778 38.1298 133.234 36.4604 131.705 35.2421C130.758 34.4879 129.554 34.1644 128.345 34.1893L105.462 34.6616C105.462 34.6616 59.3741 32.8652 38.8317 86.8465C37.6723 89.8928 38.1091 93.6352 41.1802 94.7272ZM200.602 124.957C200.48 117.659 199.481 110.375 198.796 102.148C200.056 97.1717 196.638 93.619 193.206 90.0515C192.574 89.3941 191.94 88.7364 191.336 88.0691C189.274 85.7972 186.054 86.1346 183.691 88.3307C181.092 90.7541 180.128 93.8866 180.914 97.15C181.478 99.4975 180.55 100.551 178.973 102.004C175.724 104.998 172.42 108.048 169.814 111.546C163.853 119.559 164.803 127.008 171.784 134.189C175.018 137.514 177.802 141.246 180.707 144.86C181.328 145.631 181.82 146.651 181.97 147.614C182.513 151.077 183.391 151.697 186.725 150.326C188.117 149.755 189.48 148.935 190.615 147.972C197.81 141.879 200.752 133.886 200.602 124.957ZM109.368 171.911C109.529 170.805 104.868 161.745 100.416 153.409C96.4108 145.909 85.8394 125.685 103.619 126.21C118.711 126.655 126.654 141.816 128.71 146.389C129.065 147.18 129.787 147.756 130.637 147.927C145.301 150.89 135.228 161.25 135.228 161.25C127.132 168.612 126.598 176.461 126.888 180.128C126.985 181.346 128.153 181.986 129.341 182.268C131.892 182.874 131.676 185.697 131.676 185.697C127.825 201.336 116.905 205.567 116.905 205.567C116.905 205.567 109.871 205.191 105.314 204.455C101.751 203.877 95.2991 201.663 92.6554 200.725C92.0121 200.496 91.6966 199.775 91.9594 199.145L93.8011 194.729C96.4762 184.657 105.575 184.526 109.409 184.946C110.444 185.06 111.543 184.629 111.858 183.637C113.049 179.883 111.053 175.707 109.98 173.462C109.603 172.671 109.339 172.121 109.368 171.911Z" fill="rgb(216,235,254)" fill-rule="evenodd" />
		<g id="组合 656">
			<path id="椭圆 241" d="M113.8 72.8758C113.8 51.6441 131.011 34.4324 152.243 34.4324C173.474 34.4324 190.686 51.6441 190.686 72.8758C190.686 94.1075 173.474 111.319 152.243 111.319C131.011 111.319 113.8 94.1075 113.8 72.8758Z" fill="url(#paint_radial_0)" fill-opacity="0.200000003" fill-rule="evenodd" />
		</g>
	</g>
</svg>
