<?xml version="1.0" standalone="no"?><!DOCTYPE svg PUBLIC "-//W3C//DTD SVG 1.1//EN" "http://www.w3.org/Graphics/SVG/1.1/DTD/svg11.dtd"><svg t="1716282917186" class="icon" viewBox="0 0 1024 1024" version="1.1" xmlns="http://www.w3.org/2000/svg" p-id="5020" xmlns:xlink="http://www.w3.org/1999/xlink" width="200" height="200"><path d="M943.750219 173.288373c0-19.438991-12.78881-38.877982-32.227801-38.877982h-38.877982s-83.894592 0-167.789184-38.877982c-90.033221-25.57762-148.350194-71.105782-148.350194-71.105782l-25.57762-19.438991c-12.78881-6.650181-32.227801-6.650181-45.01661 0l-19.438991 19.438991s-57.80542 38.877982-148.350193 77.244411c-83.894592 32.227801-161.139003 38.877982-167.789185 38.877982h-38.877982c-19.438991 0-32.227801 19.438991-32.2278 38.877981v393.38379c0 103.333583 57.80542 212.805795 154.488822 309.489197C325.283377 972.333208 434.755589 1024 512 1024s186.716623-51.666792 277.261396-141.700012c103.333583-96.683402 154.488822-206.155614 154.488823-309.489197V173.288373z m-212.805795 245.033595l-238.383415 238.383415c-6.650181 6.650181-19.438991 12.78881-32.227801 12.78881s-25.57762-6.650181-32.2278-12.78881l-116.122393-122.261022c-6.650181-6.650181-12.78881-19.438991-12.78881-32.2278s6.650181-25.57762 12.78881-32.227801c19.438991-19.438991 45.01661-19.438991 64.455601 0L460.333208 553.3718l206.155614-206.155614c19.438991-19.438991 45.01661-19.438991 64.455602 0 6.650181 6.650181 12.78881 19.438991 12.788809 32.227801 0.511552 19.438991 0.511552 32.227801-12.788809 38.877981z" fill="#070001" p-id="5021"></path></svg>