<svg viewBox="0 0 262 262" xmlns="http://www.w3.org/2000/svg" xmlns:xlink="http://www.w3.org/1999/xlink" width="262" height="262" fill="none">
	<rect id="容器 1" width="262" height="262" x="0" y="0" fill="rgb(255,255,255)" fill-opacity="0" />
	<path id="合并" d="M217.553 45L43.6792 45C31.149 45 21 55.0692 21 67.5011L21 180.007C21 192.439 31.149 202.508 43.6792 202.508L56.8371 202.508C62.4908 202.508 67.9056 200.228 71.8569 196.184L117.897 149.068C124.323 142.486 137.609 142.486 144.035 149.068L190.075 196.184C194.026 200.228 199.441 202.508 205.095 202.508L217.534 202.508C230.065 202.508 240.214 192.439 240.214 180.007L240.214 67.5011C240.214 55.0692 230.084 45 217.553 45ZM85.8183 205.376L123.806 166.487C127.491 162.718 135.146 162.718 138.831 166.487L176.819 205.376C181.203 209.877 176.838 216.158 169.316 216.158L93.3214 216.158C85.7805 216.158 81.4148 209.877 85.8183 205.376Z" fill="rgb(50,119,255)" fill-rule="evenodd" />
</svg>
