<?xml version="1.0" standalone="no"?><!DOCTYPE svg PUBLIC "-//W3C//DTD SVG 1.1//EN" "http://www.w3.org/Graphics/SVG/1.1/DTD/svg11.dtd"><svg t="1723098873612" class="icon" viewBox="0 0 1024 1024" version="1.1" xmlns="http://www.w3.org/2000/svg" p-id="1521" xmlns:xlink="http://www.w3.org/1999/xlink" width="200" height="200"><path d="M512 971.093333a116.053333 116.053333 0 1 1 116.053333-116.053333 114.346667 114.346667 0 0 1-116.053333 116.053333z m0-180.906666a64.853333 64.853333 0 1 0 64.853333 64.853333 64.853333 64.853333 0 0 0-64.853333-64.853333zM723.626667 698.026667a22.186667 22.186667 0 0 1-17.066667-6.826667 240.64 240.64 0 0 0-63.146667-46.08 27.306667 27.306667 0 0 1-10.24-35.84 27.306667 27.306667 0 0 1 35.84-10.24 336.213333 336.213333 0 0 1 73.386667 56.32 23.893333 23.893333 0 0 1 0 35.84 25.6 25.6 0 0 1-18.773333 6.826667z m-423.253334 0a25.6 25.6 0 0 1-18.773333-6.826667 23.893333 23.893333 0 0 1 0-35.84 336.213333 336.213333 0 0 1 73.386667-56.32 25.6 25.6 0 1 1 25.6 46.08 240.64 240.64 0 0 0-63.146667 46.08 23.893333 23.893333 0 0 1-17.066667 6.826667zM172.373333 571.733333a20.48 20.48 0 0 1-17.066666-8.533333 25.6 25.6 0 0 1 0-35.84 503.466667 503.466667 0 0 1 172.373333-112.64 23.893333 23.893333 0 0 1 32.426667 13.653333 27.306667 27.306667 0 0 1-13.653334 34.133334 428.373333 428.373333 0 0 0-155.306666 100.693333 27.306667 27.306667 0 0 1-18.773334 8.533333z m679.253334 0a27.306667 27.306667 0 0 1-18.773334-8.533333 428.373333 428.373333 0 0 0-155.306666-100.693333 27.306667 27.306667 0 0 1-13.653334-34.133334 23.893333 23.893333 0 0 1 32.426667-13.653333 503.466667 503.466667 0 0 1 172.373333 112.64 23.893333 23.893333 0 0 1 0 35.84 20.48 20.48 0 0 1-17.066666 8.533333zM962.56 428.373333a35.84 35.84 0 0 1-18.773333-6.826666 607.573333 607.573333 0 0 0-237.226667-139.946667 25.6 25.6 0 0 1 17.066667-49.493333 699.733333 699.733333 0 0 1 256 151.893333 25.6 25.6 0 0 1 1.706666 35.84 27.306667 27.306667 0 0 1-18.773333 8.533333z m-901.12 0a27.306667 27.306667 0 0 1-18.773333-8.533333 25.6 25.6 0 0 1 1.706666-35.84 699.733333 699.733333 0 0 1 256-151.893333 25.6 25.6 0 0 1 17.066667 49.493333 607.573333 607.573333 0 0 0-237.226667 139.946667 35.84 35.84 0 0 1-18.773333 6.826666zM512 665.6a78.506667 78.506667 0 0 1-78.506667-71.68l-34.133333-419.84a117.76 117.76 0 0 1 29.013333-85.333333 116.053333 116.053333 0 0 1 167.253334 0 117.76 117.76 0 0 1 29.013333 85.333333l-34.133333 419.84A78.506667 78.506667 0 0 1 512 665.6z m-61.44-494.933333l34.133333 419.84a27.306667 27.306667 0 0 0 54.613334 0l34.133333-419.84a66.56 66.56 0 0 0-15.36-47.786667 66.56 66.56 0 0 0-92.16 0 66.56 66.56 0 0 0-15.36 47.786667z" fill="#333333" p-id="1522"></path></svg>