<svg viewBox="0 0 48 48" xmlns="http://www.w3.org/2000/svg" xmlns:xlink="http://www.w3.org/1999/xlink" width="48" height="48" fill="none">
	<rect id="协议icon" width="48" height="48" x="0" y="0" />
	<path id="合并" d="M30.3117 4C34.4431 4 37.7922 7.58172 37.7922 12L37.7922 32L37.6083 32L37.7218 32.0246C38.2522 32.1415 38.7444 32.333 39.1983 32.599C39.2999 32.6586 39.3996 32.7219 39.4974 32.7889C39.5229 32.8063 39.5481 32.824 39.5733 32.8419C39.7401 32.9608 39.8993 33.0893 40.0509 33.2274C40.151 33.3186 40.2478 33.414 40.3413 33.5136C40.5549 33.7411 40.751 33.9906 40.9298 34.2618C40.9674 34.319 41.0041 34.3768 41.0399 34.4353L41.0403 34.436C41.1106 34.5511 41.1771 34.6688 41.2399 34.7892C41.445 35.182 41.6103 35.6026 41.7357 36.051C41.7851 36.2275 41.8276 36.4056 41.8631 36.5852C41.8759 36.6497 41.8877 36.7144 41.8987 36.7793C41.9662 37.1785 42 37.5854 42 37.9999L42 38.0006C42 38.4154 41.9661 38.8225 41.8985 39.222C41.8569 39.4676 41.8025 39.7104 41.7354 39.9502C41.6098 40.3986 41.4445 40.8192 41.2393 41.212C41.1444 41.3937 41.041 41.5694 40.9291 41.7391C40.7503 42.0103 40.5542 42.2597 40.3406 42.4872C40.1056 42.7375 39.8495 42.9613 39.5724 43.1587C39.5321 43.1875 39.4914 43.2155 39.4505 43.2429C38.9281 43.5926 38.3528 43.8365 37.7246 43.9748L37.6102 44L13.4805 44C9.34914 44 6 40.4183 6 36L6 12C6 7.58172 9.34914 4 13.4805 4L30.3117 4ZM13.4805 41.2L14.8303 41.2C14.9417 41.1628 15.0601 41.1429 15.1832 41.1429L18.492 41.1429C18.9637 41.0224 19.3644 40.8034 19.6941 40.4858C19.84 40.3453 19.9719 40.1855 20.0899 40.0065C20.1179 39.9641 20.1448 39.921 20.1707 39.8771C20.315 39.6325 20.4282 39.3634 20.5104 39.0698C20.5266 39.0119 20.5415 38.9536 20.555 38.8949C20.5642 38.8549 20.5727 38.8148 20.5806 38.7745C20.6301 38.523 20.6548 38.2649 20.6549 38.0003L20.6549 37.9999C20.6549 37.7355 20.6302 37.4775 20.5808 37.2261C20.5612 37.1266 20.5378 37.0282 20.5106 36.9308C20.4285 36.6372 20.3153 36.3681 20.1711 36.1235C20.1451 36.0796 20.1182 36.0364 20.0903 35.994C19.9718 35.8141 19.8392 35.6537 19.6927 35.5127C19.6443 35.4662 19.5945 35.4218 19.5431 35.3796C19.2443 35.1338 18.8939 34.9597 18.4921 34.8571L15.1832 34.8571C14.4915 34.8571 13.9481 34.2286 13.9481 33.4286C13.9481 32.6286 14.4915 32 15.1832 32L35.174 32L35.174 12C35.174 11.5884 35.1309 11.1877 35.0447 10.7978C34.9829 10.5186 34.899 10.2449 34.793 9.97678C34.6817 9.6954 34.5496 9.42847 34.3966 9.17598C34.3419 9.08564 34.2845 8.99715 34.2244 8.91051C34.0814 8.7042 33.9232 8.50838 33.7499 8.32304C33.5038 8.05992 33.238 7.82941 32.9525 7.63151L32.9524 7.63149C32.7163 7.46786 32.4667 7.32653 32.2035 7.20749C31.9528 7.09409 31.6969 7.00435 31.4357 6.93829C31.0712 6.8461 30.6965 6.8 30.3117 6.8L13.4805 6.8C13.1418 6.8 12.8109 6.83571 12.488 6.90713L12.4873 6.90728C12.4436 6.91695 12.4 6.92729 12.3566 6.93827C12.0954 7.00434 11.8394 7.09408 11.5887 7.20749C11.3255 7.32652 11.0759 7.46785 10.8398 7.63147C10.5542 7.82938 10.2884 8.0599 10.0423 8.32304C9.79627 8.58619 9.58071 8.87048 9.39566 9.1759C9.24266 9.42841 9.11051 9.69537 8.99921 9.97678C8.89318 10.2449 8.80928 10.5186 8.7475 10.7979L8.74749 10.7979L8.74748 10.798C8.66128 11.1877 8.61818 11.5884 8.61818 12L8.61818 36C8.61818 36.4116 8.66128 36.8122 8.74747 37.202C8.80925 37.4813 8.89316 37.7551 8.99921 38.0232C9.11044 38.3044 9.24248 38.5712 9.39535 38.8236L9.39546 38.8238L9.39556 38.8239L9.3956 38.824C9.45008 38.9139 9.50722 39.002 9.567 39.0883C9.71025 39.2951 9.8687 39.4913 10.0423 39.677C10.2884 39.9401 10.5543 40.1707 10.8399 40.3686C11.076 40.5322 11.3256 40.6735 11.5887 40.7925C11.8394 40.9059 12.0954 40.9957 12.3567 41.0618C12.7211 41.1539 13.0957 41.2 13.4805 41.2ZM14.4156 15.5C14.4156 14.6716 15.0872 14 15.9156 14C16.744 14 17.4156 14.6716 17.4156 15.5C17.4156 16.3284 16.744 17 15.9156 17C15.0872 17 14.4156 16.3284 14.4156 15.5ZM28.8117 14C29.6401 14 30.3117 14.6716 30.3117 15.5C30.3117 16.3284 29.6401 17 28.8117 17L20.5909 17C19.7625 17 19.0909 16.3284 19.0909 15.5C19.0909 14.6716 19.7625 14 20.5909 14L28.8117 14ZM14.4156 21.5C14.4156 20.6716 15.0872 20 15.9156 20C16.744 20 17.4156 20.6716 17.4156 21.5C17.4156 22.3284 16.744 23 15.9156 23C15.0872 23 14.4156 22.3284 14.4156 21.5ZM28.8117 20C29.6401 20 30.3117 20.6716 30.3117 21.5C30.3117 22.3284 29.6401 23 28.8117 23L20.5909 23C19.7625 23 19.0909 22.3284 19.0909 21.5C19.0909 20.6716 19.7625 20 20.5909 20L28.8117 20ZM14.4156 27.5C14.4156 26.6716 15.0872 26 15.9156 26C16.744 26 17.4156 26.6716 17.4156 27.5C17.4156 28.3284 16.744 29 15.9156 29C15.0872 29 14.4156 28.3284 14.4156 27.5ZM28.8117 26C29.6401 26 30.3117 26.6716 30.3117 27.5C30.3117 28.3284 29.6401 29 28.8117 29L20.5909 29C19.7625 29 19.0909 28.3284 19.0909 27.5C19.0909 26.6716 19.7625 26 20.5909 26L28.8117 26ZM31.2468 41.1052L31.2468 41.1429L37.3686 41.1429C37.8394 41.0223 38.2395 40.8034 38.5687 40.4863C38.7146 40.3458 38.8465 40.1859 38.9646 40.0068C38.9925 39.9645 39.0195 39.9213 39.0454 39.8774C39.1897 39.6328 39.303 39.3636 39.3852 39.07C39.4011 39.013 39.4158 38.9555 39.4291 38.8978L39.4298 38.8949L39.43 38.8937L39.4317 38.8863C39.4402 38.8493 39.4481 38.812 39.4554 38.7746C39.5049 38.523 39.5296 38.2649 39.5296 38.0003L39.5296 37.9999C39.5296 37.7354 39.5049 37.4774 39.4555 37.2259C39.436 37.1264 39.4126 37.028 39.3853 36.9306C39.3032 36.637 39.19 36.3679 39.0458 36.1232C39.0198 36.0792 38.9929 36.0361 38.965 35.9937C38.8443 35.8105 38.7091 35.6475 38.5596 35.5047C38.232 35.1919 37.8351 34.976 37.3691 34.8571L22.4 34.8571C22.5891 35.2304 22.7427 35.6284 22.861 36.0511C22.9281 36.291 22.9824 36.5337 23.0239 36.7793C23.0915 37.1785 23.1252 37.5854 23.1252 38L23.1252 38.0006C23.1252 38.4153 23.0914 38.8223 23.0237 39.2217C22.9822 39.4674 22.9278 39.7102 22.8606 39.95C22.7424 40.3723 22.5889 40.7699 22.4 41.1429L31.0413 41.1429C31.1101 41.1319 31.1786 41.1193 31.2468 41.1052Z" fill="rgb(49,122,247)" fill-rule="evenodd" />
</svg>
