<?xml version="1.0" encoding="UTF-8"?>
<svg width="60px" height="58px" viewBox="0 0 60 58" version="1.1" xmlns="http://www.w3.org/2000/svg" xmlns:xlink="http://www.w3.org/1999/xlink">
    <title>相机相框</title>
    <defs>
        <polygon id="path-1" points="0 0 60 0 60 57.6190476 0 57.6190476"></polygon>
    </defs>
    <g id="R005R012【应用】【蓝区】相机系统能力增强详细方案设计(2.23-已提供)" stroke="none" stroke-width="1" fill="none" fill-rule="evenodd">
        <g id="设置-相机水印开启" transform="translate(-481.000000, -550.000000)">
            <g id="相机相框" transform="translate(481.000000, 550.000000)">
                <g transform="translate(0.000000, 0.000000)" id="编组">
                    <g>
                        <mask id="mask-2" fill="white">
                            <use xlink:href="#path-1"></use>
                        </mask>
                        <g id="Clip-2"></g>
                        <path d="M5.7097366,4.79946696 C5.20619319,4.79946696 4.79809117,5.20769749 4.79809117,5.71139946 L4.79809117,51.9076482 C4.79809117,52.4113501 5.20596809,52.8195807 5.7097366,52.8195807 L54.2903084,52.8195807 C54.7940769,52.8195807 55.2019538,52.4113501 55.2019538,51.9076482 L55.2019538,5.71139946 C55.2019538,5.20769749 54.7938518,4.79946696 54.2903084,4.79946696 L5.7097366,4.79946696 Z M54.2903084,57.5951798 L5.7097366,57.5951798 C2.5669234,57.5951798 -9.00390544e-05,55.0271328 -9.00390544e-05,51.88333 L-9.00390544e-05,5.71139946 C-9.00390544e-05,2.56759661 2.5669234,0 5.7097366,0 L54.2903084,0 C57.4331216,0 60.0001351,2.56759661 60.0001351,5.71139946 L60.0001351,51.9076482 C60.0001351,55.0512258 57.4331216,57.6190476 54.2903084,57.6190476 L54.2903084,57.5951798 Z" id="Fill-1" fill="#FFFFFF" mask="url(#mask-2)"></path>
                    </g>
                    <path d="M15.3058289,14.3987161 C14.8025106,14.3987161 14.3941835,14.8069467 14.3941835,15.3106486 L14.3941835,42.308354 C14.3941835,42.8122811 14.8020604,43.2202865 15.3058289,43.2202865 L44.6941261,43.2202865 C45.1978946,43.2202865 45.6057715,42.8122811 45.6057715,42.308354 L45.6057715,15.3106486 C45.6057715,14.8069467 45.1974444,14.3987161 44.6941261,14.3987161 L15.3058289,14.3987161 Z M44.6941261,47.9956604 L15.3058289,47.9956604 C12.1632408,47.9956604 9.59622736,45.4280638 9.59622736,42.2842609 L9.59622736,15.3106486 C9.59622736,12.1668458 12.1632408,9.59924917 15.3058289,9.59924917 L44.6941261,9.59924917 C47.8369393,9.59924917 50.4037276,12.1668458 50.4037276,15.3106486 L50.4037276,42.308354 C50.4037276,45.4521568 47.8369393,48.0199786 44.6941261,48.0199786 L44.6941261,47.9956604 Z" id="Fill-3" fill="#FFFFFF"></path>
                </g>
            </g>
        </g>
    </g>
</svg>