<svg viewBox="0 0 64 64" xmlns="http://www.w3.org/2000/svg" xmlns:xlink="http://www.w3.org/1999/xlink" width="64.000000" height="64.000000" fill="none">
	<rect id="svg 8" width="64.000000" height="64.000000" x="0.000000" y="0.000000" />
	<g id="组合 3460">
		<path id="矩形 764(边框)" d="M3.15906 0L23.7298 0C26.2226 0 27.7333 2.75961 26.395 4.86847L5.82423 37.283C4.12745 39.9568 0 38.7515 0 35.5823L0 3.16777C0 1.41826 1.41436 0 3.15906 0ZM23.7298 3.16777L3.15906 3.16777L3.15906 35.5823L23.7298 3.16777Z" fill="rgb(255,255,255)" fill-rule="evenodd" transform="matrix(-1,0,0,-1,29.894,61)" />
		<path id="矩形 766(边框)" d="M3.15906 0L23.7298 0C26.2226 0 27.7333 2.75961 26.395 4.86847L5.82423 37.283C4.12745 39.9568 0 38.7515 0 35.5823L0 3.16777C0 1.41826 1.41436 0 3.15906 0ZM23.7298 3.16777L3.15906 3.16777L3.15906 35.5823L23.7298 3.16777Z" fill="rgb(255,255,255)" fill-rule="evenodd" transform="matrix(1,0,0,-1,34.106,61)" />
		<g id="组合 3456">
			<path id="多边形 5" d="M8.18108 1.49484L13.7623 11.1352C14.1483 11.8019 13.6672 12.6362 12.8969 12.6362L1.73444 12.6362C0.964109 12.6362 0.483051 11.8019 0.869012 11.1352L6.45023 1.49484C6.83539 0.829553 7.79592 0.829553 8.18108 1.49484Z" fill="rgb(255,255,255)" fill-rule="evenodd" transform="matrix(0,1,-1,0,60.4315,3)" />
			<path id="多边形 6" d="M8.18108 1.49484L13.7623 11.1352C14.1483 11.8019 13.6672 12.6362 12.8969 12.6362L1.73444 12.6362C0.964109 12.6362 0.483051 11.8019 0.869012 11.1352L6.45023 1.49484C6.83539 0.829553 7.79592 0.829553 8.18108 1.49484Z" fill="rgb(255,255,255)" fill-rule="evenodd" transform="matrix(0,1,1,0,3.56848,3)" />
			<path id="直线 30(边框)" d="M13.0457 8.73181L52.0074 8.73181L52.0074 11.8996L13.0457 11.8996L13.0457 8.73181Z" fill="rgb(255,255,255)" fill-rule="evenodd" />
		</g>
	</g>
</svg>
