<?xml version="1.0" encoding="UTF-8"?>
<svg width="144px" height="144px" viewBox="0 0 144 144" version="1.1" xmlns="http://www.w3.org/2000/svg" xmlns:xlink="http://www.w3.org/1999/xlink">
    <title>录像聚焦</title>
    <g id="R005R012-相机系统能力增强详细方案设计(2.23-已提供)" stroke="none" stroke-width="1" fill="none" fill-rule="evenodd">
        <g id="ico-样式" transform="translate(-905.000000, -130.000000)">
            <g id="录像聚焦" transform="translate(905.000000, 130.000000)">
                <rect id="矩形" stroke="#FFFFFF" fill="#FFFFFF" x="7.5" y="7.5" width="129" height="129" rx="64.5"></rect>
                <rect id="矩形" stroke="#FFFFFF" stroke-width="4" x="2" y="2" width="140" height="140" rx="70"></rect>
                <g id="w_录像" transform="translate(46.000000, 56.000000)" fill="#000000" fill-rule="nonzero">
                    <path d="M36.4472283,0 L2.9558409,0 C1.32337505,0 0,1.48820328 0,3.32399505 L0,32.791257 C0,34.6270487 1.32337505,36.115252 2.9558409,36.115252 L36.4472283,36.115252 C38.0796942,36.115252 39.4030692,34.6270487 39.4030692,32.791257 L39.4030692,3.32399505 C39.4030692,1.49259282 38.0839336,0 36.4472283,0 L36.4472283,0 Z M26.6758534,19.5966176 L18.3131851,26.3225806 C17.0184779,27.3648606 15.104917,26.4447228 15.104917,24.7835891 L15.104917,11.331663 C15.104917,9.6786721 17.0266207,8.75853429 18.3131851,9.79267147 L26.6758534,16.5186345 C27.6529909,17.3166301 27.6529909,18.8067648 26.6758534,19.5966176 Z M47.6435954,6.86940182 L41.6341998,11.4700908 L41.6341998,24.5148763 L47.6435954,29.2621359 C49.3698716,30.7034137 52,29.4819919 52,27.2264328 L52,8.90510492 C52,6.64954588 49.3698716,5.41998121 47.6435954,6.86940182 Z" id="形状"></path>
                </g>
            </g>
        </g>
    </g>
</svg>