<?xml version="1.0" encoding="UTF-8"?>
<svg width="130px" height="130px" viewBox="0 0 130 130" version="1.1" xmlns="http://www.w3.org/2000/svg" xmlns:xlink="http://www.w3.org/1999/xlink">
    <title>图库</title>
    <g id="R005R012-相机系统能力增强详细方案设计(2.23-已提供)" stroke="none" stroke-width="1" fill="none" fill-rule="evenodd">
        <g id="ico-样式" transform="translate(-220.000000, -629.000000)">
            <g id="图库" transform="translate(220.000000, 629.000000)">
                <rect id="矩形" fill="#D8D8D8" opacity="0.4" x="0" y="0" width="130" height="130" rx="65"></rect>
                <g id="相册" transform="translate(39.000000, 41.000000)" fill="#FFFFFF" fill-rule="nonzero">
                    <path d="M9.21863422,14.1120058 C9.21863422,15.6970951 10.0642692,17.161778 11.4369968,17.9543227 C12.8097244,18.7468673 14.5009945,18.7468673 15.8737221,17.9543227 C17.2464497,17.161778 18.0920847,15.6970951 18.0920847,14.1120058 C18.0920847,12.5269165 17.2464497,11.0622336 15.8737221,10.269689 C14.5009945,9.47714431 12.8097244,9.47714431 11.4369968,10.269689 C10.0642692,11.0622336 9.21863422,12.5269165 9.21863422,14.1120058 L9.21863422,14.1120058 Z" id="路径"></path>
                    <path d="M43.552601,0 L8.49094425,0 C3.82621285,0 0.0445609077,3.93712212 0.0445609077,8.79415729 L0.0445609077,33.4451836 C-0.0148536359,33.7392636 -0.0148536359,34.0429963 0.0445609077,34.3370763 L0.0445609077,38.8758427 C0.0445609077,43.7323492 3.82621285,47.67 8.49145205,47.67 L43.5531089,47.67 C48.2178403,47.67 52,43.7328779 52,38.8758427 L52,8.79415729 C52,3.9376508 48.2183481,0 43.5531089,0 L43.552601,0 Z M8.49094425,4.32940688 L43.552601,4.32940688 C45.9174665,4.32940688 47.8410461,6.33206816 47.8410461,8.79415729 L47.8410461,27.268549 L42.4039376,21.6539073 C40.9018392,20.1027436 38.9097054,19.242572 36.7941741,19.2309409 C34.6801661,19.2198385 32.6778762,20.058334 31.1605435,21.5931085 L21.7122535,31.1480444 L16.4127611,27.658719 C15.1431922,26.8222703 13.6734368,26.3740062 12.1710344,26.3650252 C10.6684283,26.3560376 9.19527501,26.7848016 7.91458129,27.6058505 L4.20249915,29.9854646 L4.20249915,8.79415729 C4.20249915,6.33206816 6.12607878,4.32940688 8.49094425,4.32940688 Z M43.552601,43.3405931 L8.49094425,43.3405931 C6.12607878,43.3405931 4.20249915,41.3379318 4.20249915,38.8758427 L4.20249915,35.069306 L10.0946044,31.2918469 C11.3433061,30.4914168 12.9505209,30.5014618 14.1895743,31.3172238 L20.8738612,35.7180033 C21.6858474,36.2530331 22.7446287,36.1383084 23.4337252,35.4415007 L34.0575926,24.6980793 C35.5591831,23.1796941 37.9895559,23.1929113 39.4759122,24.7276857 L47.8415539,33.3658808 L47.8415539,38.8758427 C47.8415539,41.3379318 45.9179743,43.3405931 43.5531089,43.3405931 L43.552601,43.3405931 Z" id="形状"></path>
                </g>
            </g>
        </g>
    </g>
</svg>