<?xml version="1.0" encoding="UTF-8"?>
<svg width="130px" height="130px" viewBox="0 0 130 130" version="1.1" xmlns="http://www.w3.org/2000/svg" xmlns:xlink="http://www.w3.org/1999/xlink">
    <title>拍照</title>
    <g id="R005R012-相机系统能力增强详细方案设计(2.23-已提供)" stroke="none" stroke-width="1" fill="none" fill-rule="evenodd">
        <g id="ico-样式" transform="translate(-220.000000, -137.000000)">
            <g id="拍照" transform="translate(220.000000, 137.000000)">
                <rect id="矩形" fill="#D8D8D8" opacity="0.4" x="0" y="0" width="130" height="130" rx="65"></rect>
                <g id="拍照-(1)" transform="translate(39.000000, 42.000000)" fill="#FFFFFF" fill-rule="nonzero">
                    <path d="M47.4784128,45.0937471 L45.2174736,45.0937471 L45.2174736,45.0937471 L6.78281769,45.0937471 L6.78252641,45.0937471 L4.52187851,45.0937471 C2.02455549,45.0937471 1.38077379e-15,43.0748719 1.38077379e-15,40.5843942 L1.38077379e-15,10.1460075 C1.38077379e-15,7.65552978 2.02455542,5.63665465 4.52187844,5.63665465 L6.78252634,5.63665465 L6.78281762,5.63665465 L6.78281762,5.63665465 L14.1305242,5.63665465 L16.9564251,1.12730181 C16.9564251,0.504664183 18.5931974,0 19.2176557,0 L32.7826355,0 C33.4067296,0 35.0435748,0.504664183 35.0435748,1.12730181 L37.8696942,5.63665465 L45.2174736,5.63665465 L47.4784128,5.63665465 C49.9757359,5.63665465 52,7.65552985 52,10.1460075 L52,40.5843942 C52,43.0748719 49.9757359,45.0937471 47.4784128,45.0937471 L47.4784128,45.0937471 Z M26.0001092,10.1460075 C17.8840459,10.1460075 11.304332,16.7075157 11.304332,24.8016592 C11.304332,32.8958755 17.884046,39.4570195 26.0001092,39.4570195 C34.115954,39.4570195 40.6955951,32.8958754 40.6955951,24.8022417 L40.6955951,24.8010765 C40.6955951,16.7072244 34.115954,10.1460075 26.0001092,10.1460075 L26.0001092,10.1460075 Z M26.0001092,34.9476667 C20.3810777,34.9476667 15.8262104,30.405325 15.8262104,24.8016592 C15.8262104,19.1982847 20.3810777,14.6556516 26.0001092,14.6556516 C31.6189222,14.6556516 36.174008,19.1982846 36.174008,24.8016592 C36.174008,30.405325 31.6189223,34.9476667 26.0001092,34.9476667 L26.0001092,34.9476667 Z" id="形状"></path>
                </g>
            </g>
        </g>
    </g>
</svg>