<svg width="100.000000" height="100.000000" viewBox="0 0 100 100" fill="none" xmlns="http://www.w3.org/2000/svg" xmlns:xlink="http://www.w3.org/1999/xlink">
	<desc>
			Created with Pixso.
	</desc>
	<defs>
		<filter id="filter_201_23116_dd" x="0.000000" y="0.000000" width="100.000000" height="100.000000" filterUnits="userSpaceOnUse" color-interpolation-filters="sRGB">
			<feFlood flood-opacity="0" result="BackgroundImageFix"/>
			<feGaussianBlur in="BackgroundImage" stdDeviation="33.3333"/>
			<feComposite in2="SourceAlpha" operator="in" result="effect_backgroundBlur_1"/>
			<feBlend mode="normal" in="SourceGraphic" in2="effect_backgroundBlur_1" result="shape"/>
		</filter>
		<linearGradient x1="71.042404" y1="61.706795" x2="72.993965" y2="38.475079" id="paint_linear_201_23117_0" gradientUnits="userSpaceOnUse">
			<stop stop-color="#206BFF"/>
			<stop offset="1.000000" stop-color="#6194F9"/>
		</linearGradient>
		<linearGradient x1="43.683083" y1="64.633499" x2="52.464943" y2="35.593853" id="paint_linear_201_23120_0" gradientUnits="userSpaceOnUse">
			<stop stop-color="#206BFF"/>
			<stop offset="1.000000" stop-color="#6194F9"/>
		</linearGradient>
	</defs>
	<g filter="url(#filter_201_23116_dd)">
		<circle id="椭圆 153" r="50.000000" transform="matrix(0 1 -1 0 50 50)" fill="#FFFFFF" fill-opacity="0.860000"/>
	</g>
	<path id="矢量 58" d="M73.11 39.41L69.11 41.37C68.43 41.7 68 42.4 68 43.16L68 56.83C68 57.59 68.43 58.29 69.11 58.62L73.11 60.58C74.44 61.24 76 60.27 76 58.79L76 41.2C76 39.72 74.44 38.75 73.11 39.41Z" fill="url(#paint_linear_201_23117_0)" fill-opacity="0.900000" fill-rule="evenodd"/>
	<path id="差集" d="M34.9922 35L60.9922 35C63.75 35 65.9922 37.2383 65.9922 40L65.9922 60C65.9922 62.7617 63.75 65 60.9922 65L34.9922 65C32.2344 65 29.9922 62.7617 29.9922 60L29.9922 40C29.9922 37.2383 32.2344 35 34.9922 35ZM48 46C45.7891 46 44 47.7891 44 50C44 52.2109 45.7891 54 48 54C50.2109 54 52 52.2109 52 50C52 47.7891 50.2109 46 48 46Z" clip-rule="evenodd" fill="url(#paint_linear_201_23120_0)" fill-opacity="0.900000" fill-rule="evenodd"/>
</svg>
