<svg viewBox="0 0 144 144" xmlns="http://www.w3.org/2000/svg" xmlns:xlink="http://www.w3.org/1999/xlink" width="144.000000" height="144.000000" fill="none">
	<defs>
		<clipPath id="clipPath_0">
			<rect width="60.000000" height="60.000000" x="42.000000" y="43.000000" fill="rgb(255,255,255)" />
		</clipPath>
	</defs>
	<rect id="camera_rotate_focus 1" width="144.000000" height="144.000000" x="0.000000" y="0.000000" />
	<g id="R005R012-相机系统能力增强详细方案设计(2.23-已提供)">
		<g id="ico-样式">
			<g id="拍照聚焦">
				<rect id="矩形" width="129.000000" height="129.000000" x="7.500000" y="7.500000" rx="64.500000" fill="rgb(255,255,255)" />
				<rect id="矩形" width="129.000000" height="129.000000" x="7.500000" y="7.500000" rx="64.500000" stroke="rgb(255,255,255)" stroke-width="1.000000" />
				<rect id="矩形" width="140.000000" height="140.000000" x="2.000000" y="2.000000" rx="70.000000" stroke="rgb(255,255,255)" stroke-width="4.000000" />
			</g>
			<g id="矩形 652" clip-path="url(#clipPath_0)" customFrame="url(#clipPath_0)">
				<rect id="矩形 652" width="60.000000" height="60.000000" x="42.000000" y="43.000000" />
				<rect id="svg 8" width="60.000000" height="60.000000" x="42.000000" y="43.000000" />
				<g id="组合 3459" transform="scale(-1,1) translate(-144,0)">
					<path id="矩形 763" d="M55 57.5L85 57.5C88.3137 57.5 91 60.1863 91 63.5L91 88.5C91 91.8137 88.3137 94.5 85 94.5L55 94.5C51.6863 94.5 49 91.8137 49 88.5L49 63.5C49 60.1863 51.6863 57.5 55 57.5Z" fill="rgb(0,0,0)" fill-opacity="0.860000014" fill-rule="evenodd" />
					<g id="组合 3458">
						<path id="合并" d="M88 55.2598L79 50.0637C78.3333 49.6788 78.3333 48.7165 79 48.3316L88 43.1355C88.6667 42.7506 89.5 43.2317 89.5 44.0015L89.5 48.3322C89.889 48.3856 90.2746 48.4547 90.6566 48.5397C91.5032 48.7279 92.3325 48.9938 93.1445 49.3373C93.964 49.6839 94.7391 50.0978 95.4699 50.5791C96.2863 51.1168 97.0473 51.7384 97.753 52.4441C98.4587 53.1498 99.0804 53.9109 99.6181 54.7273C100.099 55.458 100.513 56.2332 100.86 57.0527C101.203 57.8647 101.469 58.6941 101.658 59.5407C101.886 60.5675 102 61.6196 102 62.6972L102 64.6972L99 64.6972L99 62.6972C99 61.8223 98.9054 60.969 98.7161 60.1372C98.5678 59.4854 98.3614 58.8467 98.0969 58.2213C97.8262 57.5815 97.5037 56.9756 97.1293 56.4037C96.6987 55.746 96.1995 55.1333 95.6317 54.5654C95.0639 53.9976 94.4512 53.4985 93.7935 53.0679C93.2216 52.6935 92.6157 52.3709 91.9759 52.1003C91.3504 51.8358 90.7118 51.6293 90.06 51.481C89.8744 51.4388 89.6877 51.4013 89.5 51.3685L89.5 54.3938C89.5 55.1636 88.6667 55.6447 88 55.2598Z" fill="rgb(0,0,0)" fill-opacity="0.860000014" fill-rule="evenodd" />
					</g>
				</g>
			</g>
		</g>
	</g>
</svg>
