<?xml version="1.0" encoding="UTF-8"?>
<svg width="61px" height="47px" viewBox="0 0 61 47" version="1.1" xmlns="http://www.w3.org/2000/svg" xmlns:xlink="http://www.w3.org/1999/xlink">
    <title>相机水印</title>
    <g id="R005R012【应用】【蓝区】相机系统能力增强详细方案设计(2.23-已提供)" stroke="none" stroke-width="1" fill="none" fill-rule="evenodd">
        <g id="设置-相机水印开启" transform="translate(-481.000000, -427.000000)">
            <rect fill="#000000" x="0" y="0" width="1920" height="1080"></rect>
            <rect id="矩形" fill="#FFFFFF" opacity="0.199148996" x="445" y="221" width="1046" height="445" rx="48"></rect>
            <g id="相机水印" transform="translate(481.000000, 427.000000)" fill="#FFFFFF">
                <g transform="translate(0.000000, 0.000000)" id="Fill-1">
                    <path d="M56.2136914,38.6641496 C56.2136914,38.9108957 56.1273986,39.1578734 56.1273986,39.404851 C55.6949627,40.8862538 54.6579914,41.8737013 53.3616558,41.8737013 C53.1022915,41.8737013 52.7563913,41.7915297 52.4972701,41.7091267 L52.4107343,41.7091267 L52.0653203,41.6269552 L44.113749,38.499575 C44.0272132,38.4174034 43.8543847,38.4174034 43.7680919,38.4174034 C43.5087276,38.3350004 43.3358991,38.1701944 43.0767778,38.0880228 C42.3852205,37.8410452 41.6939064,37.6764706 40.9158134,37.6764706 C37.8909493,37.6764706 35.2982781,39.9807463 34.3473566,43.4375071 C34.2608208,43.7668878 34.174528,44.0960369 34.0882353,44.5073577 L34.3473566,44.5897607 L34.3473566,44.6719323 L37.8909493,46.0711635 L37.8909493,45.6598428 C37.8909493,45.4126337 37.9774851,45.1658875 38.0637778,44.9189099 C38.4959707,43.4375071 39.533185,42.4498281 40.8295206,42.4498281 C41.0886419,42.4498281 41.434542,42.5322311 41.7801991,42.6144027 L42.1260993,42.7789773 L47.3979774,44.8365069 L47.916463,45.0013129 L51.5465916,46.4003127 C52.151613,46.5648873 52.6703417,46.6470588 53.27512,46.6470588 C56.2999841,46.6470588 58.8928983,44.3427831 59.8438199,40.8862538 C59.9301126,40.6392761 59.9301126,40.39253 60.0166484,40.1455524 L60.1029412,39.8985748 L56.2136914,38.4174034 L56.2136914,38.6641496 Z M35.2435563,32.0116843 L38.7756429,33.4236175 L38.7756429,33.0084942 C38.7756429,32.7592333 38.8616496,32.510206 38.9476562,32.2609452 C39.3786585,30.7658471 40.4121917,29.7690372 41.7042295,29.7690372 C41.9629762,29.7690372 42.3074873,29.8519684 42.5657494,29.9351333 L42.6519984,29.9351333 L42.9965094,30.0182981 L48.3371581,32.1777803 L48.8539248,32.3438764 C51.0077248,33.1745902 51.7829959,33.5067823 52.041258,33.5897135 L52.041258,33.6728784 C52.7302802,33.9221392 53.4195447,34.0882353 54.1948158,34.0882353 C57.2096512,34.0882353 59.7939689,31.762657 60.7417378,28.2739392 C60.8277445,28.0249119 60.8277445,27.7754174 60.9137511,27.5263902 L61,27.2773629 L57.1236446,25.7820313 L57.1236446,26.1971546 C57.1236446,26.4466491 57.0373957,26.6956763 57.0373957,26.9449372 C56.6066357,28.4400352 55.5733447,29.4368451 54.2810647,29.4368451 C54.0225602,29.4368451 53.6780491,29.3536803 53.4195447,29.2707491 L53.3332958,29.2707491 L52.902778,29.104653 L44.9775693,25.9481273 C44.8915627,25.8651961 44.7193072,25.8651961 44.6330583,25.8651961 C44.3747961,25.6991 44.2025405,25.6159352 43.9442783,25.533004 C43.2550139,25.2837431 42.5657494,25.1176471 41.7904784,25.1176471 C38.7756429,25.1176471 36.1915675,27.4432253 35.2435563,30.9319432 C35.1575497,31.2641353 35.0713008,31.5963274 34.9852941,32.0116843 L35.2435563,32.0116843 Z M43.9558824,12.5461706 L40.3676471,12.5461706 L43.9558824,12.5817706 L43.9558824,12.5461706 Z M4.48529412,12.5817706 L7.17647059,12.5461706 L4.48529412,12.5817706 Z M46.746193,20.1128114 C45.363657,20.1128114 44.2404224,18.9904561 44.2404224,17.5231155 L44.2404224,13.7251214 L44.1539076,17.3505015 C44.1539076,13.811307 43.549276,12.1713524 40.6976892,12.084924 L33.3531642,12.084924 C33.0073479,12.084924 32.6617747,11.9987384 32.3162015,11.8261243 C31.3657535,11.4806535 30.7608789,10.531155 30.7608789,9.40904243 C30.7608789,9.2364284 30.7608789,8.97738597 30.8471507,8.80477195 L30.8471507,5.09296346 L19.0959593,5.09296346 L19.0959593,9.40904243 C19.0959593,9.58165645 19.0959593,9.75427048 19.0096875,9.9268845 C18.7503861,11.1354255 17.7999382,11.9987384 16.503917,11.9987384 C16.3311304,11.9987384 16.1581007,11.9987384 15.9853141,11.91231 L9.33217865,11.91231 C5.78944538,12.084924 5.09805588,14.3291491 5.09805588,18.127386 L5.01154106,14.6746199 L5.01154106,37.0314137 L5.01154106,34.7007602 C5.01154106,38.8442251 5.78944538,40.4844225 10.0233251,40.4844225 L4.92526926,40.4844225 L4.92526926,40.5706081 L30.5018204,40.5706081 C31.8843564,40.5706081 33.0073479,41.6927207 33.0073479,43.1603041 C33.0073479,44.541459 31.8843564,45.75 30.5018204,45.75 L5.01154106,45.75 C2.33298391,45.75 0.0865148199,43.5917177 0,40.8296506 L0,11.91231 C0,9.15 2.16044031,6.90577489 4.83899745,6.81934649 L13.9979034,6.81934649 L13.9979034,4.22989334 C14.3437197,1.89923983 16.3311304,0.0864284009 18.7503861,0 L30.8471507,0 C33.6122226,0 35.8591778,2.33065351 35.8591778,5.09296346 L35.8591778,6.81934649 L44.3266942,6.81934649 C47.0917662,6.81934649 49.3382353,9.15 49.3382353,11.91231 L49.3382353,17.3505015 C49.2519635,18.9904561 48.1287289,20.1128114 46.746193,20.1128114 L46.746193,20.1128114 Z M23.7706844,30.5 C21.5008217,30.5 19.7352941,28.5839948 19.7352941,26.2324671 C19.7352941,23.8809395 21.5847594,21.5294118 23.7706844,21.5294118 C26.0405472,21.5294118 27.8060748,23.793737 27.8060748,26.2324671 C27.8900124,28.5839948 26.0405472,30.5 23.7706844,30.5 L23.7706844,30.5 Z M23.7720588,17.0441176 C19.0278352,17.0441176 15.25,21.1787216 15.25,25.7350206 C15.25,30.3758009 19.1155539,34.0882353 23.7720588,34.0882353 C28.5162825,34.0882353 32.2941176,30.3758009 32.2941176,25.7350206 C32.2941176,21.0942403 28.4283167,17.0441176 23.7720588,17.0441176 L23.7720588,17.0441176 Z"></path>
                </g>
            </g>
        </g>
    </g>
</svg>