<?xml version="1.0" encoding="UTF-8"?>
<svg width="138px" height="138px" viewBox="0 0 138 138" version="1.1" xmlns="http://www.w3.org/2000/svg" xmlns:xlink="http://www.w3.org/1999/xlink">
    <title>2</title>
    <g id="R005R012【应用】【蓝区】相机系统能力增强详细方案设计(2.23-已提供)" stroke="none" stroke-width="1" fill="none" fill-rule="evenodd">
        <g id="相机" transform="translate(-891.000000, -893.000000)" fill="#FFFFFF">
            <g id="Fill-1" transform="translate(891.000000, 893.000000)">
                <path d="M69.0002691,122.278481 C39.5801339,122.278481 15.721519,98.4263248 15.721519,69.0002691 C15.721519,39.5769046 39.5742134,15.721519 69.0002691,15.721519 C98.4263248,15.721519 122.278481,39.5742134 122.278481,69.0002691 C122.278481,98.4263248 98.4263248,122.278481 69.0002691,122.278481 M69.4353606,129.265823 C102.479694,129.265823 129.265823,102.479155 129.265823,69.4353606 C129.265823,36.3942631 102.479694,9.60759494 69.4353606,9.60759494 C36.3942631,9.60759494 9.60759494,36.3942631 9.60759494,69.4353606 C9.60759494,102.479155 36.3942631,129.265823 69.4353606,129.265823 M69,138 C30.8931328,138 0,107.109562 0,69 C0,30.8931328 30.8931328,0 69,0 C107.106328,0 138,30.8931328 138,69 C138,107.106328 107.109562,138 69,138"></path>
            </g>
        </g>
    </g>
</svg>