<?xml version="1.0" encoding="UTF-8"?>
<svg width="120px" height="120px" viewBox="0 0 120 120" version="1.1" xmlns="http://www.w3.org/2000/svg" xmlns:xlink="http://www.w3.org/1999/xlink">
    <title>编组 2</title>
    <g id="R005R012【应用】【蓝区】相机系统能力增强详细方案设计(2.23-已提供)" stroke="none" stroke-width="1" fill="none" fill-rule="evenodd">
        <g id="双录相机" transform="translate(-1292.000000, -902.000000)">
            <g id="双录相机" transform="translate(1292.000000, 902.000000)">
                <g id="编组" fill="#FFFFFF">
                    <path d="M59.5623137,112.992701 C30.0581477,112.992701 6.13138686,89.0724171 6.13138686,59.5623137 C6.13138686,30.0549091 30.0522102,6.13138686 59.5623137,6.13138686 C89.0724171,6.13138686 112.992701,30.0522102 112.992701,59.5623137 C112.992701,89.0724171 89.0724171,112.992701 59.5623137,112.992701 M59.9986479,120 C93.1373636,120 120,93.1368227 120,59.9986479 C120,26.8631773 93.1373636,0 59.9986479,0 C26.8631773,0 0,26.8631773 0,59.9986479 C0,93.1368227 26.8631773,120 59.9986479,120" id="Fill-1"></path>
                </g>
                <g id="相机" transform="translate(33.000000, 34.000000)">
                    <path d="M22.1486234,35.2647119 C16.0348224,35.2647119 11.0722346,30.2647237 11.0722346,24.1271191 C11.0722346,17.9895146 16.0348224,12.9895263 22.1486234,12.9895263 C28.2624245,12.9895263 33.2250123,17.9795355 33.2250123,24.1271191 C33.2250123,30.2747028 28.2525003,35.2647119 22.1486234,35.2647119 Z M44.3055556,5.56879641 L25.8448305,5.56879641 C25.8448305,2.49500459 23.3637674,0 20.3068668,0 L16.6145833,0 C13.5576828,0 11.0763889,2.49500459 11.0763889,5.56879641 L5.53819444,5.56879641 C2.4812939,5.56879641 0,8.06356894 0,11.1373608 L0,40.8376857 C0,43.9114775 2.4812939,46.40625 5.53819444,46.40625 L29.6460499,46.40625 C30.1722661,46.40625 30.6684787,46.176963 31.0257518,45.7875464 C31.3733315,45.398594 31.541813,44.8694701 31.4822674,44.3405784 C31.432877,43.8516029 31.39318,43.3626275 31.39318,42.863673 C31.39318,34.6501857 39.0154674,28.0932273 47.5413234,30.2988382 C48.0970816,30.4387776 48.6826125,30.3187964 49.128973,29.9695283 C49.5757952,29.6202601 49.84375,29.0813892 49.84375,28.502602 L49.84375,11.1373608 C49.84375,8.06356894 47.3624561,5.56879641 44.3055556,5.56879641 Z" id="Stroke-1" stroke="#FFFFFF" stroke-width="5"></path>
                    <path d="M45.9765625,36.234375 C41.5420349,36.234375 37.953125,39.8232849 37.953125,44.2578125 C37.953125,48.6923401 41.5420349,52.28125 45.9765625,52.28125 C50.4110901,52.28125 54,48.6923401 54,44.2578125 C54,39.8232849 50.4110901,36.234375 45.9765625,36.234375 Z" id="Stroke-3" stroke="#FFFFFF" stroke-width="4"></path>
                    <path d="M41.5364583,17.703125 C40.0081235,17.703125 38.7673611,16.4557387 38.7673611,14.9187268 C38.7673611,13.3817148 40.0081235,12.1343286 41.5364583,12.1343286 C43.065024,12.1343286 44.3055556,13.3817148 44.3055556,14.9187268 C44.3055556,16.4557387 43.065024,17.703125 41.5364583,17.703125 Z" id="路径" stroke="#FFFFFF" stroke-width="3"></path>
                    <g id="编组" transform="translate(41.000000, 39.000000)" fill="#FFFFFF">
                        <path d="M8.9978678,3.9978678 C9.13292078,3.9978678 9.26260161,4.02452026 9.3869936,4.07782516 C9.51138559,4.13113006 9.6179954,4.20221715 9.70682303,4.29104478 C9.79565065,4.3798724 9.86673774,4.48648221 9.92008429,4.6108742 C9.97334755,4.73526619 10,4.86494703 10,5 C10,5.14217417 9.97334755,5.27364572 9.92008429,5.39445629 C9.86673774,5.5153085 9.79565065,5.6201276 9.70682303,5.70895522 C9.6179954,5.79782449 9.51138559,5.86886994 9.3869936,5.92217484 C9.26260161,5.97547974 9.13292078,6.0021322 8.9978678,6.0021322 L6.0021322,6.0021322 L6.0021322,8.9978678 C6.0021322,9.14004198 5.97547974,9.27151353 5.92221648,9.39232409 C5.86886994,9.51313466 5.79778285,9.6179954 5.70895522,9.70682303 C5.6201276,9.7956923 5.51351779,9.86673774 5.3891258,9.92004264 C5.26473381,9.97334755 5.13505297,10 5,10 C4.85786747,10 4.72639592,9.97334755 4.60554371,9.92004264 C4.48473314,9.86673774 4.3798724,9.7956923 4.29104478,9.70682303 C4.20221715,9.6179954 4.13113006,9.51313466 4.07782516,9.39232409 C4.02452026,9.27151353 3.9978678,9.14004198 3.9978678,8.9978678 L3.9978678,6.0021322 L1.0021322,6.0021322 C0.859999667,6.0021322 0.728528118,5.97547974 0.607675906,5.92217484 C0.486865338,5.86886994 0.382004598,5.79782449 0.293176972,5.70895522 C0.204349347,5.6201276 0.13326226,5.5153085 0.0799573561,5.39445629 C0.026652452,5.27364572 0,5.14217417 0,5 C0,4.86494703 0.026652452,4.73526619 0.0799573561,4.6108742 C0.13326226,4.48648221 0.204349347,4.3798724 0.293176972,4.29104478 C0.382004598,4.20221715 0.486865338,4.13113006 0.607675906,4.07782516 C0.728528118,4.02452026 0.859999667,3.9978678 1.0021322,3.9978678 L3.9978678,3.9978678 L3.9978678,1.0021322 C3.9978678,0.867079224 4.02452026,0.737398388 4.07782516,0.613006397 C4.13113006,0.488614406 4.20221715,0.382004598 4.29104478,0.293176972 C4.3798724,0.204349347 4.48473314,0.13326226 4.60554371,0.0799573561 C4.72639592,0.026652452 4.85786747,0 5,0 C5.2771855,0 5.51351779,0.0977395389 5.70895522,0.293176972 C5.9044343,0.488614406 6.0021322,0.724946695 6.0021322,1.0021322 L6.0021322,3.9978678 L8.9978678,3.9978678 Z" id="Fill-1"></path>
                    </g>
                </g>
            </g>
        </g>
    </g>
</svg>