<svg width="114.000000" height="114.000000" viewBox="0 0 114 114" fill="none" xmlns="http://www.w3.org/2000/svg" xmlns:xlink="http://www.w3.org/1999/xlink">
	<desc>
			Created with Pixso.
	</desc>
	<defs>
		<filter id="filter_166_17866_dd" x="7.000000" y="7.000000" width="100.000000" height="100.000000" filterUnits="userSpaceOnUse" color-interpolation-filters="sRGB">
			<feFlood flood-opacity="0" result="BackgroundImageFix"/>
			<feGaussianBlur in="BackgroundImage" stdDeviation="33.3333"/>
			<feComposite in2="SourceAlpha" operator="in" result="effect_backgroundBlur_1"/>
			<feBlend mode="normal" in="SourceGraphic" in2="effect_backgroundBlur_1" result="shape"/>
		</filter>
		<linearGradient x1="51.978897" y1="73.961540" x2="62.390923" y2="38.964684" id="paint_linear_166_17867_0" gradientUnits="userSpaceOnUse">
			<stop stop-color="#206BFF"/>
			<stop offset="1.000000" stop-color="#6194F9"/>
		</linearGradient>
		<linearGradient x1="112.533127" y1="2.432970" x2="78.584557" y2="76.463425" id="paint_linear_166_17870_0" gradientUnits="userSpaceOnUse">
			<stop stop-color="#FFFFFF"/>
			<stop offset="1.000000" stop-color="#FFFFFF" stop-opacity="0.000000"/>
		</linearGradient>
		<linearGradient x1="55.533127" y1="-54.567032" x2="21.584557" y2="19.463425" id="paint_linear_166_17871_0" gradientUnits="userSpaceOnUse">
			<stop stop-color="#FFFFFF"/>
			<stop offset="1.000000" stop-color="#FFFFFF" stop-opacity="0.000000"/>
		</linearGradient>
	</defs>
	<g filter="url(#filter_166_17866_dd)">
		<circle id="椭圆 194" r="50.000000" transform="matrix(0 1 -1 0 57 57)" fill="#FFFFFF" fill-opacity="0.860000"/>
	</g>
	<path id="path" d="M72.01 38.24L42.16 38.24C38.62 38.24 35.74 41.18 35.74 44.79L35.74 67.85C35.74 71.33 38.42 74.18 41.78 74.38C41.9 74.39 42.03 74.4 42.16 74.4L72.01 74.4C73.27 74.4 74.44 74.02 75.43 73.38C75.69 73.21 75.95 73.02 76.18 72.81C77.55 71.61 78.42 69.84 78.42 67.85L78.42 44.8C78.42 41.18 75.55 38.24 72.01 38.24ZM45.14 43.76C47.26 43.76 48.99 45.52 48.99 47.69C48.99 49.86 47.26 51.62 45.14 51.62C43.01 51.62 41.29 49.86 41.29 47.69C41.29 45.52 43.01 43.76 45.14 43.76ZM72.01 70.04L42.16 70.04C41.49 70.04 41.08 69.31 41.4 68.72L46.11 60.14C46.79 58.92 48.52 58.92 49.21 60.14L52.44 65.85C53.09 67.01 54.73 67.01 55.39 65.85L62.02 54.14C62.7 52.92 64.43 52.92 65.12 54.14L72.95 68.41C73.35 69.14 72.83 70.04 72.01 70.04Z" fill="url(#paint_linear_166_17867_0)" fill-opacity="0.900000" fill-rule="nonzero"/>
	<circle id="椭圆 12" cx="57.000000" cy="57.000000" r="56.000000" stroke="url(#paint_linear_166_17870_0)" stroke-opacity="0.900000" stroke-width="2.000000"/>
	<circle id="椭圆 12" r="56.000000" transform="matrix(-1 0 0 -1 57 57)" stroke="url(#paint_linear_166_17871_0)" stroke-opacity="0.900000" stroke-width="2.000000"/>
</svg>
