<?xml version="1.0" encoding="UTF-8"?>
<svg width="120px" height="120px" viewBox="0 0 120 120" version="1.1" xmlns="http://www.w3.org/2000/svg" xmlns:xlink="http://www.w3.org/1999/xlink">
    <title>编组 2</title>
    <g id="R005R012【应用】【蓝区】相机系统能力增强详细方案设计(2.23-已提供)" stroke="none" stroke-width="1" fill="none" fill-rule="evenodd">
        <g id="分布式相机-多机位" transform="translate(-1068.000000, -837.000000)" fill="#FFFFFF">
            <g id="多机位" transform="translate(1068.000000, 837.000000)">
                <g id="编组">
                    <path d="M59.5623137,112.992701 C30.0581477,112.992701 6.13138686,89.0724171 6.13138686,59.5623137 C6.13138686,30.0549091 30.0522102,6.13138686 59.5623137,6.13138686 C89.0724171,6.13138686 112.992701,30.0522102 112.992701,59.5623137 C112.992701,89.0724171 89.0724171,112.992701 59.5623137,112.992701 M59.9986479,120 C93.1373636,120 120,93.1368227 120,59.9986479 C120,26.8631773 93.1373636,0 59.9986479,0 C26.8631773,0 0,26.8631773 0,59.9986479 C0,93.1368227 26.8631773,120 59.9986479,120" id="Fill-1"></path>
                </g>
                <g id="切换相机" transform="translate(33.000000, 34.000000)" fill-rule="nonzero">
                    <path d="M36.4608,0 C38.9051892,0 41.111502,1.46500584 42.059925,3.7179 L43.0515,6.075 L45.225,6.075 C50.001975,6.075 53.887275,9.892125 53.9973,14.642775 L54,14.85 L54,42.525 C54,47.3715 50.0715,51.3 45.225,51.3 L8.77500002,51.3 C3.9285,51.3 0,47.3715 0,42.525 L0,14.85 C0,10.0034999 3.9285,6.07499994 8.77500002,6.075 L11.62215,6.075 L12.615075,3.71722498 C13.5359031,1.53080049 15.6452575,0.0804545547 18.016425,0.00337497891 L18.2142,0 L36.4608,0 L36.4608,0 Z M36.4608,4.05 L18.2142,4.05 C17.3994036,4.05 16.663966,4.53833527 16.347825,5.2893 L14.31135,10.125 L8.77500002,10.125 C6.16545459,10.125 4.05,12.2404545 4.05,14.85 L4.05,42.525 C4.05,45.1345454 6.16545459,47.25 8.77500002,47.25 L45.225,47.25 C47.8345455,47.25 49.95,45.1345454 49.95,42.525 L49.95,14.85 C49.95,12.2404545 47.8345455,10.125 45.225,10.125 L40.362975,10.125 L38.327175,5.2893 C38.011034,4.53833529 37.2755964,4.05 36.4608,4.05 Z M18.82575,22.288394 C19.5450327,22.2811674 20.2145785,22.6547062 20.58615,23.270625 L22.6854,26.8245 C22.9638834,27.2858596 23.0453892,27.8397407 22.9116147,28.3617657 C22.7778402,28.8837907 22.4399971,29.3302092 21.97395,29.600775 C21.195675,30.0402 20.247975,29.93895 19.6047,29.363175 C19.77345,33.2559 23.023575,36.4041 26.9838,36.4041 C27.728325,36.4041 28.4391,36.2691 29.15055,36.065925 C29.6712143,35.9003076 30.2369675,35.9549077 30.7163504,36.2170384 C31.1957332,36.479169 31.5470073,36.9260072 31.68855,37.453725 C31.99365,38.536425 31.41855,39.654225 30.335175,39.991725 C29.21805,40.330575 28.100925,40.5 26.95005,40.5 C20.65365,40.5 15.5088,35.35515 15.5088,29.05875 C15.5088,27.027675 16.0501501,25.064775 17.066025,23.304375 C17.4291655,22.6759541 18.0999513,22.2889722 18.82575,22.289175 L18.82575,22.288394 Z M26.983125,17.5499557 C33.27885,17.5499557 38.424375,22.69485 38.491875,29.05875 C38.491875,31.2255 37.88235,33.324075 36.731475,35.151975 C36.3933,35.727075 35.783775,36.065925 35.10675,36.0996814 L35.0055,36.0996814 C34.3658014,36.1012797 33.76314,35.7998239 33.380775,35.286975 L30.706425,31.8006 C30.0294,30.9204 30.1988251,29.63385 31.079025,28.9575 C31.959225,28.280475 33.245775,28.449225 33.922125,29.329425 L34.328475,29.87145 C34.362225,29.600775 34.362225,29.2956749 34.362225,29.025 C34.362225,24.96285 31.045275,21.6459 26.983125,21.6459 C25.967925,21.6459 25.01955,21.8484 24.1056,22.221 C23.05665,22.6611 21.87135,22.18725 21.431925,21.1383 C20.991825,20.088675 21.465675,18.90405 22.514625,18.46395 C23.9258974,17.8567538 25.4467792,17.5456853 26.983125,17.5499557 Z M43.2,17.55 C44.3183766,17.55 45.225,18.4566234 45.225,19.575 C45.225,20.6933766 44.3183766,21.6 43.2,21.6 C42.0816234,21.6 41.175,20.6933766 41.175,19.575 C41.175,18.4566234 42.0816234,17.55 43.2,17.55 Z" id="形状"></path>
                </g>
            </g>
        </g>
    </g>
</svg>