<?xml version="1.0" encoding="UTF-8"?>
<svg width="120px" height="120px" viewBox="0 0 120 120" version="1.1" xmlns="http://www.w3.org/2000/svg" xmlns:xlink="http://www.w3.org/1999/xlink">
    <title>3</title>
    <defs>
        <polygon id="path-1" points="0 0 54 0 54 49.4998594 0 49.4998594"></polygon>
    </defs>
    <g id="R005R012【应用】【蓝区】相机系统能力增强详细方案设计(2.23-已提供)" stroke="none" stroke-width="1" fill="none" fill-rule="evenodd">
        <g id="视频录制暂停状态" transform="translate(-1292.000000, -902.000000)">
            <g id="3" transform="translate(1292.000000, 902.000000)">
                <g id="编组" fill="#FFFFFF">
                    <path d="M59.5623137,112.992701 C30.0581477,112.992701 6.13138686,89.0724171 6.13138686,59.5623137 C6.13138686,30.0549091 30.0522102,6.13138686 59.5623137,6.13138686 C89.0724171,6.13138686 112.992701,30.0522102 112.992701,59.5623137 C112.992701,89.0724171 89.0724171,112.992701 59.5623137,112.992701 M59.9986479,120 C93.1373636,120 120,93.1368227 120,59.9986479 C120,26.8631773 93.1373636,0 59.9986479,0 C26.8631773,0 0,26.8631773 0,59.9986479 C0,93.1368227 26.8631773,120 59.9986479,120" id="Fill-1"></path>
                </g>
                <g id="编组" transform="translate(33.000000, 35.000000)">
                    <mask id="mask-2" fill="white">
                        <use xlink:href="#path-1"></use>
                    </mask>
                    <g id="Clip-2"></g>
                    <path d="M40.4999789,17.9999297 C40.4999789,16.7579297 41.4968695,15.7498594 42.7477289,15.7498594 L45.0022289,15.7498594 C46.2442289,15.7498594 47.2499789,16.7488594 47.2499789,17.9999297 C47.2499789,19.2419297 46.2532992,20.2500048 45.0022289,20.2500048 L42.7477289,20.2500048 C41.508893,20.2525313 40.5025102,19.2501562 40.4999789,18.0113203 L40.4999789,17.9999297 Z M26.9999789,35.9998594 C31.9705102,36.0004922 36.0004711,31.9715859 36.0011039,27.0010547 C36.0017367,22.0305234 31.9728305,18.0005625 27.0022992,17.9999297 L26.9999789,17.9999297 C22.0294477,18.0005625 18.0005414,22.0305234 18.0011742,27.0010547 C18.001807,31.9707422 22.0302914,35.9994375 26.9999789,35.9998594 L26.9999789,35.9998594 Z M26.9999789,40.5 C19.544182,40.5 13.4999789,34.4557969 13.4999789,27 C13.4999789,19.5442031 19.544182,13.5 26.9999789,13.5 C34.4559867,13.5 40.4999789,19.5442031 40.4999789,27 C40.4999789,34.4557969 34.4559867,40.5 26.9999789,40.5 L26.9999789,40.5 Z M11.2501195,11.2499297 L42.7500492,11.2499297 L42.7500492,6.75 L11.2501195,6.75 L11.2501195,11.2499297 Z M4.50011953,15.7319297 L4.50011953,40.5179297 C4.50011953,42.99075 6.50465859,44.9999297 8.97747891,44.9999297 L45.0224789,44.9999297 C47.4794789,44.9999297 49.5000492,42.9930703 49.5000492,40.5179297 L49.5000492,15.7319297 C49.5000492,13.2582656 47.496143,11.2524609 45.0224789,11.2499297 L8.97747891,11.2499297 C6.52279922,11.2499297 4.50011953,13.257 4.50011953,15.7319297 L4.50011953,15.7319297 Z M42.7500492,6.75 L42.7500492,6.73417969 C42.7500492,4.23667969 40.7294789,4.49992969 38.2366195,4.49992969 L15.7635492,4.49992969 C13.2681586,4.49992969 11.2501195,4.2255 11.2501195,6.73417969 L11.2501195,6.75 L42.7500492,6.75 Z M47.2499789,6.75 L47.2702289,6.75 C50.9869477,6.75 54.0001898,9.76303125 54.0001898,13.47975 C54.0001898,13.4865 54.0001898,13.49325 54.0001898,13.5 L54.0001898,42.7498594 C54.0001898,46.4781797 50.9806195,49.4998594 47.2702289,49.4998594 L6.72761953,49.4998594 C3.01068984,49.4988047 -0.00128671875,46.4849297 -2.14924632e-05,42.768 L-2.14924632e-05,42.7498594 L-2.14924632e-05,13.5 C-2.14924632e-05,9.77167969 3.01954922,6.75 6.72972891,6.75 L6.74997891,6.75 L6.74997891,6.73417969 C6.75989297,3.01914844 9.76912734,0.0099140625 13.4843695,0 L40.5157992,0 C44.2308305,0.0099140625 47.2400648,3.01914844 47.2499789,6.73417969 L47.2499789,6.75 Z" id="Fill-1" fill="#FFFFFF" mask="url(#mask-2)"></path>
                </g>
            </g>
        </g>
    </g>
</svg>