<?xml version="1.0" encoding="UTF-8"?>
<svg width="120px" height="120px" viewBox="0 0 120 120" version="1.1" xmlns="http://www.w3.org/2000/svg" xmlns:xlink="http://www.w3.org/1999/xlink">
    <title>1</title>
    <defs>
        <polygon id="path-1" points="0 0 50 0 50 50 0 50"></polygon>
    </defs>
    <g id="R005R012【应用】【蓝区】相机系统能力增强详细方案设计(2.23-已提供)" stroke="none" stroke-width="1" fill="none" fill-rule="evenodd">
        <g id="相机" transform="translate(-508.000000, -902.000000)">
            <g id="编组" transform="translate(508.000000, 902.000000)">
                <g fill="#FFFFFF">
                    <path d="M59.5623137,112.992701 C30.0581477,112.992701 6.13138686,89.0724171 6.13138686,59.5623137 C6.13138686,30.0549091 30.0522102,6.13138686 59.5623137,6.13138686 C89.0724171,6.13138686 112.992701,30.0522102 112.992701,59.5623137 C112.992701,89.0724171 89.0724171,112.992701 59.5623137,112.992701 M59.9986479,120 C93.1373636,120 120,93.1368227 120,59.9986479 C120,26.8631773 93.1373636,0 59.9986479,0 C26.8631773,0 0,26.8631773 0,59.9986479 C0,93.1368227 26.8631773,120 59.9986479,120" id="Fill-1"></path>
                </g>
                <g transform="translate(35.000000, 35.000000)">
                    <path d="M22.2117784,16.6238989 C22.2130805,19.7299214 19.7258845,22.2488523 16.6564236,22.2504346 C13.5869627,22.2517522 11.097422,19.7349302 11.0961194,16.6289078 L11.0961194,16.6238989 C11.0961194,13.5178765 13.5843575,11 16.6540789,11 C19.7235398,11 22.2117784,13.5178765 22.2117784,16.6238989 L22.2117784,16.6238989 Z M0.547355063,40 C0.345451125,39.0701968 0.209719574,38.1264215 0.141723538,37.1768465 C0.0575751875,36.0292896 0.0104208484,34.8796237 0,33.7294305 L6.51094609,29.6548521 L6.73056547,29.5196127 C7.64760013,28.9430662 8.56463479,28.3667833 9.6038539,28.0941957 C10.5125519,27.8577246 11.4545966,27.8100086 12.3828337,27.9534203 C13.4387261,28.1166038 14.4141175,28.5974547 15.384038,29.0780419 L15.6145993,29.1906095 L17.0818547,29.9134676 C18.5545811,30.6389619 18.7296514,30.6866779 18.8466254,30.70065 C19.04384,30.7278033 19.2449623,30.7114586 19.4356639,30.652934 C19.5469064,30.6162902 19.71364,30.5403663 21.0472481,29.5789282 L28.0083748,24.5452843 L28.2670724,24.3596927 C29.3339067,23.5835826 30.4067331,22.8074724 31.6434273,22.472933 C32.7204219,22.1821554 33.8508235,22.1581655 34.9390206,22.4025453 C36.1895224,22.6838326 37.2928297,23.414863 38.3904056,24.1429935 L38.6571793,24.3175128 L49.9979281,31.797591 C50.0114752,33.5918186 49.9585894,35.3863097 49.8392707,37.1768465 C49.8087897,37.5704377 49.769972,37.9526931 49.7228177,38.3296759 L35.6226282,29.0305895 C34.0581984,27.9982364 33.863589,27.9196764 33.7330679,27.8914686 C33.5163142,27.8432253 33.291745,27.8479705 33.077336,27.9057043 C32.9494201,27.9394482 32.7576765,28.0264443 31.2375352,29.1231217 L24.2764085,34.1567656 L24.0484524,34.3196855 C23.1092734,35.0032635 22.1617578,35.6892141 21.0696529,36.0266533 C20.1161453,36.3242853 19.1105334,36.4107541 18.1210738,36.2797327 C16.9872855,36.1278851 15.9397297,35.6077542 14.8976449,35.0931594 L14.6504103,34.9721558 L13.1831548,34.2466615 C11.8159395,33.574683 11.6546769,33.5296032 11.5434343,33.5127312 C11.3582037,33.4839962 11.1693259,33.4934867 10.9877426,33.540939 C10.8822315,33.5688832 10.7267003,33.630835 9.43164938,34.4406891 L0.547355063,40 Z" id="Fill-1" fill="#FFFFFF"></path>
                    <g>
                        <mask id="mask-2" fill="white">
                            <use xlink:href="#path-1"></use>
                        </mask>
                        <g id="Clip-4"></g>
                        <path d="M13.4833143,5.69714729 C11.8028447,5.83594966 10.8361775,6.09167936 10.105448,6.46381555 C8.5374784,7.26277555 7.26273816,8.53751779 6.46377941,10.1054898 C6.0916438,10.8359601 5.83617491,11.8026288 5.69737276,13.483101 C5.55831019,15.1971671 5.55570602,17.3997758 5.55570602,20.5555116 L5.55570602,29.4443322 C5.55570602,32.6026721 5.55570602,34.8026767 5.69737276,36.5164823 C5.83617491,38.197215 6.0916438,39.1638837 6.46377941,39.8943539 C7.26273816,41.462326 8.5374784,42.7370682 10.105448,43.5360282 C10.8361775,43.9084248 11.8028447,44.1636337 13.4833143,44.3029569 C15.1973777,44.4417593 17.399983,44.4446238 20.5554534,44.4446238 L29.4445205,44.4446238 C32.6025951,44.4446238 34.8028567,44.4446238 36.5166596,44.3029569 C38.1973897,44.1636337 39.1640569,43.9084248 39.8942656,43.5360282 C41.4624956,42.7370682 42.7369754,41.462326 43.5361946,39.8943539 C43.9085906,39.1638837 44.163799,38.197215 44.3028616,36.5164823 C44.4416638,34.8026767 44.4445284,32.5998075 44.4445284,29.4443322 L44.4445284,20.5555116 C44.4445284,17.3971717 44.4445284,15.1971671 44.3028616,13.483101 C44.163799,11.8026288 43.9085906,10.8359601 43.5361946,10.1054898 C42.7369754,8.53751779 41.4624956,7.26277555 39.8942656,6.46381555 C39.1640569,6.09167936 38.1973897,5.83594966 36.5166596,5.69714729 C34.8028567,5.55834491 32.5999909,5.55548032 29.4445205,5.55548032 L20.5554534,5.55548032 C17.3971184,5.55548032 15.1973777,5.55548032 13.4833143,5.69714729 M20.4361825,0 L29.5640519,0 C32.5749909,0 35.0028568,0 36.9695245,0.160937835 C38.9942651,0.327604849 40.772391,0.674740989 42.4166627,1.51380524 C45.0299453,2.84531843 47.1544256,4.97006244 48.4861971,7.58334913 C49.3249996,9.22762339 49.6749998,11.0083563 49.838802,13.0304959 C50,15.0000313 50,17.4250363 50,20.4359801 L50,29.5638637 C50,32.5748074 50,35.0029375 49.838802,36.9693479 C49.6721352,38.9943521 49.3249996,40.7722204 48.4861971,42.4164946 C47.1544256,45.0300417 45.0299453,47.1545253 42.4166627,48.4860385 C40.772391,49.3251028 38.9942651,49.6751035 36.9695245,49.8386455 C35.0002526,50.0001042 32.5749909,50.0001042 29.5640519,50.0001042 L20.4361825,50.0001042 C17.424983,50.0001042 14.9971172,50.0001042 13.0304495,49.8386455 C11.008313,49.6722389 9.22784335,49.3251028 7.58617583,48.4860385 C4.97185155,47.1550462 2.84606919,45.0303021 1.51403725,42.4164946 C0.67497431,40.7722204 0.324974128,38.9943521 0.161171959,36.9693479 C-2.60416803e-05,35.0000729 -2.60416803e-05,32.5748074 -2.60416803e-05,29.5638637 L-2.60416803e-05,20.4359801 C-2.60416803e-05,17.4250363 -2.60416803e-05,14.9971667 0.161171959,13.0304959 C0.327838712,11.0083563 0.67497431,9.22762339 1.51403725,7.5859533 C2.84450669,4.97058327 4.96924738,2.84401634 7.58331124,1.51094065 C9.22784335,0.672136817 11.008313,0.322136088 13.0304495,0.158073246 C14.999974,0 17.424983,0 20.4361825,0" id="Fill-3" fill="#FFFFFF" mask="url(#mask-2)"></path>
                    </g>
                </g>
            </g>
        </g>
    </g>
</svg>