<?xml version="1.0" encoding="UTF-8"?>
<svg width="60px" height="56px" viewBox="0 0 60 56" version="1.1" xmlns="http://www.w3.org/2000/svg" xmlns:xlink="http://www.w3.org/1999/xlink">
    <title>分辨率</title>
    <defs>
        <polygon id="path-1" points="0 0 60 0 60 56 0 56"></polygon>
    </defs>
    <g id="R005R012【应用】【蓝区】相机系统能力增强详细方案设计(2.23-已提供)" stroke="none" stroke-width="1" fill="none" fill-rule="evenodd">
        <g id="设置-相机水印开启" transform="translate(-478.000000, -288.000000)">
            <g id="分辨率" transform="translate(478.000000, 288.000000)">
                <mask id="mask-2" fill="white">
                    <use xlink:href="#path-1"></use>
                </mask>
                <g id="Clip-2"></g>
                <path d="M30,17.4999997 C31.6567969,17.4991797 33.0007031,19.0657031 33.001406,20.9983594 C33.0021094,22.9315625 31.6596094,24.4991797 30.0025781,24.4999997 L30,24.4999997 C28.3432031,24.4991797 27.0007031,22.9315625 27.001406,20.9983594 C27.001875,19.0665234 28.3441406,17.5008203 30,17.4999997 L30,17.4999997 Z M30,31.5 C31.6567969,31.5 33,33.0670703 33,35 C33,36.9329297 31.6567969,38.5 30,38.5 C28.3432031,38.5 27,36.9329297 27,35 C27,33.0670703 28.3432031,31.5 30,31.5 L30,31.5 Z M43.2,14 C44.1942188,14 45,14.9403516 45,16.1 L45,39.9 C45,41.0599219 44.1942188,42.0002734 43.2,42.0002734 C42.2060156,42.0002734 41.4,41.0599219 41.4,39.9 L41.4,16.1 C41.4,14.9403516 42.2060156,14 43.2,14 L43.2,14 Z M16.8,14 C17.7939844,14 18.6,14.9403516 18.6,16.1 L18.6,39.9 C18.6,41.0599219 17.7939844,42.0002734 16.8,42.0002734 C15.8057812,42.0002734 15,41.0599219 15,39.9 L15,16.1 C15,14.9403516 15.8057812,14 16.8,14 L16.8,14 Z M54,4.2 L6,4.2 C4.67460938,4.2 3.6,5.45371094 3.6,7 L3.6,49 C3.6,50.5462891 4.67460938,51.8 6,51.8 L54,51.8 C55.3253906,51.8 56.4,50.5462891 56.4,49 L56.4,7 C56.4,5.45371094 55.325625,4.2 54,4.2 L54,4.2 Z M54,0 C57.3138281,0 60,3.13414062 60,7 L60,49 C60,52.8661328 57.3138281,56 54,56 L6,56 C2.68617187,56 0,52.8661328 0,49 L0,7 C0,3.13414062 2.68617187,0 6,0 L54,0 Z" id="Fill-1" fill="#FFFFFF" mask="url(#mask-2)"></path>
            </g>
        </g>
    </g>
</svg>