<?xml version="1.0" encoding="UTF-8"?>
<svg width="71px" height="71px" viewBox="0 0 71 71" version="1.1" xmlns="http://www.w3.org/2000/svg" xmlns:xlink="http://www.w3.org/1999/xlink">
    <title>设置</title>
    <defs>
        <polygon id="path-1" points="0 0 32 0 32 31 0 31"></polygon>
    </defs>
    <g id="R005R012【应用】【蓝区】相机系统能力增强详细方案设计(2.23-已提供)" stroke="none" stroke-width="1" fill="none" fill-rule="evenodd">
        <g id="分布式相机" transform="translate(-1757.000000, -75.000000)">
            <g id="设置" transform="translate(1757.000000, 75.000000)">
                <g id="编组" transform="translate(20.000000, 20.000000)">
                    <mask id="mask-2" fill="white">
                        <use xlink:href="#path-1"></use>
                    </mask>
                    <g id="Clip-2"></g>
                    <path d="M12.9804549,17.8472734 C11.6471216,16.1788792 11.9215686,13.7733772 13.5686275,12.4930914 C15.2156863,11.2126814 17.6471843,11.4843324 18.9805176,13.1138661 C20.313851,14.7822603 20.0392784,17.1877623 18.3922196,18.4680481 C16.7058824,19.7871944 14.2746353,19.5156676 12.9804549,17.8472734 L12.9804549,17.8472734 Z M20.7451608,11.717123 C18.6275137,9.07883038 14.7452235,8.61324934 12.1177098,10.708364 C9.49032157,12.8034787 9.05888627,16.6057239 11.1765333,19.2440165 C13.2941804,21.8823091 17.1765961,22.3478902 19.8039843,20.2527755 C22.470651,18.1965213 22.8628078,14.3554156 20.7451608,11.717123 L20.7451608,11.717123 Z M17.7256157,28.5556374 L14.3530667,28.5169011 L13.2550275,25.374167 L9.92163137,23.7834938 L6.78437647,24.8698496 L4.66672941,22.231557 L6.43137255,19.4380707 L5.60790588,15.8684919 L2.78437647,14.0838887 L3.49025882,10.8635577 L6.82352941,10.5143099 L9.09816471,7.68208724 L8.70588235,4.38415943 L11.7255529,2.94867995 L14.0784941,5.31532152 L17.7647686,5.35418202 L20.1177098,3.02627679 L23.1373804,4.50061677 L22.7843765,7.79842043 L25.0981647,10.6695035 L28.4314353,11.0574877 L29.1764706,14.3166792 L26.3530667,16.0625461 L25.5294745,19.6320007 L27.3333961,22.425487 L25.2550275,25.0250433 L22.1177725,23.899827 L18.7843765,25.4517638 L17.7256157,28.5556374 Z M26.1177725,27.8572659 L30.3922196,22.5806807 L28.1961412,19.1276833 L28.5491451,17.536886 L32,15.4417713 L30.470651,8.80717936 L26.431498,8.34159831 L25.4118902,7.06131252 L25.8432,3.02627679 L19.6471216,0.0388604979 L16.7843137,2.87108311 L15.1372549,2.87108311 L12.2745725,0 L6.07849412,2.90981945 L6.54908235,6.90611884 L5.52947451,8.18640463 L1.49019608,8.61324934 L0,15.2478413 L3.45098039,17.4204287 L3.80398431,18.9724897 L1.64705882,22.3478902 L5.92163137,27.7020722 L9.76476863,26.3829259 L11.2549647,27.120158 L12.588298,30.9224032 L19.4902588,31 L20.8235922,27.1977548 L22.3137882,26.4993832 L26.1177725,27.8572659 Z" id="Fill-1" fill="#FFFFFF" mask="url(#mask-2)"></path>
                </g>
                <circle id="椭圆形" fill="#FFFFFF" opacity="0.334240141" cx="35.5" cy="35.5" r="35.5"></circle>
            </g>
        </g>
    </g>
</svg>