<svg viewBox="0 0 144 144" xmlns="http://www.w3.org/2000/svg" xmlns:xlink="http://www.w3.org/1999/xlink" width="144.000000" height="144.000000" fill="none">
	<defs>
		<clipPath id="clipPath_3">
			<rect width="60.000000" height="60.000000" x="42.000000" y="42.000000" fill="rgb(255,255,255)" />
		</clipPath>
	</defs>
	<rect id="setting 2" width="144.000000" height="144.000000" x="0.000000" y="0.000000" />
	<g id="R005R012-相机系统能力增强详细方案设计(2.23-已提供)">
		<g id="ico-样式">
			<g id="拍照聚焦">
				<rect id="矩形" width="129.000000" height="129.000000" x="7.500000" y="7.500000" rx="64.500000" fill="rgb(255,255,255)" />
				<rect id="矩形" width="129.000000" height="129.000000" x="7.500000" y="7.500000" rx="64.500000" stroke="rgb(255,255,255)" stroke-width="1.000000" />
				<rect id="矩形" width="140.000000" height="140.000000" x="2.000000" y="2.000000" rx="70.000000" stroke="rgb(255,255,255)" stroke-width="4.000000" />
			</g>
		</g>
	</g>
	<g id="矩形 652" clip-path="url(#clipPath_3)" customFrame="url(#clipPath_3)">
		<rect id="矩形 652" width="60.000000" height="60.000000" x="42.000000" y="42.000000" />
		<rect id="svg 8" width="60.000000" height="60.000000" x="42.000000" y="42.000000" />
		<path id="Fill-1" d="M66.5842 76.4267C64.1617 73.3954 64.6603 69.0249 67.6529 66.6987C70.6454 64.3723 75.0632 64.8659 77.4857 67.8266C79.9083 70.8579 79.4094 75.2285 76.4169 77.5546C73.3529 79.9514 68.9356 79.458 66.5842 76.4267ZM80.6919 65.2889C76.8444 60.4953 69.7906 59.6494 65.0167 63.456C60.243 67.2627 59.4591 74.171 63.3067 78.9645C67.1542 83.758 74.2082 84.6039 78.9819 80.7973C83.827 77.0613 84.5395 70.0824 80.6919 65.2889ZM75.2057 95.8828L69.0781 95.8124L67.0831 90.1024L61.0266 87.2123L55.3265 89.1861L51.479 84.3925L54.6852 79.3171L53.189 72.8315L48.0589 69.589L49.3415 63.738L55.3977 63.1035L59.5305 57.9576L58.8177 51.9656L64.3042 49.3575L68.5792 53.6574L75.2768 53.728L79.5519 49.4984L85.0383 52.1772L84.397 58.169L88.6009 63.3854L94.6571 64.0904L96.0108 70.012L90.8809 73.1841L89.3845 79.6694L92.6621 84.7449L88.8859 89.468L83.1858 87.4236L77.1294 90.2433L75.2057 95.8828ZM90.4534 94.6139L98.2197 85.0269L94.2296 78.7531L94.871 75.8628L101.141 72.0562L98.3622 60.0018L91.0234 59.1559L89.1709 56.8297L89.9545 49.4984L78.6969 44.0706L73.4954 49.2165L70.5029 49.2165L65.3017 44L54.044 49.2869L54.899 56.5477L53.0465 58.8739L45.7075 59.6494L43 71.7038L49.2701 75.6512L49.9115 78.4711L45.9925 84.6039L53.759 94.3319L60.7416 91.9352L63.4492 93.2747L65.8717 100.183L78.4119 100.324L80.8344 93.4156L83.542 92.1468L90.4534 94.6139Z" fill="rgb(0,0,0)" fill-opacity="0.860000014" fill-rule="evenodd" />
	</g>
</svg>
