<?xml version="1.0" encoding="UTF-8"?>
<svg width="60px" height="45px" viewBox="0 0 60 45" version="1.1" xmlns="http://www.w3.org/2000/svg" xmlns:xlink="http://www.w3.org/1999/xlink">
    <title>视频水印</title>
    <defs>
        <polygon id="path-1" points="0 0 59.9999001 0 59.9999001 44.8999623 0 44.8999623"></polygon>
        <polygon id="path-3" points="0 44.9 60 44.9 60 0 0 0"></polygon>
    </defs>
    <g id="R005R012【应用】【蓝区】相机系统能力增强详细方案设计(2.23-已提供)" stroke="none" stroke-width="1" fill="none" fill-rule="evenodd">
        <g id="设置-相机水印开启" transform="translate(-481.000000, -930.000000)">
            <g id="视频水印" transform="translate(481.000000, 930.000000)">
                <polygon id="Fill-1" fill="#FFFFF0" points="9.81818182 37.5527273 15.2727273 37.5527273 15.2727273 30.2054545 9.81818182 30.2054545"></polygon>
                <g id="编组">
                    <g transform="translate(0.000100, 0.000000)">
                        <mask id="mask-2" fill="white">
                            <use xlink:href="#path-1"></use>
                        </mask>
                        <g id="Clip-3"></g>
                        <path d="M4.91795909,7.79255077 L4.91795909,37.4785931 C4.91795909,39.7049662 7.37693864,41.1890893 9.83591818,41.1890893 L49.6720861,41.1890893 C52.6228116,41.1890893 54.5900452,39.3339354 54.5900452,37.4785931 L54.5900452,7.79255077 C54.5900452,5.56617768 52.1310657,4.08186615 49.6720861,4.08186615 L9.83591818,4.08186615 C7.37693864,3.71064694 4.91795909,5.56617768 4.91795909,7.79255077 M0,37.1073739 L0,7.79255077 C0,3.71064694 4.91795909,-3.76872296e-05 10.3279139,-3.76872296e-05 L49.6720861,-3.76872296e-05 C55.5737869,-3.76872296e-05 60,3.33961616 60,7.79255077 L60,37.1073739 C60,41.5603085 55.5737869,44.8999623 49.6720861,44.8999623 L10.3279139,44.8999623 C4.91795909,44.8999623 0,41.5603085 0,37.1073739" id="Fill-2" fill="#FFFFFF" mask="url(#mask-2)"></path>
                    </g>
                    <mask id="mask-4" fill="white">
                        <use xlink:href="#path-3"></use>
                    </mask>
                    <g id="Clip-5"></g>
                    <path d="M23.1148073,24.4908577 L37.8689343,24.4908577 L37.8689343,20.7801731 L23.1148073,20.7801731 L23.1148073,24.4908577 Z M45.245873,15.2141461 L50.1638321,15.2141461 L50.1638321,7.79258846 L45.245873,7.79258846 L45.245873,15.2141461 Z M45.245873,26.3463884 L50.1638321,26.3463884 L50.1638321,18.9248308 L45.245873,18.9248308 L45.245873,26.3463884 Z M45.245873,37.4786308 L50.1638321,37.4786308 L50.1638321,30.0570731 L45.245873,30.0570731 L45.245873,37.4786308 Z M9.83616793,15.2141461 L14.754127,15.2141461 L14.754127,7.79258846 L9.83616793,7.79258846 L9.83616793,15.2141461 Z M9.83616793,26.3463884 L14.754127,26.3463884 L14.754127,18.9248308 L9.83616793,18.9248308 L9.83616793,26.3463884 Z" id="Fill-4" fill="#FFFFFF" mask="url(#mask-4)"></path>
                </g>
            </g>
        </g>
    </g>
</svg>