<?xml version="1.0" encoding="UTF-8"?>
<svg width="120px" height="120px" viewBox="0 0 120 120" version="1.1" xmlns="http://www.w3.org/2000/svg" xmlns:xlink="http://www.w3.org/1999/xlink">
    <title>暂停 1</title>
    <g id="R005R012【应用】【蓝区】相机系统能力增强详细方案设计(2.23-已提供)" stroke="none" stroke-width="1" fill="none" fill-rule="evenodd">
        <g id="视频录制暂停状态" transform="translate(-508.000000, -902.000000)" fill="#FFFFFF">
            <g id="暂停-1" transform="translate(508.000000, 902.000000)">
                <g id="编组">
                    <path d="M59.5623137,112.992701 C30.0581477,112.992701 6.13138686,89.0724171 6.13138686,59.5623137 C6.13138686,30.0549091 30.0522102,6.13138686 59.5623137,6.13138686 C89.0724171,6.13138686 112.992701,30.0522102 112.992701,59.5623137 C112.992701,89.0724171 89.0724171,112.992701 59.5623137,112.992701 M59.9986479,120 C93.1373636,120 120,93.1368227 120,59.9986479 C120,26.8631773 93.1373636,0 59.9986479,0 C26.8631773,0 0,26.8631773 0,59.9986479 C0,93.1368227 26.8631773,120 59.9986479,120" id="Fill-1"></path>
                </g>
                <rect id="矩形" x="44" y="35" width="10" height="50" rx="5"></rect>
                <rect id="矩形" x="67" y="35" width="10" height="50" rx="5"></rect>
            </g>
        </g>
    </g>
</svg>