<?xml version="1.0" encoding="UTF-8"?>
<svg width="60px" height="45px" viewBox="0 0 60 45" version="1.1" xmlns="http://www.w3.org/2000/svg" xmlns:xlink="http://www.w3.org/1999/xlink">
    <title>视频分辨率</title>
    <defs>
        <polygon id="path-1" points="0 0 60 0 60 44.9940533 0 44.9940533"></polygon>
    </defs>
    <g id="R005R012【应用】【蓝区】相机系统能力增强详细方案设计(2.23-已提供)" stroke="none" stroke-width="1" fill="none" fill-rule="evenodd">
        <g id="设置-相机水印开启" transform="translate(-481.000000, -829.000000)">
            <g id="视频分辨率" transform="translate(481.000000, 829.000000)">
                <g id="编组">
                    <mask id="mask-2" fill="white">
                        <use xlink:href="#path-1"></use>
                    </mask>
                    <g id="Clip-2"></g>
                    <path d="M53.2882787,41.248601 L46.9158922,41.248601 L46.9158922,29.9959992 L56.246437,29.9959992 L56.246437,38.249012 C56.246437,39.8896712 54.9289379,41.2320287 53.2882787,41.248601 L53.2882787,41.248601 Z M3.75362934,38.249012 L3.75362934,29.9959992 L11.8989221,29.9959992 L11.8989221,41.248601 L6.72007371,41.248601 C5.07112838,41.2320287 3.75362934,39.8896712 3.75362934,38.249012 L3.75362934,38.249012 Z M6.71178756,3.75373843 L11.890636,3.75373843 L11.890636,15.0063403 L3.74534318,15.0063403 L3.74534318,6.75332744 C3.75362934,5.1043821 5.07112838,3.77031075 6.71178756,3.75373843 L6.71178756,3.75373843 Z M56.246437,6.75332744 L56.246437,15.0063403 L46.9079375,15.0063403 L46.9079375,3.75373843 L53.2799926,3.75373843 C54.9289379,3.77031075 56.246437,5.1043821 56.246437,6.75332744 L56.246437,6.75332744 Z M46.9079375,26.250656 L56.246437,26.250656 L56.246437,18.7516835 L46.9079375,18.7516835 L46.9079375,26.250656 Z M15.6442653,41.248601 L43.1625943,41.248601 L43.1625943,3.75373843 L15.6442653,3.75373843 L15.6442653,41.248601 Z M3.75362934,26.250656 L11.8989221,26.250656 L11.8989221,18.7516835 L3.75362934,18.7516835 L3.75362934,26.250656 Z M55.5006828,0 L4.49938351,0 C3.30617683,-0.00817706188 2.1626871,0.455847757 1.31749904,1.29274966 C0.472310976,2.12965157 0,3.2731413 0,4.45806182 L0,40.4948921 C0.016572315,42.9721218 2.02182242,44.9773719 4.49938351,44.9940533 L55.5006828,44.9940533 C56.693558,45.0022304 57.8373792,44.5382055 58.6822358,43.7013036 C59.5277553,42.8644017 60.0000663,41.720912 60.0000663,40.5363229 L60.0000663,4.46634798 C59.9586355,1.99707305 57.9616715,0.0166814105 55.5006828,0 L55.5006828,0 Z" id="Fill-1" fill="#FFFFFF" mask="url(#mask-2)"></path>
                </g>
                <path d="M36.6826203,20.8481476 L26.672942,15.8267362 C25.7369377,15.3792837 25.0239967,15.8267362 25.0239967,16.8376474 L25.0239967,28.1648246 C25.0239967,29.1757359 25.7783685,29.6231884 26.7143728,29.1757359 L35.224588,24.9415094 L36.6909064,24.1874691 C38.4810479,23.2842779 38.5224787,21.7844834 36.6826203,20.8481476" id="Fill-3" fill="#FFFFFF"></path>
            </g>
        </g>
    </g>
</svg>