<?xml version="1.0" encoding="UTF-8"?>
<svg width="24px" height="48px" viewBox="0 0 24 48" version="1.1" xmlns="http://www.w3.org/2000/svg" xmlns:xlink="http://www.w3.org/1999/xlink">
    <title>ic_arrow_left_lightting</title>
    <g id="ic_arrow_left_lightting" stroke="none" stroke-width="1" fill="none" fill-rule="evenodd">
        <path d="M0.456306423,23.4847599 C0.269651904,23.5779362 0.334136117,23.4964521 0.456306423,23.4847599 C0.420614946,23.4099689 0.433611764,23.4024704 0.456306423,23.4847599 L12.4563064,11.4847599 C12.9845391,10.8384134 13.932807,10.8384134 14.4563064,11.4847599 C15.1025206,12.0091857 15.1025206,12.9595009 14.4563064,13.4847599 L3.45630642,24.4847599 L14.4563064,35.4847599 C15.1015209,36.0120185 15.1015209,36.960834 14.4563064,37.4847599 C13.9343066,38.1311065 12.9860388,38.1311065 12.4563064,37.4847599 L0.456306423,25.4847599 C0.530088146,25.6830269 0.459605401,25.6280376 0.456306423,25.4847599 C-0.122252153,25.0466507 -0.181237713,24.2473061 0.456306423,23.4847599" id="Fill-1" fill="#FFFFFF"></path>
    </g>
</svg>