<svg width="48" height="48" viewBox="0 0 48 48" fill="none" xmlns="http://www.w3.org/2000/svg">
<g clip-path="url(#clip0_923_1355)">
<path d="M38.0209 22.52C39.0076 22.52 39.9209 22.2667 40.7609 21.76C41.5876 21.2667 42.2476 20.6 42.7409 19.76C43.2343 18.9067 43.4809 17.9867 43.4809 17V9.98002C43.4809 8.99335 43.2343 8.08002 42.7409 7.24002C42.2476 6.41335 41.5876 5.75335 40.7609 5.26002C39.9209 4.76669 39.0076 4.52002 38.0209 4.52002H31.0009C30.0143 4.52002 29.0943 4.76669 28.2409 5.26002C27.4009 5.75335 26.7343 6.41335 26.2409 7.24002C25.7343 8.08002 25.4809 8.99335 25.4809 9.98002V17C25.4809 17.9867 25.7343 18.9067 26.2409 19.76C26.7343 20.6 27.4009 21.2667 28.2409 21.76C29.0943 22.2667 30.0143 22.52 31.0009 22.52H38.0209ZM38.0209 43.48C39.0076 43.48 39.9209 43.2334 40.7609 42.74C41.5876 42.2467 42.2476 41.5867 42.7409 40.76C43.2343 39.92 43.4809 39.0067 43.4809 38.02V31C43.4809 30.0134 43.2343 29.0934 42.7409 28.24C42.2476 27.4 41.5876 26.7334 40.7609 26.24C39.9209 25.7334 39.0076 25.48 38.0209 25.48H31.0009C30.0143 25.48 29.0943 25.7334 28.2409 26.24C27.4009 26.7334 26.7343 27.4 26.2409 28.24C25.7343 29.0934 25.4809 30.0134 25.4809 31V38.02C25.4809 39.0067 25.7343 39.92 26.2409 40.76C26.7343 41.5867 27.4009 42.2467 28.2409 42.74C29.0943 43.2334 30.0143 43.48 31.0009 43.48H38.0209ZM17.0009 43.48C17.9876 43.48 18.9076 43.2334 19.7609 42.74C20.6009 42.2467 21.2676 41.5867 21.7609 40.76C22.2676 39.92 22.5209 39.0067 22.5209 38.02V31C22.5209 30.0134 22.2676 29.0934 21.7609 28.24C21.2676 27.4 20.6009 26.7334 19.7609 26.24C18.9076 25.7334 17.9876 25.48 17.0009 25.48H9.98094C8.99427 25.48 8.08094 25.7334 7.24094 26.24C6.41427 26.7334 5.75427 27.4 5.26094 28.24C4.7676 29.0934 4.52094 30.0134 4.52094 31V38.02C4.52094 39.0067 4.7676 39.92 5.26094 40.76C5.75427 41.5867 6.41427 42.2467 7.24094 42.74C8.08094 43.2334 8.99427 43.48 9.98094 43.48H17.0009ZM17.0009 22.52C17.9876 22.52 18.8943 22.2667 19.7209 21.76C20.5609 21.2667 21.2276 20.6 21.7209 19.76C22.2143 18.9067 22.4609 17.9867 22.4609 17V9.98002C22.4609 8.99335 22.2143 8.08002 21.7209 7.24002C21.2276 6.41335 20.5609 5.75335 19.7209 5.26002C18.8943 4.76669 17.9876 4.52002 17.0009 4.52002H9.98094C8.99427 4.52002 8.07427 4.76669 7.22094 5.26002C6.38094 5.75335 5.7076 6.41335 5.20094 7.24002C4.7076 8.08002 4.46094 8.99335 4.46094 9.98002V17C4.46094 17.9867 4.7076 18.9067 5.20094 19.76C5.7076 20.6 6.38094 21.2667 7.22094 21.76C8.07427 22.2667 8.99427 22.52 9.98094 22.52H17.0009Z" fill="white" fill-opacity="0.9"/>
</g>
<defs>
<clipPath id="clip0_923_1355">
<rect width="48" height="48" fill="white"/>
</clipPath>
</defs>
</svg>
