<svg width="48" height="48" viewBox="0 0 48 48" fill="none" xmlns="http://www.w3.org/2000/svg">
<g clip-path="url(#clip0_923_1359)">
<path d="M31.8866 13.4587H19.4432V6.77872C19.4432 6.08629 18.9544 5.80117 18.3638 6.14739L2.45823 15.3323C1.84726 15.6785 1.84726 16.2488 2.45823 16.595L18.3638 25.7799C18.9544 26.1261 19.4432 25.841 19.4432 25.1485V18.4686H31.8866C36.8966 18.4686 40.9901 22.5417 40.9901 27.5721C40.9901 32.6024 36.9169 36.6755 31.8866 36.6755H11.5413C10.1564 36.6755 9.03633 37.7956 9.03633 39.1805C9.03633 40.5653 10.1564 41.6855 11.5413 41.6855H31.8866C39.6663 41.6855 46 35.3517 46 27.5721C46 19.7924 39.6663 13.4587 31.8866 13.4587Z" fill="white" fill-opacity="0.9"/>
</g>
<defs>
<clipPath id="clip0_923_1359">
<rect width="48" height="48" fill="white"/>
</clipPath>
</defs>
</svg>
