<svg width="48" height="48" viewBox="0 0 48 48" fill="none" xmlns="http://www.w3.org/2000/svg">
<g clip-path="url(#clip0_923_1412)">
<mask id="mask0_923_1412" style="mask-type:luminance" maskUnits="userSpaceOnUse" x="0" y="0" width="48" height="48">
<path fill-rule="evenodd" clip-rule="evenodd" d="M0 0H48V48H0V0Z" fill="white"/>
<path fill-rule="evenodd" clip-rule="evenodd" d="M18.0391 41.4799V32.3599C18.0391 30.8533 18.6191 29.5733 19.7791 28.5199C20.9257 27.4533 22.3324 26.9199 23.9991 26.9199C25.6657 26.9199 27.0724 27.4533 28.2191 28.5199C29.3791 29.5733 29.9591 30.8533 29.9591 32.3599V41.4799H18.0391Z" fill="black"/>
</mask>
<g mask="url(#mask0_923_1412)">
<path fill-rule="evenodd" clip-rule="evenodd" d="M40.7595 24.14C37.1062 20.66 33.4395 17.1866 29.7595 13.72L26.1195 10.32C25.5062 9.74663 24.7929 9.45996 23.9795 9.45996C23.1662 9.45996 22.4529 9.74663 21.8395 10.32L7.29953 24.14C7.0462 24.3933 6.85286 24.68 6.71953 25C6.5862 25.32 6.51953 25.64 6.51953 25.96V39.98C6.51953 40.82 6.71953 41.58 7.11953 42.26C7.51953 42.9533 8.0662 43.5 8.75953 43.9C9.45286 44.3 10.2129 44.5 11.0395 44.5H36.9995C37.7995 44.5 38.5462 44.3 39.2395 43.9C39.9329 43.5 40.4795 42.9533 40.8795 42.26C41.2795 41.58 41.4795 40.82 41.4795 39.98V25.92C41.4795 25.5733 41.4129 25.2466 41.2795 24.94C41.1462 24.6333 40.9729 24.3666 40.7595 24.14Z" fill="white" fill-opacity="0.9"/>
<path fill-rule="evenodd" clip-rule="evenodd" d="M2.97906 22.94C3.2324 23.1934 3.58573 23.3334 4.03906 23.36C4.47906 23.3734 4.82573 23.2534 5.07906 23L21.2191 7.68004C22.0191 6.90671 22.9524 6.52004 24.0191 6.52004C25.0991 6.52004 26.0391 6.90671 26.8391 7.68004L42.9591 22.94C43.2524 23.2334 43.6057 23.38 44.0191 23.38C44.4324 23.38 44.7857 23.22 45.0791 22.9C45.3324 22.6067 45.4591 22.2534 45.4591 21.84C45.4591 21.4267 45.3124 21.0734 45.0191 20.78L28.8991 5.52004C28.0057 4.65337 26.9657 4.06671 25.7791 3.76004C24.5924 3.46671 23.4057 3.46671 22.2191 3.76004C21.0324 4.06671 19.9924 4.65337 19.0991 5.52004L3.01906 20.78C2.69906 21.0734 2.53906 21.4267 2.53906 21.84C2.53906 22.2534 2.68573 22.62 2.97906 22.94Z" fill="white" fill-opacity="0.9"/>
</g>
</g>
<defs>
<clipPath id="clip0_923_1412">
<rect width="48" height="48" fill="white"/>
</clipPath>
</defs>
</svg>
