<svg viewBox="0 0 36 36" xmlns="http://www.w3.org/2000/svg" xmlns:xlink="http://www.w3.org/1999/xlink" width="36.000000" height="36.000000" fill="none">
	<rect id="状态icon" width="36.000000" height="36.000000" x="0.000000" y="0.000000" />
	<path id="减去顶层" d="M30.0154 30.0154C31.5443 28.487 32.7573 26.6868 33.6542 24.6147C34.5513 22.5421 35 20.331 35 17.9813C35 15.6311 34.5512 13.4263 33.6542 11.3666C32.7572 9.30755 31.5443 7.51301 30.0154 5.98462C28.487 4.45571 26.6924 3.24278 24.6334 2.34576C22.5737 1.44878 20.3689 1 18.0187 1C15.6691 1 13.458 1.44878 11.3853 2.34576C9.31322 3.24273 7.51298 4.45571 5.98462 5.98462C4.45571 7.51298 3.24223 9.30752 2.34576 11.3666C1.44824 13.4263 1 15.6311 1 17.9813C1 20.331 1.44824 22.5421 2.34576 24.6147C3.24223 26.6868 4.45571 28.487 5.98462 30.0154C7.51298 31.5443 9.31322 32.7578 11.3853 33.6542C13.458 34.5518 15.6691 35 18.0187 35C20.3689 35 22.5737 34.5518 24.6334 33.6542C26.6925 32.7578 28.487 31.5443 30.0154 30.0154ZM16.6523 20.0579C16.6523 21.5558 17.2561 22.769 17.9999 22.769C18.7438 22.769 19.3475 21.5558 19.3475 20.0579L20.695 7.85809C20.695 6.36022 19.489 5.14702 17.9999 5.14702C16.5109 5.14702 15.3048 6.36022 15.3048 7.85809L16.6523 20.0579ZM17.9999 25.4637C16.5109 25.4637 15.3048 26.6234 15.3048 28.0551C15.3048 29.4869 16.5109 30.6466 17.9999 30.6466C19.489 30.6466 20.695 29.4869 20.695 28.0551C20.695 26.6234 19.489 25.4637 17.9999 25.4637Z" fill="rgb(232,64,38)" fill-rule="evenodd" />
</svg>
