<svg viewBox="0 0 48 48" xmlns="http://www.w3.org/2000/svg" xmlns:xlink="http://www.w3.org/1999/xlink" width="48.000000" height="48.000000" fill="none">
	<rect id="设置" width="48.000000" height="48.000000" x="0.000000" y="0.000000" />
	<path id="矢量 76" d="M44.5292 20.4061C44.5487 20.5036 44.9672 22.7671 44.9672 24.5506C44.9672 26.3701 44.5352 28.6711 44.5292 28.6936C44.2832 29.9986 43.4912 30.8461 42.4772 30.8461L42.3002 30.8461C39.4682 30.8461 37.1687 33.1696 37.1687 36.0286C37.1687 36.9496 37.6112 37.9981 37.6157 38.0071C38.1227 39.1576 37.7312 40.5676 36.6407 41.3311L31.2872 44.3116C30.7411 44.535 30.1399 44.5869 29.5636 44.4604C28.9873 44.3339 28.4631 44.0351 28.0607 43.6036C27.4787 42.9616 25.4627 41.1226 23.8877 41.1226C22.4357 41.1226 20.4707 42.7606 19.7447 43.5571C19.2272 44.1256 18.4262 44.4646 17.6117 44.4646C17.2217 44.4646 16.8527 44.3896 16.4477 44.2096L11.2877 41.2891C10.9559 41.0473 10.6828 40.7338 10.4887 40.372C10.2946 40.0102 10.1845 39.6094 10.1665 39.1992C10.1484 38.789 10.223 38.38 10.3847 38.0026C10.3892 37.9936 10.8317 36.9541 10.8317 36.0286C10.8317 33.1741 8.5322 30.8461 5.7017 30.8461L5.4872 30.8461C4.5092 30.8461 3.7172 30.0031 3.4712 28.6936C3.4517 28.5961 3.0332 26.3236 3.0332 24.5506C3.0332 22.7716 3.4532 20.5006 3.4712 20.4061C3.7172 19.0981 4.5047 18.2551 5.5187 18.2551L5.6957 18.2551C8.5277 18.2551 10.8272 15.9301 10.8272 13.0726C10.8272 12.1366 10.3847 11.1031 10.3802 11.0926C9.8732 9.9436 10.2647 8.5276 11.3582 7.7641L16.8107 4.7521C17.1467 4.6066 17.5097 4.5376 17.8907 4.5376C18.7067 4.5376 19.5017 4.8676 20.0237 5.4271C20.5967 6.0316 22.5752 7.7641 24.1037 7.7641C25.6157 7.7641 27.5852 6.0691 28.1537 5.4736C28.6757 4.9291 29.4662 4.6036 30.2717 4.6036C30.6632 4.6036 31.0367 4.6771 31.4417 4.8541L36.7022 7.8151C37.7267 8.5366 38.1182 9.9481 37.6112 11.1031C37.6067 11.1121 37.1642 12.1501 37.1642 13.0771C37.1642 15.9316 39.4682 18.2596 42.2942 18.2596L42.5087 18.2596C43.4912 18.2551 44.2832 19.0981 44.5292 20.4061L44.5292 20.4061ZM31.4357 25.1176C31.4357 20.9836 28.1027 17.6221 24.0107 17.6221C19.9157 17.6221 16.5827 20.9821 16.5827 25.1176C16.5827 29.2531 19.9127 32.6146 24.0092 32.6146C28.1072 32.6146 31.4357 29.2531 31.4357 25.1176L31.4357 25.1176Z" fill="rgb(255,255,255)" fill-opacity="0.899999976" fill-rule="nonzero" />
</svg>
