<svg width="24.000000" height="24.000000" viewBox="0 0 24 24" fill="none" xmlns="http://www.w3.org/2000/svg" xmlns:xlink="http://www.w3.org/1999/xlink">
	<desc>
			Created with Pixso.
	</desc>
	<defs>
		<clipPath id="clip302_40217">
			<rect id="画板 284" width="24.000000" height="24.000000" fill="white" fill-opacity="0"/>
		</clipPath>
	</defs>
	<rect id="画板 284" width="24.000000" height="24.000000" fill="#000000" fill-opacity="0"/>
	<g clip-path="url(#clip302_40217)">
		<rect id="画板 284" width="24.000000" height="24.000000" fill="#000000" fill-opacity="0"/>
		<path id="path" d="M16.39 23.54C16.78 23.54 17.15 23.44 17.5 23.25C17.84 23.06 18.13 22.8 18.35 22.47C18.57 22.14 18.7 21.76 18.74 21.35L19.99 6.96C20.01 6.8 19.96 6.66 19.85 6.54C19.73 6.43 19.59 6.37 19.43 6.37L3.26 6.37C3.1 6.37 2.96 6.43 2.85 6.54C2.73 6.66 2.68 6.8 2.7 6.96L3.95 21.35C3.99 21.76 4.12 22.14 4.33 22.47C4.54 22.8 4.82 23.06 5.17 23.25C5.52 23.44 5.89 23.54 6.3 23.54L16.39 23.54ZM13.29 19.46C13.06 19.46 12.86 19.37 12.69 19.2C12.53 19.03 12.45 18.83 12.47 18.59L12.76 10.71C12.76 10.48 12.84 10.29 13 10.14C13.16 9.98 13.36 9.91 13.59 9.91C13.82 9.92 14.02 10.02 14.19 10.19C14.36 10.36 14.43 10.56 14.42 10.79L14.15 18.65C14.13 18.88 14.04 19.08 13.88 19.23C13.72 19.38 13.53 19.46 13.29 19.46ZM9.42 19.46C9.19 19.46 9 19.38 8.84 19.23C8.68 19.08 8.59 18.88 8.57 18.65L8.28 10.79C8.26 10.56 8.33 10.36 8.49 10.19C8.65 10.02 8.85 9.92 9.08 9.91C9.31 9.89 9.51 9.96 9.68 10.12C9.85 10.28 9.93 10.48 9.93 10.71L10.25 18.59C10.27 18.83 10.19 19.03 10.02 19.2C9.86 19.37 9.66 19.46 9.42 19.46ZM15.54 3.37C15.34 2.4 14.86 1.59 14.09 0.96C13.33 0.32 12.45 0 11.45 0C10.46 0 9.58 0.32 8.81 0.96C8.05 1.59 7.57 2.4 7.37 3.37L1.82 3.37C1.59 3.37 1.39 3.45 1.23 3.61C1.07 3.78 1 3.98 1 4.21C1 4.44 1.07 4.64 1.23 4.82C1.39 4.99 1.59 5.07 1.82 5.07L7.93 5.07L15 5.07L20.88 5.05C21.11 5.05 21.3 4.96 21.46 4.8C21.62 4.64 21.7 4.44 21.7 4.21C21.7 3.98 21.62 3.78 21.46 3.61C21.3 3.45 21.11 3.37 20.88 3.37L15.54 3.37Z" fill="#FFFFFF" fill-opacity="0.860000" fill-rule="nonzero"/>
		<rect id="画板 284" width="24.000000" height="24.000000" fill="#000000" fill-opacity="0"/>
		<path id="path" d="M16.39 23.54C16.78 23.54 17.15 23.44 17.5 23.25C17.84 23.06 18.13 22.8 18.35 22.47C18.57 22.14 18.7 21.76 18.74 21.35L19.99 6.96C20.01 6.8 19.96 6.66 19.85 6.54C19.73 6.43 19.59 6.37 19.43 6.37L3.26 6.37C3.1 6.37 2.96 6.43 2.85 6.54C2.73 6.66 2.68 6.8 2.7 6.96L3.95 21.35C3.99 21.76 4.12 22.14 4.33 22.47C4.54 22.8 4.82 23.06 5.17 23.25C5.52 23.44 5.89 23.54 6.3 23.54L16.39 23.54ZM13.29 19.46C13.06 19.46 12.86 19.37 12.69 19.2C12.53 19.03 12.45 18.83 12.47 18.59L12.76 10.71C12.76 10.48 12.84 10.29 13 10.14C13.16 9.98 13.36 9.91 13.59 9.91C13.82 9.92 14.02 10.02 14.19 10.19C14.36 10.36 14.43 10.56 14.42 10.79L14.15 18.65C14.13 18.88 14.04 19.08 13.88 19.23C13.72 19.38 13.53 19.46 13.29 19.46ZM9.42 19.46C9.19 19.46 9 19.38 8.84 19.23C8.68 19.08 8.59 18.88 8.57 18.65L8.28 10.79C8.26 10.56 8.33 10.36 8.49 10.19C8.65 10.02 8.85 9.92 9.08 9.91C9.31 9.89 9.51 9.96 9.68 10.12C9.85 10.28 9.93 10.48 9.93 10.71L10.25 18.59C10.27 18.83 10.19 19.03 10.02 19.2C9.86 19.37 9.66 19.46 9.42 19.46ZM15.54 3.37C15.34 2.4 14.86 1.59 14.09 0.96C13.33 0.32 12.45 0 11.45 0C10.46 0 9.58 0.32 8.81 0.96C8.05 1.59 7.57 2.4 7.37 3.37L1.82 3.37C1.59 3.37 1.39 3.45 1.23 3.61C1.07 3.78 1 3.98 1 4.21C1 4.44 1.07 4.64 1.23 4.82C1.39 4.99 1.59 5.07 1.82 5.07L7.93 5.07L15 5.07L20.88 5.05C21.11 5.05 21.3 4.96 21.46 4.8C21.62 4.64 21.7 4.44 21.7 4.21C21.7 3.98 21.62 3.78 21.46 3.61C21.3 3.45 21.11 3.37 20.88 3.37L15.54 3.37Z" fill="#FFFFFF" fill-opacity="0.200000" fill-rule="nonzero"/>
	</g>
</svg>
