<svg width="96.000000" height="96.000000" viewBox="0 0 96 96" fill="none" xmlns="http://www.w3.org/2000/svg" xmlns:xlink="http://www.w3.org/1999/xlink">
	<desc>
			Created with Pixso.
	</desc>
	<defs>
		<filter id="filter_41_1404_dd" x="0.000000" y="0.000000" width="96.000000" height="96.000000" filterUnits="userSpaceOnUse" color-interpolation-filters="sRGB">
			<feFlood flood-opacity="0" result="BackgroundImageFix"/>
			<feGaussianBlur in="BackgroundImage" stdDeviation="33.3333"/>
			<feComposite in2="SourceAlpha" operator="in" result="effect_backgroundBlur_1"/>
			<feBlend mode="normal" in="SourceGraphic" in2="effect_backgroundBlur_1" result="shape"/>
		</filter>
	</defs>
	<g filter="url(#filter_41_1404_dd)">
		<circle id="椭圆 148" r="48.000000" transform="matrix(0 1 -1 0 48 48)" fill="#FFFFFF" fill-opacity="0"/>
	</g>
	<path id="path" d="M48 84C28.15 84 12 68.18 12 48.74C12 47.22 13.23 46 14.76 46C16.29 46 17.53 47.22 17.53 48.74C17.53 65.14 31.2 78.5 48 78.5C64.79 78.5 78.46 65.15 78.46 48.74C78.46 47.22 79.7 46 81.23 46C82.76 46 84 47.22 84 48.74C84 68.18 67.86 84 48 84Z" fill="#FFFFFF" fill-opacity="0.860000" fill-rule="nonzero"/>
	<path id="path" d="M14.34 40.78C12.46 40.11 11.54 38.11 12.22 36.32C12.91 34.51 14.98 33.6 16.83 34.28C18.71 34.94 19.65 36.94 18.95 38.73C18.42 40.14 17.06 41 15.59 41C15.17 41 14.75 40.94 14.34 40.78ZM77.03 38.69C76.34 36.9 77.28 34.9 79.15 34.24C81 33.56 83.08 34.47 83.76 36.26C84.47 38.07 83.52 40.07 81.66 40.74C81.25 40.9 80.83 40.97 80.41 40.97C78.95 40.97 77.58 40.09 77.03 38.69ZM19.31 30.27C17.8 29.02 17.63 26.83 18.92 25.37C20.21 23.92 22.48 23.75 23.99 25C25.5 26.25 25.67 28.44 24.37 29.9C23.67 30.68 22.66 31.11 21.65 31.11C20.81 31.11 19.98 30.83 19.31 30.27ZM71.61 29.87C70.32 28.41 70.49 26.22 72 24.97C73.5 23.72 75.77 23.89 77.06 25.34C78.36 26.79 78.19 28.98 76.68 30.23C76.01 30.8 75.18 31.08 74.34 31.08C73.33 31.08 72.33 30.67 71.61 29.87ZM27.71 22.05C26.73 20.38 27.33 18.25 29.07 17.31C30.79 16.36 32.98 16.94 33.96 18.62C34.94 20.29 34.34 22.4 32.61 23.35C32.05 23.65 31.45 23.81 30.84 23.81C29.58 23.81 28.37 23.17 27.71 22.05ZM63.37 23.34C61.65 22.39 61.04 20.27 62.02 18.59C62.99 16.93 65.19 16.34 66.91 17.29C68.63 18.22 69.25 20.35 68.27 22.01C67.61 23.15 66.39 23.77 65.14 23.77C64.54 23.77 63.93 23.64 63.37 23.34ZM38.49 17.06C38.17 15.17 39.47 13.38 41.43 13.05C43.38 12.73 45.26 13.99 45.58 15.89C45.91 17.78 44.6 19.57 42.65 19.89C42.45 19.93 42.23 19.95 42.03 19.95C40.32 19.95 38.79 18.76 38.49 17.06ZM53.33 19.89C51.38 19.58 50.05 17.78 50.38 15.88C50.73 13.99 52.58 12.72 54.53 13.05C56.49 13.36 57.81 15.16 57.47 17.06C57.18 18.74 55.65 19.93 53.93 19.93C53.73 19.93 53.53 19.92 53.33 19.89Z" fill="#FFFFFF" fill-opacity="0.860000" fill-rule="nonzero"/>
	<path id="path" d="M64.97 45.83L51.2 32.46C49.19 30.51 45.92 30.51 43.9 32.46L31.03 44.95C29.67 46.28 29.65 48.44 30.99 49.78C32.34 51.13 34.53 51.15 35.9 49.82L44.52 41.45L44.52 51.85C44.52 53.9 43.93 55.78 42.85 57.13C41.47 58.85 39.51 59.88 37 60.18C35.09 60.4 33.75 62.1 33.97 63.98C34.19 65.72 35.68 67 37.41 67C37.55 67 37.69 67 37.84 66.97C42.17 66.45 45.8 64.52 48.3 61.37C50.35 58.81 51.47 55.43 51.47 51.85L51.47 42.31L60.09 50.69C60.77 51.35 61.64 51.68 62.53 51.68C63.41 51.68 64.32 51.34 65 50.66C66.34 49.32 66.33 47.16 64.97 45.83Z" fill="#FFFFFF" fill-opacity="0.860000" fill-rule="nonzero"/>
</svg>
