<svg width="96.000000" height="96.000000" viewBox="0 0 96 96" fill="none" xmlns="http://www.w3.org/2000/svg" xmlns:xlink="http://www.w3.org/1999/xlink">
	<desc>
			Created with Pixso.
	</desc>
	<defs>
		<filter id="filter_41_1353_dd" x="0.000000" y="0.000000" width="96.000000" height="96.000000" filterUnits="userSpaceOnUse" color-interpolation-filters="sRGB">
			<feFlood flood-opacity="0" result="BackgroundImageFix"/>
			<feGaussianBlur in="BackgroundImage" stdDeviation="33.3333"/>
			<feComposite in2="SourceAlpha" operator="in" result="effect_backgroundBlur_1"/>
			<feBlend mode="normal" in="SourceGraphic" in2="effect_backgroundBlur_1" result="shape"/>
		</filter>
	</defs>
	<rect id="组合 796" width="96.000000" height="96.000000" fill="#FFFFFF" fill-opacity="0"/>
	<g filter="url(#filter_41_1353_dd)">
		<circle id="椭圆 148" r="48.000000" transform="matrix(-1 0 0 1 48 48)" fill="#FFFFFF" fill-opacity="0"/>
	</g>
	<path id="合并" d="M60.7686 44.3188L35.0867 28.5949C32.4214 26.963 28.998 28.8811 28.998 32.0063L28.998 63.454C28.998 66.5793 32.4214 68.4973 35.0867 66.8654L60.7686 51.1415C60.7983 51.1233 60.8278 51.1048 60.8568 51.086L60.8568 62.4185C60.8568 64.5752 62.6052 66.3236 64.7619 66.3236C66.9186 66.3236 68.667 64.5752 68.667 62.4185L68.667 33.0731C68.667 30.9164 66.9186 29.168 64.7619 29.168C62.6052 29.168 60.8568 30.9164 60.8568 33.0731L60.8568 44.3743C60.8278 44.3555 60.7983 44.337 60.7686 44.3188Z" clip-rule="evenodd" fill="#FFFFFF" fill-opacity="0.860000" fill-rule="evenodd"/>
</svg>
