<svg width="96.000000" height="96.000000" viewBox="0 0 96 96" fill="none" xmlns="http://www.w3.org/2000/svg" xmlns:xlink="http://www.w3.org/1999/xlink">
	<desc>
			Created with Pixso.
	</desc>
	<defs>
		<filter id="filter_41_997_dd" x="0.000000" y="0.000000" width="96.000000" height="96.000000" filterUnits="userSpaceOnUse" color-interpolation-filters="sRGB">
			<feFlood flood-opacity="0" result="BackgroundImageFix"/>
			<feGaussianBlur in="BackgroundImage" stdDeviation="33.3333"/>
			<feComposite in2="SourceAlpha" operator="in" result="effect_backgroundBlur_1"/>
			<feBlend mode="normal" in="SourceGraphic" in2="effect_backgroundBlur_1" result="shape"/>
		</filter>
	</defs>
	<rect id="组合 794" width="96.000000" height="96.000000" fill="#FFFFFF" fill-opacity="0"/>
	<g filter="url(#filter_41_997_dd)">
		<circle id="椭圆 148" cx="48.000000" cy="48.000000" r="48.000000" fill="#FFFFFF" fill-opacity="0"/>
	</g>
	<path id="合并" d="M35.5366 51.4081L61.2185 67.132C63.8839 68.7639 67.3072 66.8458 67.3072 63.7206L67.3072 32.2729C67.3072 29.1477 63.8839 27.2296 61.2185 28.8615L35.5366 44.5854C35.5062 44.604 35.4761 44.6229 35.4464 44.6422L35.4464 33.3084C35.4464 31.1517 33.6981 29.4033 31.5414 29.4033C29.3846 29.4033 27.6363 31.1517 27.6363 33.3084L27.6363 62.6538C27.6363 64.8105 29.3846 66.5589 31.5414 66.5589C33.6981 66.5589 35.4464 64.8105 35.4464 62.6538L35.4464 51.3513C35.4761 51.3706 35.5062 51.3895 35.5366 51.4081Z" clip-rule="evenodd" fill="#FFFFFF" fill-opacity="0.860000" fill-rule="evenodd"/>
</svg>
