<?xml version="1.0" encoding="UTF-8"?>
<svg width="401px" height="393px" viewBox="0 0 401 393" version="1.1" xmlns="http://www.w3.org/2000/svg"
     xmlns:xlink="http://www.w3.org/1999/xlink">
    <title>最近删除</title>
    <defs>
        <rect id="path-1" x="0" y="0" width="401" height="393" rx="24"></rect>
        <polygon id="path-3" points="0 0 105 0 105 116.666375 0 116.666375"></polygon>
    </defs>
    <g id="R004【应用】【蓝区】图库功能增强(2.15已提供）" stroke="none" stroke-width="1" fill="none" fill-rule="evenodd">
        <g id="相册选中状态" transform="translate(-1022.000000, -281.000000)">
            <g id="编组-4" transform="translate(1022.000000, 281.000000)">
                <g id="21-波涛汹涌的海浪拍打在礁石上" opacity="1">
                    <mask id="mask-2" fill="white">
                        <use xlink:href="#path-1"></use>
                    </mask>
                    <rect stroke="#525253" x="0.5" y="0.5" width="400" height="392" rx="24" fill="#525253"></rect>
                </g>
                <g id="编组" transform="translate(148.000000, 148.000000)">
                    <mask id="mask-4" fill="white">
                        <use xlink:href="#path-3"></use>
                    </mask>
                    <g id="Clip-2"></g>
                    <path d="M52.1912379,53.5294212 L38.8088424,53.5294212 L38.8088424,50.8530545 L52.1912379,50.8530545 L52.1912379,53.5294212 L52.1912379,53.5294212 Z M14.7205788,6.69115758 L76.2795015,6.69115758 L76.2795015,46.8382636 L14.7205788,46.8382636 L14.7205788,6.69115758 Z M82.9706591,52.1912379 L82.9706591,4.01471061 C82.9706591,1.87350485 81.2309244,0 78.9560288,0 L12.0441318,0 C9.90292606,0 8.02942121,1.7396544 8.02942121,4.01471061 L8.02942121,52.1912379 L0,52.1912379 L0,57.5442121 L0.267620609,57.5442121 C0.802942121,59.1500964 2.27497591,60.2206591 4.01471061,60.2206591 L86.9852894,60.2206591 C88.7250241,60.2206591 90.1970579,59.1500964 90.7323794,57.5442121 L91,57.5442121 L91,52.1912379 L82.9705788,52.1912379 L82.9706591,52.1912379 Z"
                          id="Fill-1" fill="#D8D8D8" opacity="0.86"></path>
                    <path d="M45.5003694,37.5880573 C47.0693986,37.5880573 48.3413392,36.3160363 48.3413392,34.7470071 C48.3413392,33.1778977 47.0693986,31.905957 45.5003694,31.905957 C43.9312599,31.905957 42.6593192,33.1778977 42.6593192,34.7470071 C42.6593192,36.3160363 43.9312599,37.5880573 45.5003694,37.5880573 Z"
                          id="Fill-3" fill="#D8D8D8" opacity="0.86"></path>
                    <path d="M34.4347831,20.4493139 C33.236954,21.3783179 32.160851,22.4544209 31.2319273,23.6521697 C31.1804587,23.7165657 31.1575748,23.7992687 31.1687357,23.8809279 C31.1802981,23.958733 31.2218905,24.0289904 31.2846003,24.0765246 L32.6540181,25.1404229 C32.7849779,25.2418345 32.9733481,25.2183083 33.0753218,25.0877499 C38.3902366,18.225646 48.2616873,16.9712898 55.1237913,22.2862046 C56.1720322,23.0981396 57.1134015,24.0394287 57.9253366,25.0877499 C58.0273906,25.2183083 58.2157608,25.2418345 58.3467206,25.1404229 L59.7175837,24.0750793 C59.7810964,24.0257787 59.8222071,23.9531927 59.832003,23.8733803 C59.8413974,23.7943708 59.8192362,23.7148795 59.7702567,23.6521697 C53.6585022,15.771614 42.3154191,14.3376396 34.4347831,20.4493139 Z M45.5003694,26.8227144 C43.0536441,26.8179296 40.7437402,27.9506401 39.2494649,29.8880591 C39.1471701,30.019019 39.1705357,30.2081921 39.3015759,30.3104067 C39.3017365,30.3105672 39.3018971,30.3107278 39.3021379,30.3108884 L40.6489128,31.3522241 C40.7014252,31.3929332 40.7659817,31.4151747 40.8325456,31.4154156 L40.8701233,31.4154156 C40.9493737,31.4052985 41.0213976,31.3641879 41.0702165,31.3009964 C42.9699776,28.8493732 46.4974629,28.4019738 48.9490861,30.3016546 C49.3230162,30.5913561 49.6587263,30.9271465 49.9485081,31.3009964 C49.9969255,31.3644288 50.0693509,31.4052182 50.1486013,31.41389 L50.1847337,31.41389 C50.2519399,31.4135688 50.3171388,31.3907653 50.3698118,31.3491729 L51.7046228,30.3078372 C51.8351009,30.2058636 51.8586271,30.0174934 51.7572155,29.8865335 C50.2613344,27.9479904 47.9488611,26.8156814 45.5003694,26.8227144"
                          id="Fill-5" fill="#D8D8D8" opacity="0.86"></path>
                    <path d="M35.2422056,26.7686049 C35.140794,26.899645 35.1643203,27.087935 35.2948786,27.1899086 L36.6311349,28.2312442 C36.6840488,28.2723549 36.7491674,28.2945964 36.8162131,28.2944358 L36.8537908,28.2944358 C36.9330412,28.284399 37.0050651,28.2432884 37.0539642,28.1800968 C40.6668826,23.5148425 47.3775517,22.6617968 52.042806,26.2746349 C52.7558186,26.8268182 53.3960043,27.4670842 53.9481876,28.1800968 C54.0052768,28.2533252 54.0930384,28.296122 54.1859388,28.2959639 C54.2529845,28.296122 54.3181031,28.2738002 54.371017,28.2327698 L55.7058279,27.1914342 C55.8367075,27.0889788 55.8596717,26.8998056 55.7572965,26.7689261 C53.3046295,23.5903994 49.5147427,21.7321504 45.5003533,21.7396178 C41.4853215,21.730946 37.6944712,23.5894358 35.2422056,26.7686049 Z"
                          id="Fill-7" fill="#D8D8D8"></path>
                </g>
            </g>
        </g>
    </g>
</svg>