<?xml version="1.0" encoding="UTF-8"?>
<svg width="401px" height="393px" viewBox="0 0 401 393" version="1.1" xmlns="http://www.w3.org/2000/svg" xmlns:xlink="http://www.w3.org/1999/xlink">
    <title>最近删除</title>
    <defs>
        <rect id="path-1" x="0" y="0" width="401" height="393" rx="24"></rect>
        <polygon id="path-3" points="0 0 105 0 105 116.666375 0 116.666375"></polygon>
    </defs>
    <g id="R004【应用】【蓝区】图库功能增强(2.15已提供）" stroke="none" stroke-width="1" fill="none" fill-rule="evenodd">
        <g id="相册选中状态" transform="translate(-1022.000000, -281.000000)">
            <g id="编组-4" transform="translate(1022.000000, 281.000000)">
                <g id="21-波涛汹涌的海浪拍打在礁石上" opacity="1">
                    <mask id="mask-2" fill="white">
                        <use xlink:href="#path-1"></use>
                    </mask>
                    <rect stroke="#525253" x="0.5" y="0.5" width="400" height="392" rx="24" fill="#525253"></rect>
                </g>
                <g id="编组" transform="translate(148.000000, 126.000000)">
                    <mask id="mask-4" fill="white">
                        <use xlink:href="#path-3"></use>
                    </mask>
                    <g id="Clip-2"></g>
                    <path d="M59.7914844,48.1248906 C59.7914844,45.7087969 61.7503906,43.7498906 64.1664844,43.7498906 C66.583125,43.7498906 68.5414844,45.7087969 68.5414844,48.1248906 L68.5414844,83.1248906 C68.5414844,85.5409844 66.583125,87.4998906 64.1664844,87.4998906 C61.7503906,87.4998906 59.7914844,85.5409844 59.7914844,83.1248906 L59.7914844,48.1248906 Z M36.4579687,48.1248906 C36.4579687,45.7087969 38.4174219,43.7498906 40.8329688,43.7498906 C43.2496094,43.7498906 45.2079688,45.7087969 45.2079688,48.1248906 L45.2079688,83.1248906 C45.2079688,85.5409844 43.2496094,87.4998906 40.8329688,87.4998906 C38.4174219,87.4998906 36.4579687,85.5409844 36.4579687,83.1248906 L36.4579687,48.1248906 Z M40.8329687,8.74989063 C38.4174219,8.74989063 36.4579688,6.79098437 36.4579688,4.37489063 C36.4579688,1.95879688 38.4174219,-0.000109375 40.8329687,-0.000109375 L64.1664844,-0.000109375 C66.583125,-0.000109375 68.5414844,1.95879688 68.5414844,4.37489063 C68.5414844,6.79098437 66.583125,8.74989063 64.1664844,8.74989063 L40.8329687,8.74989063 Z M10.2079687,23.3334063 L4.375,23.3334063 C1.95890625,23.3334063 0,21.3745 0,18.9584063 C0,16.5417656 1.95890625,14.5834063 4.375,14.5834063 L100.625,14.5834063 C103.041094,14.5834063 105,16.5417656 105,18.9584063 C105,21.3745 103.041094,23.3334063 100.625,23.3334063 L18.9579687,23.3334063 L18.9579687,100.624891 C18.9579687,104.652078 22.2228125,107.916375 26.25,107.916375 L78.75,107.916375 C82.7771875,107.916375 86.0414844,104.652078 86.0414844,100.624891 L86.0414844,36.4584063 C86.0414844,34.0417656 88.0003906,32.0834063 90.4164844,32.0834063 C92.833125,32.0834063 94.7914844,34.0417656 94.7914844,36.4584063 L94.7914844,100.624891 C94.7914844,109.484266 87.609375,116.666375 78.75,116.666375 L26.25,116.666375 C17.390625,116.666375 10.2079687,109.484266 10.2079687,100.624891 L10.2079687,23.3334063 Z" id="Fill-1" fill="#D8D8D8" mask="url(#mask-4)"></path>
                </g>
            </g>
        </g>
    </g>
</svg>