<?xml version="1.0" encoding="UTF-8"?>
<svg width="401px" height="393px" viewBox="0 0 401 393" version="1.1" xmlns="http://www.w3.org/2000/svg"
     xmlns:xlink="http://www.w3.org/1999/xlink">
    <title>最近删除</title>
    <defs>
        <rect id="path-1" x="0" y="0" width="401" height="393" rx="24"></rect>
        <polygon id="path-3" points="0 0 105 0 105 116.666375 0 116.666375"></polygon>
    </defs>
    <g id="R004【应用】【蓝区】图库功能增强(2.15已提供）" stroke="none" stroke-width="1" fill="none" fill-rule="evenodd">
        <g id="相册选中状态" transform="translate(-1022.000000, -281.000000)">
            <g id="编组-4" transform="translate(1022.000000, 281.000000)">
                <g id="21-波涛汹涌的海浪拍打在礁石上" opacity="1">
                    <mask id="mask-2" fill="white">
                        <use xlink:href="#path-1"></use>
                    </mask>
                    <rect stroke="#525253" x="0.5" y="0.5" width="400" height="392" rx="24" fill="#525253"></rect>
                </g>
                <g id="编组" transform="translate(148.000000, 126.000000)">
                    <mask id="mask-4" fill="white">
                        <use xlink:href="#path-3"></use>
                    </mask>
                    <g id="Clip-2"></g>
                    <path d="M97.0030244,95.5919677 C97.0030244,96.3759193 96.48039,96.9509295 95.6442031,96.9509295 L25.6096477,96.9509295 C24.8255557,96.9509295 24.2506859,96.4281547 24.2506859,95.5919677 L24.2506859,88.8498153 L79.4421151,88.8498153 C84.5641289,88.8498153 88.8498153,84.5641289 88.8498153,79.4421151 L88.8498153,24.1984505 L95.6442031,24.1984505 C96.4281547,24.1984505 97.0030244,24.721085 97.0030244,25.5574123 L97.0030244,95.5919677 Z M8.04873839,79.4421151 L8.04873839,9.40755977 C8.04873839,8.62360816 8.5713728,8.04873839 9.40755977,8.04873839 L79.4421151,8.04873839 C80.2260667,8.04873839 80.8010769,8.5713728 80.8010769,9.40755977 L80.8010769,79.4421151 C80.8010769,80.2260667 80.2784425,80.8010769 79.4421151,80.8010769 L9.40755977,80.8010769 C8.62360816,80.8010769 8.04873839,80.2783021 8.04873839,79.4421151 L8.04873839,79.4421151 Z M95.6442031,16.1497121 L88.9021911,16.1497121 L88.9021911,9.40755977 C88.9021911,4.2856864 84.6163643,0 79.4944909,0 L9.40755977,0 C4.2856864,0 0,4.2856864 0,9.40755977 L0,79.4421151 C0,84.5641289 4.2856864,88.8498153 9.40755977,88.8498153 L16.1497121,88.8498153 L16.1497121,95.5919677 C16.1497121,100.713981 20.4353985,104.999527 25.5572719,104.999527 L95.5919677,104.999527 C100.713981,104.999527 105,100.713981 105,95.5919677 L105,25.5574123 C105.051763,20.4353985 100.766217,16.1497121 95.6442031,16.1497121 L95.6442031,16.1497121 Z"
                          id="Fill-1" fill="#DBDBDB"></path>
                    <path d="M32.0381352,87.4387024 C31.1497128,87.4387024 30.2089147,87.1251499 29.4249631,86.5501397 C27.5956023,85.1390829 27.2820497,82.4735351 28.7454822,80.69655 L55.6094806,46.7768468 C56.7593605,45.3134142 58.7976628,44.7907798 60.5224125,45.5224961 L86.0798249,56.2366419 C88.2227383,57.1252046 89.2156313,59.5815302 88.327209,61.7244436 C87.4387867,63.867357 84.9821803,64.8603905 82.8394073,63.9718277 L60.20886,54.4597972 L35.3307881,85.9230346 C34.4946011,86.9159276 33.2924858,87.4387024 32.0381352,87.4387024 M29.9475975,27.9615868 C32.5607696,27.9615868 34.703683,30.1045002 34.703683,32.7176722 C34.703683,35.3308443 32.5607696,37.4736173 29.9475975,37.4736173 C27.3342851,37.4736173 25.1915121,35.3308443 25.1915121,32.7176722 C25.1915121,30.1045002 27.3342851,27.9615868 29.9475975,27.9615868 M29.9475975,44.6339333 C36.6373741,44.6339333 41.8639991,39.4074488 41.8639991,32.7176722 C41.8639991,26.0799906 36.5851388,20.8012707 29.9475975,20.8012707 C23.2576805,20.8012707 18.0313364,26.0277552 18.0313364,32.7176722 C18.0313364,39.4074488 23.5189977,44.6339333 29.9475975,44.6339333"
                          id="Fill-3" fill="#DBDBDB"></path>
                </g>
            </g>
        </g>
    </g>
</svg>