<?xml version="1.0" encoding="UTF-8"?>
<svg width="401px" height="393px" viewBox="0 0 401 393" version="1.1" xmlns="http://www.w3.org/2000/svg"
     xmlns:xlink="http://www.w3.org/1999/xlink">
    <title>最近删除</title>
    <defs>
        <rect id="path-1" x="0" y="0" width="401" height="393" rx="24"></rect>
        <polygon id="path-3" points="0 0 105 0 105 116.666375 0 116.666375"></polygon>
    </defs>
    <g id="R004【应用】【蓝区】图库功能增强(2.15已提供）" stroke="none" stroke-width="1" fill="none" fill-rule="evenodd">
        <g id="相册选中状态" transform="translate(-1022.000000, -281.000000)">
            <g id="编组-4" transform="translate(1022.000000, 281.000000)">
                <g id="21-波涛汹涌的海浪拍打在礁石上" opacity="1">
                    <mask id="mask-2" fill="white">
                        <use xlink:href="#path-1"></use>
                    </mask>
                    <rect stroke="#525253" x="0.5" y="0.5" width="400" height="392" rx="24" fill="#525253"></rect>
                </g>
                <g id="编组" transform="translate(164.000000, 164.000000)">
                    <mask id="mask-4" fill="white">
                        <use xlink:href="#path-3"></use>
                    </mask>
                    <g id="Clip-2"></g>
                    <path d="M32.0834748,27.0833383 L10.4303041,27.0833383 C7.43572751,27.078768 5.00457004,29.5028161 4.99999972,32.4973927 L4.99999972,32.4999318 C4.99999972,35.5117741 7.43217281,37.9167791 10.4303041,37.9167791 L32.0834748,37.9167791 L32.0834748,59.5699498 C32.0834748,62.5706202 34.5075228,65.0000003 37.5000682,65.0000003 C40.5119105,65.0000003 42.9169156,62.5678272 42.9169156,59.5699498 L42.9169156,37.9167791 L64.5700862,37.9167791 C67.5646628,37.9210956 69.9958203,35.4973014 70.0001367,32.5027248 L70.0001367,32.4999318 C70.0001367,29.4883434 67.5679636,27.0833383 64.5700862,27.0833383 L42.9169156,27.0833383 L42.9169156,5.4301677 C42.921232,2.43559107 40.4974378,0.00443360312 37.5028612,-0.000136719016 L37.5000682,-0.000136719016 C34.4884798,-0.000136719016 32.0834748,2.43203638 32.0834748,5.4301677 L32.0834748,27.0833383 Z" id="Fill-1" fill="#DBDBDB" mask="url(#mask-2)"></path>
                </g>
            </g>
        </g>
    </g>
</svg>