<?xml version="1.0" standalone="no"?>
<!DOCTYPE svg PUBLIC "-//W3C//DTD SVG 1.1//EN" "http://www.w3.org/Graphics/SVG/1.1/DTD/svg11.dtd">
<svg t="1761532921260" class="icon" viewBox="0 0 1024 1024" version="1.1" xmlns="http://www.w3.org/2000/svg" p-id="8622"
     xmlns:xlink="http://www.w3.org/1999/xlink" width="200" height="200">
    <path d="M512 1024a512 512 0 1 1 512-512 512.551385 512.551385 0 0 1-512 512z m0-478.838154l215.867077 215.867077a23.630769 23.630769 0 0 0 33.240615-33.161846L545.161846 512l215.867077-215.906462a23.630769 23.630769 0 0 0-33.161846-33.240615L512 478.680615 296.093538 262.813538a23.630769 23.630769 0 0 0-33.161846 33.240616L478.838154 512l-215.906462 215.867077a23.630769 23.630769 0 0 0 33.240616 33.161846L512 545.161846z"
          fill="rgba(255,255,255,0.337)" p-id="8623"></path>
</svg>