<svg viewBox="0 0 72 72" xmlns="http://www.w3.org/2000/svg" xmlns:xlink="http://www.w3.org/1999/xlink" width="72.000000" height="72.000000" fill="none">
	<defs>
		<clipPath id="clipPath_0">
			<rect width="48.000000" height="48.000000" x="12.000000" y="11.500000" fill="rgb(255,255,255)" />
		</clipPath>
	</defs>
	<rect id="plus" width="72.000000" height="72.000000" x="0.000000" y="0.000000" />
	<rect id="矩形 671" width="72.000000" height="72.000000" x="0.000000" y="0.000000" opacity="0" fill="rgb(0,0,0)" />
	<circle id="椭圆 237" cx="36" cy="36" r="36" fill="rgb(255,255,255)" fill-opacity="0.100000001" />
	<g id="xmark" clip-path="url(#clipPath_0)" customFrame="url(#clipPath_0)">
		<rect id="xmark" width="48.000000" height="48.000000" x="12.000000" y="11.500000" />
		<rect id="矩形 674" width="48.000000" height="48.000000" x="12.000000" y="11.500000" opacity="0" fill="rgb(0,0,0)" />
		<g id="组合 3421">
			<path id="矢量 67" d="M51.56 22.06C51.84 21.74 51.98 21.38 51.98 20.98C51.98 20.58 51.84 20.2333 51.56 19.94C51.2667 19.62 50.9134 19.46 50.5 19.46C50.0867 19.46 49.7334 19.62 49.44 19.94L36 33.38L22.56 19.94C22.2667 19.62 21.9134 19.46 21.5 19.46C21.0867 19.46 20.72 19.62 20.4 19.94C20.1467 20.2333 20.02 20.58 20.02 20.98C20.02 21.38 20.1467 21.74 20.4 22.06L33.88 35.5L20.4 48.9C20.1467 49.22 20.02 49.5866 20.02 50C20.02 50.4133 20.1467 50.7666 20.4 51.06C20.72 51.3133 21.0867 51.4466 21.5 51.46C21.9134 51.4733 22.2667 51.34 22.56 51.06L36 37.62L49.44 51.06C49.7334 51.34 50.0867 51.48 50.5 51.48C50.9134 51.48 51.2667 51.34 51.56 51.06C51.84 50.7666 51.98 50.4133 51.98 50C51.98 49.5866 51.84 49.22 51.56 48.9L38.12 35.5L51.56 22.06Z" fill="rgb(255,255,255)" fill-opacity="0.860000014" fill-rule="nonzero" />
		</g>
	</g>
	<g id="组合 3419" />
</svg>
