<svg width="80.000000" height="80.000000" viewBox="0 0 80 80" fill="none" xmlns="http://www.w3.org/2000/svg" xmlns:xlink="http://www.w3.org/1999/xlink">
	<desc>
			Created with Pixso.
	</desc>
	<defs>
		<filter id="filter_275_35727_dd" x="0.000000" y="0.000000" width="80.000000" height="80.000000" filterUnits="userSpaceOnUse" color-interpolation-filters="sRGB">
			<feFlood flood-opacity="0" result="BackgroundImageFix"/>
			<feGaussianBlur in="BackgroundImage" stdDeviation="33.3333"/>
			<feComposite in2="SourceAlpha" operator="in" result="effect_backgroundBlur_1"/>
			<feBlend mode="normal" in="SourceGraphic" in2="effect_backgroundBlur_1" result="shape"/>
		</filter>
	</defs>
	<g filter="url(#filter_275_35727_dd)">
		<circle id="椭圆 231" r="40.000000" transform="matrix(0 1 -1 0 40 40)" fill="#FFFFFF" fill-opacity="0.200000"/>
	</g>
	<rect id="矩形 320" x="20.000000" y="20.000000" rx="8.000000" width="40.000000" height="40.000000" fill="#FFFFFF" fill-opacity="0.200000"/>
	<path id="合并" d="M52.5127 31.4751C51.8613 30.8418 50.8057 30.8418 50.1543 31.4751L37.1992 44.0742L32.8506 39.8457C32.2002 39.2124 31.1445 39.2124 30.4932 39.8457C29.8418 40.4785 29.8418 41.5054 30.4932 42.1382L35.8535 47.3511C35.9004 47.4116 35.9521 47.4702 36.0088 47.5249C36.6602 48.1582 37.7148 48.1582 38.3662 47.5249L52.5127 33.7676C53.1631 33.1348 53.1631 32.1079 52.5127 31.4751Z" clip-rule="evenodd" fill="#FFFFFF" fill-opacity="1.000000" fill-rule="evenodd"/>
</svg>
