<svg width="80.000000" height="80.000000" viewBox="0 0 80 80" fill="none" xmlns="http://www.w3.org/2000/svg" xmlns:xlink="http://www.w3.org/1999/xlink">
	<desc>
			Created with Pixso.
	</desc>
	<defs>
		<filter id="filter_32_9553_dd" x="0.000000" y="0.000000" width="80.000000" height="80.000000" filterUnits="userSpaceOnUse" color-interpolation-filters="sRGB">
			<feFlood flood-opacity="0" result="BackgroundImageFix"/>
			<feGaussianBlur in="BackgroundImage" stdDeviation="33.3333"/>
			<feComposite in2="SourceAlpha" operator="in" result="effect_backgroundBlur_1"/>
			<feBlend mode="normal" in="SourceGraphic" in2="effect_backgroundBlur_1" result="shape"/>
		</filter>
		<linearGradient x1="38.212105" y1="62.511326" x2="47.969734" y2="23.791798" id="paint_linear_32_9556_0" gradientUnits="userSpaceOnUse">
			<stop stop-color="#206BFF"/>
			<stop offset="1.000000" stop-color="#6194F9"/>
		</linearGradient>
	</defs>
	<g filter="url(#filter_32_9553_dd)">
		<circle id="椭圆 229" r="40.000000" transform="matrix(0 1 -1 0 40 40)" fill="#FFFFFF" fill-opacity="0.860000"/>
	</g>
	<rect id="矩形 313" x="16.000000" y="17.000000" rx="8.000000" width="40.000000" height="40.000000" fill="#AFC7FF" fill-opacity="1.000000"/>
	<rect id="矩形 313" x="17.000000" y="18.000000" rx="8.000000" width="38.000000" height="38.000000" stroke="#717171" stroke-opacity="0" stroke-width="2.000000"/>
	<rect id="矩形 314" x="23.000000" y="23.000000" rx="8.000000" width="40.000000" height="40.000000" fill="url(#paint_linear_32_9556_0)" fill-opacity="0.900000"/>
	<path id="合并" d="M55.5089 34.4749C54.8579 33.8417 53.8023 33.8417 53.1513 34.4749L40.1973 47.0729L35.8489 42.844C35.1978 42.2108 34.1423 42.2108 33.4912 42.844C32.8402 43.4771 32.8402 44.5037 33.4912 45.1369L38.8408 50.3394C38.89 50.4043 38.9447 50.4664 39.0051 50.5251C39.6562 51.1583 40.7117 51.1583 41.3628 50.5251L55.5089 36.7677C56.16 36.1346 56.16 35.108 55.5089 34.4749Z" clip-rule="evenodd" fill="#FFFFFF" fill-opacity="1.000000" fill-rule="evenodd"/>
</svg>
