<svg id="图层_1" data-name="图层 1" xmlns="http://www.w3.org/2000/svg" viewBox="0 0 80 80"><defs><style>.cls-1,.cls-2{fill:#fff;}.cls-1{fill-opacity:0.2;}.cls-2{fill-opacity:0.86;}</style></defs><circle id="椭圆_148" data-name="椭圆 148" class="cls-1" cx="40" cy="40" r="40"/><path class="cls-2" d="M59.19,39.19h0l-3.4-7a4.94,4.94,0,0,0-4.45-2.8H45.67V21.27A3.26,3.26,0,0,0,42.42,18H39.37a3.28,3.28,0,0,0-3.27,3.26v8.09H30.43A4.94,4.94,0,0,0,26,32.16l-3.49,7.23a3.23,3.23,0,0,0,.44,3.54,3.44,3.44,0,0,0,2.32,1.12A34.39,34.39,0,0,1,20.9,56.46a3.64,3.64,0,0,0,.29,4.08A3.82,3.82,0,0,0,24.31,62H53.88a3.66,3.66,0,0,0,3.43-2.18,32,32,0,0,0,.14-15.92,3.24,3.24,0,0,0,1.87-1.71A3.53,3.53,0,0,0,59.19,39.19Zm-32.36.21,2.69-5.55a1.05,1.05,0,0,1,.94-.59h6.32A3.24,3.24,0,0,0,40,30V22.2a.25.25,0,0,1,.25-.25h1.24a.25.25,0,0,1,.25.25V30A3.26,3.26,0,0,0,45,33.26h6.32a1.09,1.09,0,0,1,.95.59L55,39.4a.53.53,0,0,1-.22.7.58.58,0,0,1-.29.06H27.3a.52.52,0,0,1-.53-.52A.5.5,0,0,1,26.83,39.4Zm27.09,18a.88.88,0,0,1-.87.67H47.43a15.45,15.45,0,0,0,1.88-6.18,2,2,0,0,0-3.91,0,11.58,11.58,0,0,1-2.7,6.18H36a15.3,15.3,0,0,0,1.88-6.17,2,2,0,0,0-3.9,0,11.8,11.8,0,0,1-2.66,6.17H26a1,1,0,0,1-.38-.08.91.91,0,0,1-.44-1.22,37.27,37.27,0,0,0,4-12.67H53.37A31.25,31.25,0,0,1,53.92,57.38Z" transform="translate(0)"/></svg>