<svg width="80.000000" height="80.000000" viewBox="0 0 80 80" fill="none" xmlns="http://www.w3.org/2000/svg" xmlns:xlink="http://www.w3.org/1999/xlink">
	<desc>
			Created with Pixso.
	</desc>
	<defs>
		<filter id="filter_144_7792_dd" x="0.000000" y="0.000000" width="80.000000" height="80.000000" filterUnits="userSpaceOnUse" color-interpolation-filters="sRGB">
			<feFlood flood-opacity="0" result="BackgroundImageFix"/>
			<feGaussianBlur in="BackgroundImage" stdDeviation="33.3333"/>
			<feComposite in2="SourceAlpha" operator="in" result="effect_backgroundBlur_1"/>
			<feBlend mode="normal" in="SourceGraphic" in2="effect_backgroundBlur_1" result="shape"/>
		</filter>
	</defs>
	<g filter="url(#filter_144_7792_dd)">
		<circle id="椭圆 148" r="40.000000" transform="matrix(0 1 -1 0 40 40)" fill="#FFFFFF" fill-opacity="0.200000"/>
	</g>
	<path id="path" d="M48.27 61.19C48.96 61.19 49.6 61.02 50.21 60.69C50.82 60.36 51.32 59.91 51.71 59.32C52.1 58.74 52.32 58.08 52.39 57.36L54.57 32.19C54.61 31.9 54.53 31.66 54.32 31.45C54.12 31.25 53.88 31.14 53.6 31.14L25.3 31.14C25.02 31.14 24.77 31.25 24.57 31.45C24.37 31.66 24.28 31.9 24.32 32.19L26.51 57.36C26.57 58.08 26.79 58.74 27.17 59.32C27.54 59.91 28.03 60.36 28.64 60.69C29.24 61.02 29.9 61.19 30.62 61.19L48.27 61.19ZM42.85 54.06C42.45 54.06 42.1 53.91 41.8 53.6C41.51 53.31 41.38 52.96 41.41 52.54L41.92 38.75C41.92 38.34 42.06 38 42.35 37.74C42.63 37.47 42.96 37.33 43.37 37.33C43.78 37.37 44.13 37.53 44.42 37.83C44.71 38.13 44.85 38.48 44.82 38.89L44.35 52.64C44.32 53.05 44.16 53.39 43.89 53.65C43.6 53.92 43.26 54.06 42.85 54.06ZM36.08 54.06C35.68 54.06 35.34 53.92 35.06 53.65C34.78 53.39 34.63 53.05 34.59 52.64L34.07 38.89C34.04 38.48 34.17 38.13 34.45 37.83C34.73 37.53 35.07 37.37 35.48 37.33C35.88 37.3 36.23 37.43 36.53 37.71C36.82 37.99 36.98 38.34 36.98 38.75L37.53 52.54C37.57 52.96 37.43 53.31 37.13 53.6C36.84 53.91 36.49 54.06 36.08 54.06ZM46.78 25.9C46.44 24.2 45.6 22.79 44.25 21.68C42.92 20.56 41.38 20 39.64 20C37.89 20 36.35 20.56 35.01 21.68C33.67 22.79 32.83 24.2 32.49 25.9L22.77 25.9C22.37 25.9 22.03 26.04 21.75 26.32C21.47 26.61 21.33 26.96 21.33 27.37C21.33 27.77 21.47 28.13 21.75 28.43C22.03 28.73 22.37 28.88 22.77 28.88L33.47 28.88L45.85 28.88L56.12 28.83C56.53 28.83 56.87 28.69 57.14 28.41C57.42 28.12 57.57 27.77 57.57 27.37C57.57 26.96 57.42 26.61 57.14 26.32C56.87 26.04 56.53 25.9 56.12 25.9L46.78 25.9Z" fill="#FFFFFF" fill-opacity="0.860000" fill-rule="nonzero"/>
</svg>
