<svg width="32.091522" height="36.080399" viewBox="0 0 32.0915 36.0804" fill="none" xmlns="http://www.w3.org/2000/svg" xmlns:xlink="http://www.w3.org/1999/xlink">
	<desc>
			Created with Pixso.
	</desc>
	<defs/>
	<path id="path" d="M25.54 36.06L6.45 36.01C2.9 36 0 33.06 0.01 29.47L0.07 6.52C0.08 2.92 2.99 0 6.54 0.01L25.63 0.06C29.19 0.07 32.08 3.01 32.07 6.6L32.01 29.55C32 33.15 29.09 36.07 25.54 36.06ZM6.53 3.02C4.63 3.02 3.05 4.6 3.05 6.52L2.99 29.48C2.99 31.41 4.55 33 6.46 33L25.55 33.05C27.45 33.05 29.03 31.47 29.03 29.55L29.09 6.59C29.1 4.66 27.53 3.07 25.62 3.07L6.53 3.02Z" fill="#FFFFFF" fill-opacity="0.860000" fill-rule="nonzero"/>
	<path id="path" d="M20.54 29.06L11.47 29.03C10.65 29.03 9.98 28.35 9.98 27.53C9.98 26.7 10.66 26.02 11.47 26.02L20.55 26.05C21.37 26.05 22.04 26.73 22.04 27.56C22.04 28.38 21.36 29.06 20.54 29.06Z" fill="#FFFFFF" fill-opacity="0.860000" fill-rule="nonzero"/>
</svg>
