<svg viewBox="0 0 40 40" xmlns="http://www.w3.org/2000/svg" xmlns:xlink="http://www.w3.org/1999/xlink" width="40.000000" height="40.000000" fill="none" customFrame="#000000">
    <g id="组合 1">
        <circle id="椭圆 1" cx="20.0000038" cy="20.0000038" r="20.0000038" fill="rgb(255,255,255)" fill-opacity="0.200000003" />
        <path id="矢量 1" d="M24.8633 29.5976C25.1077 29.3865 25.2299 29.1087 25.2299 28.7643C25.2299 28.4198 25.1077 28.1254 24.8633 27.8809L16.8299 19.7976L24.8299 11.7643C25.0966 11.5198 25.2299 11.2254 25.2299 10.8809C25.2299 10.5365 25.0966 10.242 24.8299 9.9976C24.5855 9.73093 24.2911 9.5976 23.9466 9.5976C23.6022 9.5976 23.3077 9.73093 23.0633 9.9976L14.7466 18.3143C14.3244 18.7476 14.1133 19.242 14.1133 19.7976C14.1133 20.3643 14.3244 20.8587 14.7466 21.2809L23.1133 29.5976C23.3466 29.8643 23.6355 29.9976 23.9799 29.9976C24.3355 29.9976 24.6299 29.8643 24.8633 29.5976Z" fill="rgb(255,255,255)" fill-opacity="0.860000014" fill-rule="nonzero" />
    </g>
</svg>
