<svg id="图层_1" data-name="图层 1" xmlns="http://www.w3.org/2000/svg" viewBox="0 0 80 80"><defs><style>.cls-1,.cls-2{fill:#fff;}.cls-1{fill-opacity:0.2;}.cls-2{fill-opacity:0.86;}</style></defs><circle id="椭圆_148" data-name="椭圆 148" class="cls-1" cx="40" cy="40" r="40"/><path class="cls-2" d="M48.79,53.15A14.73,14.73,0,0,1,38.55,56L38,55.9l-1-.16-.58-.14c-.31-.07-.62-.15-.93-.25l-.43-.15a14.41,14.41,0,0,1-2.44-1.09l0,0a15.69,15.69,0,0,1-4.46-3.85L28,50a16.43,16.43,0,0,1-3.37-10h3.57a.28.28,0,0,0,.23-.13.31.31,0,0,0,0-.28l-6-9.38a.24.24,0,0,0-.42,0l-6,9.38a.31.31,0,0,0,0,.28.24.24,0,0,0,.23.13h3.55a21.63,21.63,0,0,0,3.58,12s.05.1.08.14c.24.35.49.67.74,1l.28.38c.37.47.76.9,1.17,1.34l.11.11a19.79,19.79,0,0,0,6.14,4.39l.37.17c.42.19.87.35,1.3.5l.63.21c.39.13.78.22,1.18.32s.53.14.8.19l.32.08c.38.07.75.11,1.13.16L38,61a19.41,19.41,0,0,0,13.56-3.71,2.61,2.61,0,0,0,.6-3.53,2.4,2.4,0,0,0-1.57-1,2.36,2.36,0,0,0-1.82.43ZM60.19,40a21.74,21.74,0,0,0-3.55-11.94l-.1-.17c-.28-.4-.57-.8-.88-1.19l-.11-.14A20.12,20.12,0,0,0,48,20.65l-.24-.12c-.47-.19-.94-.37-1.42-.54-.18-.06-.35-.13-.53-.18-.42-.13-.84-.24-1.27-.34l-.71-.17a3.37,3.37,0,0,1-.34-.09c-.32-.06-.65-.08-1-.12L41.88,19c-.54-.05-1.07-.08-1.6-.09l-.3,0A19.46,19.46,0,0,0,28.4,22.71a2.6,2.6,0,0,0-.6,3.53,2.41,2.41,0,0,0,1.57,1,2.39,2.39,0,0,0,1.81-.42A14.73,14.73,0,0,1,41.45,24l.4.05a9.36,9.36,0,0,1,1.08.18l.47.11c.35.08.7.17,1.05.28l.31.11c.4.13.77.27,1.16.44l.11.06a15.46,15.46,0,0,1,5.79,4.53l0,0A16.41,16.41,0,0,1,55.33,40H51.78a.27.27,0,0,0-.22.41l6,9.38a.27.27,0,0,0,.21.12A.27.27,0,0,0,58,49.8l6-9.38s0,0,0,0a.24.24,0,0,0-.2-.39Z"/></svg>