<svg id="图层_1" data-name="图层 1" xmlns="http://www.w3.org/2000/svg" viewBox="0 0 80 80"><defs><style>.cls-1,.cls-2{fill:#fff;}.cls-1{fill-opacity:0.2;}.cls-2{fill-opacity:0.86;}</style></defs><circle id="椭圆_148" data-name="椭圆 148" class="cls-1" cx="40" cy="40" r="40"/><path class="cls-2" d="M60,23.33a1.69,1.69,0,0,0-1-1.53,1.66,1.66,0,0,0-1.83.36l-3.38,3.36A20.28,20.28,0,0,0,40,20,20,20,0,1,0,55.39,52.79a.84.84,0,0,0,0-1.12l-3.57-3.6a1,1,0,0,0-.65-.23.84.84,0,0,0-.6.31A13.17,13.17,0,0,1,40,53.33a13.33,13.33,0,1,1,9.09-23.1l-3.59,3.6a1.61,1.61,0,0,0-.37,1.8,1.68,1.68,0,0,0,1.54,1H58.33A1.69,1.69,0,0,0,60,35Z" transform="translate(0 0)"/></svg>