<?xml version="1.0" standalone="no"?><!DOCTYPE svg PUBLIC "-//W3C//DTD SVG 1.1//EN" "http://www.w3.org/Graphics/SVG/1.1/DTD/svg11.dtd"><svg t="1762756487931" class="icon" viewBox="0 0 1024 1024" version="1.1" xmlns="http://www.w3.org/2000/svg" p-id="5308" xmlns:xlink="http://www.w3.org/1999/xlink" width="200" height="200"><path d="M512 1024c-69.1 0-136.2-13.5-199.3-40.2C251.7 958 197 921 150 874c-47-47-84-101.7-109.8-162.7C13.5 648.2 0 581.1 0 512s13.5-136.2 40.2-199.3C66 251.7 103 197 150 150c47-47 101.8-83.9 162.7-109.7C375.8 13.5 442.9 0 512 0s136.2 13.5 199.3 40.2C772.3 66 827 102.9 874 150c47 47 83.9 101.8 109.7 162.7 26.7 63.1 40.2 130.2 40.2 199.3s-13.5 136.2-40.2 199.3C958 772.3 921.1 827 874 874c-47 47-101.8 83.9-162.7 109.7-63.1 26.8-130.2 40.3-199.3 40.3z m0-960c-60.5 0-119.2 11.8-174.4 35.2-53.3 22.6-101.3 54.9-142.4 96-41.2 41.2-73.5 89.1-96 142.4C75.8 392.8 64 451.5 64 512s11.8 119.2 35.2 174.4c22.6 53.3 54.9 101.3 96 142.4 41.2 41.2 89.1 73.5 142.4 96C392.8 948.2 451.5 960 512 960s119.2-11.8 174.4-35.2c53.3-22.6 101.3-54.9 142.4-96 41.2-41.2 73.5-89.1 96-142.4C948.2 631.2 960 572.5 960 512s-11.8-119.2-35.2-174.4c-22.6-53.3-54.9-101.3-96-142.4-41.2-41.2-89.1-73.5-142.4-96C631.2 75.8 572.5 64 512 64z" p-id="5309"></path><path d="M672 456.6L448 327.2c-20-11.6-44-11.6-64 0s-32 32.3-32 55.4v258.7c0 23.1 12 43.9 32 55.4 10 5.8 21 8.7 32 8.7s22-2.9 32-8.7l224-129.3c20-11.6 32-32.3 32-55.4s-12-43.9-32-55.4z" p-id="5310"></path></svg>