<svg width="24.000000" height="24.000000" viewBox="0 0 24 24" fill="none" xmlns="http://www.w3.org/2000/svg" xmlns:xlink="http://www.w3.org/1999/xlink">
	<desc>
			Created with Pixso.
	</desc>
	<defs>
		<filter id="filter_160_9187_dd" x="2.214233" y="5.525391" width="20.467285" height="16.518066" filterUnits="userSpaceOnUse" color-interpolation-filters="sRGB">
			<feFlood flood-opacity="0" result="BackgroundImageFix"/>
			<feColorMatrix in="SourceAlpha" type="matrix" values="0 0 0 0 0 0 0 0 0 0 0 0 0 0 0 0 0 0 127 0" result="hardAlpha"/>
			<feOffset dx="0.0493555" dy="1.41335"/>
			<feGaussianBlur stdDeviation="0.666667"/>
			<feComposite in2="hardAlpha" operator="out" k2="-1" k3="1"/>
			<feColorMatrix type="matrix" values="0 0 0 0 0 0 0 0 0 0 0 0 0 0 0 0 0 0 0.1 0"/>
			<feBlend mode="normal" in2="BackgroundImageFix" result="effect_dropShadow_1"/>
			<feBlend mode="normal" in="SourceGraphic" in2="effect_dropShadow_1" result="shape"/>
		</filter>
	</defs>
	<rect id="Rectangle 2375 Copy" rx="12.000000" width="24.000000" height="24.000000" fill="#0A59F7" fill-opacity="1.000000"/>
	<g filter="url(#filter_160_9187_dd)">
		<mask id="mask_160_9187" fill="white">
			<path id="Rectangle 62" d="M19.2505 7.43408C18.7657 6.98242 18.0065 7.00879 17.5544 7.49365L10.7994 14.7373L7.18323 11.3652C6.69861 10.9131 5.93921 10.9395 5.4873 11.4243C5.03528 11.9092 5.06177 12.6685 5.54651 13.1206L9.93457 17.2124C9.96216 17.2383 9.9906 17.2622 10.0198 17.2847C10.0276 17.2925 10.0355 17.2998 10.0435 17.3076C10.5282 17.7593 11.2875 17.7329 11.7395 17.2485L19.3097 9.13037C19.7617 8.64551 19.7352 7.88623 19.2505 7.43408Z" clip-rule="evenodd" fill="" fill-opacity="1.000000" fill-rule="evenodd"/>
		</mask>
		<path id="Rectangle 62" d="M19.2505 7.43408C18.7657 6.98242 18.0065 7.00879 17.5544 7.49365L10.7994 14.7373L7.18323 11.3652C6.69861 10.9131 5.93921 10.9395 5.4873 11.4243C5.03528 11.9092 5.06177 12.6685 5.54651 13.1206L9.93457 17.2124C9.96216 17.2383 9.9906 17.2622 10.0198 17.2847C10.0276 17.2925 10.0355 17.2998 10.0435 17.3076C10.5282 17.7593 11.2875 17.7329 11.7395 17.2485L19.3097 9.13037C19.7617 8.64551 19.7352 7.88623 19.2505 7.43408Z" clip-rule="evenodd" fill="#FFFFFF" fill-opacity="1.000000" fill-rule="evenodd" mask="url(#mask_160_9187)"/>
		<path id="Rectangle 62" d="M20.4408 7.41406C20.3198 7.14307 20.1504 6.90625 19.9325 6.70312C19.7146 6.49951 19.4663 6.34717 19.1877 6.24561C18.9192 6.14746 18.6417 6.10303 18.3553 6.11328C18.0688 6.12305 17.7952 6.18652 17.5341 6.30322C17.2633 6.42432 17.0262 6.59375 16.8231 6.81152L10.7501 13.3239L7.86523 10.6338C7.64734 10.4307 7.39917 10.2783 7.12061 10.1763C6.85205 10.0781 6.57458 10.0342 6.28809 10.0439C6.00171 10.0542 5.72791 10.1172 5.46692 10.2339C5.19604 10.355 4.95911 10.5244 4.75586 10.7422C4.55273 10.9604 4.40015 11.2085 4.29846 11.4873Q4.22619 11.6851 4.19302 11.8892Q4.15862 12.1008 4.16626 12.3193C4.17627 12.606 4.2395 12.8799 4.3562 13.1406C4.47717 13.4116 4.64661 13.6484 4.8645 13.8516L9.25256 17.9438Q9.30467 17.9924 9.35963 18.0373C9.36024 18.0379 9.36084 18.0385 9.36145 18.0391C9.57947 18.2422 9.82764 18.3945 10.1062 18.4966C10.3748 18.5947 10.6522 18.6387 10.9387 18.6284C11.2251 18.6187 11.4989 18.5552 11.7599 18.4385C12.0306 18.3179 12.2677 18.1484 12.4708 17.9302L20.041 9.8125C20.2443 9.59424 20.3967 9.34619 20.4985 9.06738C20.5967 8.79883 20.6407 8.52148 20.6307 8.23486C20.6207 7.94873 20.5574 7.6748 20.4408 7.41406ZM10.0198 17.2847C10.0276 17.2925 10.0355 17.2998 10.0435 17.3076C10.5282 17.7593 11.2875 17.7329 11.7395 17.2485L19.3097 9.13037C19.7617 8.64551 19.7352 7.88623 19.2505 7.43408C18.7657 6.98242 18.0065 7.00879 17.5544 7.49365L10.7994 14.7373L7.18323 11.3652C6.69861 10.9131 5.93921 10.9395 5.4873 11.4243C5.03528 11.9092 5.06177 12.6685 5.54651 13.1206L9.93457 17.2124C9.96216 17.2383 9.9906 17.2622 10.0198 17.2847Z" clip-rule="evenodd" fill="#000000" fill-opacity="0.047059" fill-rule="evenodd"/>
	</g>
</svg>
