<svg viewBox="0 0 48 48" xmlns="http://www.w3.org/2000/svg" xmlns:xlink="http://www.w3.org/1999/xlink" width="48.000000" height="48.000000" fill="none">
	<rect id="person_shield_fill" width="48.000000" height="48.000000" x="0.000000" y="0.000000" />
	<rect id="矩形 753" width="48.000000" height="48.000000" x="0.000000" y="0.000000" opacity="0" fill="rgb(0,0,0)" />
	<g id="组合 3491">
		<path id="矢量 77" d="M25.9199 2.40002C25.3066 2.10669 24.6799 1.96002 24.0399 1.96002C23.3999 1.96002 22.7599 2.10669 22.1199 2.40002L7.77992 9.08002C7.04659 9.40002 6.46659 9.89336 6.03992 10.56C5.62659 11.2267 5.41992 11.98 5.41992 12.82L5.41992 22.36C5.41992 25.88 6.15992 29.2534 7.63992 32.48C9.10659 35.6934 11.1599 38.4667 13.7999 40.8C16.4399 43.1334 19.4533 44.8134 22.8399 45.84C23.6399 46.0267 24.4266 46.0267 25.1999 45.84C28.6266 44.8134 31.6533 43.14 34.2799 40.82C36.8933 38.5 38.9333 35.7467 40.3999 32.56C41.8533 29.3867 42.5799 26.0067 42.5799 22.42L42.5799 12.82C42.5799 11.98 42.3599 11.2334 41.9199 10.58C41.4933 9.92669 40.9266 9.44002 40.2199 9.12002L25.9199 2.40002ZM39.5999 22.42C39.5999 24.5267 39.3266 26.5267 38.7799 28.42C38.2333 30.3 37.4666 31.9467 36.4799 33.36C34.5866 36.08 32.6733 38.1867 30.7399 39.68C28.8066 41.16 26.6866 42.2534 24.3799 42.96C24.1266 43.0267 23.9066 43.0267 23.7199 42.96C21.3466 42.3467 19.2133 41.28 17.3199 39.76C15.4399 38.24 13.4599 36.04 11.3799 33.16C10.4866 31.72 9.76659 30.0667 9.21992 28.2C8.67325 26.3334 8.39992 24.4067 8.39992 22.42L8.39992 12.82C8.39992 12.34 8.62659 12 9.07992 11.8L23.3799 5.14002C23.8199 4.94002 24.2533 4.94002 24.6799 5.14002L38.9799 11.86C39.1666 11.9267 39.3199 12.0534 39.4399 12.24C39.5466 12.4267 39.5999 12.6334 39.5999 12.86L39.5999 22.42Z" fill="rgb(255,255,255)" fill-opacity="0.400000006" fill-rule="nonzero" />
		<path id="矢量 78" d="M21.3199 26.16C19.7465 26.16 18.3065 26.4933 16.9999 27.16C15.6799 27.84 14.5465 28.7067 13.5999 29.76C12.6665 30.8133 11.9265 31.9467 11.3799 33.16C13.4599 36.04 15.4399 38.24 17.3199 39.76C19.2132 41.28 21.3465 42.3467 23.7199 42.96C23.9065 43.0267 24.1265 43.0267 24.3799 42.96C26.6865 42.2533 28.8065 41.16 30.7399 39.68C32.6732 38.1867 34.5865 36.08 36.4799 33.36C35.9332 32.08 35.2199 30.9067 34.3399 29.84C33.4599 28.76 32.3732 27.88 31.0799 27.2C29.7865 26.5067 28.3065 26.16 26.6399 26.16L21.3199 26.16ZM23.9599 10.56C22.6799 10.56 21.4999 10.88 20.4199 11.52C19.3532 12.16 18.4999 13.0133 17.8599 14.08C17.2199 15.16 16.8999 16.34 16.8999 17.62C16.8999 18.9 17.2199 20.08 17.8599 21.16C18.4999 22.2533 19.3532 23.12 20.4199 23.76C21.4999 24.4 22.6799 24.72 23.9599 24.72C25.2399 24.72 26.4199 24.4 27.4999 23.76C28.5932 23.12 29.4599 22.2533 30.0999 21.16C30.7399 20.08 31.0599 18.9 31.0599 17.62C31.0599 16.34 30.7399 15.16 30.0999 14.08C29.4599 13.0133 28.5932 12.16 27.4999 11.52C26.4199 10.88 25.2399 10.56 23.9599 10.56Z" fill="rgb(255,255,255)" fill-opacity="0.400000006" fill-rule="nonzero" />
	</g>
</svg>
