<svg viewBox="0 0 36.6333 36.6333" xmlns="http://www.w3.org/2000/svg" xmlns:xlink="http://www.w3.org/1999/xlink" width="36.633331" height="36.633301" fill="none" customFrame="#000000">
	<path id="矢量 80" d="M18.3167 0C14.9833 0 11.9167 0.816667 9.11667 2.45C6.31667 4.09444 4.09444 6.31667 2.45 9.11667C0.816667 11.9167 0 14.9833 0 18.3167C0 21.6278 0.816667 24.6889 2.45 27.5C4.09444 30.3111 6.32222 32.5389 9.13333 34.1833C11.9444 35.8167 15.0056 36.6333 18.3167 36.6333C21.6278 36.6333 24.6889 35.8167 27.5 34.1833C30.3111 32.5389 32.5389 30.3111 34.1833 27.5C35.8167 24.6889 36.6333 21.6278 36.6333 18.3167C36.6333 14.9833 35.8167 11.9167 34.1833 9.11667C32.5389 6.31667 30.3167 4.09444 27.5167 2.45C24.7167 0.816667 21.65 0 18.3167 0Z" fill="rgb(255,255,255)" fill-opacity="0.600000024" fill-rule="evenodd" />
	<path d="M12 12L24 24" stroke="rgb(0,0,0)" stroke-width="2" stroke-linecap="round"/>
	<path d="M12 24L24 12" stroke="rgb(0,0,0)" stroke-width="2" stroke-linecap="round"/>
</svg>
