<svg width="60.000000" height="60.000000" viewBox="0 0 60 60" fill="none" xmlns="http://www.w3.org/2000/svg" xmlns:xlink="http://www.w3.org/1999/xlink">
	<desc>
			Created with Pixso.
	</desc>
	<defs>
		<filter id="filter_211_25297_dd" x="0.000000" y="0.000000" width="60.000000" height="60.000000" filterUnits="userSpaceOnUse" color-interpolation-filters="sRGB">
			<feFlood flood-opacity="0" result="BackgroundImageFix"/>
			<feGaussianBlur in="BackgroundImage" stdDeviation="33.3333"/>
			<feComposite in2="SourceAlpha" operator="in" result="effect_backgroundBlur_1"/>
			<feBlend mode="normal" in="SourceGraphic" in2="effect_backgroundBlur_1" result="shape"/>
		</filter>
		<linearGradient x1="26.737326" y1="41.212109" x2="33.489349" y2="20.229862" id="paint_linear_211_25303_0" gradientUnits="userSpaceOnUse">
			<stop stop-color="#206BFF"/>
			<stop offset="1.000000" stop-color="#6194F9"/>
		</linearGradient>
	</defs>
	<g filter="url(#filter_211_25297_dd)">
		<circle id="椭圆 161" r="30.000000" transform="matrix(0 1 -1 0 30 30)" fill="#FFFFFF" fill-opacity="0.860000"/>
	</g>
	<path id="path" d="M38.12 29.92C37.39 29.92 36.7 30.06 36.07 30.31L32.34 27.76L40.53 22.17C41.12 21.76 41.27 20.96 40.86 20.36C40.46 19.77 39.66 19.62 39.07 20.02L30.05 26.19L21.03 20.02C20.44 19.62 19.63 19.77 19.23 20.36C18.83 20.96 18.98 21.76 19.57 22.17L27.75 27.76L24.03 30.31C23.39 30.06 22.7 29.92 21.97 29.92C18.79 29.92 16.21 32.51 16.21 35.69C16.21 38.88 18.79 41.47 21.97 41.47C25.15 41.47 27.74 38.88 27.74 35.69C27.74 34.24 27.2 32.91 26.3 31.89L30.04 29.33L33.79 31.89C32.89 32.91 32.35 34.24 32.35 35.69C32.35 38.88 34.94 41.47 38.12 41.47C41.3 41.47 43.89 38.88 43.89 35.69C43.89 32.51 41.3 29.92 38.12 29.92ZM21.97 38.88C20.21 38.88 18.79 37.45 18.79 35.69C18.79 33.94 20.21 32.51 21.97 32.51C23.72 32.51 25.14 33.94 25.14 35.69C25.14 37.45 23.72 38.88 21.97 38.88ZM38.12 38.88C36.37 38.88 34.95 37.45 34.95 35.69C34.95 33.94 36.37 32.51 38.12 32.51C39.88 32.51 41.3 33.94 41.3 35.69C41.3 37.45 39.88 38.88 38.12 38.88Z" fill="url(#paint_linear_211_25303_0)" fill-opacity="0.900000" fill-rule="nonzero"/>
</svg>
