<svg width="60.000000" height="60.000000" viewBox="0 0 60 60" fill="none" xmlns="http://www.w3.org/2000/svg" xmlns:xlink="http://www.w3.org/1999/xlink">
	<desc>
			Created with Pixso.
	</desc>
	<defs>
		<filter id="filter_70_6532_dd" x="302.000000" y="474.000000" width="0.000000" height="0.000000" filterUnits="userSpaceOnUse" color-interpolation-filters="sRGB">
			<feFlood flood-opacity="0" result="BackgroundImageFix"/>
			<feGaussianBlur in="BackgroundImage" stdDeviation="33.3333"/>
			<feComposite in2="SourceAlpha" operator="in" result="effect_backgroundBlur_1"/>
			<feBlend mode="normal" in="SourceGraphic" in2="effect_backgroundBlur_1" result="shape"/>
		</filter>
		<filter id="filter_127_5383_dd" x="0.000000" y="0.000000" width="60.000000" height="60.000000" filterUnits="userSpaceOnUse" color-interpolation-filters="sRGB">
			<feFlood flood-opacity="0" result="BackgroundImageFix"/>
			<feGaussianBlur in="BackgroundImage" stdDeviation="33.3333"/>
			<feComposite in2="SourceAlpha" operator="in" result="effect_backgroundBlur_1"/>
			<feBlend mode="normal" in="SourceGraphic" in2="effect_backgroundBlur_1" result="shape"/>
		</filter>
		<clipPath id="clip127_5390">
			<rect id="_鍥惧眰_1" width="27.599995" height="21.600000" transform="translate(16.200012 19.799988)" fill="white" fill-opacity="0"/>
		</clipPath>
		<linearGradient x1="42.625439" y1="37.024067" x2="43.796360" y2="23.085035" id="paint_linear_70_6534_0" gradientUnits="userSpaceOnUse">
			<stop stop-color="#206BFF"/>
			<stop offset="1.000000" stop-color="#6194F9"/>
		</linearGradient>
		<linearGradient x1="26.190731" y1="38.786381" x2="31.459846" y2="21.362593" id="paint_linear_70_6535_0" gradientUnits="userSpaceOnUse">
			<stop stop-color="#206BFF"/>
			<stop offset="1.000000" stop-color="#6194F9"/>
		</linearGradient>
		<linearGradient x1="26.730736" y1="41.209423" x2="33.482754" y2="20.227175" id="paint_linear_127_5389_0" gradientUnits="userSpaceOnUse">
			<stop stop-color="#206BFF"/>
			<stop offset="1.000000" stop-color="#6194F9"/>
		</linearGradient>
	</defs>
	<g filter="url(#filter_127_5383_dd)">
		<ellipse id="椭圆 161" rx="30.000002" ry="29.999998" transform="matrix(0 1 -1 0 30 30)" fill="#FFFFFF" fill-opacity="0.860000"/>
	</g>
	<g clip-path="url(#clip127_5390)">
		<path id="path" d="M38.12 29.92C37.39 29.92 36.69 30.06 36.06 30.31L32.33 27.76L40.52 22.16C41.11 21.76 41.26 20.95 40.86 20.36C40.46 19.77 39.65 19.62 39.06 20.02L30.04 26.19L21.02 20.02C20.43 19.61 19.62 19.77 19.22 20.36C18.82 20.95 18.97 21.76 19.56 22.16L27.75 27.76L24.03 30.31C23.38 30.06 22.69 29.92 21.97 29.92C18.79 29.92 16.2 32.51 16.2 35.69C16.2 38.88 18.79 41.47 21.97 41.47C25.14 41.47 27.73 38.88 27.73 35.69C27.73 34.24 27.19 32.91 26.3 31.89L30.04 29.33L33.78 31.89C32.89 32.91 32.35 34.24 32.35 35.69C32.35 38.88 34.93 41.47 38.11 41.47C41.29 41.47 43.88 38.88 43.88 35.69C43.88 32.51 41.3 29.92 38.12 29.92ZM21.96 38.88C20.21 38.88 18.78 37.45 18.78 35.69C18.78 33.94 20.21 32.51 21.96 32.51C23.71 32.51 25.14 33.94 25.14 35.69C25.14 37.45 23.71 38.88 21.96 38.88ZM38.12 38.88C36.37 38.88 34.94 37.45 34.94 35.69C34.94 33.94 36.37 32.51 38.12 32.51C39.87 32.51 41.3 33.94 41.3 35.69C41.3 37.45 39.87 38.88 38.12 38.88Z" fill="url(#paint_linear_127_5389_0)" fill-opacity="0.900000" fill-rule="nonzero"/>
	</g>
</svg>
