<svg width="512.000000" height="512.000000" viewBox="0 0 512 512" fill="none" xmlns="http://www.w3.org/2000/svg" xmlns:xlink="http://www.w3.org/1999/xlink">
	<desc>
			Created with Pixso.
	</desc>
	<defs>
		<linearGradient x1="269.810974" y1="51.000000" x2="269.810974" y2="461.000000" id="paint_linear_310_40435_0" gradientUnits="userSpaceOnUse">
			<stop stop-color="#FFA030"/>
			<stop offset="1.000000" stop-color="#FF7D00"/>
		</linearGradient>
	</defs>
	<rect width="512.000000" height="512.000000"/>
	<rect id="矩形 337" y="51.000000" rx="85.000000" width="512.000000" height="410.000000" fill="#FFFFFF" fill-opacity="0.860000"/>
	<path id="path" d="M466.28 51L45.71 51C44.21 51 42.72 51.07 41.23 51.22C39.74 51.37 38.26 51.59 36.79 51.89C35.32 52.19 33.87 52.56 32.44 53C31.01 53.44 29.6 53.96 28.21 54.54C26.83 55.13 25.48 55.78 24.16 56.5C22.84 57.22 21.56 58 20.31 58.85C19.07 59.69 17.87 60.6 16.71 61.57C15.55 62.54 14.44 63.56 13.38 64.64C12.33 65.72 11.32 66.85 10.37 68.03C9.42 69.21 8.53 70.43 7.7 71.7C6.87 72.97 6.1 74.28 5.39 75.62C4.69 76.97 4.05 78.35 3.47 79.76C2.9 81.17 2.4 82.6 1.96 84.06C1.53 85.52 1.17 87 0.87 88.5C0.58 89.99 0.36 91.5 0.21 93.02C0.07 94.54 0 96.06 0 97.59L0 414.4C0 415.93 0.07 417.45 0.21 418.97C0.36 420.49 0.58 422 0.87 423.49C1.17 424.99 1.53 426.47 1.96 427.93C2.4 429.39 2.9 430.82 3.47 432.23C4.05 433.64 4.69 435.02 5.39 436.37C6.1 437.71 6.87 439.02 7.7 440.29C8.53 441.56 9.42 442.78 10.37 443.96C11.32 445.14 12.33 446.27 13.38 447.35C14.44 448.43 15.55 449.45 16.71 450.42C17.87 451.39 19.07 452.3 20.31 453.14C21.56 453.99 22.84 454.77 24.16 455.49C25.48 456.21 26.83 456.86 28.21 457.45C29.6 458.03 31.01 458.55 32.44 458.99C33.87 459.43 35.32 459.8 36.79 460.1C38.26 460.4 39.74 460.62 41.23 460.77C42.72 460.92 44.21 461 45.71 461L466.28 461C467.78 461 469.27 460.92 470.76 460.77C472.25 460.62 473.73 460.4 475.2 460.1C476.67 459.8 478.12 459.43 479.55 458.99C480.98 458.55 482.39 458.03 483.77 457.45C485.16 456.86 486.51 456.21 487.83 455.49C489.15 454.77 490.43 453.99 491.68 453.14C492.92 452.3 494.12 451.39 495.28 450.42C496.44 449.45 497.55 448.43 498.61 447.35C499.66 446.27 500.67 445.14 501.62 443.96C502.57 442.78 503.46 441.56 504.29 440.29C505.12 439.02 505.89 437.71 506.6 436.37C507.3 435.02 507.94 433.64 508.52 432.23C509.09 430.82 509.59 429.39 510.03 427.93C510.46 426.47 510.82 424.99 511.12 423.49C511.41 422 511.63 420.49 511.78 418.97C511.92 417.45 512 415.93 512 414.4L512 97.59C512 96.06 511.92 94.54 511.78 93.02C511.63 91.5 511.41 89.99 511.12 88.5C510.82 87 510.46 85.52 510.03 84.06C509.59 82.6 509.09 81.17 508.52 79.76C507.94 78.35 507.3 76.97 506.6 75.62C505.89 74.28 505.12 72.97 504.29 71.7C503.46 70.43 502.57 69.21 501.62 68.03C500.67 66.85 499.66 65.72 498.61 64.64C497.55 63.56 496.44 62.54 495.28 61.57C494.12 60.6 492.92 59.69 491.68 58.85C490.43 58 489.15 57.22 487.83 56.5C486.51 55.78 485.16 55.13 483.77 54.54C482.39 53.96 480.98 53.44 479.55 53C478.12 52.56 476.67 52.19 475.2 51.89C473.73 51.59 472.25 51.37 470.76 51.22C469.27 51.07 467.78 51 466.28 51ZM386.74 379.31C386.74 379.31 387.37 316.56 308.82 316.56C230.28 316.56 26.7 328.09 26.7 328.09C26.7 328.09 178.55 283.7 359.72 265.31C492.3 251.87 386.74 379.31 386.74 379.31ZM435.12 269.82C435.12 269.82 431.35 227.55 405.59 224.98C379.83 222.4 226.64 230.1 226.64 230.1C226.64 230.1 381.71 191.04 440.78 195.52C487.28 200 435.12 269.82 435.12 269.82ZM464.65 189.77C464.65 189.77 466.54 162.88 453.34 157.74C440.15 152.6 368.52 157.74 368.52 157.74C368.52 157.74 443.1 125.81 474.7 134.05C501.71 141.09 464.65 189.77 464.65 189.77Z" fill="url(#paint_linear_310_40435_0)" fill-opacity="1.000000" fill-rule="nonzero"/>
</svg>
