<?xml version="1.0" encoding="UTF-8"?>
<svg width="24px"
     height="48px"
     viewBox="0 0 24 48"
     version="1.1"
     fill="currentColor"
     xmlns="http://www.w3.org/2000/svg">
    <title>ic_arrow_right_lightting</title>
    <g id="ic_arrow_right_lightting" stroke="none" stroke-width="1" fill="none" fill-rule="evenodd" fill-opacity="0.6">
        <path d="M23.4846607,23.4847599 C23.6713152,23.5779362 23.606831,23.4964521 23.4846607,23.4847599 C23.5203521,23.4099689 23.5073553,23.4024704 23.4846607,23.4847599 L11.4846607,11.4847599 C10.9564279,10.8384134 10.0081601,10.8384134 9.48466065,11.4847599 C8.83844645,12.0091857 8.83844645,12.9595009 9.48466065,13.4847599 L20.4846607,24.4847599 L9.48466065,35.4847599 C8.8394462,36.0120185 8.8394462,36.960834 9.48466065,37.4847599 C10.0066605,38.1311065 10.9549283,38.1311065 11.4846607,37.4847599 L23.4846607,25.4847599 C23.4108789,25.6830269 23.4813617,25.6280376 23.4846607,25.4847599 C24.0632192,25.0466507 24.1222048,24.2473061 23.4846607,23.4847599" id="Fill-1" fill="#FFFFFF"></path>
    </g>
</svg>