<svg id="图层_1" data-name="图层 1" xmlns="http://www.w3.org/2000/svg" xmlns:xlink="http://www.w3.org/1999/xlink" viewBox="0 0 56 56"><defs><style>.cls-1,.cls-4{fill:#fff;}.cls-1{fill-opacity:0;}.cls-2,.cls-3{fill:none;stroke-opacity:0.9;}.cls-2{stroke:url(#未命名的渐变);}.cls-3{stroke:url(#未命名的渐变_2);}.cls-4{fill-opacity:0.86;}.cls-5{fill:#7f7e7e;}</style><linearGradient id="未命名的渐变" x1="42.94" y1="-8.41" x2="26.26" y2="27.95" gradientTransform="translate(-0.04 3.93)" gradientUnits="userSpaceOnUse"><stop offset="0" stop-color="#fff"/><stop offset="1" stop-color="#fff" stop-opacity="0"/></linearGradient><linearGradient id="未命名的渐变_2" x1="-177.15" y1="-88.55" x2="-193.82" y2="-52.19" gradientTransform="translate(-164.04 -28.07) rotate(180)" xlink:href="#未命名的渐变"/></defs><rect id="属性_1_W4" data-name="属性 1 W4" class="cls-1" width="56" height="56"/><circle id="椭圆_12" data-name="椭圆 12" class="cls-2" cx="28" cy="28" r="27.5"/><circle id="椭圆_12-2" data-name="椭圆 12-2" class="cls-3" cx="28" cy="28" r="27.5"/><circle id="椭圆_200" data-name="椭圆 200" class="cls-4" cx="28" cy="28" r="24"/><path class="cls-5" d="M39.08,20H35.14a1.39,1.39,0,0,0-.14-.45l-1-2a2.17,2.17,0,0,0-2-1.11H24a2.17,2.17,0,0,0-2,1.11l-1,2A1.69,1.69,0,0,0,21,20H17a1.39,1.39,0,0,0-1.39,1.39v.77A1.4,1.4,0,0,0,17,23.54h2.16l1.09,16.38c0,.77.31,1.39,1.07,1.39H34.78c.77,0,1.06-.62,1.06-1.39L36.9,23.53h2.19a1.39,1.39,0,0,0,1.39-1.39v-.76A1.39,1.39,0,0,0,39.08,20ZM24.54,36.86a.9.9,0,0,1-1.8,0V26.22a.9.9,0,0,1,1.8,0h0Zm4.47,0a.9.9,0,0,1-1.8,0V26.22a.9.9,0,1,1,1.8,0h0Zm4.45,0a.9.9,0,1,1-1.8,0h0V26.22a.9.9,0,1,1,1.8,0h0Z"/></svg>