<svg id="图层_1" data-name="图层 1" xmlns="http://www.w3.org/2000/svg" viewBox="0 0 48 48"><defs><style>.cls-1,.cls-2{fill:#fff;}.cls-1{fill-opacity:0.2;}.cls-2{fill-opacity:0.86;}</style></defs><circle id="椭圆_200" data-name="椭圆 200" class="cls-1" cx="24" cy="24" r="24"/><path class="cls-2" d="M34.65,15.43h-3.8a1.33,1.33,0,0,0-.13-.43l-.94-1.92A2.1,2.1,0,0,0,27.87,12H20.16a2.1,2.1,0,0,0-1.93,1.07L17.31,15a1.64,1.64,0,0,0-.13.43H13.33A1.34,1.34,0,0,0,12,16.77v.74a1.34,1.34,0,0,0,1.33,1.34h2.09l1,15.78c0,.74.31,1.35,1,1.35h13c.73,0,1-.61,1-1.35l1-15.78h2.11A1.36,1.36,0,0,0,36,17.51v-.74A1.36,1.36,0,0,0,34.65,15.43Zm-14,16.26a.87.87,0,1,1-1.73,0V21.43a.87.87,0,1,1,1.73,0Zm4.32,0a.87.87,0,1,1-1.74,0V21.43a.87.87,0,1,1,1.74,0Zm4.29,0a.87.87,0,0,1-1.74,0V21.43a.87.87,0,0,1,1.74,0Z"/></svg>