<svg width="24.121094" height="48.061523" viewBox="0 0 24.1211 48.0615" fill="none" xmlns="http://www.w3.org/2000/svg" xmlns:xlink="http://www.w3.org/1999/xlink">
	<desc>
			Created with Pixso.
	</desc>
	<defs/>
	<rect id="组件集 345" width="24.121094" height="48.061523" fill="#FFFFFF" fill-opacity="0"/>
	<g opacity="0.000000">
		<rect id="rect" width="24.000000" height="48.000000" transform="matrix(-0.999997 -0.00254545 -0.00254545 0.999997 24.1197 0.0620117)" fill="#FFFFFF" fill-opacity="0.860000"/>
	</g>
	<path id="path" d="M17.63 37.02C17.25 37.33 16.86 37.49 16.47 37.49C16.09 37.49 15.75 37.33 15.47 37.01L4.94 26.28C4.65 25.89 4.3 25.25 4.3 24.74C4.31 24.1 4.52 23.59 4.95 23.2L15.54 12.49C15.82 12.2 16.16 12.05 16.58 12.05C17 12.05 17.36 12.2 17.64 12.5C17.89 12.75 18.03 13.07 18.05 13.46C18.07 13.83 17.96 14.18 17.73 14.5L7.58 24.75L17.64 34.89C17.92 35.19 18.06 35.54 18.06 35.96C18.05 36.37 17.91 36.72 17.63 37.02Z" fill="#FFFFFF" fill-opacity="0.860000" fill-rule="nonzero"/>
</svg>
