<svg width="96.000000" height="96.000000" viewBox="0 0 96 96" fill="none" xmlns="http://www.w3.org/2000/svg" xmlns:xlink="http://www.w3.org/1999/xlink">
	<desc>
			Created with Pixso.
	</desc>
	<defs>
		<filter id="filter_439_47037_dd" x="66.480957" y="29.594727" width="25.012207" height="39.594971" filterUnits="userSpaceOnUse" color-interpolation-filters="sRGB">
			<feFlood flood-opacity="0" result="BackgroundImageFix"/>
			<feColorMatrix in="SourceAlpha" type="matrix" values="0 0 0 0 0 0 0 0 0 0 0 0 0 0 0 0 0 0 127 0" result="hardAlpha"/>
			<feOffset dx="0" dy="2"/>
			<feGaussianBlur stdDeviation="1.33333"/>
			<feComposite in2="hardAlpha" operator="out" k2="-1" k3="1"/>
			<feColorMatrix type="matrix" values="0 0 0 0 0 0 0 0 0 0 0 0 0 0 0 0 0 0 0.25 0"/>
			<feBlend mode="normal" in2="BackgroundImageFix" result="effect_dropShadow_1"/>
			<feBlend mode="normal" in="SourceGraphic" in2="effect_dropShadow_1" result="shape"/>
			<feColorMatrix in="SourceAlpha" type="matrix" values="0 0 0 0 0 0 0 0 0 0 0 0 0 0 0 0 0 0 127 0" result="hardAlpha"/>
			<feOffset dx="0" dy="-4"/>
			<feGaussianBlur stdDeviation="0.666667"/>
			<feComposite in2="hardAlpha" operator="arithmetic" k2="-1" k3="1"/>
			<feColorMatrix type="matrix" values="0 0 0 0 0.18039 0 0 0 0 0.45882 0 0 0 0 1 0 0 0 0.25 0"/>
			<feBlend mode="normal" in2="shape" result="effect_innerShadow_2"/>
		</filter>
		<filter id="filter_439_47038_dd" x="3.575684" y="3.944580" width="55.151367" height="60.342773" filterUnits="userSpaceOnUse" color-interpolation-filters="sRGB">
			<feFlood flood-opacity="0" result="BackgroundImageFix"/>
			<feColorMatrix in="SourceAlpha" type="matrix" values="0 0 0 0 0 0 0 0 0 0 0 0 0 0 0 0 0 0 127 0" result="hardAlpha"/>
			<feOffset dx="0" dy="2"/>
			<feGaussianBlur stdDeviation="1.33333"/>
			<feComposite in2="hardAlpha" operator="out" k2="-1" k3="1"/>
			<feColorMatrix type="matrix" values="0 0 0 0 0 0 0 0 0 0 0 0 0 0 0 0 0 0 0.25 0"/>
			<feBlend mode="normal" in2="BackgroundImageFix" result="effect_dropShadow_1"/>
			<feBlend mode="normal" in="SourceGraphic" in2="effect_dropShadow_1" result="shape"/>
			<feColorMatrix in="SourceAlpha" type="matrix" values="0 0 0 0 0 0 0 0 0 0 0 0 0 0 0 0 0 0 127 0" result="hardAlpha"/>
			<feOffset dx="0" dy="-4"/>
			<feGaussianBlur stdDeviation="0.666667"/>
			<feComposite in2="hardAlpha" operator="arithmetic" k2="-1" k3="1"/>
			<feColorMatrix type="matrix" values="0 0 0 0 0.18039 0 0 0 0 0.45882 0 0 0 0 1 0 0 0 0.25 0"/>
			<feBlend mode="normal" in2="shape" result="effect_innerShadow_2"/>
		</filter>
		<filter id="filter_439_47039_dd" x="30.092285" y="49.038086" width="31.021484" height="46.885986" filterUnits="userSpaceOnUse" color-interpolation-filters="sRGB">
			<feFlood flood-opacity="0" result="BackgroundImageFix"/>
			<feColorMatrix in="SourceAlpha" type="matrix" values="0 0 0 0 0 0 0 0 0 0 0 0 0 0 0 0 0 0 127 0" result="hardAlpha"/>
			<feOffset dx="0" dy="2"/>
			<feGaussianBlur stdDeviation="1.33333"/>
			<feComposite in2="hardAlpha" operator="out" k2="-1" k3="1"/>
			<feColorMatrix type="matrix" values="0 0 0 0 0 0 0 0 0 0 0 0 0 0 0 0 0 0 0.25 0"/>
			<feBlend mode="normal" in2="BackgroundImageFix" result="effect_dropShadow_1"/>
			<feBlend mode="normal" in="SourceGraphic" in2="effect_dropShadow_1" result="shape"/>
			<feColorMatrix in="SourceAlpha" type="matrix" values="0 0 0 0 0 0 0 0 0 0 0 0 0 0 0 0 0 0 127 0" result="hardAlpha"/>
			<feOffset dx="0" dy="-4"/>
			<feGaussianBlur stdDeviation="0.666667"/>
			<feComposite in2="hardAlpha" operator="arithmetic" k2="-1" k3="1"/>
			<feColorMatrix type="matrix" values="0 0 0 0 0.18039 0 0 0 0 0.45882 0 0 0 0 1 0 0 0 0.25 0"/>
			<feBlend mode="normal" in2="shape" result="effect_innerShadow_2"/>
		</filter>
		<linearGradient x1="77.318703" y1="86.389816" x2="14.254272" y2="13.822386" id="paint_linear_439_47036_0" gradientUnits="userSpaceOnUse">
			<stop stop-color="#528CFF"/>
			<stop offset="0.117896" stop-color="#538CFF"/>
			<stop offset="0.213837" stop-color="#548DFF"/>
			<stop offset="0.291200" stop-color="#578FFF"/>
			<stop offset="0.353363" stop-color="#5A92FF"/>
			<stop offset="0.403704" stop-color="#5F94FF"/>
			<stop offset="0.445600" stop-color="#6498FF"/>
			<stop offset="0.482430" stop-color="#699BFF"/>
			<stop offset="0.517570" stop-color="#6F9FFF"/>
			<stop offset="0.554400" stop-color="#75A3FF"/>
			<stop offset="0.596296" stop-color="#7BA7FF"/>
			<stop offset="0.646637" stop-color="#81ABFF"/>
			<stop offset="0.708800" stop-color="#87AFFF"/>
			<stop offset="0.786163" stop-color="#8DB3FF"/>
			<stop offset="0.882104" stop-color="#93B7FF"/>
			<stop offset="1.000000" stop-color="#98BAFF"/>
		</linearGradient>
		<radialGradient gradientTransform="translate(63.7974 24.9116) rotate(90) scale(18.8354 18.8354)" cx="0.000000" cy="0.000000" r="1.000000" id="paint_radial_439_47040_0" gradientUnits="userSpaceOnUse">
			<stop stop-color="#FFFFFF"/>
			<stop offset="0.117896" stop-color="#FFFFFF" stop-opacity="0.992157"/>
			<stop offset="0.213837" stop-color="#FFFFFF" stop-opacity="0.968627"/>
			<stop offset="0.291200" stop-color="#FFFFFF" stop-opacity="0.929412"/>
			<stop offset="0.353363" stop-color="#FFFFFF" stop-opacity="0.878431"/>
			<stop offset="0.403704" stop-color="#FFFFFF" stop-opacity="0.819608"/>
			<stop offset="0.445600" stop-color="#FFFFFF" stop-opacity="0.749020"/>
			<stop offset="0.482430" stop-color="#FFFFFF" stop-opacity="0.670588"/>
			<stop offset="0.517570" stop-color="#FFFFFF" stop-opacity="0.588235"/>
			<stop offset="0.554400" stop-color="#FFFFFF" stop-opacity="0.501961"/>
			<stop offset="0.596296" stop-color="#FFFFFF" stop-opacity="0.415686"/>
			<stop offset="0.646637" stop-color="#FFFFFF" stop-opacity="0.325490"/>
			<stop offset="0.708800" stop-color="#FFFFFF" stop-opacity="0.239216"/>
			<stop offset="0.786163" stop-color="#FFFFFF" stop-opacity="0.152941"/>
			<stop offset="0.882104" stop-color="#FFFFFF" stop-opacity="0.074510"/>
			<stop offset="1.000000" stop-color="#FFFFFF" stop-opacity="0.000000"/>
		</radialGradient>
		<radialGradient gradientTransform="translate(63.7974 24.9116) rotate(90) scale(18.8354 18.8354)" cx="0.000000" cy="0.000000" r="1.000000" id="paint_radial_439_47041_0" gradientUnits="userSpaceOnUse">
			<stop stop-color="#FFFFFF"/>
			<stop offset="1.000000" stop-color="#FFFFFF" stop-opacity="0.000000"/>
		</radialGradient>
	</defs>
	<g opacity="0.960000">
		<path id="circle" d="M0 48C0 21.49 21.49 0 48 0C74.5 0 96 21.49 96 48C96 74.5 74.5 96 48 96C21.49 96 0 74.5 0 48Z" fill="url(#paint_linear_439_47036_0)" fill-opacity="0.900000" fill-rule="evenodd"/>
		<g filter="url(#filter_439_47037_dd)">
			<path id="path" d="M86.6 39.25C86.94 43.28 87.43 46.85 87.49 50.42C87.56 54.8 86.12 58.71 82.59 61.7C82.04 62.17 81.37 62.57 80.69 62.85C79.05 63.52 78.62 63.22 78.36 61.52C78.28 61.05 78.04 60.55 77.74 60.18C76.31 58.4 74.95 56.58 73.37 54.95C69.95 51.43 69.48 47.78 72.4 43.85C73.68 42.14 75.3 40.64 76.89 39.18C77.66 38.47 78.12 37.95 77.84 36.8C77.46 35.2 77.93 33.67 79.2 32.48C80.36 31.4 81.94 31.24 82.95 32.35C84.85 34.45 87.33 36.36 86.6 39.25Z" fill="#D8EBFE" fill-opacity="1.000000" fill-rule="nonzero"/>
		</g>
		<g filter="url(#filter_439_47038_dd)">
			<path id="path" d="M7.98 34.79C8.98 35.67 11.26 36.86 15.01 34.42C15.01 34.42 17.31 34.3 17.94 37.27C17.94 37.27 15.34 51.21 23.24 52.02C23.24 52.02 26.09 53.61 26.98 57.09C26.98 57.09 29.05 59.53 30.51 57.43C31.97 55.33 27.37 43.76 33.14 42.45C33.14 42.45 35.01 42.84 35.69 40.12C35.73 39.95 35.87 39.81 36.05 39.8C37.29 39.69 42.07 39.46 42.48 42.34C42.48 42.34 43.81 49.02 45.85 48.12C45.85 48.12 47.84 49.9 47.68 39.91C47.68 39.91 50.7 28.68 53.75 30.52C53.98 30.66 54.28 30.63 54.4 30.39C54.88 29.39 55.52 27.18 50.66 28.88C50.49 28.94 50.35 29.08 50.26 29.24C49.99 29.71 49.26 30.62 47.6 30.73C47.6 30.73 42.09 31.23 41.17 27.58C41.15 27.47 41.17 27.36 41.23 27.27C41.78 26.52 44.5 23.13 47.23 25.55C47.27 25.58 47.31 25.59 47.35 25.58C47.76 25.43 49.88 24.38 49.73 17.89C49.73 17.67 49.89 17.49 50.11 17.45C51.24 17.28 54.48 16.59 53.94 14.61C53.94 14.61 56.42 12.41 50.62 9.31C50.62 9.31 49.52 6.58 52.94 7.36C55.75 8 53.98 6.63 53.26 6.11C53.09 5.99 52.88 5.94 52.67 5.94L40.87 6.18C40.87 6.18 17.43 5.27 7.67 33.29C7.48 33.82 7.55 34.42 7.98 34.79Z" fill="#D8EBFE" fill-opacity="1.000000" fill-rule="nonzero"/>
		</g>
		<g filter="url(#filter_439_47039_dd)">
			<path id="path" d="M38.4 64.36C40.58 68.45 42.86 72.89 42.79 73.43C42.73 73.85 45.09 77.1 43.8 79.69C43.72 79.85 43.53 79.92 43.36 79.89C42.03 79.66 36.62 79.09 35.16 84.61L34.1 87.14C34.06 87.25 34.11 87.37 34.22 87.41C35.13 87.74 38.85 89.06 40.8 89.37C43.03 89.74 46.48 89.92 46.48 89.92C46.48 89.92 51.83 87.85 53.72 80.18C53.72 80.18 53.86 78.34 51.89 78.45C51.68 78.46 51.49 78.34 51.45 78.13C51.23 76.85 50.88 72.37 55.46 68.21C55.46 68.21 60.59 62.93 52.77 61.6C52.62 61.57 52.5 61.47 52.44 61.33C51.81 59.83 47.91 51.27 39.97 51.04C31.26 50.78 36.44 60.69 38.4 64.36Z" fill="#D8EBFE" fill-opacity="1.000000" fill-rule="nonzero"/>
		</g>
		<g style="mix-blend-mode:normal">
			<path id="椭圆 241" d="M44.96 24.91C44.96 14.5 53.39 6.07 63.79 6.07C74.19 6.07 82.63 14.5 82.63 24.91C82.63 35.31 74.19 43.74 63.79 43.74C53.39 43.74 44.96 35.31 44.96 24.91Z" fill="url(#paint_radial_439_47040_0)" fill-opacity="0.200000" fill-rule="evenodd"/>
		</g>
	</g>
</svg>
