<svg width="24.121094" height="48.061523" viewBox="0 0 24.1211 48.0615" fill="none" xmlns="http://www.w3.org/2000/svg" xmlns:xlink="http://www.w3.org/1999/xlink">
	<desc>
			Created with Pixso.
	</desc>
	<defs/>
	<rect id="组件集 345" width="24.121094" height="48.061523" transform="matrix(-1 0 0 1 24.1211 0)" fill="#FFFFFF" fill-opacity="0"/>
	<g opacity="0.000000">
		<rect id="rect" x="0.001434" y="0.062012" width="24.000000" height="48.000000" transform="rotate(0.145859 0.001434 0.062012)" fill="#FFFFFF" fill-opacity="0.860000"/>
	</g>
	<path id="path" d="M6.48 37.02C6.87 37.33 7.25 37.49 7.64 37.49C8.03 37.49 8.36 37.33 8.64 37.01L19.17 26.28C19.46 25.89 19.81 25.25 19.81 24.74C19.81 24.1 19.59 23.59 19.16 23.2L8.58 12.49C8.29 12.2 7.95 12.05 7.53 12.05C7.11 12.05 6.75 12.2 6.48 12.5C6.22 12.75 6.08 13.07 6.06 13.46C6.05 13.83 6.15 14.18 6.38 14.5L16.53 24.75L6.47 34.89C6.19 35.19 6.05 35.54 6.06 35.96C6.06 36.37 6.2 36.72 6.48 37.02Z" fill="#FFFFFF" fill-opacity="0.860000" fill-rule="nonzero"/>
</svg>
