<svg width="512.000000" height="512.000000" viewBox="0 0 512 512" fill="none" xmlns="http://www.w3.org/2000/svg" xmlns:xlink="http://www.w3.org/1999/xlink">
	<desc>
			Created with Pixso.
	</desc>
	<defs>
		<filter id="filter_267_31759_dd" x="20.000000" y="24.000000" width="472.000000" height="472.000000" filterUnits="userSpaceOnUse" color-interpolation-filters="sRGB">
			<feFlood flood-opacity="0" result="BackgroundImageFix"/>
			<feColorMatrix in="SourceAlpha" type="matrix" values="0 0 0 0 0 0 0 0 0 0 0 0 0 0 0 0 0 0 127 0" result="hardAlpha"/>
			<feOffset dx="0" dy="4"/>
			<feGaussianBlur stdDeviation="17"/>
			<feComposite in2="hardAlpha" operator="out" k2="-1" k3="1"/>
			<feColorMatrix type="matrix" values="0 0 0 0 0.019608 0 0 0 0 0.57647 0 0 0 0 0.43529 0 0 0 1 0"/>
			<feBlend mode="normal" in2="BackgroundImageFix" result="effect_dropShadow_1"/>
			<feBlend mode="normal" in="SourceGraphic" in2="effect_dropShadow_1" result="shape"/>
		</filter>
		<linearGradient x1="0.000122" y1="-0.000031" x2="511.999969" y2="512.000061" id="paint_linear_271_44875_0" gradientUnits="userSpaceOnUse">
			<stop stop-color="#00DEB4"/>
			<stop offset="1.000000" stop-color="#01B084"/>
		</linearGradient>
	</defs>
	<path id="矩形 265" d="M96 0L416 0C469.02 0 512 42.98 512 96L512 416C512 469.02 469.02 512 416 512L96 512C42.98 512 0 469.02 0 416L0 96C0 42.98 42.98 0 96 0Z" fill="url(#paint_linear_271_44875_0)" fill-opacity="1.000000" fill-rule="evenodd"/>
	<g filter="url(#filter_267_31759_dd)">
		<path id="减去顶层" d="M71 256C71 153.828 153.827 71 256 71C358.173 71 441 153.828 441 256C441 358.172 358.173 441 256 441C153.827 441 71 358.172 71 256ZM152.399 207.9C152.399 195.641 162.339 185.701 174.6 185.701C186.86 185.701 196.8 195.641 196.8 207.9C196.8 220.162 186.86 230.102 174.6 230.102C162.339 230.102 152.399 220.162 152.399 207.9ZM341.1 185.701C328.84 185.701 318.9 195.641 318.9 207.9C318.9 220.162 328.84 230.102 341.1 230.102C353.36 230.102 363.3 220.162 363.3 207.9C363.3 195.641 353.36 185.701 341.1 185.701ZM266.903 269.17L287.336 233.779C291.423 226.701 288.993 217.656 281.91 213.576C274.826 209.498 265.771 211.93 261.685 219.01L228.385 276.686C224.298 283.766 226.727 292.811 233.811 296.889C236.843 298.635 240.237 299.188 243.448 298.693L265.386 298.693C273.56 298.693 280.186 292.066 280.186 283.893C280.186 276.232 274.364 269.93 266.903 269.17ZM160.823 289.625C154.791 291.125 151.229 297.043 152.729 303.074C153.426 305.881 154.234 308.65 155.154 311.381C156.135 314.295 157.243 317.166 158.478 319.994C159.467 322.264 160.533 324.492 161.676 326.684C163.249 329.699 164.967 332.641 166.829 335.508C168.249 337.693 169.744 339.822 171.315 341.893C173.267 344.467 175.334 346.951 177.517 349.35C179.546 351.576 181.66 353.713 183.86 355.756C185.925 357.672 188.064 359.508 190.279 361.264C192.916 363.352 195.639 365.311 198.447 367.135C200.538 368.494 202.676 369.781 204.861 370.994C207.789 372.619 210.78 374.1 213.835 375.439C216.188 376.469 218.577 377.414 221.004 378.275C225.943 380.027 230.957 381.402 236.044 382.406C242.853 383.746 249.792 384.418 256.864 384.418C263.937 384.418 270.876 383.746 277.684 382.406C282.771 381.402 287.785 380.027 292.726 378.275C295.154 377.414 297.546 376.467 299.9 375.436C302.952 374.098 305.941 372.617 308.868 370.994C311.051 369.781 313.187 368.496 315.275 367.139C318.086 365.312 320.811 363.354 323.449 361.264C325.665 359.508 327.806 357.67 329.871 355.752C332.07 353.711 334.184 351.576 336.212 349.35C338.395 346.953 340.46 344.469 342.41 341.896C343.982 339.824 345.479 337.695 346.899 335.508C348.76 332.645 350.477 329.705 352.049 326.691C353.192 324.5 354.26 322.268 355.252 319.994C356.486 317.164 357.595 314.291 358.577 311.375C359.496 308.646 360.304 305.879 361.001 303.074C362.5 297.043 358.938 291.125 352.906 289.625C346.873 288.125 340.955 291.688 339.456 297.721C338.392 302.004 337.012 306.154 335.317 310.174C333.383 314.76 331.038 319.172 328.283 323.412C325.806 327.227 323.061 330.801 320.05 334.137C316.883 337.645 313.42 340.887 309.663 343.863C305.625 347.062 301.37 349.855 296.897 352.242C293.184 354.227 289.32 355.928 285.308 357.352C281.566 358.678 277.77 359.732 273.918 360.518C268.349 361.65 262.664 362.217 256.864 362.217C251.064 362.217 245.38 361.65 239.812 360.518C235.959 359.732 232.163 358.678 228.422 357.352C224.409 355.93 220.546 354.227 216.833 352.244C212.36 349.855 208.104 347.062 204.065 343.863C200.309 340.887 196.846 337.643 193.678 334.135C190.668 330.801 187.924 327.227 185.445 323.412C182.69 319.172 180.346 314.76 178.412 310.174C176.717 306.154 175.337 302.004 174.272 297.721C172.773 291.688 166.855 288.125 160.823 289.625Z" clip-rule="evenodd" fill="#FFFFFF" fill-opacity="0.860000" fill-rule="evenodd"/>
	</g>
</svg>
