<svg width="512.000000" height="512.000000" viewBox="0 0 512 512" fill="none" xmlns="http://www.w3.org/2000/svg" xmlns:xlink="http://www.w3.org/1999/xlink">
	<desc>
			Created with Pixso.
	</desc>
	<defs>
		<linearGradient x1="194.714981" y1="483.334229" x2="319.612488" y2="36.144760" id="paint_linear_275_35939_0" gradientUnits="userSpaceOnUse">
			<stop stop-color="#206BFF"/>
			<stop offset="1.000000" stop-color="#5F94FF"/>
		</linearGradient>
	</defs>
	<rect width="512.000000" height="512.000000"/>
	<rect id="矩形 334" x="80.000000" y="139.000000" width="352.000000" height="303.000000" fill="#FFFFFF" fill-opacity="0.860000"/>
	<path id="合并" d="M407.56 30.06L433.47 45.35C444.06 51.6 447.75 65.34 441.7 76.05L418.36 117.36L467.47 117.36C492.06 117.36 512 137.29 512 161.89L512 444.44C512 469.04 492.06 488.97 467.47 488.97L44.52 488.97C19.93 488.97 0 469.04 0 444.44L0 161.89C0 137.29 19.93 117.36 44.52 117.36L93.63 117.36L70.29 76.05C64.25 65.34 67.93 51.6 78.52 45.35L104.43 30.06C115.02 23.81 128.51 27.42 134.56 38.13L179.31 117.36L332.68 117.36L377.44 38.13C383.48 27.42 396.97 23.81 407.56 30.06ZM345.93 284.01L228.35 214.62C213.51 205.86 194.78 216.57 194.78 233.8L194.78 372.57C194.78 389.8 213.51 400.5 228.35 391.74L345.93 322.36C360.53 313.74 360.53 292.62 345.93 284.01Z" fill="url(#paint_linear_275_35939_0)" fill-opacity="1.000000" fill-rule="evenodd"/>
</svg>
