<svg width="512.000000" height="512.000000" viewBox="0 0 512 512" fill="none" xmlns="http://www.w3.org/2000/svg" xmlns:xlink="http://www.w3.org/1999/xlink">
	<desc>
			Created with Pixso.
	</desc>
	<defs>
		<linearGradient x1="194.715042" y1="449.235443" x2="319.612549" y2="71.720062" id="paint_linear_310_40442_0" gradientUnits="userSpaceOnUse">
			<stop stop-color="#206BFF"/>
			<stop offset="0.117896" stop-color="#216BFF"/>
			<stop offset="0.213837" stop-color="#226CFF"/>
			<stop offset="0.291200" stop-color="#256EFF"/>
			<stop offset="0.353363" stop-color="#2870FE"/>
			<stop offset="0.403704" stop-color="#2C72FE"/>
			<stop offset="0.445600" stop-color="#3075FE"/>
			<stop offset="0.482430" stop-color="#3578FD"/>
			<stop offset="0.517570" stop-color="#3B7CFD"/>
			<stop offset="0.554400" stop-color="#417FFC"/>
			<stop offset="0.596296" stop-color="#4683FC"/>
			<stop offset="0.646637" stop-color="#4C87FB"/>
			<stop offset="0.708800" stop-color="#528AFB"/>
			<stop offset="0.786163" stop-color="#578EFA"/>
			<stop offset="0.882104" stop-color="#5D91FA"/>
			<stop offset="1.000000" stop-color="#6194F9"/>
		</linearGradient>
	</defs>
	<rect width="512.000000" height="512.000000"/>
	<path id="合并" d="M416.39 182.31L416.39 151.77C416.39 140.75 412.5 131.35 404.72 123.56C396.93 115.77 387.53 111.87 376.52 111.87L87.71 111.87C82.2 111.87 77.1 112.85 72.4 114.79C67.7 116.74 63.41 119.66 59.51 123.56C55.62 127.45 52.7 131.75 50.76 136.45C48.81 141.16 47.84 146.26 47.84 151.77L47.84 366.22C47.84 377.24 51.73 386.64 59.51 394.43C63.41 398.33 67.7 401.25 72.4 403.2C77.1 405.14 82.2 406.12 87.71 406.12L376.52 406.12C387.53 406.12 396.93 402.22 404.72 394.43C412.5 386.64 416.39 377.24 416.39 366.22L416.39 319.95C416.39 306.54 426.92 296.01 440.32 296.01C453.71 296.01 464.24 306.54 464.24 319.95L464.24 366.22C464.24 378.34 462.1 389.57 457.81 399.92C453.53 410.26 447.11 419.72 438.55 428.29C429.98 436.86 420.53 443.28 410.2 447.57C399.86 451.85 388.64 454 376.52 454L87.71 454C63.49 454 42.81 445.43 25.68 428.29C17.12 419.72 10.7 410.26 6.42 399.92C2.14 389.57 0 378.34 0 366.22L0 151.77C0 139.65 2.14 128.42 6.42 118.08C10.7 107.73 17.12 98.27 25.68 89.7C34.25 81.13 43.7 74.71 54.04 70.42C64.37 66.14 75.6 64 87.71 64L376.52 64C400.75 64 421.42 72.57 438.55 89.7C447.11 98.27 453.53 107.73 457.81 118.08C462.1 128.42 464.24 139.65 464.24 151.77L464.24 182.31C464.24 195.72 453.71 206.25 440.32 206.25C426.92 206.25 416.39 195.72 416.39 182.31ZM323.12 182.96C331.48 174.48 331.39 161.24 322.91 152.87C314.43 144.5 301.2 144.6 292.84 153.08L217.71 229.35C215.21 231.89 213.3 234.81 211.97 238.11C210.69 241.29 210.06 244.59 210.06 248.02C210.06 251.45 210.69 254.76 211.97 257.94C213.3 261.24 215.21 264.16 217.71 266.7L292.84 342.96C301.2 351.45 314.43 351.54 322.91 343.18C331.39 334.81 331.48 321.57 323.12 313.09L280.06 269.37L490.73 269.37C502.64 269.37 512 260.01 512 248.1C512 236.18 502.64 226.82 490.73 226.82L279.92 226.82L323.12 182.96Z" fill="url(#paint_linear_310_40442_0)" fill-opacity="0.900000" fill-rule="evenodd"/>
</svg>
