<svg width="512.000000" height="512.000000" viewBox="0 0 512 512" fill="none" xmlns="http://www.w3.org/2000/svg" xmlns:xlink="http://www.w3.org/1999/xlink">
	<desc>
			Created with Pixso.
	</desc>
	<defs>
		<linearGradient x1="196.021347" y1="444.214539" x2="319.191101" y2="54.960068" id="paint_linear_271_45179_0" gradientUnits="userSpaceOnUse">
			<stop stop-color="#206BFF"/>
			<stop offset="1.000000" stop-color="#5F94FF"/>
		</linearGradient>
	</defs>
	<rect width="512.000000" height="512.000000"/>
	<rect id="矩形 332" x="80.000000" y="133.000000" width="352.000000" height="269.000000" fill="#FFFFFF" fill-opacity="0.860000"/>
	<path id="path-1" d="M328.07 47C343.11 47 357.2 54.37 365.78 66.74L391.93 104.44L440.06 104.44C478.09 104.44 508.91 135.31 508.91 173.38L508.91 380.19C508.91 418.26 478.09 449.12 440.06 449.12L72.85 449.12C34.82 449.12 4 418.26 4 380.19L4 173.38C4 135.31 34.82 104.44 72.85 104.44L120.98 104.44L147.13 66.74C155.71 54.37 169.79 47 184.83 47L328.07 47ZM256.45 156.14C196.25 156.14 147.44 205.01 147.44 265.29C147.44 325.57 196.25 374.44 256.45 374.44C316.66 374.44 365.47 325.57 365.47 265.29C365.47 205.01 316.66 156.14 256.45 156.14ZM256.45 190.61C297.65 190.61 331.04 224.05 331.04 265.29C331.04 306.54 297.65 339.97 256.45 339.97C215.26 339.97 181.86 306.54 181.86 265.29C181.86 224.05 215.26 190.61 256.45 190.61Z" fill="url(#paint_linear_271_45179_0)" fill-opacity="1.000000" fill-rule="nonzero"/>
	<path id="path-1" d="M365.78 66.74L391.93 104.44L440.06 104.44C478.09 104.44 508.91 135.31 508.91 173.38L508.91 380.19C508.91 418.26 478.09 449.12 440.06 449.12L72.85 449.12C34.82 449.12 4 418.26 4 380.19L4 173.38C4 135.31 34.82 104.44 72.85 104.44L120.98 104.44L147.13 66.74C155.71 54.37 169.79 47 184.83 47L328.07 47C343.11 47 357.2 54.37 365.78 66.74ZM147.44 265.29C147.44 325.57 196.25 374.44 256.45 374.44C316.66 374.44 365.47 325.57 365.47 265.29C365.47 205.01 316.66 156.14 256.45 156.14C196.25 156.14 147.44 205.01 147.44 265.29ZM331.04 265.29C331.04 306.54 297.65 339.97 256.45 339.97C215.26 339.97 181.86 306.54 181.86 265.29C181.86 224.05 215.26 190.61 256.45 190.61C297.65 190.61 331.04 224.05 331.04 265.29Z" stroke="#000000" stroke-opacity="0" stroke-width="1.000000"/>
</svg>
