<svg width="512.000000" height="512.000000" viewBox="0 0 512 512" fill="none" xmlns="http://www.w3.org/2000/svg" xmlns:xlink="http://www.w3.org/1999/xlink">
	<desc>
			Created with Pixso.
	</desc>
	<defs>
		<linearGradient x1="204.330612" y1="499.777344" x2="308.456543" y2="15.895096" id="paint_linear_275_35922_0" gradientUnits="userSpaceOnUse">
			<stop stop-color="#206BFF"/>
			<stop offset="1.000000" stop-color="#5F94FF"/>
		</linearGradient>
	</defs>
	<rect width="512.000000" height="512.000000"/>
	<path id="path-1" d="M468.04 62.38C468.39 64.67 468.62 66.98 468.73 69.29L468.82 72.76L468.84 335.95C468.71 360.85 468.51 372.69 463.4 392.33C458.3 411.97 448.3 430.46 428.38 442.38C392.13 464.06 348.21 455.54 330.27 423.35C312.33 391.16 327.17 347.49 363.42 325.8C378.31 316.9 397.24 309.02 410.34 296.58C418.2 289.11 422.04 278.37 422.04 254.1L422.02 134.75C422.02 132.25 419.76 130.36 417.3 130.81L191.42 172.17C189.52 172.52 188.14 174.17 188.14 176.1L188.14 367.42C188.15 368.46 188.16 369.5 188.16 370.54L188.18 382.03L188.16 387.75C188.02 412.66 187.85 424.19 182.75 443.84C177.64 463.48 167.64 481.97 147.72 493.88C111.47 515.57 67.55 507.05 49.61 474.86C31.67 442.67 46.51 398.99 82.76 377.31C97.65 368.4 116.58 360.53 129.68 348.09C137.54 340.62 141.38 329.88 141.38 305.6L141.38 105.24C141.38 73.8 162.46 46.84 191.67 40.08L195.7 39.29L394.5 6.82C429.59 1.08 462.52 25.96 468.04 62.38Z" fill="url(#paint_linear_275_35922_0)" fill-opacity="1.000000" fill-rule="nonzero"/>
	<path id="path-1" d="M468.73 69.29L468.82 72.76L468.84 335.95C468.71 360.85 468.51 372.69 463.4 392.33C458.3 411.97 448.3 430.46 428.38 442.38C392.13 464.06 348.21 455.54 330.27 423.35C312.33 391.16 327.17 347.49 363.42 325.8C378.31 316.9 397.24 309.02 410.34 296.58C418.2 289.11 422.04 278.37 422.04 254.1L422.02 134.75C422.02 132.25 419.76 130.36 417.3 130.81L191.42 172.17C189.52 172.52 188.14 174.17 188.14 176.1L188.14 367.42C188.15 368.46 188.16 369.5 188.16 370.54L188.18 382.03L188.16 387.75C188.02 412.66 187.85 424.19 182.75 443.84C177.64 463.48 167.64 481.97 147.72 493.88C111.47 515.57 67.55 507.05 49.61 474.86C31.67 442.67 46.51 398.99 82.76 377.31C97.65 368.4 116.58 360.53 129.68 348.09C137.54 340.62 141.38 329.88 141.38 305.6L141.38 105.24C141.38 73.8 162.46 46.84 191.67 40.08L195.7 39.29L394.5 6.82C429.59 1.08 462.52 25.96 468.04 62.38C468.39 64.67 468.62 66.98 468.73 69.29Z" stroke="#000000" stroke-opacity="0" stroke-width="1.000000"/>
</svg>
