<?xml version="1.0" encoding="UTF-8"?>
<svg width="58px" height="58px" viewBox="0 0 58 58" version="1.1" xmlns="http://www.w3.org/2000/svg" xmlns:xlink="http://www.w3.org/1999/xlink">
    <title>4</title>
    <defs>
        <linearGradient x1="70.423913%" y1="5.23913043%" x2="27.423913%" y2="98.2391304%" id="linearGradient-1">
            <stop stop-color="#FFFFFF" offset="0%"></stop>
            <stop stop-color="#FFFFFF" stop-opacity="0.21" offset="51%"></stop>
            <stop stop-color="#FFFFFF" offset="100%"></stop>
        </linearGradient>
    </defs>
    <g id="icon" stroke="none" stroke-width="1" fill="none" fill-rule="evenodd">
        <g id="Extra-Large备份" transform="translate(-1473.000000, -144.000000)">
            <g id="3" transform="translate(1474.000000, 145.000000)">
                <g id="编组-4">
                    <circle id="椭圆_212" fill="#FFFFFF" fill-rule="nonzero" cx="28" cy="28" r="24"></circle>
                    <circle id="椭圆_12" stroke="url(#linearGradient-1)" stroke-width="2" cx="28" cy="28" r="28"></circle>
                </g>
                <g id="Clipped" transform="translate(12.000000, 15.000000)" fill="#000000" fill-rule="nonzero" stroke="#000000" stroke-width="0.7">
                    <g id="编组">
                        <path d="M10.82,3.5225 L14.71,3.5225 L14.71,1.2825 L10.82,1.2825 C9.54,1.2825 8.3,1.5025 7.17,1.9425 L8.94,3.7325 C9.54,3.6025 10.17,3.5225 10.82,3.5225 Z" id="path"></path>
                        <path d="M20.82,1.2825 L16.92,1.2825 L16.92,3.5225 L20.82,3.5225 C25.57,3.5225 29.44,7.4625 29.44,12.2725 C29.44,15.5925 27.61,18.4825 24.93,19.9725 L26.54,21.6125 C29.6,19.6825 31.65,16.2125 31.65,12.2725 C31.65,6.2125 26.79,1.2825 20.82,1.2825 Z" id="path"></path>
                        <path d="M22.28,12.5025 C22.28,11.8825 21.78,11.3725 21.18,11.3725 L16.46,11.3725 L18.66,13.6225 L21.18,13.6225 C21.78,13.6225 22.28,13.1225 22.28,12.5025 Z" id="path"></path>
                        <path d="M2.47,0.3225 C2.04,-0.1075 1.34,-0.1075 0.91,0.3225 C0.48,0.7525 0.48,1.4725 0.91,1.9125 L3.34,4.3725 C1.29,6.3625 0,9.1625 0,12.2725 C0,18.3425 4.86,23.2825 10.82,23.2825 L14.71,23.2825 L14.71,21.0425 L10.82,21.0425 C6.06,21.0425 2.2,17.1025 2.2,12.2725 C2.2,9.7725 3.24,7.5325 4.89,5.9425 L10.37,11.5125 C10.01,11.7025 9.76,12.0625 9.76,12.5025 C9.76,13.1225 10.25,13.6225 10.87,13.6225 L12.44,13.6225 L19.75,21.0425 L16.92,21.0425 L16.92,23.2825 L20.82,23.2825 C21.18,23.2825 21.52,23.2225 21.87,23.1925 L25.91,27.2925 C26.13,27.5125 26.41,27.6225 26.69,27.6225 C26.97,27.6225 27.25,27.5125 27.47,27.2925 C27.89,26.8525 27.89,26.1425 27.47,25.7025 L2.47,0.3225 Z" id="path"></path>
                    </g>
                </g>
            </g>
        </g>
    </g>
</svg>