<svg id="图层_1" data-name="图层 1" xmlns="http://www.w3.org/2000/svg" viewBox="0 0 48 48"><defs><style>.cls-1,.cls-2{fill:#fff;}.cls-1{fill-opacity:0.2;}</style></defs><g id="icon"><g id="Extra-Large备份"><g id="_5" data-name="5"><circle id="椭圆-200" class="cls-1" cx="24" cy="24" r="24"/><g id="编组"><path id="path" class="cls-2" d="M24.21,13H35.62A3.42,3.42,0,0,1,39,14.59a4,4,0,0,1,.39,1.59q0,6.69,0,13.36a3.12,3.12,0,0,1-3.27,3.07c-.54,0-1.07,0-1.61,0A2.63,2.63,0,0,0,32,34a4.7,4.7,0,0,1-1.31,1.46A3.38,3.38,0,0,1,28.9,36c-3.15,0-6.32,0-9.48,0a3,3,0,0,1-2.85-1.7,2.77,2.77,0,0,0-3-1.68,9.61,9.61,0,0,1-1.42,0A3.11,3.11,0,0,1,9,29.53c0-4.48,0-9,0-13.47,0-1.92,1.46-3.06,3.75-3.06ZM13.37,16.5a.62.62,0,0,0-.64.57v3.54c0,2.66,0,5.32,0,8a.61.61,0,0,0,.7.6c.25,0,.5,0,.76,0a4.6,4.6,0,0,1,5.23,2.73c.22.57.46.67.89.67,2.31,0,4.62,0,6.92,0,1,0,1.71-.08,2.05-1a1.24,1.24,0,0,1,.19-.24A6.29,6.29,0,0,1,35,29.2c.54,0,.74-.12.74-.66,0-3.81,0-7.64,0-11.46A.61.61,0,0,0,35,16.5Z"/><path id="path-2" data-name="path" class="cls-2" d="M18.07,23.54c0,.69,0,1.38,0,2.08a1.24,1.24,0,0,1-1.38,1.22c-.93,0-1.52-.42-1.53-1.21,0-1.42,0-2.85,0-4.26a1.32,1.32,0,0,1,1.48-1.24,1.32,1.32,0,0,1,1.43,1.28C18.08,22.12,18.07,22.83,18.07,23.54Z"/><path id="path-3" data-name="path" class="cls-2" d="M28.2,23.46c0,.69,0,1.38,0,2.07a1.29,1.29,0,0,1-1.38,1.31c-1,0-1.56-.4-1.57-1.24,0-1.41,0-2.81,0-4.21a1.31,1.31,0,0,1,1.53-1.25,1.34,1.34,0,0,1,1.42,1.31C28.21,22.11,28.2,22.78,28.2,23.46Z"/><path id="path-4" data-name="path" class="cls-2" d="M33.23,23.52c0,.68,0,1.35,0,2,0,.84-.54,1.29-1.44,1.29s-1.48-.47-1.48-1.27c0-1.37,0-2.74,0-4.1a1.34,1.34,0,0,1,1.46-1.34,1.32,1.32,0,0,1,1.46,1.32C33.24,22.14,33.23,22.83,33.23,23.52Z"/><path id="path-5" data-name="path" class="cls-2" d="M23.11,23.51c0,.69,0,1.39,0,2.08a1.24,1.24,0,0,1-1.42,1.25c-.91,0-1.49-.45-1.5-1.26,0-1.39,0-2.78,0-4.16a1.34,1.34,0,0,1,1.51-1.28,1.28,1.28,0,0,1,1.41,1.3C23.12,22.12,23.11,22.82,23.11,23.51Z"/></g></g></g></g></svg>