<svg id="图层_1" data-name="图层 1" xmlns="http://www.w3.org/2000/svg" viewBox="0 0 48 48"><defs><style>.cls-1,.cls-2{fill:#fff;}.cls-1{fill-opacity:0.2;}.cls-2{stroke:#fff;stroke-width:0.7px;}</style></defs><g id="icon"><g id="Extra-Large备份"><g id="_3" data-name="3"><circle id="椭圆-202" class="cls-1" cx="24" cy="24" r="24"/><g id="Clipped"><g id="编组"><path id="path" class="cls-2" d="M18.82,14.52h3.89V12.28H18.82a10.06,10.06,0,0,0-3.65.66l1.77,1.79A8.88,8.88,0,0,1,18.82,14.52Z"/><path id="path-2" data-name="path" class="cls-2" d="M28.82,12.28h-3.9v2.24h3.9a8.71,8.71,0,0,1,8.62,8.75A8.8,8.8,0,0,1,32.93,31l1.61,1.64a11,11,0,0,0-5.72-20.33Z"/><path id="path-3" data-name="path" class="cls-2" d="M30.28,23.5a1.12,1.12,0,0,0-1.1-1.13H24.46l2.2,2.25h2.52A1.11,1.11,0,0,0,30.28,23.5Z"/><path id="path-4" data-name="path" class="cls-2" d="M10.47,11.32a1.1,1.1,0,0,0-1.56,0,1.14,1.14,0,0,0,0,1.59l2.43,2.46a11,11,0,0,0,7.48,18.91h3.89V32H18.82a8.78,8.78,0,0,1-5.93-15.1l5.48,5.57a1.12,1.12,0,0,0,.5,2.11h1.57L27.75,32H24.92v2.24h3.9c.36,0,.7-.06,1.05-.09l4,4.1a1.09,1.09,0,0,0,1.56,0,1.16,1.16,0,0,0,0-1.59Z"/></g></g></g></g></g></svg>