<?xml version="1.0" encoding="UTF-8"?>
<svg width="58px" height="58px" viewBox="0 0 58 58" version="1.1" xmlns="http://www.w3.org/2000/svg" xmlns:xlink="http://www.w3.org/1999/xlink">
    <title>设置b </title>
    <defs>
        <linearGradient x1="70.423913%" y1="5.23913043%" x2="27.423913%" y2="98.2391304%" id="linearGradient-1">
            <stop stop-color="#FFFFFF" offset="0%"></stop>
            <stop stop-color="#FFFFFF" stop-opacity="0.21" offset="51%"></stop>
            <stop stop-color="#FFFFFF" offset="100%"></stop>
        </linearGradient>
    </defs>
    <g id="icon" stroke="none" stroke-width="1" fill="none" fill-rule="evenodd">
        <g id="Extra-Large备份" transform="translate(-989.000000, -239.000000)">
            <g id="设置b-" transform="translate(990.000000, 240.000000)">
                <g id="设置高亮">
                    <circle id="椭圆_212" fill="#FFFFFF" fill-rule="nonzero" cx="28" cy="28" r="24"></circle>
                    <circle id="椭圆_12" stroke="url(#linearGradient-1)" stroke-width="2" cx="28" cy="28" r="28"></circle>
                </g>
                <g id="设置-(2)" transform="translate(15.000000, 14.000000)" fill="#000000" fill-rule="nonzero">
                    <path d="M20.4655601,22.4621289 C19.4699896,23.2791833 18.3405321,23.9142885 17.1252496,24.3365477 L17.1252496,26.7259168 C17.1252496,27.7111882 16.3287932,28.5076446 15.3435218,28.5076446 L11.6599112,28.5076446 C10.6746398,28.5076446 9.8781834,27.7111882 9.8781834,26.7259168 L9.8781834,24.3365477 C8.66290087,23.9142885 7.53001037,23.2791833 6.53787293,22.4621289 L4.51583504,23.6293494 C3.66445067,24.1202686 2.57618919,23.8284635 2.08183697,22.9770791 L0.241748157,19.7843877 C-0.249171059,18.9330033 0.0392010676,17.8447419 0.890585443,17.3503896 L2.81649929,16.2380972 C2.56589018,14.9266906 2.56589018,13.580954 2.81649929,12.2695474 L0.890585443,11.1572549 C0.0392010676,10.6663357 -0.252604061,9.57464122 0.238315155,8.72325684 L2.07840397,5.53056544 C2.56932318,4.67918106 3.66101766,4.38737593 4.51240204,4.87829515 L6.53443993,6.04551566 C7.53001037,5.2284613 8.65946787,4.58992302 9.8781834,4.16766384 L9.8781834,1.78172779 C9.8781834,0.796456351 10.6746398,0 11.6599112,0 L15.3435218,0 C16.3287932,0 17.1252496,0.796456351 17.1252496,1.78172779 L17.1252496,4.17109684 C18.3576971,4.60022203 19.4837216,5.23876031 20.4655601,6.04551566 L22.487598,4.87829515 C23.3389823,4.38737593 24.4272438,4.67918106 24.921596,5.53056544 L26.7616848,8.72325684 C27.2526041,9.57464122 26.9607989,10.6629027 26.1094146,11.1572549 L24.1835007,12.2695474 C24.4341098,13.580954 24.4341098,14.9266906 24.1835007,16.2380972 L26.1094146,17.3503896 C26.9607989,17.8413089 27.2526041,18.9330033 26.7616848,19.7843877 L24.921596,22.9770791 C24.4306768,23.8284635 23.3389823,24.1202686 22.487598,23.6293494 L20.4655601,22.4621289 Z M13.5,19.6024386 C16.5004433,19.6024386 18.9344414,17.2096366 18.9344414,14.2572553 C18.9344414,11.304874 16.5004433,8.91207193 13.5,8.91207193 C10.4995567,8.91207193 8.0655586,11.304874 8.0655586,14.2572553 C8.0655586,17.2096366 10.4995567,19.6024386 13.5,19.6024386 Z" id="形状"></path>
                </g>
            </g>
        </g>
    </g>
</svg>