<svg id="图层_1" data-name="图层 1" xmlns="http://www.w3.org/2000/svg" viewBox="0 0 48 48"><defs><style>.cls-1,.cls-2{fill:#fff;}.cls-1{fill-opacity:0.2;}</style></defs><g id="icon"><g id="Extra-Large备份"><g id="设置a"><g id="icon_settings_offfocus" data-name="icon settings offfocus"><circle id="椭圆-202" class="cls-1" cx="24" cy="24" r="24"/></g><g id="设置-_1_" data-name="设置-(1)"><path id="形状" class="cls-2" d="M31.47,32.46a11.14,11.14,0,0,1-3.34,1.88v2.39a1.79,1.79,0,0,1-1.79,1.78H22.66a1.78,1.78,0,0,1-1.78-1.78V34.34a10.9,10.9,0,0,1-3.34-1.88l-2,1.17A1.79,1.79,0,0,1,13.08,33l-1.84-3.2a1.78,1.78,0,0,1,.65-2.43l1.93-1.11a10.6,10.6,0,0,1,0-4l-1.93-1.11a1.79,1.79,0,0,1-.65-2.44l1.84-3.19a1.78,1.78,0,0,1,2.43-.65l2,1.17a10.86,10.86,0,0,1,3.35-1.88V11.78A1.78,1.78,0,0,1,22.66,10h3.68a1.79,1.79,0,0,1,1.79,1.78v2.39a11,11,0,0,1,3.34,1.88l2-1.17a1.78,1.78,0,0,1,2.43.65l1.84,3.19a1.79,1.79,0,0,1-.65,2.44l-1.93,1.11a10.6,10.6,0,0,1,0,4l1.93,1.11a1.78,1.78,0,0,1,.65,2.43L35.92,33a1.78,1.78,0,0,1-2.43.65Zm-7-2.86a5.35,5.35,0,1,0-5.43-5.34A5.38,5.38,0,0,0,24.5,29.6Z"/></g></g></g></g></svg>