<?xml version="1.0" encoding="UTF-8"?>
<svg width="58px" height="58px" viewBox="0 0 58 58" version="1.1" xmlns="http://www.w3.org/2000/svg" xmlns:xlink="http://www.w3.org/1999/xlink">
    <title>10-1</title>
    <defs>
        <linearGradient x1="70.423913%" y1="5.23913043%" x2="27.423913%" y2="98.2391304%" id="linearGradient-1">
            <stop stop-color="#FFFFFF" offset="0%"></stop>
            <stop stop-color="#FFFFFF" stop-opacity="0.21" offset="51%"></stop>
            <stop stop-color="#FFFFFF" offset="100%"></stop>
        </linearGradient>
    </defs>
    <g id="icon" stroke="none" stroke-width="1" fill="none" fill-rule="evenodd">
        <g id="Extra-Large备份" transform="translate(-1606.000000, -358.000000)">
            <g id="10-1" transform="translate(1607.000000, 359.000000)">
                <circle id="椭圆_212" fill="#FFFFFF" fill-rule="nonzero" cx="28" cy="28" r="24"></circle>
                <g id="无线网" transform="translate(12.000000, 16.000000)" fill="#000000" fill-rule="nonzero">
                    <path d="M15.8950399,11.9866221 C18.5196139,11.9866221 21.0352187,13.3746157 22.8816349,15.8415001 C23.3470664,16.4633347 23.3432189,17.4664396 22.8730414,18.0819973 C22.402864,18.6975551 21.6444031,18.6924667 21.1789716,18.070632 C19.782535,16.204938 17.8799939,15.1552044 15.8950399,15.1552044 C13.910086,15.1552044 12.0075449,16.204938 10.6111083,18.070632 C10.1456769,18.6924667 9.38721598,18.6975551 8.9170385,18.0819973 C8.44686103,17.4664396 8.44301358,16.4633347 8.90844504,15.8415001 C10.7548612,13.3746157 13.270466,11.9866221 15.8950399,11.9866221 Z" id="path-1-path"></path>
                    <path d="M15.9165741,5.99331104 C20.1548019,5.99331104 24.2178182,8.07526122 27.2042864,11.777303 C27.6704716,12.3551887 27.6678412,13.2888884 27.1984112,13.8627797 C26.728981,14.436671 25.9705149,14.4334328 25.5043297,13.8555471 C22.9676308,10.7110416 19.5165145,8.94263826 15.9165741,8.94263826 C12.3166336,8.94263826 8.86551732,10.7110416 6.32881845,13.8555471 C5.86263321,14.4334328 5.10416711,14.436671 4.63473708,13.8627797 C4.16530697,13.2888884 4.1626766,12.3551887 4.62886184,11.777303 C7.61533002,8.07526122 11.6783463,5.99331104 15.9165741,5.99331104 Z" id="path-1-path" opacity="0.4"></path>
                    <path d="M16,0 C21.8746371,0 27.5071131,2.75604376 31.6511649,7.65831856 C32.1178556,8.21039796 32.1160421,9.1033605 31.6471144,9.65280617 C31.1781868,10.2022519 30.4197183,10.2001169 29.9530277,9.64803754 C26.2586017,5.2776551 21.2372442,2.82063963 16,2.82063963 C10.7627558,2.82063963 5.7413983,5.2776551 2.04697232,9.64803754 C1.58028166,10.2001169 0.821813169,10.2022519 0.352885554,9.65280617 C-0.116042147,9.1033605 -0.117855551,8.21039796 0.348835103,7.65831856 C4.4928869,2.75604376 10.1253629,0 16,0 Z" id="path-1-path" opacity="0.4"></path>
                    <path d="M15.7324415,23.7591973 C17.3283413,23.7591973 18.6220736,22.465465 18.6220736,20.8695652 C18.6220736,19.2736655 17.3283413,17.9799331 15.7324415,17.9799331 C14.1365417,17.9799331 12.8428094,19.2736655 12.8428094,20.8695652 C12.8428094,22.465465 14.1365417,23.7591973 15.7324415,23.7591973 Z" id="path-1-path"></path>
                </g>
                <circle id="椭圆_12" stroke="url(#linearGradient-1)" stroke-width="2" cx="28" cy="28" r="28"></circle>
            </g>
        </g>
    </g>
</svg>