<svg id="图层_1" data-name="图层 1" xmlns="http://www.w3.org/2000/svg" viewBox="0 0 48 48"><defs><style>.cls-1,.cls-2{fill:#fff;}.cls-1{fill-opacity:0.2;}</style></defs><g id="icon"><g id="Extra-Large备份"><g id="_7" data-name="7"><circle id="椭圆-200" class="cls-1" cx="24" cy="24" r="24"/><g id="无线网"><path id="path-1-path" class="cls-2" d="M23.9,24a8.8,8.8,0,0,1,7,3.85,2,2,0,0,1,0,2.24,1,1,0,0,1-1.69,0,6.66,6.66,0,0,0-5.28-2.91,6.67,6.67,0,0,0-5.29,2.91,1,1,0,0,1-1.69,0,2,2,0,0,1,0-2.24A8.8,8.8,0,0,1,23.9,24Z"/><path id="path-1-path-2" data-name="path-1-path" class="cls-2" d="M23.92,18A14.58,14.58,0,0,1,35.2,23.78a1.71,1.71,0,0,1,0,2.08,1.05,1.05,0,0,1-1.7,0,12.35,12.35,0,0,0-9.58-4.92,12.39,12.39,0,0,0-9.59,4.92,1.05,1.05,0,0,1-1.7,0,1.73,1.73,0,0,1,0-2.08A14.6,14.6,0,0,1,23.92,18Z"/><path id="path-1-path-3" data-name="path-1-path" class="cls-2" d="M24,12a20.56,20.56,0,0,1,15.65,7.66,1.58,1.58,0,0,1,0,2,1.08,1.08,0,0,1-1.7,0,18.31,18.31,0,0,0-14-6.83,18.31,18.31,0,0,0-13.95,6.83,1.08,1.08,0,0,1-1.7,0,1.58,1.58,0,0,1,0-2A20.56,20.56,0,0,1,24,12Z"/><path id="path-1-path-4" data-name="path-1-path" class="cls-2" d="M23.73,35.76a2.89,2.89,0,1,0-2.89-2.89A2.89,2.89,0,0,0,23.73,35.76Z"/></g></g></g></g></svg>