<?xml version="1.0" encoding="UTF-8"?>
<svg width="58px" height="58px" viewBox="0 0 58 58" version="1.1" xmlns="http://www.w3.org/2000/svg" xmlns:xlink="http://www.w3.org/1999/xlink">
    <title>5-1</title>
    <defs>
        <linearGradient x1="70.423913%" y1="5.23913043%" x2="27.423913%" y2="98.2391304%" id="linearGradient-1">
            <stop stop-color="#FFFFFF" offset="0%"></stop>
            <stop stop-color="#FFFFFF" stop-opacity="0.21" offset="51%"></stop>
            <stop stop-color="#FFFFFF" offset="100%"></stop>
        </linearGradient>
    </defs>
    <g id="icon" stroke="none" stroke-width="1" fill="none" fill-rule="evenodd">
        <g id="Extra-Large备份" transform="translate(-1310.000000, -239.000000)">
            <g id="5-1" transform="translate(1311.000000, 240.000000)">
                <circle id="椭圆_212" fill="#FFFFFF" fill-rule="nonzero" cx="28" cy="28" r="24"></circle>
                <circle id="椭圆_12" stroke="url(#linearGradient-1)" stroke-width="2" cx="28" cy="28" r="28"></circle>
                <g id="Clipped" transform="translate(13.000000, 17.000000)" fill="#000000" fill-rule="nonzero">
                    <path d="M15.207899,0.00449854656 C19.0136694,0.00449854656 22.8194398,0.00449854656 26.6150884,0.00449854656 C28.0422523,-0.0056231832 29.2669816,0.358759088 29.9451375,1.59361012 C30.1678156,2.00860104 30.339885,2.71712212 30.339885,3.18272169 C30.3702502,7.63628279 30.3702502,12.0898439 30.3601284,16.543405 C30.3500067,18.2944642 29.0038167,19.5495587 27.0908097,19.6102891 C26.554358,19.6305326 26.0179064,19.6305326 25.4814547,19.6102891 C24.307334,19.5698022 23.5279608,20.0758887 22.961144,21.0273313 C22.6271269,21.5739047 22.1817708,22.1407215 21.6453191,22.4949821 C21.1797195,22.8087557 20.4914419,22.9605817 19.9043816,22.9707034 C16.7464019,23.0111903 13.5783005,23.0010686 10.4203208,22.9909468 C9.0943742,22.9808251 8.11256641,22.3836431 7.565993,21.2904962 C6.96881095,20.0657669 6.03761181,19.4989501 4.59020445,19.6102891 C4.12460488,19.650776 3.64888358,19.6406543 3.17316228,19.6102891 C1.33100746,19.4787066 0.045547784,18.2843425 0.0253043244,16.5332833 C-0.00506086488,12.049357 -0.0151825947,7.55530895 0.0354260542,3.06126094 C0.0556695137,1.13813228 1.50307687,0.00449854656 3.7905878,0.00449854656 C7.59635819,-0.0056231832 11.4021286,0.00449854656 15.207899,0.00449854656 Z M4.36752639,3.49649532 C4.02338758,3.49649532 3.73997915,3.75966029 3.72985742,4.07343391 C3.72985742,4.1037991 3.72985742,4.13416429 3.72985742,4.16452948 C3.72985742,5.30828494 3.72985742,6.46216214 3.72985742,7.6059176 C3.72985742,10.2679325 3.73997915,12.9299475 3.71973569,15.6020841 C3.70961396,15.9563447 4.03350931,16.2397531 4.41813504,16.1992662 C4.67117829,16.168901 4.92422153,16.2195096 5.17726478,16.168901 C7.3939236,15.6729362 9.61058241,16.917909 10.4101991,18.901768 C10.6328771,19.4685849 10.8656769,19.5698022 11.3009113,19.5698022 C13.6086657,19.5596805 15.9164201,19.5293153 18.2241744,19.5900456 C19.1857388,19.6102891 19.9347468,19.5090718 20.2687639,18.5576292 C20.299129,18.4766554 20.3902246,18.4058033 20.4610767,18.3248294 C21.8578754,16.6648657 23.7506389,16.0778054 25.9470543,16.1992662 C26.4936277,16.2296314 26.6859405,16.0778054 26.6859405,15.5413537 C26.6555753,11.7254616 26.6758188,7.89944777 26.6656971,4.08355564 C26.6656971,3.75966029 26.3822886,3.49649532 26.0280281,3.49649532 L4.36752639,3.49649532 Z" id="path"></path>
                    <path d="M9.07413074,10.5412192 C9.07413074,11.2294969 9.08425247,11.9177745 9.06400901,12.6161738 C9.05388728,13.3550601 8.50731387,13.8307814 7.67733203,13.8409031 C6.74613289,13.8611466 6.15907256,13.4157905 6.14895083,12.6262956 C6.12870737,11.2092534 6.12870737,9.7820895 6.14895083,8.36504733 C6.15907256,7.6059176 6.77649808,7.1301963 7.62672338,7.1301963 C8.45670522,7.14031803 9.05388728,7.65652625 9.06400901,8.40553425 C9.08425247,9.12417707 9.07413074,9.83269815 9.07413074,10.5412192 Z" id="path"></path>
                    <path d="M19.1958605,10.4602454 C19.1958605,11.148523 19.2059822,11.8368006 19.1958605,12.5250783 C19.175617,13.3246949 18.6492871,13.8206597 17.8193053,13.8409031 C16.8476192,13.8611466 16.2605589,13.4360339 16.2504371,12.5959304 C16.220072,11.1890099 16.220072,9.79221123 16.2504371,8.38529079 C16.2706806,7.57555241 16.8881061,7.10995284 17.7788183,7.14031803 C18.6189219,7.17068322 19.175617,7.67676971 19.1958605,8.44602117 C19.2059822,9.11405534 19.1958605,9.7820895 19.1958605,10.4602454 Z" id="path"></path>
                    <path d="M24.2263602,10.5209758 C24.2263602,11.1991317 24.2263602,11.8671658 24.2162385,12.5453217 C24.2061167,13.3854253 23.6797868,13.8409031 22.7789528,13.8409031 C21.8679972,13.8409031 21.3011803,13.3651818 21.3011803,12.5655652 C21.2809368,11.1991317 21.2809368,9.83269815 21.3011803,8.46626463 C21.3011803,7.66664798 21.8882406,7.14031803 22.7587094,7.1301963 C23.6291781,7.1301963 24.2061167,7.63628279 24.2162385,8.44602117 C24.2364819,9.14442053 24.2263602,9.83269815 24.2263602,10.5209758 Z" id="path"></path>
                    <path d="M14.1147522,10.510854 C14.1147522,11.1991317 14.1248739,11.897531 14.1046304,12.5858086 C14.084387,13.3854253 13.5479353,13.8409031 12.6774665,13.8409031 C11.7665109,13.8510249 11.1895723,13.3854253 11.1794505,12.5756869 C11.1592071,11.1890099 11.1490853,9.80233296 11.1794505,8.41565598 C11.1895723,7.62616106 11.8272412,7.12007457 12.6875883,7.14031803 C13.5479353,7.15043976 14.084387,7.63628279 14.1046304,8.43589944 C14.1248739,9.12417707 14.1147522,9.82257642 14.1147522,10.510854 Z" id="path"></path>
                </g>
            </g>
        </g>
    </g>
</svg>