<svg width="48.000000" height="48.000000" viewBox="0 0 48 48" fill="none" xmlns="http://www.w3.org/2000/svg" xmlns:xlink="http://www.w3.org/1999/xlink">
	<desc>
			Created with Pixso.
	</desc>
	<defs/>
	<rect width="48.000000" height="48.000000"/>
	<path id="path" d="M33.28 4L14.7 4C12.09 4 10 6.1 10 8.7L10 39.27C10 41.87 12.09 43.98 14.7 43.98L33.28 43.98C35.87 43.98 37.98 41.87 37.98 39.27L37.98 8.7C37.98 6.1 35.87 4 33.28 4ZM23.98 39.08C22.32 39.08 20.98 37.74 20.98 36.08C20.98 34.41 22.32 33.08 23.98 33.08C25.63 33.08 26.98 34.41 26.98 36.08C26.98 37.74 25.63 39.08 23.98 39.08ZM22.98 27.1L22.98 23.89C22.98 23.33 23.41 22.89 23.98 22.89C24.54 22.89 24.98 23.33 24.98 23.89L24.98 27.1C24.98 27.66 24.54 28.1 23.98 28.1C23.41 28.1 22.98 27.66 22.98 27.1ZM23.98 20.91C20.66 20.91 17.98 18.24 17.98 14.91C17.98 11.6 20.66 8.91 23.98 8.91C27.29 8.91 29.98 11.6 29.98 14.91C29.98 18.24 27.29 20.91 23.98 20.91Z" fill="#7EA9FF" fill-opacity="1.000000" fill-rule="nonzero"/>
</svg>
