<svg width="48.000000" height="48.000000" viewBox="0 0 48 48" fill="none" xmlns="http://www.w3.org/2000/svg" xmlns:xlink="http://www.w3.org/1999/xlink">
	<desc>
			Created with Pixso.
	</desc>
	<defs/>
	<rect width="48.000000" height="48.000000"/>
	<path id="path" d="M9.47 39.3C9.47 41.89 11.59 44 14.19 44L32.77 44C34.43 44 35.89 43.14 36.71 41.84L9.47 14.6L9.47 39.3ZM23.47 33.08C25.13 33.08 26.47 34.41 26.47 36.08C26.47 37.74 25.13 39.08 23.47 39.08C21.81 39.08 20.47 37.74 20.47 36.08C20.47 34.41 21.81 33.08 23.47 33.08Z" fill="#FFFFFF" fill-opacity="0.400000" fill-rule="nonzero"/>
	<path id="path" d="M42.49 39.18L37.47 34.16L37.47 8.72C37.47 6.12 35.37 4 32.77 4L14.19 4C12.33 4 10.73 5.1 9.97 6.66L8.55 5.24C7.97 4.66 7.01 4.66 6.43 5.24C5.85 5.83 5.85 6.77 6.43 7.35L40.37 41.29C40.49 41.41 40.61 41.5 40.75 41.58C40.97 41.68 41.19 41.74 41.43 41.74C41.81 41.74 42.21 41.6 42.49 41.29C43.09 40.72 43.09 39.77 42.49 39.18ZM23.47 8.91C26.79 8.91 29.47 11.62 29.47 14.91C29.47 18 27.15 20.52 24.15 20.85L17.55 14.25C17.89 11.27 20.37 8.91 23.47 8.91Z" fill="#FFFFFF" fill-opacity="0.400000" fill-rule="nonzero"/>
</svg>
