<svg width="30.000000" height="48.000000" viewBox="0 0 30 48" fill="none" xmlns="http://www.w3.org/2000/svg" xmlns:xlink="http://www.w3.org/1999/xlink">
	<desc>
			Created with Pixso.
	</desc>
	<defs/>
	<path id="path" d="M29.12 33.87L28.72 33.52L20.4 25.72L17.71 28.22L14.02 31.69L14.02 45.28C14.02 46.38 14.76 47.38 15.84 47.78C16.18 47.91 16.58 48 16.95 48C17.71 48 18.45 47.7 19 47.19L29.15 37.72C30.28 36.64 30.25 34.95 29.12 33.87ZM17.82 43.29L17.71 28.22L25.8 35.81L17.82 43.29Z" fill="#7EA9FF" fill-opacity="1.000000" fill-rule="nonzero"/>
	<path id="path" d="M13.93 28.92L15.82 27.01L18.49 24.27L25 17.61L28.23 14.57L28.75 14.09C29.75 13.04 29.85 11.3 28.75 10.28L18.65 0.8C17.81 0.02 16.58 -0.22 15.5 0.21C14.43 0.64 13.72 1.6 13.72 2.7L13.66 19.35L3.46 8.93C2.72 8.16 1.52 8.16 0.78 8.93C0.07 9.69 0.07 10.89 0.81 11.67L13.11 24.27L0.55 37.13C-0.19 37.91 -0.19 39.12 0.55 39.87C0.91 40.25 1.41 40.44 1.88 40.44C2.38 40.44 2.88 40.25 3.22 39.87L13.93 28.92ZM17.47 19.62L17.52 4.69L25.18 11.89L19.31 17.9L17.47 19.62Z" fill="#7EA9FF" fill-opacity="1.000000" fill-rule="nonzero"/>
</svg>
