<svg width="30.000000" height="48.000000" viewBox="0 0 30 48" fill="none" xmlns="http://www.w3.org/2000/svg" xmlns:xlink="http://www.w3.org/1999/xlink">
	<desc>
			Created with Pixso.
	</desc>
	<defs/>
	<path id="path" d="M20.45 38.66L16.35 43.29L16.35 34.06L13.71 31.1L13.18 31.71L13.18 45.26C13.18 46.38 13.79 47.37 14.69 47.78C14.98 47.91 15.3 48 15.62 48C16.25 48 16.86 47.72 17.33 47.2L22.7 41.15L20.45 38.66Z" fill="#FFFFFF" fill-opacity="0.400000" fill-rule="nonzero"/>
	<path id="path" d="M1.95 35.79C1.34 36.5 1.34 37.62 1.95 38.31C2.26 38.66 2.68 38.83 3.07 38.83C3.49 38.83 3.9 38.66 4.19 38.31L12.18 29.38L9.91 26.86L1.95 35.79Z" fill="#FFFFFF" fill-opacity="0.400000" fill-rule="nonzero"/>
	<path id="path" d="M29.46 37.51L17.18 23.74L25.31 14.62L25.75 14.16C26.61 13.12 26.66 11.34 25.75 10.33L17.33 0.8C16.62 0.01 15.59 -0.21 14.69 0.2C13.79 0.64 13.2 1.59 13.2 2.72L13.15 19.2L3.12 7.97C2.41 7.18 1.23 7.18 0.53 7.97C-0.18 8.77 -0.18 10.08 0.53 10.87L26.87 40.41C27.24 40.82 27.71 41.01 28.17 41.01C28.63 41.01 29.1 40.82 29.46 40.41C30.17 39.62 30.17 38.3 29.46 37.51ZM16.3 19.69L16.35 4.74L22.99 12.22L16.3 19.69Z" fill="#FFFFFF" fill-opacity="0.400000" fill-rule="nonzero"/>
</svg>
