<svg width="48.000000" height="48.000000" viewBox="0 0 48 48" fill="none" xmlns="http://www.w3.org/2000/svg" xmlns:xlink="http://www.w3.org/1999/xlink">
	<desc>
			Created with Pixso.
	</desc>
	<defs/>
	<rect width="48.000000" height="48.000000"/>
	<path id="path" d="M34.17 30.28C33.59 30.28 33.05 29.94 32.79 29.38C32.46 28.62 32.79 27.74 33.55 27.4C35.21 26.66 36.29 25.02 36.29 23.2C36.29 21.38 35.21 19.7 33.55 18.98C32.79 18.64 32.46 17.76 32.79 17C33.13 16.24 34.01 15.9 34.78 16.24C37.54 17.44 39.32 20.18 39.32 23.22C39.32 26.26 37.54 28.96 34.78 30.18C34.58 30.26 34.37 30.28 34.17 30.28Z" fill="#7EA9FF" fill-opacity="1.000000" fill-rule="nonzero"/>
	<path id="path" d="M35.91 34.66C35.33 34.66 34.79 34.32 34.54 33.76C34.2 33 34.54 32.12 35.29 31.78C38.7 30.28 40.9 26.92 40.9 23.2C40.9 19.48 38.7 16.08 35.29 14.58C34.54 14.24 34.2 13.36 34.54 12.6C34.87 11.84 35.75 11.5 36.52 11.84C41.02 13.82 43.91 18.28 43.91 23.2C43.91 28.12 41.02 32.56 36.52 34.54C36.32 34.62 36.12 34.66 35.91 34.66Z" fill="#7EA9FF" fill-opacity="1.000000" fill-rule="nonzero"/>
	<path id="path" d="M26.98 8.5C25.32 7.68 23.37 7.88 22 8.96L14.62 14L10.66 14C6.98 14 4 16.98 4 20.66L4 25.72C4 29.4 6.98 32.38 10.66 32.38L14.62 32.38L21.96 37.38C22.82 38.04 23.83 38.38 24.86 38.38C25.58 38.38 26.29 38.22 26.96 37.9C28.63 37.08 29.67 35.44 29.67 33.58L29.67 12.82C29.67 10.96 28.63 9.32 26.98 8.5Z" fill="#7EA9FF" fill-opacity="1.000000" fill-rule="nonzero"/>
</svg>
