<svg width="48.000000" height="48.000000" viewBox="0 0 48 48" fill="none" xmlns="http://www.w3.org/2000/svg" xmlns:xlink="http://www.w3.org/1999/xlink">
	<desc>
			Created with Pixso.
	</desc>
	<defs/>
	<rect width="48.000000" height="48.000000"/>
	<path id="path" d="M38.44 35.91C41.82 33.65 43.91 29.83 43.91 25.67C43.91 20.73 41.02 16.27 36.52 14.31C35.75 13.97 34.87 14.31 34.56 15.07C34.22 15.83 34.56 16.71 35.32 17.05C38.72 18.55 40.91 21.93 40.91 25.67C40.91 29.03 39.12 32.07 36.25 33.75L35 32.49C37.62 31.23 39.29 28.59 39.29 25.65C39.29 22.71 37.52 19.89 34.75 18.67C34 18.33 33.12 18.67 32.78 19.43C32.44 20.19 32.78 21.07 33.54 21.41C35.2 22.15 36.28 23.81 36.28 25.63C36.28 27.45 35.2 29.11 33.54 29.83C33.25 29.95 33.06 30.15 32.91 30.39L29.64 27.11L29.64 15.25C29.64 13.39 28.62 11.73 26.94 10.93C25.28 10.11 23.33 10.31 21.96 11.39L17.18 14.65L8.95 6.43C8.37 5.85 7.41 5.85 6.83 6.43C6.26 7.03 6.26 7.97 6.83 8.55L40.78 42.49C40.9 42.61 41.02 42.69 41.16 42.77C41.37 42.87 41.6 42.93 41.83 42.93C42.22 42.93 42.62 42.79 42.9 42.49C43.5 41.91 43.5 40.97 42.9 40.37L38.44 35.91Z" fill="#FFFFFF" fill-opacity="0.400000" fill-rule="nonzero"/>
	<path id="path" d="M4 23.13L4 28.19C4 31.85 7 34.85 10.66 34.85L14.62 34.85L21.96 39.83C22.82 40.49 23.83 40.83 24.86 40.83C25.58 40.83 26.29 40.67 26.98 40.35C28.63 39.53 29.67 37.87 29.67 36.03L29.67 35.57L10.58 16.47C6.95 16.51 4 19.47 4 23.13Z" fill="#FFFFFF" fill-opacity="0.400000" fill-rule="nonzero"/>
</svg>
