<svg width="100.000000" height="100.000000" viewBox="0 0 100 100" fill="none" xmlns="http://www.w3.org/2000/svg" xmlns:xlink="http://www.w3.org/1999/xlink">
	<desc>
			Created with Pixso.
	</desc>
	<defs/>
	<circle id="椭圆 148" r="50.000000" transform="matrix(0 1 -1 0 50 50)" fill="#FFFFFF" fill-opacity="0.860000"/>
	<path id="path-1" d="M56.32 31.25C57.65 31.25 58.91 31.91 59.67 33.02L62 36.4L66.28 36.4C69.66 36.4 72.4 39.17 72.4 42.59L72.4 61.14C72.4 64.56 69.66 67.33 66.28 67.33L33.62 67.33C30.24 67.33 27.49 64.56 27.49 61.14L27.49 42.59C27.49 39.17 30.24 36.4 33.62 36.4L37.9 36.4L40.22 33.02C40.99 31.91 42.24 31.25 43.58 31.25L56.32 31.25ZM49.95 41.04C44.59 41.04 40.25 45.42 40.25 50.83C40.25 56.24 44.59 60.63 49.95 60.63C55.3 60.63 59.64 56.24 59.64 50.83C59.64 45.42 55.3 41.04 49.95 41.04ZM49.95 44.13C53.61 44.13 56.58 47.13 56.58 50.83C56.58 54.53 53.61 57.53 49.95 57.53C46.28 57.53 43.31 54.53 43.31 50.83C43.31 47.13 46.28 44.13 49.95 44.13Z" fill="#000000" fill-opacity="0.860000" fill-rule="nonzero"/>
</svg>
