<svg width="100.000000" height="100.000000" viewBox="0 0 100 100" fill="none" xmlns="http://www.w3.org/2000/svg" xmlns:xlink="http://www.w3.org/1999/xlink">
	<desc>
			Created with Pixso.
	</desc>
	<defs>
		<filter id="filter_456_48884_dd" x="0.000000" y="0.000000" width="100.000000" height="100.000000" filterUnits="userSpaceOnUse" color-interpolation-filters="sRGB">
			<feFlood flood-opacity="0" result="BackgroundImageFix"/>
			<feGaussianBlur in="BackgroundImage" stdDeviation="33.3333"/>
			<feComposite in2="SourceAlpha" operator="in" result="effect_backgroundBlur_1"/>
			<feBlend mode="normal" in="SourceGraphic" in2="effect_backgroundBlur_1" result="shape"/>
		</filter>
	</defs>
	<g filter="url(#filter_456_48884_dd)">
		<circle id="椭圆 272" r="50.000000" transform="matrix(0 1 -1 0 50 50)" fill="#FFFFFF" fill-opacity="0.860000"/>
	</g>
	<path id="path" d="M45.02 55C49.52 59.5 56.88 59.5 61.38 55L70.66 45.73C75.15 41.23 75.15 33.87 70.66 29.37C66.16 24.87 58.79 24.87 54.29 29.37L49 34.67C48.1 35.56 48.1 37.04 49 37.93C49.89 38.83 51.37 38.83 52.26 37.93L57.56 32.63C60.27 29.92 64.68 29.92 67.39 32.63C70.1 35.35 70.1 39.75 67.39 42.46L58.11 51.74C55.4 54.45 51 54.45 48.29 51.74C47.39 50.84 45.91 50.84 45.02 51.74C44.13 52.63 44.13 54.11 45.02 55Z" fill="#000000" fill-opacity="0.860000" fill-rule="nonzero"/>
	<path id="path" d="M29.37 70.66C33.87 75.15 41.23 75.15 45.73 70.66L51.03 65.36C51.92 64.46 51.92 62.98 51.03 62.09C50.14 61.2 48.66 61.2 47.76 62.09L42.46 67.39C39.75 70.1 35.35 70.1 32.64 67.39C29.92 64.68 29.92 60.27 32.64 57.56L41.91 48.29C44.62 45.58 49.03 45.58 51.74 48.29C52.63 49.18 54.11 49.18 55 48.29C55.9 47.39 55.9 45.91 55 45.02C50.5 40.52 43.14 40.52 38.64 45.02L29.37 54.29C24.87 58.79 24.87 66.16 29.37 70.66Z" fill="#000000" fill-opacity="0.860000" fill-rule="nonzero"/>
</svg>
