<svg width="100.000000" height="100.000000" viewBox="0 0 100 100" fill="none" xmlns="http://www.w3.org/2000/svg" xmlns:xlink="http://www.w3.org/1999/xlink">
	<desc>
			Created with Pixso.
	</desc>
	<defs>
		<filter id="filter_150_10091_dd" x="0.000000" y="0.000000" width="100.000000" height="100.000000" filterUnits="userSpaceOnUse" color-interpolation-filters="sRGB">
			<feFlood flood-opacity="0" result="BackgroundImageFix"/>
			<feGaussianBlur in="BackgroundImage" stdDeviation="33.3333"/>
			<feComposite in2="SourceAlpha" operator="in" result="effect_backgroundBlur_1"/>
			<feBlend mode="normal" in="SourceGraphic" in2="effect_backgroundBlur_1" result="shape"/>
		</filter>
	</defs>
	<g filter="url(#filter_150_10091_dd)">
		<circle id="椭圆 193" r="50.000000" transform="matrix(0 1 -1 0 50 50)" fill="#FFFFFF" fill-opacity="0.200000"/>
	</g>
	<path id="path" d="M31.59 35.36L34.89 35.36C35.37 35.36 35.76 34.99 35.76 34.52C35.76 34.06 35.37 33.68 34.89 33.68L31.59 33.68C31.11 33.68 30.73 34.06 30.73 34.52C30.73 34.99 31.11 35.36 31.59 35.36Z" fill="#FFFFFF" fill-opacity="0.860000" fill-rule="nonzero"/>
	<path id="path" d="M75 42.25C74.96 38.96 72.81 37 69.42 36.96C67.55 36.93 65.69 36.91 63.84 36.97C62.78 37 62.07 36.62 61.52 35.79C60.77 34.65 60.07 33.44 59.17 32.44C58.65 31.87 57.75 31.33 57 31.31C52.78 31.2 48.55 31.27 44.32 31.25C43.28 31.24 42.56 31.61 42.02 32.46C41.36 33.5 40.6 34.48 39.96 35.52C39.32 36.55 38.5 37.04 37.21 36.98C35.41 36.89 33.59 36.93 31.78 36.96C28.46 37.02 26.32 39 26.29 42.19C26.23 48.89 26.23 55.58 26.28 62.26C26.32 65.63 28.48 67.61 31.93 67.62C38.16 67.63 44.39 67.62 50.61 67.62C56.84 67.62 63.07 67.62 69.29 67.62C72.77 67.61 74.96 65.64 75 62.32C75.07 55.63 75.07 48.94 75 42.25ZM50.64 62.58C44.43 62.58 39.38 57.66 39.38 51.62C39.38 49.16 40.22 46.81 41.74 44.91C41 44.88 40.4 44.28 40.4 43.55C40.4 42.82 41.03 42.19 41.8 42.19L45.37 42.19C46.14 42.19 46.77 42.8 46.77 43.55L46.77 47.02C46.77 47.77 46.14 48.39 45.37 48.39C44.6 48.39 43.96 47.77 43.96 47.02L43.96 46.56C42.82 47.99 42.17 49.76 42.17 51.62C42.17 56.16 45.98 59.85 50.64 59.85C51.42 59.85 52.05 60.46 52.05 61.22C52.05 61.97 51.42 62.58 50.64 62.58ZM60.75 59.81C60.75 60.57 60.12 61.17 59.35 61.17L55.78 61.17C55.01 61.17 54.38 60.57 54.38 59.81L54.38 56.34C54.38 55.59 55.01 54.98 55.78 54.98C56.56 54.98 57.18 55.59 57.18 56.34L57.18 56.86C58.42 55.41 59.11 53.57 59.11 51.62C59.11 47.08 55.32 43.38 50.64 43.38C49.87 43.38 49.25 42.77 49.25 42.02C49.25 41.26 49.87 40.66 50.64 40.66C56.86 40.66 61.92 45.57 61.92 51.62C61.92 54.15 61.03 56.55 59.45 58.46C60.17 58.51 60.75 59.1 60.75 59.81Z" fill="#FFFFFF" fill-opacity="0.860000" fill-rule="nonzero"/>
</svg>
