<svg width="509.000000" height="281.000000" viewBox="0 0 509 281" fill="none" xmlns="http://www.w3.org/2000/svg" xmlns:xlink="http://www.w3.org/1999/xlink">
	<desc>
			Created with Pixso.
	</desc>
	<defs>
		<linearGradient x1="254.500000" y1="189.697144" x2="254.500000" y2="281.000000" id="paint_linear_20_2003_0" gradientUnits="userSpaceOnUse">
			<stop offset="0.221374" stop-color="#FFFFFF"/>
			<stop offset="1.000000" stop-color="#FFFFFF" stop-opacity="0.000000"/>
		</linearGradient>
		<linearGradient x1="174.305801" y1="28.809595" x2="128.989334" y2="15.271474" id="paint_linear_20_2004_0" gradientUnits="userSpaceOnUse">
			<stop stop-color="#85AEFF" stop-opacity="0.000000"/>
			<stop offset="1.000000" stop-color="#004CE4" stop-opacity="0.600000"/>
		</linearGradient>
		<linearGradient x1="419.216217" y1="217.027176" x2="368.379761" y2="213.699814" id="paint_linear_20_2007_0" gradientUnits="userSpaceOnUse">
			<stop stop-color="#85AEFF" stop-opacity="0.000000"/>
			<stop offset="1.000000" stop-color="#004CE4" stop-opacity="0.600000"/>
		</linearGradient>
		<linearGradient x1="109.992622" y1="219.479187" x2="85.000519" y2="217.843399" id="paint_linear_20_2008_0" gradientUnits="userSpaceOnUse">
			<stop stop-color="#85AEFF" stop-opacity="0.000000"/>
			<stop offset="1.000000" stop-color="#004CE4" stop-opacity="0.600000"/>
		</linearGradient>
		<linearGradient x1="421.589325" y1="107.788300" x2="396.597229" y2="106.152512" id="paint_linear_20_2009_0" gradientUnits="userSpaceOnUse">
			<stop stop-color="#85AEFF" stop-opacity="0.000000"/>
			<stop offset="1.000000" stop-color="#004CE4" stop-opacity="0.600000"/>
		</linearGradient>
	</defs>
	<path id="path" d="M0 281C0 281 227.36 75.56 509 281L0 281Z" fill="url(#paint_linear_20_2003_0)" fill-opacity="0.100000" fill-rule="nonzero"/>
	<path id="path" d="M0 281C0 281 227.36 75.56 509 281" stroke="#F2F2F2" stroke-opacity="0" stroke-width="14.000000" stroke-linecap="round"/>
	<mask id="mask_20_2004" fill="white">
		<path id="合并" d="M156.878 16.9528L156.878 5.77966C156.878 2.58609 154.289 -0.0015564 151.095 0C147.902 0.0015564 145.312 2.59174 145.312 5.78531L145.312 16.9528L134.133 16.9528C130.941 16.9528 128.354 19.5407 128.356 22.7331C128.357 25.9254 130.947 28.5133 134.139 28.5133L145.313 28.5133L145.313 39.6916C145.313 42.8852 147.902 45.4729 151.095 45.4713C154.289 45.4697 156.878 42.8796 156.878 39.686L156.878 28.5133L168.067 28.5133C171.26 28.5133 173.847 25.9254 173.845 22.733C173.843 19.5407 171.254 16.9528 168.062 16.9528L156.878 16.9528Z" clip-rule="evenodd" fill="" fill-opacity="1.000000" fill-rule="evenodd"/>
	</mask>
	<path id="合并" d="M156.878 16.9528L156.878 5.77966C156.878 2.58609 154.289 -0.0015564 151.095 0C147.902 0.0015564 145.312 2.59174 145.312 5.78531L145.312 16.9528L134.133 16.9528C130.941 16.9528 128.354 19.5407 128.356 22.7331C128.357 25.9254 130.947 28.5133 134.139 28.5133L145.313 28.5133L145.313 39.6916C145.313 42.8852 147.902 45.4729 151.095 45.4713C154.289 45.4697 156.878 42.8796 156.878 39.686L156.878 28.5133L168.067 28.5133C171.26 28.5133 173.847 25.9254 173.845 22.733C173.843 19.5407 171.254 16.9528 168.062 16.9528L156.878 16.9528Z" clip-rule="evenodd" fill="#464648" fill-opacity="1.000000" fill-rule="evenodd" mask="url(#mask_20_2004)"/>
	<path id="合并" d="" clip-rule="evenodd" fill="url(#paint_linear_20_2004_0)" fill-opacity="0.000000" fill-rule="evenodd"/>
	<path id="path" d="M389.69 190.86L396.12 198.88C397.01 199.97 398.5 200.38 399.82 199.87L409.38 196.15C412.01 195.13 414.58 197.72 413.57 200.34L409.87 209.94C409.36 211.25 409.76 212.75 410.86 213.64L418.87 220.09C421.07 221.86 420.12 225.39 417.34 225.82L407.19 227.38C405.8 227.6 404.7 228.69 404.49 230.09L402.93 240.25C402.5 243.04 398.97 243.98 397.21 241.79L390.77 233.77C389.89 232.67 388.4 232.26 387.08 232.77L377.51 236.49C374.89 237.51 372.31 234.93 373.32 232.3L377.03 222.71C377.54 221.39 377.14 219.9 376.04 219.01L368.03 212.55C365.83 210.79 366.78 207.26 369.56 206.83L379.71 205.26C381.1 205.04 382.2 203.95 382.4 202.55L383.97 192.39C384.4 189.61 387.92 188.66 389.69 190.86Z" fill="#464648" fill-opacity="1.000000" fill-rule="nonzero"/>
	<path id="path" d="" fill="url(#paint_linear_20_2007_0)" fill-opacity="0" fill-rule="evenodd"/>
	<path id="path" d="M95.47 206.61L98.64 210.55C99.07 211.09 99.8 211.29 100.45 211.04L105.16 209.21C106.45 208.71 107.71 209.98 107.22 211.27L105.39 215.99C105.14 216.64 105.34 217.37 105.88 217.81L109.82 220.98C110.9 221.85 110.43 223.59 109.07 223.8L104.08 224.57C103.39 224.67 102.85 225.21 102.75 225.9L101.98 230.9C101.77 232.26 100.04 232.73 99.17 231.65L96.01 227.71C95.57 227.17 94.84 226.97 94.19 227.22L89.49 229.05C88.2 229.55 86.93 228.28 87.43 226.99L89.25 222.27C89.5 221.62 89.3 220.89 88.76 220.45L84.82 217.28C83.74 216.41 84.21 214.67 85.58 214.46L90.57 213.69C91.25 213.59 91.79 213.05 91.89 212.36L92.66 207.37C92.87 206 94.61 205.53 95.47 206.61Z" fill="#464648" fill-opacity="1.000000" fill-rule="nonzero"/>
	<path id="path" d="" fill="url(#paint_linear_20_2008_0)" fill-opacity="0" fill-rule="evenodd"/>
	<path id="path" d="M407.07 94.92L410.23 98.86C410.67 99.4 411.4 99.6 412.05 99.35L416.75 97.52C418.04 97.02 419.31 98.29 418.81 99.58L416.99 104.3C416.74 104.95 416.94 105.68 417.48 106.12L421.42 109.29C422.5 110.16 422.03 111.9 420.66 112.11L415.68 112.88C414.99 112.98 414.45 113.52 414.35 114.21L413.58 119.2C413.37 120.57 411.63 121.04 410.77 119.96L407.6 116.02C407.17 115.48 406.44 115.28 405.79 115.53L401.08 117.36C399.79 117.86 398.53 116.59 399.02 115.3L400.85 110.58C401.1 109.93 400.9 109.2 400.36 108.76L396.42 105.59C395.34 104.72 395.81 102.98 397.18 102.77L402.16 102C402.85 101.89 403.39 101.36 403.49 100.67L404.26 95.67C404.47 94.31 406.2 93.84 407.07 94.92Z" fill="#464648" fill-opacity="1.000000" fill-rule="nonzero"/>
	<path id="path" d="" fill="url(#paint_linear_20_2009_0)" fill-opacity="0" fill-rule="evenodd"/>
	<path id="path" d="M229.85 156.51C251.75 178.44 287.6 178.44 309.51 156.51L354.67 111.29C376.57 89.36 376.57 53.45 354.67 31.51C332.76 9.58 296.91 9.58 275 31.51L249.2 57.36C244.85 61.71 244.85 68.92 249.2 73.28C253.55 77.64 260.75 77.64 265.1 73.28L290.91 47.44C304.11 34.22 325.56 34.22 338.76 47.44C351.97 60.66 351.97 82.14 338.76 95.36L293.61 140.59C280.4 153.81 258.95 153.81 245.75 140.59C241.4 136.23 234.2 136.23 229.85 140.59C225.49 144.94 225.49 152.15 229.85 156.51Z" fill="#464648" fill-opacity="1.000000" fill-rule="nonzero"/>
	<path id="path" d="M153.63 232.83C175.54 254.76 211.39 254.76 233.3 232.83L259.1 206.99C263.45 202.63 263.45 195.42 259.1 191.06C254.75 186.71 247.55 186.71 243.2 191.06L217.39 216.9C204.19 230.12 182.74 230.12 169.53 216.9C156.33 203.68 156.33 182.2 169.53 168.98L214.69 123.76C227.89 110.54 249.35 110.54 262.55 123.76C266.9 128.11 274.1 128.11 278.45 123.76C282.8 119.4 282.8 112.19 278.45 107.83C256.55 85.9 220.69 85.9 198.79 107.83L153.63 153.05C131.73 174.99 131.73 210.89 153.63 232.83Z" fill="#464648" fill-opacity="1.000000" fill-rule="nonzero"/>
</svg>
