<svg width="48.000000" height="48.000000" viewBox="0 0 48 48" fill="none" xmlns="http://www.w3.org/2000/svg" xmlns:xlink="http://www.w3.org/1999/xlink">
	<desc>
			Created with Pixso.
	</desc>
	<defs/>
	<rect width="48.000000" height="48.000000"/>
	<circle id="circle" cx="24.266602" cy="24.312012" r="10.000000" fill="#7EA9FF" fill-opacity="1.000000"/>
	<rect id="rect" x="22.248047" y="4.006348" rx="2.000000" width="4.000000" height="8.000000" transform="rotate(-0.09 22.248047 4.006348)" fill="#7EA9FF" fill-opacity="1.000000"/>
	<rect id="rect" x="37.153320" y="8.507812" rx="2.000000" width="4.000000" height="8.000000" transform="rotate(44.91 37.153320 8.507812)" fill="#7EA9FF" fill-opacity="1.000000"/>
	<rect id="rect" x="44.517578" y="22.239258" rx="2.000000" width="4.000000" height="8.000000" transform="rotate(89.91 44.517578 22.239258)" fill="#7EA9FF" fill-opacity="1.000000"/>
	<rect id="rect" x="40.015625" y="37.143066" rx="2.000000" width="4.000000" height="7.999998" transform="rotate(134.91 40.015625 37.143066)" fill="#7EA9FF" fill-opacity="1.000000"/>
	<rect id="rect" x="26.292969" y="44.517578" rx="2.000000" width="4.000000" height="8.000000" transform="rotate(179.91 26.292969 44.517578)" fill="#7EA9FF" fill-opacity="1.000000"/>
	<rect id="rect" x="11.375977" y="40.022461" rx="2.000000" width="4.000000" height="8.000002" transform="rotate(-135.09 11.375977 40.022461)" fill="#7EA9FF" fill-opacity="1.000000"/>
	<rect id="rect" x="4.005859" y="26.304199" rx="2.000000" width="4.000000" height="8.000000" transform="rotate(-90.09 4.005859 26.304199)" fill="#7EA9FF" fill-opacity="1.000000"/>
	<rect id="rect" x="8.500977" y="11.394043" rx="2.000000" width="4.000000" height="8.000000" transform="rotate(-45.09 8.500977 11.394043)" fill="#7EA9FF" fill-opacity="1.000000"/>
</svg>
