<?xml version="1.0" encoding="UTF-8"?>
<svg width="86px" height="72px" viewBox="0 0 86 72" version="1.1" xmlns="http://www.w3.org/2000/svg" xmlns:xlink="http://www.w3.org/1999/xlink">
    <title>文件夹</title>
    <g id="点播" stroke="none" stroke-width="1" fill="none" fill-rule="evenodd">
        <g id="本地视频文件夹" transform="translate(-120.000000, -347.000000)" fill-rule="nonzero">
            <g id="编组-2备份" transform="translate(96.000000, 314.000000)">
                <g id="文件夹" transform="translate(24.000000, 33.000000)">
                    <path d="M4.28660436,0 L31.0579328,0 C32.482843,0 33.814613,0.704755509 34.6115037,1.88050396 L42.0623053,12.8735632 L42.0623053,21.3333333 L0,21.3333333 L0,4.26666667 C0,1.91025173 1.91917814,0 4.28660436,0 Z" id="path-1" fill="#FFA800"></path>
                    <rect id="矩形" fill="#FFF3E2" x="2.67912773" y="9.6" width="46.8847352" height="9.33333333" rx="1.0749817"></rect>
                    <path d="M0,14.1333333 L13.1277259,14.1333333 L13.1277259,14.3082667 L28.3444544,14.150563 C29.4268724,14.1393402 30.4804937,13.802065 31.3665622,13.1831547 L36.2563317,9.76769765 C37.1579846,9.13790165 38.2327357,8.8 39.3342516,8.8 L81.4454829,8.8 C83.8129091,8.8 85.7320872,10.7102517 85.7320872,13.0666667 L85.7320872,67.7333333 C85.7320872,70.0897483 83.8129091,72 81.4454829,72 L4.28660436,72 C1.91917814,72 0,70.0897483 0,67.7333333 L0,14.1333333 Z" id="形状结合" fill="#FFC750"></path>
                </g>
            </g>
        </g>
    </g>
</svg>