<svg width="112.000000" height="112.000000" viewBox="0 0 112 112" fill="none" xmlns="http://www.w3.org/2000/svg" xmlns:xlink="http://www.w3.org/1999/xlink">
	<desc>
			Created with Pixso.
	</desc>
	<defs>
		<filter id="filter_506_54304_dd" x="8.000000" y="8.000000" width="96.000000" height="96.000000" filterUnits="userSpaceOnUse" color-interpolation-filters="sRGB">
			<feFlood flood-opacity="0" result="BackgroundImageFix"/>
			<feGaussianBlur in="BackgroundImage" stdDeviation="33.3333"/>
			<feComposite in2="SourceAlpha" operator="in" result="effect_backgroundBlur_1"/>
			<feBlend mode="normal" in="SourceGraphic" in2="effect_backgroundBlur_1" result="shape"/>
		</filter>
	</defs>
	<g filter="url(#filter_506_54304_dd)">
		<circle id="椭圆 148" r="48.000000" transform="matrix(0 1 -1 0 56 56)" fill="#FFFFFF" fill-opacity="0.860000"/>
	</g>
	<path id="path" d="M56.01 92C36.15 92 20 76.18 20 56.74C20 55.22 21.23 54 22.76 54C24.29 54 25.53 55.22 25.53 56.74C25.53 73.14 39.2 86.5 56 86.5C72.79 86.5 86.46 73.15 86.46 56.74C86.46 55.22 87.7 54 89.23 54C90.76 54 92 55.22 92 56.74C92 76.18 75.86 92 56.01 92Z" fill="#000000" fill-opacity="0.860000" fill-rule="nonzero"/>
	<path id="path" d="M22.34 48.78C20.46 48.11 19.54 46.11 20.22 44.32C20.91 42.51 22.98 41.6 24.83 42.28C26.71 42.94 27.66 44.94 26.95 46.73C26.42 48.14 25.06 49 23.59 49C23.17 49 22.75 48.94 22.34 48.78ZM85.03 46.69C84.34 44.9 85.28 42.9 87.15 42.24C89 41.56 91.08 42.47 91.76 44.26C92.46 46.07 91.52 48.07 89.66 48.74C89.25 48.9 88.83 48.96 88.41 48.96C86.94 48.96 85.58 48.09 85.03 46.69ZM27.31 38.27C25.8 37.02 25.63 34.83 26.92 33.37C28.21 31.92 30.48 31.75 31.99 33C33.5 34.25 33.67 36.44 32.37 37.9C31.67 38.69 30.66 39.11 29.65 39.11C28.82 39.11 27.98 38.83 27.31 38.27ZM79.61 37.87C78.32 36.41 78.49 34.22 80 32.97C81.5 31.72 83.77 31.89 85.06 33.34C86.35 34.79 86.19 36.98 84.69 38.23C84.01 38.8 83.18 39.08 82.34 39.08C81.33 39.08 80.33 38.67 79.61 37.87ZM35.71 30.05C34.73 28.39 35.33 26.25 37.07 25.3C38.8 24.36 40.98 24.94 41.96 26.62C42.94 28.29 42.34 30.4 40.61 31.35C40.05 31.65 39.45 31.81 38.83 31.81C37.58 31.81 36.37 31.17 35.71 30.05ZM71.37 31.33C69.65 30.39 69.04 28.27 70.02 26.59C70.99 24.93 73.19 24.34 74.91 25.28C76.63 26.22 77.25 28.35 76.27 30.01C75.61 31.15 74.39 31.77 73.14 31.77C72.53 31.77 71.93 31.64 71.37 31.33ZM46.5 25.06C46.17 23.17 47.47 21.38 49.43 21.05C51.38 20.73 53.26 21.99 53.58 23.89C53.91 25.78 52.6 27.57 50.65 27.89C50.44 27.93 50.23 27.95 50.03 27.95C48.32 27.95 46.79 26.76 46.5 25.06ZM61.33 27.89C59.38 27.58 58.05 25.78 58.38 23.88C58.73 21.99 60.58 20.72 62.53 21.05C64.49 21.36 65.82 23.16 65.47 25.06C65.18 26.74 63.66 27.93 61.93 27.93C61.73 27.93 61.53 27.92 61.33 27.89Z" fill="#000000" fill-opacity="0.860000" fill-rule="nonzero"/>
	<path id="path" d="M72.97 53.83L59.21 40.46C57.19 38.51 53.92 38.51 51.9 40.46L39.03 52.95C37.67 54.28 37.65 56.44 38.99 57.78C40.34 59.13 42.53 59.15 43.9 57.82L52.52 49.45L52.52 59.85C52.52 61.9 51.93 63.78 50.85 65.14C49.47 66.85 47.51 67.87 45 68.17C43.09 68.4 41.75 70.1 41.97 71.98C42.19 73.72 43.68 75 45.41 75C45.55 75 45.69 75 45.83 74.97C50.17 74.45 53.8 72.51 56.3 69.37C58.35 66.81 59.47 63.43 59.47 59.85L59.47 50.32L68.09 58.69C68.77 59.35 69.64 59.68 70.53 59.68C71.41 59.68 72.32 59.34 73 58.66C74.34 57.32 74.33 55.16 72.97 53.83Z" fill="#000000" fill-opacity="0.860000" fill-rule="nonzero"/>
	<circle id="椭圆 289" cx="56.000000" cy="56.000000" r="55.000000" stroke="#FFFFFF" stroke-opacity="0.860000" stroke-width="2.000000"/>
</svg>
