<?xml version="1.0" encoding="UTF-8"?>
<svg width="60px" height="60px" viewBox="0 0 60 60" version="1.1" xmlns="http://www.w3.org/2000/svg" xmlns:xlink="http://www.w3.org/1999/xlink">
    <title>ic_hop_grey</title>
    <g id="ic_hop_grey" stroke="none" stroke-width="1" fill="none" fill-rule="evenodd" opacity="0.2">
        <path d="M53.2954545,28.476298 C54.2368491,28.476298 55,29.2342808 55,30.1693002 C55,43.8829169 43.8071186,55 30,55 C16.1928812,55 5,43.8829169 5,30.1693002 C5,29.2342808 5.763151,28.476298 6.70454545,28.476298 C7.64593991,28.476298 8.40909091,29.2342808 8.40909091,30.1693002 C8.40909091,42.0128783 18.0756702,51.6139955 30,51.6139955 C41.9243298,51.6139955 51.5909091,42.0128783 51.5909091,30.1693002 C51.5909091,29.2342808 52.35406,28.476298 53.2954545,28.476298 Z M33.2081877,18.1920919 L33.3065032,18.2865021 L39.7347466,24.6712135 C40.0276398,24.9621232 40.19166,25.3325621 40.2268073,25.7125445 L40.2331975,25.8163603 L40.2331975,25.9203334 C40.2204168,26.3361217 40.0542664,26.7481242 39.7347466,27.0654801 C39.0928539,27.703026 38.0663841,27.7257955 37.3970216,27.1337887 L37.3241552,27.0654801 L32.1973975,21.9737185 L32.1986111,31.4530413 C32.1986111,36.2886968 28.37141,40.2365151 23.56143,40.4713363 L23.1077019,40.4823867 L22.4587612,40.4823867 C21.5173668,40.4823867 20.7542158,39.7244038 20.7542158,38.7893844 C20.7542158,37.9322833 21.3954746,37.2239422 22.2274645,37.1118372 L22.4587612,37.0963822 L23.1077019,37.0963822 C26.1201643,37.0963822 28.5850625,34.7678587 28.7774345,31.8240926 L28.7895202,31.4530413 L28.7883066,21.9737185 L23.6641379,27.0654801 C22.9984715,27.7266388 21.919213,27.7266388 21.2535466,27.0654801 C20.9326003,26.7467074 20.766396,26.3324413 20.7549336,25.9147648 L20.7552918,25.8103278 C20.7684257,25.4275228 20.911586,25.0482999 21.1847724,24.7435864 L21.2535466,24.6712135 L27.68179,18.2865021 C29.202653,16.7759386 31.6487725,16.7444685 33.2081877,18.1920919 Z M50.5843284,19.2589992 C51.7310039,18.7519237 53.0744366,19.2641269 53.5849695,20.4030372 C54.0955023,21.5419474 53.5798068,22.8762824 52.4331311,23.3833579 C51.2864557,23.8904334 49.943023,23.3782302 49.43249,22.23932 C48.9219573,21.1004098 49.4376527,19.7660747 50.5843284,19.2589992 Z M9.41373805,19.2589992 C10.5604136,19.7660747 11.0761091,21.1004098 10.5655763,22.23932 C10.0550434,23.3782302 8.71161064,23.8904334 7.56493514,23.3833579 C6.41825961,22.8762824 5.90256409,21.5419474 6.41309691,20.4030372 C6.92362975,19.2641269 8.26706255,18.7519237 9.41373805,19.2589992 Z M44.8585186,12.2192876 C45.7460739,11.337743 47.1850852,11.337743 48.0726405,12.2192876 C48.9601957,13.1008323 48.9601957,14.5300986 48.0726405,15.4116433 C47.1850852,16.293188 45.7460739,16.293188 44.8585186,15.4116433 C43.9709634,14.5300986 43.9709634,13.1008323 44.8585186,12.2192876 Z M15.1327496,12.212266 C16.0203048,13.0938107 16.0203048,14.523077 15.1327496,15.4046216 C14.2451944,16.2861663 12.8061831,16.2861663 11.9186279,15.4046216 C11.0310727,14.523077 11.0310727,13.0938107 11.9186279,12.212266 C12.8061831,11.3307213 14.2451944,11.3307213 15.1327496,12.212266 Z M36.8513786,7.87078758 C37.321582,6.71487447 38.6461989,6.15641564 39.8099932,6.62343485 C40.9737875,7.09045404 41.5360541,8.40610063 41.0658507,9.56201372 C40.5956473,10.7179268 39.2710305,11.2763857 38.1072361,10.8093665 C36.9434418,10.3423473 36.3811752,9.02670068 36.8513786,7.87078758 Z M23.1567598,7.870754 C23.6269632,9.02666709 23.0646967,10.3423137 21.9009024,10.8093329 C20.737108,11.2763521 19.4124911,10.7178933 18.9422877,9.56198014 C18.4720843,8.40606704 19.0343508,7.09042047 20.1981451,6.62340126 C21.3619395,6.15638205 22.6865563,6.71484088 23.1567598,7.870754 Z M30,5 C31.2551925,5 32.2727273,6.01064391 32.2727273,7.25733634 C32.2727273,8.50402878 31.2551925,9.51467269 30,9.51467269 C28.7448075,9.51467269 27.7272727,8.50402878 27.7272727,7.25733634 C27.7272727,6.01064391 28.7448075,5 30,5 Z" id="形状" fill="#FFFFFF" fill-rule="nonzero"></path>
    </g>
</svg>