<svg width="112.000000" height="112.000000" viewBox="0 0 112 112" fill="none" xmlns="http://www.w3.org/2000/svg" xmlns:xlink="http://www.w3.org/1999/xlink">
	<desc>
			Created with Pixso.
	</desc>
	<defs>
		<filter id="filter_506_54294_dd" x="8.000000" y="8.000000" width="96.000000" height="96.000000" filterUnits="userSpaceOnUse" color-interpolation-filters="sRGB">
			<feFlood flood-opacity="0" result="BackgroundImageFix"/>
			<feGaussianBlur in="BackgroundImage" stdDeviation="33.3333"/>
			<feComposite in2="SourceAlpha" operator="in" result="effect_backgroundBlur_1"/>
			<feBlend mode="normal" in="SourceGraphic" in2="effect_backgroundBlur_1" result="shape"/>
		</filter>
	</defs>
	<g filter="url(#filter_506_54294_dd)">
		<circle id="椭圆 148" r="48.000000" transform="matrix(-1 0 0 1 56 56)" fill="#FFFFFF" fill-opacity="0.860000"/>
	</g>
	<path id="合并" d="M68.7734 52.3203L43.0898 36.5938C40.4258 34.9648 37 36.8828 37 40.0078L37 71.4531C37 74.5781 40.4258 76.4961 43.0898 74.8672L68.7734 59.1406C68.8008 59.125 68.832 59.1055 68.8633 59.0859L68.8633 70.4141C68.8633 72.5703 70.6094 74.3203 72.7656 74.3203C74.9219 74.3203 76.6719 72.5703 76.6719 70.4141L76.6719 41.0703C76.6719 38.9141 74.9219 37.1641 72.7656 37.1641C70.6094 37.1641 68.8633 38.9141 68.8633 41.0703L68.8633 52.375C68.832 52.3555 68.8008 52.3398 68.7734 52.3203Z" clip-rule="evenodd" fill="#000000" fill-opacity="0.860000" fill-rule="evenodd"/>
	<circle id="椭圆 288" cx="56.000000" cy="56.000000" r="55.000000" stroke="#FFFFFF" stroke-opacity="0.860000" stroke-width="2.000000"/>
</svg>
