<svg width="112.000000" height="112.000000" viewBox="0 0 112 112" fill="none" xmlns="http://www.w3.org/2000/svg" xmlns:xlink="http://www.w3.org/1999/xlink">
	<desc>
			Created with Pixso.
	</desc>
	<defs>
		<filter id="filter_506_54270_dd" x="8.000000" y="8.000000" width="96.000000" height="96.000000" filterUnits="userSpaceOnUse" color-interpolation-filters="sRGB">
			<feFlood flood-opacity="0" result="BackgroundImageFix"/>
			<feGaussianBlur in="BackgroundImage" stdDeviation="33.3333"/>
			<feComposite in2="SourceAlpha" operator="in" result="effect_backgroundBlur_1"/>
			<feBlend mode="normal" in="SourceGraphic" in2="effect_backgroundBlur_1" result="shape"/>
		</filter>
	</defs>
	<g filter="url(#filter_506_54270_dd)">
		<circle id="椭圆 148" cx="56.000000" cy="56.000000" r="48.000000" fill="#FFFFFF" fill-opacity="0.860000"/>
	</g>
	<path id="合并" d="M43.5352 59.4102L69.2188 75.1367C71.8828 76.7656 75.3086 74.8477 75.3086 71.7227L75.3086 40.2773C75.3086 37.1523 71.8828 35.2344 69.2188 36.8633L43.5352 52.5898C43.5078 52.6055 43.4766 52.625 43.4453 52.6445L43.4453 41.3125C43.4453 39.1562 41.6992 37.4062 39.543 37.4062C37.3867 37.4062 35.6367 39.1562 35.6367 41.3125L35.6367 70.6562C35.6367 72.8125 37.3867 74.5625 39.543 74.5625C41.6992 74.5625 43.4453 72.8125 43.4453 70.6562L43.4453 59.3555C43.4766 59.375 43.5078 59.3906 43.5352 59.4102Z" clip-rule="evenodd" fill="#000000" fill-opacity="0.860000" fill-rule="evenodd"/>
	<circle id="椭圆 285" cx="56.000000" cy="56.000000" r="55.000000" stroke="#FFFFFF" stroke-opacity="0.860000" stroke-width="2.000000"/>
</svg>
