<svg width="330.000000" height="330.000000" viewBox="0 0 330 330" fill="none" xmlns="http://www.w3.org/2000/svg" xmlns:xlink="http://www.w3.org/1999/xlink">
	<desc>
			Created with Pixso.
	</desc>
	<defs>
		<clipPath id="clip39_1642">
			<rect id="画板 331" width="330.000000" height="330.000000" fill="white" fill-opacity="0"/>
		</clipPath>
	</defs>
	<rect id="画板 331" width="330.000000" height="330.000000" fill="#000000" fill-opacity="0"/>
	<g clip-path="url(#clip39_1642)">
		<path id="差集" d="M9 91.88C9 94.12 9.27 96.3 9.79 98.38C9.27 100.46 9 102.63 9 104.87L9 259.11C9 273.96 21.05 286 35.93 286L294.06 286C308.94 286 321 273.96 321 259.11L321 104.87C321 90.02 308.94 77.98 294.06 77.98L161.13 77.98C160.2 76.45 159.12 75 157.89 73.67L147.25 62.1C136.62 50.56 121.63 44 105.93 44L35.93 44C21.05 44 9 56.03 9 70.88L9 91.88ZM158.43 144.36L201.5 169.07C212.01 175.1 212.01 190.24 201.5 196.27L158.43 220.97C147.96 226.98 134.89 219.43 134.89 207.37L134.89 157.96C134.89 145.9 147.96 138.36 158.43 144.36Z" fill="#FFFFFF" fill-opacity="0.200000" fill-rule="evenodd"/>
	</g>
</svg>
