<?xml version="1.0" encoding="UTF-8"?>
<svg width="120px" height="120px" viewBox="0 0 120 120" version="1.1" xmlns="http://www.w3.org/2000/svg" xmlns:xlink="http://www.w3.org/1999/xlink">
    <title>loadingmdpi</title>
    <g id="loading" stroke="none" stroke-width="1" fill="none" fill-rule="evenodd">
        <path d="M60,13.3333333 C34.2267117,13.3333333 13.3333333,34.2267117 13.3333333,60 C13.3333333,85.7732883 34.2267117,106.666667 60,106.666667 C85.7732883,106.666667 106.666667,85.7732883 106.666667,60 C106.666667,34.2267117 85.7732883,13.3333333 60,13.3333333 Z M60,20 C82.09139,20 100,37.90861 100,60 C100,82.09139 82.09139,100 60,100 C37.90861,100 20,82.09139 20,60 C20,37.90861 37.90861,20 60,20 Z" id="椭圆形备份-2" fill="#666666" opacity="0.3"></path>
        <path d="M60,13.3333333 C61.8409492,13.3333333 63.3333333,14.8257175 63.3333333,16.6666667 C63.3333333,18.5076158 61.8409492,20 60,20 C37.90861,20 20,37.90861 20,60 C20,82.09139 37.90861,100 60,100 C82.09139,100 100,82.09139 100,60 C100,58.1590508 101.492384,56.6666667 103.333333,56.6666667 C105.174282,56.6666667 106.666667,58.1590508 106.666667,60 C106.666667,85.7732883 85.7732883,106.666667 60,106.666667 C34.2267117,106.666667 13.3333333,85.7732883 13.3333333,60 C13.3333333,34.2267117 34.2267117,13.3333333 60,13.3333333 Z" id="路径备份" fill="#666666"></path>
    </g>
</svg>