<?xml version="1.0" encoding="UTF-8"?>
<svg width="396px" height="222px" viewBox="0 0 396 222" version="1.1" xmlns="http://www.w3.org/2000/svg" xmlns:xlink="http://www.w3.org/1999/xlink">
    <title>pic_on-video</title>
    <defs>
        <radialGradient cx="45.0182822%" cy="100%" fx="45.0182822%" fy="100%" r="140.013919%" gradientTransform="translate(0.450183,1.000000),scale(0.559618,1.000000),rotate(180.000000),scale(1.000000,0.640329),translate(-0.450183,-1.000000)" id="radialGradient-1">
            <stop stop-color="#EF8F56" offset="0%"></stop>
            <stop stop-color="#EA581C" offset="100%"></stop>
        </radialGradient>
        <rect id="path-2" x="0" y="0" width="396" height="221.608541"></rect>
        <filter x="-4.0%" y="-3.6%" width="108.1%" height="114.4%" filterUnits="objectBoundingBox" id="filter-4">
            <feOffset dx="0" dy="8" in="SourceAlpha" result="shadowOffsetOuter1"></feOffset>
            <feGaussianBlur stdDeviation="4" in="shadowOffsetOuter1" result="shadowBlurOuter1"></feGaussianBlur>
            <feColorMatrix values="0 0 0 0 0   0 0 0 0 0   0 0 0 0 0  0 0 0 0.1 0" type="matrix" in="shadowBlurOuter1"></feColorMatrix>
        </filter>
    </defs>
    <g id="pic_on-video" stroke="none" stroke-width="1" fill="none" fill-rule="evenodd">
        <mask id="mask-3" fill="white">
            <use xlink:href="#path-2"></use>
        </mask>
        <g id="Mask">
            <use fill="black" fill-opacity="1" filter="url(#filter-4)" xlink:href="#path-2"></use>
            <use fill="url(#radialGradient-1)" fill-rule="evenodd" xlink:href="#path-2"></use>
        </g>
        <path d="M275.978261,46.915245 C283.710247,46.915245 289.978261,53.1832585 289.978261,60.915245 L289.978261,160.684423 C289.978261,168.41641 283.710247,174.684423 275.978261,174.684423 L119.978261,174.684423 C112.246274,174.684423 105.978261,168.41641 105.978261,160.684423 L105.978261,60.915245 C105.978261,53.1832585 112.246274,46.915245 119.978261,46.915245 L275.978261,46.915245 Z M274.978261,91.8340967 L120.978261,91.8340967 C116.007698,91.8340967 111.978261,95.8635339 111.978261,100.834097 L111.978261,158.697046 C111.978261,163.667609 116.007698,167.697046 120.978261,167.697046 L274.978261,167.697046 C279.948824,167.697046 283.978261,163.667609 283.978261,158.697046 L283.978261,100.834097 C283.978261,95.8635339 279.948824,91.8340967 274.978261,91.8340967 Z M203.102707,137.202549 L205.682707,138.072549 C205.322707,139.132549 204.842707,140.307549 204.242707,141.597549 C203.642707,142.887549 203.032707,144.102549 202.412707,145.242549 L199.802707,143.922549 C200.482707,142.882549 201.122707,141.747549 201.722707,140.517549 C202.322707,139.287549 202.782707,138.182549 203.102707,137.202549 Z M235.532707,117.642549 L235.532707,122.742549 L237.872707,122.742549 L237.872707,125.442549 L235.532707,125.442549 L235.532707,129.822549 L237.752707,128.982549 L237.752707,131.712549 C239.072707,131.132549 240.212707,130.512549 241.172707,129.852549 C242.132707,129.192549 242.992707,128.442549 243.752707,127.602549 L238.712707,127.602549 L238.712707,125.352549 L242.372707,125.352549 C241.732707,124.412549 240.962707,123.392549 240.062707,122.292549 L241.502707,121.482549 L241.075207,121.512549 C240.580207,121.542549 239.882707,121.572549 238.982707,121.602549 L238.802707,119.202549 L240.019749,119.15036 C241.884719,119.063022 243.927027,118.934945 246.146672,118.766129 L247.652707,118.647549 C250.972707,118.377549 253.582707,118.082549 255.482707,117.762549 L255.872707,120.222549 L255.005156,120.326018 C253.214952,120.534182 251.094136,120.749692 248.642707,120.972549 L248.642707,125.352549 L252.002707,125.352549 L250.382707,124.392549 C251.422707,122.992549 252.252707,121.792549 252.872707,120.792549 L255.032707,121.962549 L254.369157,122.920596 C253.663832,123.926513 253.065015,124.737164 252.572707,125.352549 L256.862707,125.352549 L256.862707,127.602549 L251.192707,127.602549 C252.812707,129.202549 254.932707,130.562549 257.552707,131.682549 L256.382707,134.052549 C255.882707,133.832549 255.452707,133.612549 255.092707,133.392549 L255.092707,145.092549 L252.542707,145.092549 L252.542707,143.652549 L242.282707,143.652549 L242.282707,145.092549 L239.762707,145.092549 L239.762707,133.692549 L238.502707,134.352549 L237.422707,131.982549 C236.742707,132.282549 236.112707,132.542549 235.532707,132.762549 L235.532707,141.432549 C235.532707,142.652549 235.312707,143.502549 234.872707,143.982549 C234.432707,144.462549 233.652707,144.702549 232.532707,144.702549 C231.852707,144.702549 231.182707,144.642549 230.522707,144.522549 L229.952707,141.852549 C230.732707,141.992549 231.392707,142.062549 231.932707,142.062549 C232.312707,142.062549 232.587707,141.937549 232.757707,141.687549 C232.927707,141.437549 233.012707,141.052549 233.012707,140.532549 L233.012707,133.752549 L229.832707,134.922549 L229.292707,132.072549 L230.167171,131.771096 C230.847725,131.532065 231.796237,131.192549 233.012707,130.752549 L233.012707,125.442549 L230.042707,125.442549 L230.042707,122.742549 L233.012707,122.742549 L233.012707,117.642549 L235.532707,117.642549 Z M223.412707,137.112549 C224.592707,139.052549 225.772707,141.212549 226.952707,143.592549 L224.522707,144.942549 C223.702707,143.162549 222.492707,140.912549 220.892707,138.192549 L223.412707,137.112549 Z M194.552707,133.662549 L194.552707,144.882549 L191.942707,144.882549 L191.942707,143.292549 L184.412707,143.292549 L184.412707,144.882549 L181.802707,144.882549 L181.802707,133.662549 L194.552707,133.662549 Z M165.542707,118.842549 L165.542707,140.622549 C165.542707,141.802549 165.407707,142.677549 165.137707,143.247549 C164.867707,143.817549 164.397707,144.207549 163.727707,144.417549 C163.057707,144.627549 162.032707,144.732549 160.652707,144.732549 C159.792707,144.732549 158.942707,144.672549 158.102707,144.552549 L157.562707,141.882549 C158.782707,142.022549 159.912707,142.092549 160.952707,142.092549 C161.652707,142.092549 162.122707,141.942549 162.362707,141.642549 C162.602707,141.342549 162.722707,140.752549 162.722707,139.872549 L162.722707,121.542549 L144.122707,121.542549 L144.122707,144.882549 L141.332707,144.882549 L141.332707,118.842549 L165.542707,118.842549 Z M210.572707,137.952549 C210.786041,138.699216 211.011226,139.603907 211.248263,140.666623 L211.337707,141.072549 C211.607707,142.312549 211.812707,143.362549 211.952707,144.222549 L209.162707,144.762549 C208.922707,142.722549 208.522707,140.622549 207.962707,138.462549 L210.572707,137.952549 Z M216.962707,137.592549 C217.295207,138.362549 217.646848,139.251221 218.017629,140.258565 L218.177707,140.697549 C218.607707,141.887549 218.942707,142.902549 219.182707,143.742549 L216.572707,144.462549 C216.352707,143.622549 216.037707,142.637549 215.627707,141.507549 L215.222707,140.409216 C214.956041,139.698105 214.696041,139.029216 214.442707,138.402549 L216.962707,137.592549 Z M180.122707,138.462549 L180.392707,141.312549 L179.588545,141.459896 C178.492395,141.668116 176.460449,142.069001 173.492707,142.662549 L170.132707,143.322549 L169.682707,140.592549 L170.434605,140.462193 C171.119863,140.336542 172.078125,140.148151 173.30939,139.89702 L177.591457,139.006299 C178.548957,138.803799 179.392707,138.622549 180.122707,138.462549 Z M252.542707,139.002549 L248.702707,139.002549 L248.702707,141.582549 L252.542707,141.582549 L252.542707,139.002549 Z M246.242707,139.002549 L242.282707,139.002549 L242.282707,141.582549 L246.242707,141.582549 L246.242707,139.002549 Z M159.812707,123.582549 L162.122707,124.392549 C161.402707,126.972549 160.472707,129.532549 159.332707,132.072549 L160.512707,134.372549 C161.259374,135.839216 161.926041,137.172549 162.512707,138.372549 L160.292707,139.692549 C159.512707,138.012549 158.732707,136.412549 157.952707,134.892549 C156.792707,137.112549 155.432707,139.292549 153.872707,141.432549 L151.682707,139.902549 C153.502707,137.502549 155.112707,134.882549 156.512707,132.042549 L155.850307,130.753749 C154.995907,129.108949 154.256707,127.758549 153.632707,126.702549 L155.732707,125.292549 L157.832707,129.162549 C158.612707,127.302549 159.272707,125.442549 159.812707,123.582549 Z M191.942707,136.092549 L184.412707,136.092549 L184.412707,140.892549 L191.942707,140.892549 L191.942707,136.092549 Z M151.712707,123.162549 L154.052707,123.972549 C153.232707,126.672549 152.282707,129.282549 151.202707,131.802549 L153.482707,136.362549 L151.172707,137.742549 L150.902707,137.172549 L150.369276,136.016928 C150.120281,135.485803 149.928092,135.091011 149.792707,134.832549 C148.632707,137.152549 147.482707,139.132549 146.342707,140.772549 L144.122707,139.212549 C145.662707,137.032549 147.082707,134.572549 148.382707,131.832549 L147.732514,130.495264 C146.616502,128.216261 145.713234,126.462023 145.022707,125.232549 L147.152707,124.002549 L147.485107,124.598949 C147.987507,125.517349 148.726707,126.928549 149.702707,128.832549 C150.502707,126.912549 151.172707,125.022549 151.712707,123.162549 Z M175.172707,117.342549 L177.602707,118.452549 C176.802707,120.032549 175.987707,121.567549 175.157707,123.057549 L174.683107,123.898149 C174.081507,124.947749 173.604707,125.712549 173.252707,126.192549 L175.322707,125.952549 L176.612707,125.772549 L177.104559,124.945882 C177.692214,123.950327 178.328263,122.845882 179.012707,121.632549 L181.202707,122.922549 C180.002707,125.022549 178.762707,127.112549 177.482707,129.192549 L177.043399,129.901338 C175.976271,131.609988 175.142707,132.843725 174.542707,133.602549 L175.948659,133.321027 C177.358417,133.032238 178.399766,132.796078 179.072707,132.612549 L179.132707,135.252549 L172.412707,136.692549 C171.932707,136.772549 171.442707,136.882549 170.942707,137.022549 L170.162707,134.232549 C170.602707,134.072549 170.957707,133.907549 171.227707,133.737549 C171.443707,133.601549 171.643707,133.417549 171.827707,133.185549 L171.962707,133.002549 C172.722707,131.982549 173.732707,130.462549 174.992707,128.442549 L172.066087,128.781773 C171.882597,128.805042 171.735007,128.824765 171.623317,128.840942 L171.132707,128.912549 C170.879374,128.952549 170.586041,129.005882 170.252707,129.072549 L169.562707,126.492549 C169.862707,126.352549 170.102707,126.217549 170.282707,126.087549 C170.462707,125.957549 170.642707,125.782549 170.822707,125.562549 C171.262707,124.962549 171.937707,123.792549 172.847707,122.052549 C173.757707,120.312549 174.532707,118.742549 175.172707,117.342549 Z M246.242707,134.502549 L242.282707,134.502549 L242.282707,136.992549 L246.242707,136.992549 L246.242707,134.502549 Z M252.542707,134.502549 L248.702707,134.502549 L248.702707,136.992549 L252.542707,136.992549 L252.542707,134.502549 Z M214.082707,117.642549 L214.082707,120.342549 L226.022707,120.342549 L226.022707,123.132549 L214.082707,123.132549 L214.082707,126.102549 L223.862707,126.102549 L223.862707,136.182549 L203.042707,136.182549 L203.042707,126.102549 L211.142707,126.102549 L211.142707,117.642549 L214.082707,117.642549 Z M185.252707,117.132549 L187.892707,117.882549 C187.672707,118.422549 187.352707,119.112549 186.932707,119.952549 L195.242707,119.952549 L195.242707,122.442549 C194.022707,124.742549 192.472707,126.692549 190.592707,128.292549 C192.372707,129.272549 194.642707,130.112549 197.402707,130.812549 L196.502707,133.392549 C193.222707,132.492549 190.522707,131.342549 188.402707,129.942549 C186.182707,131.402549 183.452707,132.672549 180.212707,133.752549 L179.162707,131.322549 C181.902707,130.462549 184.242707,129.432549 186.182707,128.232549 C185.182707,127.292549 184.282707,126.282549 183.482707,125.202549 L182.968633,125.838105 C182.391349,126.54329 181.892707,127.121438 181.472707,127.572549 L179.612707,125.772549 C180.692707,124.652549 181.762707,123.262549 182.822707,121.602549 C183.882707,119.942549 184.692707,118.452549 185.252707,117.132549 Z M221.072707,128.892549 L205.832707,128.892549 L205.832707,133.482549 L221.072707,133.482549 L221.072707,128.892549 Z M248.642707,128.292549 L248.642707,131.802549 L246.242707,131.802549 L246.242707,128.292549 C245.042707,129.812549 243.562707,131.182549 241.802707,132.402549 L253.382707,132.402549 C251.442707,131.162549 249.862707,129.792549 248.642707,128.292549 Z M192.242707,122.442549 L185.462707,122.442549 L185.012707,123.102549 C185.972707,124.542549 187.072707,125.762549 188.312707,126.762549 C189.872707,125.502549 191.182707,124.062549 192.242707,122.442549 Z M246.242707,121.182549 L242.312707,121.452549 L243.426307,122.892549 C243.903907,123.516549 244.262707,123.996549 244.502707,124.332549 L242.732707,125.352549 L246.242707,125.352549 L246.242707,121.182549 Z M123,62.8863923 C119.134007,62.8863923 116,66.0147475 116,69.8737692 C116,73.7327909 119.134007,76.8611461 123,76.8611461 C126.865993,76.8611461 130,73.7327909 130,69.8737692 C130,66.0147475 126.865993,62.8863923 123,62.8863923 Z M148,62.8863923 C144.134007,62.8863923 141,66.0147475 141,69.8737692 C141,73.7327909 144.134007,76.8611461 148,76.8611461 C151.865993,76.8611461 155,73.7327909 155,69.8737692 C155,66.0147475 151.865993,62.8863923 148,62.8863923 Z M173,62.8863923 C169.134007,62.8863923 166,66.0147475 166,69.8737692 C166,73.7327909 169.134007,76.8611461 173,76.8611461 C176.865993,76.8611461 180,73.7327909 180,69.8737692 C180,66.0147475 176.865993,62.8863923 173,62.8863923 Z" id="形状" fill="#FFFFFF" fill-rule="nonzero"></path>
    </g>
</svg>