<?xml version="1.0" encoding="UTF-8"?>
<svg width="112px" height="112px" viewBox="0 0 112 112" version="1.1" xmlns="http://www.w3.org/2000/svg" xmlns:xlink="http://www.w3.org/1999/xlink">
    <title>旋转 1</title>
    <g id="控件" stroke="none" stroke-width="1" fill="none" fill-rule="evenodd">
        <g id="dianyuan备份-2" transform="translate(-16.000000, -16.000000)">
            <g id="旋转-1" transform="translate(17.000000, 17.000000)">
                <circle id="椭圆_148" fill-opacity="0.86" fill="#FFFFFF" fill-rule="nonzero" cx="55" cy="55" r="48"></circle>
                <g id="编组-2" transform="translate(26.000000, 29.000000)" fill="#000000">
                    <path d="M29.729917,0 C33.0436255,-6.08718376e-16 35.729917,2.6862915 35.729917,6 L35.729917,46.6023778 C35.729917,49.9160863 33.0436255,52.6023778 29.729917,52.6023778 L6,52.6023778 C2.6862915,52.6023778 4.05812251e-16,49.9160863 0,46.6023778 L0,6 C-4.05812251e-16,2.6862915 2.6862915,6.08718376e-16 6,0 L29.729917,0 Z M25.7599262,3.96999078 L9.96999078,3.96999078 C6.65628228,3.96999078 3.96999078,6.65628228 3.96999078,9.96999078 L3.96999078,9.96999078 L3.96999078,42.632387 C3.96999078,45.9460955 6.65628228,48.632387 9.96999078,48.632387 L9.96999078,48.632387 L25.7599262,48.632387 C29.0736347,48.632387 31.7599262,45.9460955 31.7599262,42.632387 L31.7599262,42.632387 L31.7599262,9.96999078 C31.7599262,6.65628228 29.0736347,3.96999078 25.7599262,3.96999078 L25.7599262,3.96999078 Z" id="形状结合"></path>
                    <path d="M51.5648662,26.7974377 C54.8785747,26.7974377 57.5648662,29.4837292 57.5648662,32.7974377 L57.5648662,44.6173824 C57.5648662,47.9310909 54.8785747,50.6173824 51.5648662,50.6173824 L39.6999078,50.6173824 L39.6999078,47.6394377 L48.5873732,47.6398893 C51.9010817,47.6398893 54.5873732,44.9535978 54.5873732,41.6398893 L54.5873732,35.7749308 C54.5873732,32.5365339 52.0217983,29.8973591 48.8123114,29.7790693 L48.5873732,29.7749308 L39.6999078,29.7744377 L39.6999078,26.7974377 L51.5648662,26.7974377 Z" id="形状结合" opacity="0.65645563"></path>
                    <rect id="矩形" x="11.9099723" y="0" width="11.9099723" height="6.94748386" rx="3.47374193"></rect>
                    <path d="M40.7746401,0.716125013 C47.9981334,2.77174439 51.6098801,6.640037 51.6098801,12.3210028 L55.6752878,10.0537326 L58,12.3210028 L51.9401375,19.2040816 L48.9370298,17.7782262 C49.5052459,9.558243 46.7844493,4.95549786 40.7746401,3.96999078 L40.7485308,1.94676557 L40.7746401,0.716125013 Z" id="路径-2"></path>
                </g>
                <circle id="椭圆_286" stroke-opacity="0.86" stroke="#FFFFFF" stroke-width="2" cx="55" cy="55" r="55"></circle>
            </g>
        </g>
    </g>
</svg>