<svg width="60.000000" height="60.000000" viewBox="0 0 60 60" fill="none" xmlns="http://www.w3.org/2000/svg" xmlns:xlink="http://www.w3.org/1999/xlink">
	<desc>
			Created with Pixso.
	</desc>
	<defs>
		<filter id="filter_156_14249_dd" x="0.000000" y="0.000000" width="60.000000" height="60.000000" filterUnits="userSpaceOnUse" color-interpolation-filters="sRGB">
			<feFlood flood-opacity="0" result="BackgroundImageFix"/>
			<feGaussianBlur in="BackgroundImage" stdDeviation="33.3333"/>
			<feComposite in2="SourceAlpha" operator="in" result="effect_backgroundBlur_1"/>
			<feBlend mode="normal" in="SourceGraphic" in2="effect_backgroundBlur_1" result="shape"/>
		</filter>
		<linearGradient x1="42.626232" y1="37.024128" x2="43.797153" y2="23.085096" id="paint_linear_156_14251_0" gradientUnits="userSpaceOnUse">
			<stop stop-color="#206BFF"/>
			<stop offset="1.000000" stop-color="#6194F9"/>
		</linearGradient>
		<linearGradient x1="26.191097" y1="38.786442" x2="31.460213" y2="21.362654" id="paint_linear_156_14252_0" gradientUnits="userSpaceOnUse">
			<stop stop-color="#206BFF"/>
			<stop offset="1.000000" stop-color="#6194F9"/>
		</linearGradient>
	</defs>
	<g filter="url(#filter_156_14249_dd)">
		<circle id="椭圆 153" r="30.000000" transform="matrix(0 1 -1 0 30 30)" fill="#FFFFFF" fill-opacity="0.860000"/>
	</g>
	<path id="矢量 58" d="M42.72 24.21L41.92 24.6C41.23 24.93 40.8 25.63 40.8 26.39L40.8 33.6C40.8 34.36 41.23 35.06 41.92 35.39L42.72 35.78C44.05 36.44 45.6 35.47 45.6 33.99L45.6 26C45.6 24.52 44.05 23.55 42.72 24.21Z" fill="url(#paint_linear_156_14251_0)" fill-opacity="0.900000" fill-rule="evenodd"/>
	<path id="差集" d="M22.9766 21.0063L34.5762 21.0063C37.3379 21.0063 39.5762 23.2449 39.5762 26.0063L39.5762 34.0063C39.5762 36.7678 37.3379 39.0063 34.5762 39.0063L22.9766 39.0063C20.2148 39.0063 17.9766 36.7678 17.9766 34.0063L17.9766 26.0063C17.9766 23.2449 20.2148 21.0063 22.9766 21.0063ZM28.7695 27.5791C27.4434 27.5791 26.3691 28.6536 26.3691 29.979C26.3691 31.3044 27.4434 32.3789 28.7695 32.3789C30.0938 32.3789 31.168 31.3044 31.168 29.979C31.168 28.6536 30.0938 27.5791 28.7695 27.5791Z" clip-rule="evenodd" fill="url(#paint_linear_156_14252_0)" fill-opacity="0.900000" fill-rule="evenodd"/>
</svg>
