<svg width="220.000000" height="220.000000" viewBox="0 0 512 512" fill="none" xmlns="http://www.w3.org/2000/svg" xmlns:xlink="http://www.w3.org/1999/xlink">
	<desc>
			Created with Pixso.
	</desc>
	<defs>
		<linearGradient x1="198.644882" y1="504.455078" x2="316.441650" y2="15.008991" id="paint_linear_275_35941_0" gradientUnits="userSpaceOnUse">
			<stop stop-color="#206BFF"/>
			<stop offset="1.000000" stop-color="#5F94FF"/>
		</linearGradient>
		<linearGradient x1="198.644882" y1="504.455078" x2="316.441650" y2="15.008991" id="paint_linear_275_35941_1" gradientUnits="userSpaceOnUse">
			<stop stop-color="#206BFF"/>
			<stop offset="1.000000" stop-color="#5F94FF"/>
		</linearGradient>
	</defs>
	<rect width="512.000000" height="512.000000"/>
	<rect id="矩形 335" x="80.000000" y="122.000000" width="352.000000" height="272.000000" fill="#FFFFFF" fill-opacity="0.860000"/>
	<path id="path-1" d="M291.35 5C307.76 5 322.6 14.82 329.05 29.97L348.33 75.23L368.26 86.77L417.1 80.87C432.87 78.96 448.26 86.36 456.69 99.76L492.38 161.63C500.61 175.92 499.54 193.77 489.66 206.96L460.17 246.32L460.17 269.3L489.66 308.66C499.21 321.42 500.53 338.52 493.17 352.56L457.51 414.5C449.29 428.76 433.39 436.73 417.1 434.76L368.26 428.85L348.33 440.39L329.05 485.65C322.81 500.31 308.71 509.99 292.93 510.6L221.54 510.63C205.12 510.63 190.28 500.8 183.83 485.65L164.54 440.39L144.61 428.85L95.79 434.76C80.02 436.67 64.62 429.27 56.19 415.86L20.5 354C12.27 339.7 13.34 321.86 23.22 308.66L52.7 269.3L52.7 246.32L23.22 206.96C13.67 194.21 12.35 177.1 19.71 163.07L55.37 101.12C63.59 86.86 79.49 78.89 95.79 80.87L144.61 86.77L164.54 75.23L183.83 29.97C190.07 15.31 204.17 5.63 219.95 5.03L291.35 5ZM256.44 151.98C198.2 151.98 150.99 199.36 150.99 257.81C150.99 316.26 198.2 363.64 256.44 363.64C314.68 363.64 361.89 316.26 361.89 257.81C361.89 199.36 314.68 151.98 256.44 151.98ZM256.44 187.26C295.27 187.26 326.74 218.85 326.74 257.81C326.74 296.78 295.27 328.36 256.44 328.36C217.61 328.36 186.14 296.78 186.14 257.81C186.14 218.85 217.61 187.26 256.44 187.26Z" fill="url(#paint_linear_275_35941_0)" fill-opacity="1.000000" fill-rule="nonzero"/>
	<path id="path-1" d="M329.05 29.97L348.33 75.23L368.26 86.77L417.1 80.87C432.87 78.96 448.26 86.36 456.69 99.76L492.38 161.63C500.61 175.92 499.54 193.77 489.66 206.96L460.17 246.32L460.17 269.3L489.66 308.66C499.21 321.42 500.53 338.52 493.17 352.56L457.51 414.5C449.29 428.76 433.39 436.73 417.1 434.76L368.26 428.85L348.33 440.39L329.05 485.65C322.81 500.31 308.71 509.99 292.93 510.6L221.54 510.63C205.12 510.63 190.28 500.8 183.83 485.65L164.54 440.39L144.61 428.85L95.79 434.76C80.02 436.67 64.62 429.27 56.19 415.86L20.5 354C12.27 339.7 13.34 321.86 23.22 308.66L52.7 269.3L52.7 246.32L23.22 206.96C13.67 194.21 12.35 177.1 19.71 163.07L55.37 101.12C63.59 86.86 79.49 78.89 95.79 80.87L144.61 86.77L164.54 75.23L183.83 29.97C190.07 15.31 204.17 5.63 219.95 5.03L291.35 5C307.76 5 322.6 14.82 329.05 29.97ZM150.99 257.81C150.99 316.26 198.2 363.64 256.44 363.64C314.68 363.64 361.89 316.26 361.89 257.81C361.89 199.36 314.68 151.98 256.44 151.98C198.2 151.98 150.99 199.36 150.99 257.81ZM326.74 257.81C326.74 296.78 295.27 328.36 256.44 328.36C217.61 328.36 186.14 296.78 186.14 257.81C186.14 218.85 217.61 187.26 256.44 187.26C295.27 187.26 326.74 218.85 326.74 257.81Z" stroke="url(#paint_linear_275_35941_1)" stroke-opacity="1.000000" stroke-width="1.000000"/>
</svg>
