<?xml version="1.0" encoding="UTF-8"?>
<svg width="300px" height="300px" viewBox="0 0 300 300" version="1.1" xmlns="http://www.w3.org/2000/svg" xmlns:xlink="http://www.w3.org/1999/xlink">
    <title>自动熄屏</title>
    <defs>
        <polygon id="path-1" points="0 0 300 0 300 299.999866 0 299.999866"></polygon>
    </defs>
    <g id="auto_screen_off_detail" stroke="none" stroke-width="1" fill="none" fill-rule="evenodd" opacity="0.3">
        <g id="自动熄屏-30分钟" transform="translate(-1317.000000, -350.000000)">
            <g id="自动熄屏" transform="translate(1317.000000, 350.000000)">
                <mask id="mask-2" fill="white">
                    <use xlink:href="#path-1"></use>
                </mask>
                <g id="Clip-2"></g>
                <path d="M160.714286,146.785714 L224.732143,183.75 L214.017857,202.232143 L142.232143,160.714286 L139.285714,160.714286 L139.285714,64.2857143 L160.714286,64.2857143 L160.714286,146.785714 Z M150,278.571429 C79.0178571,278.571429 21.4285714,220.982143 21.4285714,150 C21.4285714,79.0178571 79.0178571,21.4285714 150,21.4285714 C220.982143,21.4285714 278.571429,79.0178571 278.571429,150 C278.571429,220.982143 220.982143,278.571429 150,278.571429 L150,278.571429 Z M150,0 C67.2321429,0 0,67.2321429 0,150 C0,232.767857 67.2321429,300 150,300 C232.767857,300 300,232.767857 300,150 C300,67.2321429 232.767857,0 150,0 L150,0 Z" id="Fill-1" fill="#FFFFFF" mask="url(#mask-2)" fill-opacity="0.200000"></path>
            </g>
        </g>
    </g>
</svg>