<?xml version="1.0" encoding="UTF-8"?>
<svg width="331px" height="321px" viewBox="0 0 331 321" version="1.1" xmlns="http://www.w3.org/2000/svg" xmlns:xlink="http://www.w3.org/1999/xlink">
    <title>熄屏</title>
    <defs>
        <polygon id="path-1" points="0 0 331 0 331 321 0 321"></polygon>
    </defs>
    <g id="auto_screen_off_title" stroke="none" stroke-width="1" fill="none" fill-rule="evenodd" opacity="0.3">
        <g id="自动熄屏配" transform="translate(-1287.000000, -382.000000)">
            <g id="熄屏" transform="translate(1287.000000, 382.000000)">
                <mask id="mask-2" fill="white">
                    <use xlink:href="#path-1"></use>
                </mask>
                <g id="Clip-2"></g>
                <path d="M36.7826523,272.725863 C31.2574204,272.725863 25.7334419,267.198645 25.7334419,261.67268 L25.7334419,228.553254 L106.671572,147.628652 L88.2909001,129.220055 L23.9272125,193.629457 L23.9272125,149.435531 L66.2125346,107.135004 L47.8318628,88.7264062 L25.7547506,112.660969 L25.7547506,64.8332227 L3.67638505,42.7682344 C1.8488469,48.2954531 0,53.8226719 0,59.3273203 L0,261.692742 C0,281.908219 16.5531336,298.467305 36.7613436,298.467305 L259.283542,298.467305 L233.530045,272.704547 L36.7613436,272.704547 L36.7826523,272.725863 Z M294.217348,22.5326953 L71.7164578,22.5326953 L112.174242,63.0050273 L126.879782,48.2954531 L169.165104,48.2954531 L132.405014,85.0700156 L150.784432,103.478613 L205.947756,48.2954531 L294.217348,48.2954531 C299.741326,48.2954531 305.266558,53.8226719 305.266558,59.3273203 L305.266558,256.166777 L327.323615,278.231766 C329.151153,272.704547 331,267.177328 331,261.67268 L331,59.3060039 C331,39.0917812 314.446866,22.5326953 294.237403,22.5326953 L294.217348,22.5326953 Z M27.5822888,4.14541406 C22.0570568,-1.38180469 14.7042867,-1.38180469 9.201617,4.14541406 C3.67638505,9.67137891 3.67638505,17.0054766 9.201617,22.5326953 L303.418965,316.854586 C308.942943,322.381805 316.29446,322.381805 321.798383,316.854586 C327.323615,311.327367 327.323615,303.973207 321.798383,298.467305 L27.5822888,4.14541406 Z" id="Fill-1" fill="#FFFFFF" mask="url(#mask-2)" fill-opacity="0.200000"></path>
            </g>
        </g>
    </g>
</svg>