<svg width="48.000000" height="48.000000" viewBox="0 0 48 48" fill="none" xmlns="http://www.w3.org/2000/svg" xmlns:xlink="http://www.w3.org/1999/xlink">
	<desc>
			Created with Pixso.
	</desc>
	<defs>
		<clipPath id="clip417_43852">
			<rect id="画板 291" width="48.000000" height="48.000000" transform=" rotate(0.000000)" fill="white" fill-opacity="0"/>
		</clipPath>
	</defs>
	<rect id="画板 291" width="48.000000" height="48.000000" transform=" rotate(0.000000)" fill="#FFFFFF" fill-opacity="0"/>
	<g clip-path="url(#clip417_43852)">
		<path id="path" d="M28.92 32.9C27.28 33.2 25.58 33.36 23.86 33.36C15.68 33.34 7.78 29.64 5.56 26.18C4.68 24.8 5.06 24 5.18 23.74C6.38 21.14 8.9 18.42 12.5 16.48L10.28 14.26C6.1 16.76 3.54 20.08 2.44 22.5C1.92 23.66 1.58 25.52 3.04 27.8C6.1 32.58 15.22 36.34 23.8 36.36C26.34 36.36 29 36.02 31.46 35.44L28.92 32.9ZM45.16 22.48C42.42 16.64 34.76 10.74 23.8 10.74C20.98 10.74 18.46 11.1 16.22 11.72L18.74 14.24C20.32 13.92 22.02 13.74 23.8 13.74C29.3 13.74 33.54 15.32 36.6 17.36C39.66 19.4 41.58 21.9 42.46 23.76C42.58 24.02 42.96 24.82 42.06 26.22C41 27.92 38.6 29.64 35.46 30.96L37.74 33.24C40.8 31.78 43.26 29.9 44.6 27.82C45.38 26.6 45.64 25.52 45.64 24.58C45.64 23.74 45.42 23.04 45.16 22.48Z" fill="#FFFFFF" fill-opacity="0.860000" fill-rule="nonzero"/>
		<path id="path" d="M24.06 28.04L23.82 28.04C21.34 28.04 19.32 26.02 19.32 23.54C19.32 23.46 19.32 23.4 19.34 23.32L16.84 20.82C16.5 21.66 16.32 22.58 16.32 23.54C16.32 27.68 19.68 31.04 23.82 31.04C24.78 31.04 25.7 30.86 26.54 30.52L24.06 28.04ZM23.82 16.04C22.84 16.04 21.92 16.22 21.08 16.58L23.56 19.06C23.56 19.06 23.74 19.04 23.82 19.04C26.3 19.04 28.32 21.06 28.32 23.54C28.32 23.62 28.32 23.72 28.3 23.8L30.8 26.3C31.14 25.44 31.32 24.52 31.32 23.54C31.32 19.42 27.96 16.04 23.82 16.04Z" fill="#FFFFFF" fill-opacity="0.860000" fill-rule="nonzero"/>
		<path id="path" d="M39.08 38.84C38.88 39.04 38.62 39.14 38.38 39.14C38.14 39.14 37.9 39.06 37.72 38.88L33.66 34.84L31.22 32.4L28.34 29.52L26.18 27.36L14.4 15.58L12.08 13.26L8.52 9.7C8.16 9.3 8.14 8.66 8.52 8.28C8.9 7.9 9.54 7.9 9.94 8.28L16.48 14.82L19.26 17.6L27.62 25.96L29.74 28.1L35.74 34.1L39.08 37.44C39.46 37.82 39.46 38.46 39.08 38.84Z" fill="#FFFFFF" fill-opacity="0.860000" fill-rule="nonzero"/>
	</g>
</svg>
