<svg width="48.000000" height="48.000000" viewBox="0 0 48 48" fill="none" xmlns="http://www.w3.org/2000/svg" xmlns:xlink="http://www.w3.org/1999/xlink">
	<desc>
			Created with Pixso.
	</desc>
	<defs>
		<clipPath id="clip417_43934">
			<rect id="画板 292" width="47.999901" height="47.999901" transform=" rotate(0.000002)" fill="white" fill-opacity="0"/>
		</clipPath>
	</defs>
	<rect id="画板 292" width="47.999901" height="47.999901" transform=" rotate(0.000002)" fill="#FFFFFF" fill-opacity="0"/>
	<g clip-path="url(#clip417_43934)">
		<path id="path" d="M23.87 37.63C15.29 37.63 6.1 33.86 3.04 29.08C1.58 26.79 1.91 24.94 2.45 23.75C4.45 19.4 11.18 12 23.8 12C34.76 12 42.42 17.9 45.16 23.74C45.71 24.91 46.06 26.79 44.6 29.09C41.54 33.87 32.45 37.63 23.87 37.63ZM23.8 15.01C14.14 15.01 7.37 20.2 5.16 25.01C5.04 25.28 4.68 26.08 5.57 27.46C7.79 30.91 15.64 34.62 23.8 34.63C31.96 34.63 39.87 30.96 42.06 27.5C42.95 26.09 42.56 25.29 42.45 25.04C40.71 21.32 34.83 15.01 23.8 15.01Z" fill="#FFFFFF" fill-opacity="0.860000" fill-rule="nonzero"/>
		<path id="path" d="M23.8 32.33C19.66 32.33 16.3 28.97 16.3 24.83C16.3 20.7 19.66 17.33 23.8 17.33C27.94 17.33 31.3 20.7 31.3 24.83C31.3 28.97 27.94 32.33 23.8 32.33ZM23.8 20.33C21.32 20.33 19.3 22.35 19.3 24.83C19.3 27.31 21.32 29.33 23.8 29.33C26.28 29.33 28.3 27.31 28.3 24.83C28.3 22.35 26.28 20.33 23.8 20.33Z" fill="#FFFFFF" fill-opacity="0.860000" fill-rule="nonzero"/>
	</g>
</svg>
