<svg width="460" height="460" viewBox="0 0 460 460" fill="none" xmlns="http://www.w3.org/2000/svg">
<g clip-path="url(#clip0_922_1031)">
<g opacity="0.6">
<path fill-rule="evenodd" clip-rule="evenodd" d="M172 370.651C172 338.811 197.811 313 229.651 313C261.49 313 287.301 338.811 287.301 370.651C287.301 402.49 261.49 428.301 229.651 428.301C197.811 428.301 172 402.49 172 370.651Z" fill="white" fill-opacity="0.2"/>
<mask id="mask0_922_1031" style="mask-type:luminance" maskUnits="userSpaceOnUse" x="200" y="341" width="59" height="59">
<path d="M258.477 341.825H200.826V399.476H258.477V341.825Z" fill="white"/>
</mask>
<g mask="url(#mask0_922_1031)">
<path fill-rule="evenodd" clip-rule="evenodd" d="M205.677 369.882C205.132 369.85 204.708 369.682 204.403 369.378C204.194 369.15 204.048 368.902 203.963 368.635C203.904 368.452 203.875 368.259 203.875 368.056C203.875 367.845 203.91 367.648 203.979 367.463C204.073 367.212 204.231 366.986 204.452 366.783L223.764 348.455C224.364 347.874 225.019 347.397 225.728 347.025C226.288 346.732 226.883 346.504 227.512 346.341C228.225 346.165 228.937 346.077 229.65 346.077C230.363 346.077 231.075 346.165 231.788 346.341C232.417 346.504 233.011 346.732 233.571 347.025C234.281 347.397 234.936 347.874 235.535 348.455L254.896 366.783C255.248 367.136 255.424 367.56 255.424 368.056C255.424 368.553 255.272 368.977 254.968 369.33C254.616 369.714 254.191 369.906 253.695 369.906C253.45 369.906 253.222 369.863 253.012 369.777C252.797 369.689 252.6 369.556 252.422 369.378L233.061 351.05C232.1 350.121 230.971 349.656 229.674 349.656C228.393 349.656 227.272 350.121 226.311 351.05L206.926 369.45C206.621 369.754 206.205 369.898 205.677 369.882ZM249.78 370.819C245.393 366.639 240.989 362.467 236.569 358.304L232.197 354.22C231.46 353.532 230.604 353.188 229.627 353.188C228.65 353.188 227.793 353.532 227.056 354.22L209.593 370.819C209.289 371.123 209.057 371.468 208.896 371.852C208.736 372.236 208.656 372.621 208.656 373.005V389.844C208.656 390.853 208.896 391.765 209.377 392.582C209.857 393.415 210.514 394.071 211.347 394.552C212.179 395.032 213.092 395.272 214.085 395.272H245.264C246.225 395.272 247.122 395.032 247.955 394.552C248.787 394.071 249.444 393.415 249.924 392.582C250.405 391.765 250.645 390.853 250.645 389.844V372.957C250.645 372.54 250.565 372.148 250.405 371.78C250.245 371.411 250.037 371.091 249.78 370.819ZM222.492 380.692V391.646H236.809V380.692C236.809 379.895 236.674 379.151 236.404 378.46C236.061 377.581 235.499 376.788 234.719 376.08C234.19 375.587 233.614 375.189 232.992 374.886C231.996 374.401 230.882 374.158 229.65 374.158C228.418 374.158 227.304 374.401 226.309 374.886C225.687 375.189 225.111 375.587 224.582 376.08C223.802 376.788 223.24 377.581 222.897 378.46C222.627 379.151 222.492 379.895 222.492 380.692Z" fill="white"/>
</g>
<path fill-rule="evenodd" clip-rule="evenodd" d="M172 63.6506C172 31.8111 197.811 6 229.651 6C261.49 6 287.301 31.8111 287.301 63.6506C287.301 95.4902 261.49 121.301 229.651 121.301C197.811 121.301 172 95.4902 172 63.6506Z" fill="white" fill-opacity="0.2"/>
<mask id="mask1_922_1031" style="mask-type:luminance" maskUnits="userSpaceOnUse" x="200" y="34" width="59" height="59">
<path d="M258.477 34.8252H200.826V92.4758H258.477V34.8252Z" fill="white"/>
</mask>
<g mask="url(#mask1_922_1031)">
<path d="M239.122 50.9895H224.177V42.9665C224.177 42.1349 223.59 41.7924 222.88 42.2083L203.777 53.2399C203.043 53.6557 203.043 54.3406 203.777 54.7564L222.88 65.788C223.59 66.2038 224.177 65.8614 224.177 65.0297V57.0067H239.122C245.139 57.0067 250.056 61.8988 250.056 67.9405C250.056 73.9822 245.164 78.8742 239.122 78.8742H214.686C213.023 78.8742 211.678 80.2195 211.678 81.8828C211.678 83.5461 213.023 84.8914 214.686 84.8914H239.122C248.466 84.8914 256.073 77.2843 256.073 67.9405C256.073 58.5966 248.466 50.9895 239.122 50.9895Z" fill="white" fill-opacity="0.9"/>
</g>
<path fill-rule="evenodd" clip-rule="evenodd" d="M158 217.063C158 177.264 190.264 145 230.063 145C269.863 145 302.127 177.264 302.127 217.063C302.127 256.863 269.863 289.127 230.063 289.127C190.264 289.127 158 256.863 158 217.063Z" fill="white" fill-opacity="0.2"/>
<path fill-rule="evenodd" clip-rule="evenodd" d="M191.629 217.064C191.629 195.837 208.836 178.63 230.063 178.63C251.289 178.63 268.496 195.837 268.496 217.064C268.496 238.29 251.289 255.497 230.063 255.497C208.836 255.497 191.629 238.29 191.629 217.064Z" fill="white" fill-opacity="0.86"/>
<path d="M219.527 139.708L218.528 138.217C219.899 137.598 221.154 136.817 222.293 135.873L219.727 133.529L220.726 132.38C221.623 133.193 222.55 133.999 223.509 134.799C224.308 133.952 224.969 132.959 225.493 131.82H219.674C219.674 133.104 219.504 134.358 219.163 135.58C218.838 136.817 218.292 137.956 217.525 138.998L216.18 137.928C216.896 136.981 217.393 135.914 217.672 134.728C217.817 134.254 217.914 133.757 217.965 133.236C218.062 132.437 218.111 131.607 218.111 130.746V126.982C221.189 126.896 224.261 126.592 227.326 126.072L227.619 127.692C224.965 128.177 222.317 128.461 219.674 128.544V130.253H227.273V131.82C226.702 133.335 225.846 134.686 224.707 135.873L227.69 138.417L226.616 139.784C225.625 138.825 224.607 137.897 223.562 137.001C222.34 138.092 220.995 138.994 219.527 139.708ZM211.564 140.272L214.129 137.999V133.236H211.928V131.598H215.692V137.853C215.97 138.229 216.303 138.587 216.691 138.927C216.922 139.107 217.176 139.272 217.454 139.42C217.892 139.612 218.323 139.733 218.746 139.784C219.314 139.819 219.884 139.837 220.455 139.837H228.547L228.254 141.4H220.162C219.543 141.4 218.926 141.382 218.311 141.346C217.838 141.296 217.388 141.174 216.961 140.982C216.636 140.837 216.328 140.673 216.038 140.49C215.662 140.152 215.31 139.77 214.982 139.344C214.121 140.158 213.265 140.964 212.416 141.763L211.564 140.272ZM212.78 127.053L213.983 126.072C214.88 127.066 215.759 128.084 216.62 129.126L215.328 130.329C214.529 129.237 213.679 128.145 212.78 127.053ZM230.891 141.835V126.489H245.455V141.835H243.675V140.836H232.6V141.835H230.891ZM243.675 128.198H232.6V139.127H243.675V128.198ZM234.655 137.001V130.329H241.62V137.001H234.655ZM240.128 131.82H236.217V135.509H240.128V131.82Z" fill="white" fill-opacity="0.86"/>
<path d="M218.382 434.147L219.873 433.362C220.394 434.308 220.964 435.206 221.582 436.056L220.384 436.691H227.544V438.4H220.948V441.871H226.838V443.58H220.948V447.637H228.183V449.271H211.999V447.637H219.163V443.58H213.344V441.871H219.163V438.4H212.562V436.691H219.944C219.423 435.841 218.903 434.993 218.382 434.147ZM232.089 438.182H236.635C236.878 437.528 237.091 436.843 237.274 436.127H230.527V434.489H245.872V436.127H239.2C239.005 436.793 238.818 437.478 238.637 438.182H244.31V445.635H242.525V439.745H233.874V445.711H232.089V438.182ZM230.891 450.11L230.11 448.347C231.151 448.054 232.193 447.745 233.235 447.42C233.758 447.224 234.255 447.011 234.726 446.781C235.102 446.588 235.454 446.376 235.783 446.146C236.304 445.722 236.709 445.225 236.999 444.654C237.182 444.036 237.298 443.368 237.345 442.652C237.345 442.048 237.345 441.412 237.345 440.744H239.054C239.054 441.412 239.054 442.097 239.054 442.799C239.054 443.467 238.981 444.129 238.836 444.783L245.948 448.272L245.091 450.056C242.777 448.769 240.455 447.514 238.126 446.292C237.801 446.715 237.45 447.091 237.074 447.42C236.553 447.795 236.007 448.128 235.436 448.418C234.868 448.649 234.322 448.886 233.798 449.129C232.854 449.504 231.885 449.831 230.891 450.11Z" fill="white" fill-opacity="0.86"/>
<path fill-rule="evenodd" clip-rule="evenodd" d="M326 216.651C326 184.811 351.811 159 383.651 159C415.49 159 441.301 184.811 441.301 216.651C441.301 248.49 415.49 274.301 383.651 274.301C351.811 274.301 326 248.49 326 216.651Z" fill="white" fill-opacity="0.2"/>
<mask id="mask2_922_1031" style="mask-type:luminance" maskUnits="userSpaceOnUse" x="354" y="187" width="59" height="59">
<path d="M412.477 187.825H354.826V245.476H412.477V187.825Z" fill="white"/>
</mask>
<g mask="url(#mask2_922_1031)">
<path d="M408.308 212.334C408.331 212.451 408.834 215.17 408.834 217.312C408.834 219.497 408.315 222.261 408.308 222.288C408.012 223.855 407.061 224.873 405.843 224.873H405.631C402.229 224.873 399.467 227.664 399.467 231.098C399.467 232.204 399.999 233.463 400.004 233.474C400.613 234.856 400.143 236.549 398.833 237.466L392.403 241.046C391.747 241.314 391.025 241.377 390.333 241.225C389.641 241.073 389.011 240.714 388.528 240.196C387.829 239.425 385.408 237.216 383.516 237.216C381.772 237.216 379.412 239.183 378.54 240.14C377.919 240.823 376.957 241.23 375.978 241.23C375.51 241.23 375.067 241.14 374.58 240.924L368.383 237.416C367.984 237.126 367.656 236.749 367.423 236.314C367.19 235.88 367.058 235.398 367.036 234.906C367.015 234.413 367.104 233.922 367.298 233.469C367.304 233.458 367.835 232.209 367.835 231.098C367.835 227.669 365.073 224.873 361.674 224.873H361.416C360.242 224.873 359.29 223.861 358.995 222.288C358.971 222.171 358.469 219.442 358.469 217.312C358.469 215.175 358.973 212.448 358.995 212.334C359.29 210.763 360.236 209.751 361.454 209.751H361.667C365.068 209.751 367.83 206.958 367.83 203.526C367.83 202.402 367.298 201.161 367.293 201.148C366.684 199.768 367.154 198.068 368.468 197.151L375.016 193.533C375.42 193.358 375.856 193.275 376.313 193.275C377.293 193.275 378.248 193.672 378.875 194.344C379.563 195.07 381.94 197.151 383.776 197.151C385.592 197.151 387.957 195.115 388.64 194.4C389.267 193.746 390.216 193.355 391.184 193.355C391.654 193.355 392.102 193.443 392.589 193.656L398.907 197.212C400.138 198.078 400.608 199.774 399.999 201.161C399.993 201.172 399.462 202.418 399.462 203.532C399.462 206.96 402.229 209.756 405.623 209.756H405.881C407.061 209.751 408.012 210.763 408.308 212.334ZM392.582 217.993C392.582 213.028 388.579 208.991 383.664 208.991C378.746 208.991 374.742 213.026 374.742 217.993C374.742 222.96 378.742 226.997 383.662 226.997C388.584 226.997 392.582 222.96 392.582 217.993Z" fill="white" fill-opacity="0.9"/>
</g>
<path d="M371.454 295.256L370.544 293.689C372.157 293.168 373.721 292.484 375.236 291.638C373.999 290.546 373.072 289.267 372.453 287.799L373.017 287.51H371.672V286.019H380.909V287.51C380.243 289.12 379.274 290.496 378.002 291.638C378.57 292.011 379.163 292.344 379.782 292.637C380.631 292.963 381.504 293.272 382.401 293.565L381.69 295.181C380.696 294.805 379.727 294.381 378.783 293.911C378.02 293.535 377.311 293.134 376.657 292.708C375.94 293.181 375.224 293.582 374.508 293.911C373.514 294.381 372.496 294.83 371.454 295.256ZM372.311 285.966L371.183 284.745C371.559 284.514 371.91 284.23 372.235 283.893C372.43 283.709 372.624 283.521 372.817 283.329C372.95 283.047 373.066 282.762 373.163 282.472C373.261 282.146 373.31 281.796 373.31 281.42V279.636H379.835V282.69C379.8 282.834 379.8 282.95 379.835 283.036C379.885 283.133 379.934 283.205 379.981 283.253C380.028 283.351 380.126 283.4 380.274 283.4C380.419 283.447 380.559 283.447 380.692 283.4H382.183L381.983 284.962H379.981C379.703 285.012 379.394 285.012 379.054 284.962C378.873 284.867 378.685 284.746 378.49 284.598C378.392 284.515 378.319 284.401 378.272 284.257C378.187 283.963 378.144 283.678 378.144 283.4V281.127H374.948V282.126C374.897 282.928 374.66 283.638 374.237 284.257C373.716 284.911 373.074 285.48 372.311 285.966ZM365.857 284.474H369.838V291.638L371.818 290.072L372.528 291.563C371.534 292.326 370.54 293.109 369.545 293.911C369.217 294.151 368.932 294.386 368.689 294.617L367.637 293.347C367.77 293.199 367.885 293.029 367.983 292.837C368.08 292.653 368.129 292.44 368.129 292.198V286.019H365.857V284.474ZM379.054 287.51H374.091C374.71 288.747 375.54 289.789 376.581 290.635C377.673 289.789 378.497 288.747 379.054 287.51ZM367.055 279.982L368.418 278.925C369.365 279.969 370.286 281.061 371.183 282.201L369.763 283.253C368.866 282.164 367.964 281.074 367.055 279.982ZM385.308 282.765V279.201H399.237V282.765H385.308ZM389.507 280.346H386.871V281.62H389.507V280.346ZM393.547 280.346H390.999V281.62H393.547V280.346ZM397.675 281.62V280.346H395.038V281.62H397.675ZM391.491 283.693V282.836H393.129V283.693H399.726V284.82H393.129V285.673H398.092V292.983H400.436V294.271H384.11V292.983H386.453V285.673H391.491V284.82H384.744V283.693H391.491ZM396.454 286.8H388.091V287.581H396.454V286.8ZM396.454 288.58H388.091V289.366H396.454V288.58ZM396.454 290.365H388.091V291.217H396.454V290.365ZM396.454 292.127H388.091V292.983H396.454V292.127Z" fill="white" fill-opacity="0.86"/>
<path fill-rule="evenodd" clip-rule="evenodd" d="M19 216.651C19 184.811 44.8111 159 76.6506 159C108.49 159 134.301 184.811 134.301 216.651C134.301 248.49 108.49 274.301 76.6506 274.301C44.8111 274.301 19 248.49 19 216.651Z" fill="white" fill-opacity="0.2"/>
<mask id="mask3_922_1031" style="mask-type:luminance" maskUnits="userSpaceOnUse" x="47" y="187" width="59" height="59">
<path d="M105.477 187.825H47.8262V245.476H105.477V187.825Z" fill="white"/>
</mask>
<g mask="url(#mask3_922_1031)">
<path d="M93.489 214.873C94.6741 214.873 95.771 214.569 96.7799 213.96C97.7728 213.368 98.5655 212.567 99.158 211.558C99.7505 210.533 100.047 209.428 100.047 208.243V199.812C100.047 198.627 99.7505 197.53 99.158 196.521C98.5655 195.528 97.7728 194.735 96.7799 194.143C95.771 193.55 94.6741 193.254 93.489 193.254H85.0576C83.8726 193.254 82.7676 193.55 81.7427 194.143C80.7338 194.735 79.9331 195.528 79.3406 196.521C78.7321 197.53 78.4278 198.627 78.4278 199.812V208.243C78.4278 209.428 78.7321 210.533 79.3406 211.558C79.9331 212.567 80.7338 213.368 81.7427 213.96C82.7676 214.569 83.8726 214.873 85.0576 214.873H93.489ZM93.489 240.047C94.6741 240.047 95.771 239.751 96.7799 239.158C97.7728 238.566 98.5655 237.773 99.158 236.78C99.7505 235.771 100.047 234.674 100.047 233.489V225.058C100.047 223.873 99.7505 222.768 99.158 221.743C98.5655 220.734 97.7728 219.933 96.7799 219.341C95.771 218.732 94.6741 218.428 93.489 218.428H85.0576C83.8726 218.428 82.7676 218.732 81.7427 219.341C80.7338 219.933 79.9331 220.734 79.3406 221.743C78.7321 222.768 78.4278 223.873 78.4278 225.058V233.489C78.4278 234.674 78.7321 235.771 79.3406 236.78C79.9331 237.773 80.7338 238.566 81.7427 239.158C82.7676 239.751 83.8726 240.047 85.0576 240.047H93.489ZM68.2429 240.047C69.4279 240.047 70.5329 239.751 71.5578 239.158C72.5667 238.566 73.3674 237.773 73.9599 236.78C74.5684 235.771 74.8727 234.674 74.8727 233.489V225.058C74.8727 223.873 74.5684 222.768 73.9599 221.743C73.3674 220.734 72.5667 219.933 71.5578 219.341C70.5329 218.732 69.4279 218.428 68.2429 218.428H59.8115C58.6264 218.428 57.5295 218.732 56.5206 219.341C55.5277 219.933 54.735 220.734 54.1425 221.743C53.55 222.768 53.2537 223.873 53.2537 225.058V233.489C53.2537 234.674 53.55 235.771 54.1425 236.78C54.735 237.773 55.5277 238.566 56.5206 239.158C57.5295 239.751 58.6264 240.047 59.8115 240.047H68.2429ZM68.2429 214.873C69.4279 214.873 70.5169 214.569 71.5097 213.96C72.5186 213.368 73.3193 212.567 73.9118 211.558C74.5044 210.533 74.8006 209.428 74.8006 208.243V199.812C74.8006 198.627 74.5044 197.53 73.9118 196.521C73.3193 195.528 72.5186 194.735 71.5097 194.143C70.5169 193.55 69.4279 193.254 68.2429 193.254H59.8115C58.6264 193.254 57.5215 193.55 56.4966 194.143C55.4877 194.735 54.679 195.528 54.0704 196.521C53.4779 197.53 53.1816 198.627 53.1816 199.812V208.243C53.1816 209.428 53.4779 210.533 54.0704 211.558C54.679 212.567 55.4877 213.368 56.4966 213.96C57.5215 214.569 58.6264 214.873 59.8115 214.873H68.2429Z" fill="white" fill-opacity="0.9"/>
</g>
<path d="M51.6369 284.399L50.7092 283.036C51.9344 282.479 53.1403 281.819 54.3269 281.056C55.4663 280.305 56.5331 279.426 57.5274 278.419L59.0899 279.147C58.7525 279.523 58.3959 279.874 58.0201 280.199H65.2733V281.691C63.3705 283.159 61.3345 284.341 59.1653 285.238L60.0709 285.744C59.7454 286.119 59.3947 286.471 59.0188 286.8H65.6905V288.292C63.9831 290.049 62.0196 291.449 59.8001 292.491C58.3323 293.109 56.8409 293.655 55.3257 294.129C53.8609 294.504 52.3709 294.855 50.8557 295.181L49.999 293.765C51.4194 293.486 52.8132 293.159 54.1804 292.784C55.6009 292.393 57.0021 291.938 58.3841 291.417C59.3755 290.994 60.3446 290.496 61.2916 289.925C62.0433 289.454 62.752 288.91 63.4178 288.292H57.3099C56.9814 288.535 56.6485 288.777 56.3111 289.02L58.7259 290.365L57.5984 291.492C56.6899 290.971 55.7873 290.425 54.8906 289.854C53.7514 290.52 52.618 291.115 51.4904 291.638L50.6382 290.289C51.958 289.721 53.2601 289.055 54.5444 288.292C55.7696 287.54 56.9281 286.691 58.0201 285.744C55.703 286.593 53.3149 287.278 50.8557 287.799L50.1454 286.383C52.4596 285.957 54.7501 285.338 57.0169 284.527C58.0615 284.152 59.1047 283.703 60.1463 283.182C61.0549 282.759 61.9338 282.262 62.783 281.691H56.1824C55.9398 281.886 55.6971 282.056 55.4544 282.201C56.1706 282.577 56.8852 282.953 57.5984 283.329L56.4531 284.474C55.7015 283.989 54.8966 283.534 54.0384 283.111C53.2364 283.534 52.4359 283.964 51.6369 284.399ZM73.3654 292.42H77.8354V287.51H72.8727V285.819H77.8354V281.837C76.4653 281.982 75.0892 282.104 73.7072 282.201L73.5075 280.492C75.3038 280.395 77.1045 280.248 78.9096 280.053C80.4248 279.872 81.9163 279.612 83.3841 279.272L83.7259 280.981C82.3587 281.274 80.9649 281.487 79.5444 281.62V285.819H84.5071V287.51H79.5444V292.42H84.0188V294.129H73.3654V292.42ZM68.527 288.292L67.7458 286.671C68.6425 285.484 69.4237 284.23 70.0895 282.907C70.7583 281.576 71.328 280.201 71.7985 278.783L73.4365 279.201C73.0133 280.485 72.5162 281.72 71.945 282.907V294.91H70.236V285.966C69.7152 286.812 69.1455 287.587 68.527 288.292ZM86.6378 288.016L86.0741 286.454C88.3527 286.031 90.5766 285.412 92.7458 284.598C91.7515 284.03 90.8297 283.347 89.9803 282.548C89.134 283.311 88.2551 283.995 87.3436 284.598L86.4381 283.471C87.3821 282.758 88.2788 282 89.128 281.198C89.9774 280.387 90.7586 279.485 91.4718 278.49L93.0387 279.072C92.7458 279.448 92.4602 279.824 92.182 280.199H100.78V281.544C99.3982 282.781 97.9082 283.825 96.3102 284.674C97.2069 285.011 98.1036 285.272 99.0002 285.455C100.273 285.745 101.577 285.982 102.911 286.165L102.418 287.799C100.856 287.521 99.2916 287.17 97.7262 286.747C96.6372 286.406 95.5704 285.999 94.5258 285.526C93.2415 286.047 91.9631 286.52 90.6905 286.947C89.3707 287.322 88.0198 287.679 86.6378 288.016ZM87.3436 288.438H91.9645C92.0622 287.867 92.1584 287.303 92.253 286.747H93.962L93.7445 288.438H100.562C100.418 289.855 100.279 291.255 100.145 292.637C100.098 293.013 100.002 293.34 99.8569 293.618C99.709 293.908 99.5211 294.126 99.2932 294.271C99.0506 294.404 98.7887 294.496 98.5075 294.546C98.037 294.643 97.565 294.692 97.0915 294.692H94.0375L93.7445 293.272H96.51C96.8 293.272 97.1093 293.248 97.4377 293.201C97.6804 293.201 97.8683 293.128 98.0014 292.983C98.1465 292.886 98.2427 292.794 98.29 292.708C98.3877 292.465 98.4602 292.229 98.5075 291.998C98.5933 291.285 98.6851 290.594 98.7827 289.925H93.3805C93.1024 291.017 92.5387 291.945 91.6893 292.708C91.1211 293.181 90.5278 293.606 89.9093 293.982C89.06 294.405 88.2048 294.805 87.3436 295.181L86.3626 293.836C87.1143 293.557 87.8482 293.248 88.5643 292.908C89.1325 292.63 89.6534 292.303 90.1268 291.927C90.8312 291.406 91.352 290.739 91.6893 289.925H87.3436V288.438ZM98.29 281.544H91.1078C92.1022 282.539 93.2178 283.345 94.4547 283.964C95.8249 283.345 97.1034 282.539 98.29 281.544Z" fill="white" fill-opacity="0.86"/>
</g>
</g>
<defs>
<clipPath id="clip0_922_1031">
<rect width="460" height="460" fill="white"/>
</clipPath>
</defs>
</svg>
