<svg width="295.328125" height="282.071289" viewBox="0 0 295.328 282.071" fill="none" xmlns="http://www.w3.org/2000/svg" xmlns:xlink="http://www.w3.org/1999/xlink">
	<desc>
			Created with Pixso.
	</desc>
	<defs/>
	<path id="path" d="M61.01 152.67L231.46 152.67C233.11 152.67 234.61 152.37 235.96 151.76C268.79 151.01 295.32 123.99 295.32 90.97C295.32 57.94 268.04 30.02 234.46 30.02L114.83 30.02C109.88 12.76 94.14 0 75.4 0C52.61 0 34.18 18.46 34.18 41.28C34.18 64.1 52.61 82.56 75.4 82.56C94.14 82.56 109.88 69.8 114.83 52.54L234.46 52.54C255.6 52.54 272.84 69.8 272.84 90.97C272.84 112.13 255.6 129.4 234.46 129.4L64.01 129.4C62.36 129.4 60.86 129.7 59.51 130.3C26.68 131.05 0 158.07 0 191.1C0 224.12 27.28 252.04 60.86 252.04L180.49 252.04C185.44 269.31 201.18 282.07 219.92 282.07C242.7 282.07 261.14 263.6 261.14 240.78C261.14 217.97 242.7 199.5 219.92 199.5C201.18 199.5 185.44 212.26 180.49 229.53L60.86 229.53C39.72 229.53 22.48 212.26 22.48 191.1C22.48 169.93 39.87 152.67 61.01 152.67ZM75.4 59.89C65.06 59.89 56.66 51.49 56.66 41.13C56.66 30.77 65.06 22.36 75.4 22.36C85.75 22.36 94.14 30.77 94.14 41.13C94.14 51.49 85.75 59.89 75.4 59.89ZM220.07 222.17C230.41 222.17 238.81 230.58 238.81 240.93C238.81 251.29 230.41 259.7 220.07 259.7C209.72 259.7 201.33 251.29 201.33 240.93C201.33 230.58 209.72 222.17 220.07 222.17Z" fill="#FFFFFF" fill-opacity="0.200000" fill-rule="nonzero"/>
</svg>
