<svg viewBox="0 0 330 330" xmlns="http://www.w3.org/2000/svg" xmlns:xlink="http://www.w3.org/1999/xlink" width="330.000000" height="330.000000" fill="none">
	<defs>
		<clipPath id="clipPath_0">
			<rect width="320.000000" height="320.000000" x="5.000000" y="5.000000" fill="rgb(255,255,255)" />
		</clipPath>
	</defs>
	<rect id="svg" width="330.000000" height="330.000000" x="0.000000" y="0.000000" fill="rgb(0,0,0)" fill-opacity="0" />
	<g id="hotspot" clip-path="url(#clipPath_0)" customFrame="url(#clipPath_0)">
		<rect id="hotspot" width="320.000000" height="320.000000" x="5.000000" y="5.000000" />
		<rect id="矩形 581" width="320.000000" height="320.000000" x="5.000000" y="5.000000" opacity="0" fill="rgb(0,0,0)" />
		<g id="组合 3399">
			<path id="矢量 61" d="M165.149 203.723C172.995 203.723 179.897 200.745 185.856 194.788C191.815 188.831 194.795 181.783 194.795 173.642C194.795 165.6 191.865 158.601 186.005 152.644C180.245 146.687 173.293 143.709 165.149 143.709C157.005 143.709 149.953 146.638 143.994 152.495C138.035 158.253 135.056 165.302 135.056 173.642C135.056 181.783 138.035 188.831 143.994 194.788C149.953 200.745 157.005 203.723 165.149 203.723Z" fill="rgb(255,255,255)" fill-opacity="0.200000003" fill-rule="nonzero" />
			<path id="矢量 62" d="M216.247 232.316C213.864 234.5 212.622 237.131 212.523 240.209C212.424 243.287 213.317 246.017 215.204 248.399C217.588 250.782 220.369 251.974 223.547 251.974C226.825 251.974 229.407 251.03 231.294 249.144C242.219 239.613 250.661 228.246 256.62 215.042C262.579 201.738 265.558 187.839 265.558 173.344C265.558 155.275 261.039 138.547 252.002 123.158C242.964 107.77 230.748 95.5587 215.353 86.5243C199.959 77.4899 183.224 72.9727 165.149 72.9727C147.073 72.9727 130.288 77.4899 114.795 86.5243C99.3013 95.5587 86.986 107.77 77.8488 123.158C68.8109 138.547 64.292 155.275 64.292 173.344C64.292 188.137 67.3212 202.086 73.3795 215.19C79.5372 228.295 88.0785 239.613 99.0034 249.144C101.387 251.229 104.118 252.172 107.197 251.974C110.276 251.775 112.808 250.584 114.795 248.399C116.682 246.017 117.576 243.287 117.476 240.209C117.278 237.131 115.987 234.5 113.603 232.316C105.062 224.97 98.4571 216.134 93.7892 205.809C89.1213 195.583 86.7873 184.761 86.7873 173.344C86.7873 159.247 90.3131 146.241 97.3646 134.327C104.416 122.414 113.951 112.982 125.968 106.033C137.985 98.9839 151.046 95.4595 165.149 95.4595C179.252 95.4595 192.262 98.9839 204.18 106.033C216.098 112.982 225.533 122.414 232.486 134.327C239.537 146.241 243.063 159.247 243.063 173.344C243.063 184.761 240.729 195.583 236.061 205.809C231.492 216.134 224.888 224.97 216.247 232.316Z" fill="rgb(255,255,255)" fill-opacity="0.200000003" fill-rule="nonzero" />
			<path id="矢量 63" d="M255.279 277.289C253.094 279.275 251.903 281.806 251.704 284.884C251.406 287.962 252.349 290.692 254.534 293.074C256.422 295.457 258.855 296.748 261.834 296.946C264.814 297.244 267.495 296.301 269.879 294.117C287.259 278.927 300.816 260.809 310.549 239.761C320.183 218.813 325 196.773 325 173.641C325 144.85 317.799 118.243 303.399 93.8207C288.898 69.3979 269.432 49.9888 245 35.5933C220.568 21.1978 193.951 14 165.149 14C136.347 14 109.631 21.1978 85 35.5933C60.4687 49.9888 41.0025 69.3979 26.6015 93.8207C12.2005 118.243 5 144.85 5 173.641C5 196.773 9.76723 218.813 19.3017 239.761C28.8361 260.809 42.2936 278.927 59.6741 294.117C62.0577 296.301 64.789 297.244 67.8678 296.946C70.9466 296.748 73.5785 295.457 75.7635 293.074C77.6505 290.692 78.5444 288.011 78.4451 285.033C78.3457 282.055 77.2036 279.622 75.0186 277.736L74.7207 277.289C59.7238 264.184 48.1037 248.647 39.8603 230.677C31.617 212.708 27.4953 193.696 27.4953 173.641C27.4953 148.921 33.653 125.987 45.9683 104.841C58.1844 83.7935 74.8696 67.1145 96.0242 54.8039C117.079 42.5925 140.121 36.4868 165.149 36.4868C189.978 36.4868 212.921 42.5925 233.976 54.8039C255.031 67.1145 271.716 83.7935 284.032 104.841C296.347 125.987 302.505 148.921 302.505 173.641C302.505 193.696 298.383 212.708 290.14 230.677C281.896 248.647 270.276 264.184 255.279 277.289Z" fill="rgb(255,255,255)" fill-opacity="0.200000003" fill-rule="nonzero" />
		</g>
	</g>
</svg>
