<svg viewBox="0 0 330 330" xmlns="http://www.w3.org/2000/svg" xmlns:xlink="http://www.w3.org/1999/xlink" width="330" height="330" fill="none">
	<rect id="画板 323" width="330" height="330" x="0" y="0" fill="rgb(0,0,0)" fill-opacity="0" />
	<rect id="矩形 620" width="330" height="330" x="0" y="0" opacity="0" fill="rgb(0,0,0)" />
	<path id="合并" d="M147 0Q169.614 0 190.291 6.32898L190.296 6.33034L190.297 6.3307L190.297 6.33079Q206.062 11.1571 220.701 19.6624Q237.618 29.559 251.026 42.9659L251.027 42.9661L251.03 42.9697Q264.439 56.379 274.338 73.2994Q282.843 87.9385 287.67 103.704L287.67 103.705Q294 124.384 294 147Q294 169.616 287.67 190.293L287.67 190.295L287.669 190.299L287.665 190.31Q282.839 206.068 274.338 220.701Q264.441 237.619 251.033 251.027L251.03 251.03L251.03 251.03L251.025 251.035Q237.618 264.441 220.701 274.338Q206.063 282.843 190.298 287.669L190.295 287.67Q169.617 294 147 294Q124.385 294 103.707 287.67L103.706 287.67L103.705 287.67L103.702 287.669Q87.9376 282.843 73.2993 274.338Q56.379 264.44 42.9698 251.03L42.9693 251.03Q29.5603 237.621 19.6624 220.701Q11.1575 206.063 6.33128 190.299L6.33117 190.298L6.33099 190.298L6.3302 190.295L6.32983 190.294L6.32856 190.29Q0 169.613 0 147Q0 124.385 6.32963 103.707L6.32971 103.706L6.33026 103.705Q11.1565 87.9388 19.6624 73.2994Q29.5605 56.379 42.9698 42.9697L42.9707 42.9688Q56.3796 29.5601 73.2993 19.6624Q87.9388 11.1565 103.705 6.3302L103.707 6.32965Q124.384 0 147 0ZM145.139 40.9158L267.858 107.48Q263.757 95.0602 256.949 83.465Q248.39 68.821 236.789 57.2188L236.785 57.2149L236.785 57.2145Q225.181 45.6113 210.535 37.051Q197.701 29.5152 183.856 25.2963L183.855 25.2961L183.855 25.296L183.851 25.295L183.847 25.2937L183.845 25.293Q166.239 19.9299 147 19.9299Q146.068 19.9299 145.139 19.9425L145.139 40.9158ZM145.139 67.8479L145.139 114.589L269.275 181.922Q274.07 165.191 274.07 147Q274.07 142.252 273.743 137.605L145.139 67.8479ZM145.139 183.849L145.139 141.521L260.492 204.09Q258.823 207.343 256.949 210.535Q249.157 223.866 238.845 234.676L145.139 183.849ZM145.139 210.781L145.139 274.057Q146.068 274.07 147 274.07Q166.243 274.07 183.851 268.705L183.851 268.705L183.853 268.705Q197.699 264.486 210.535 256.949Q215.218 254.212 219.59 251.164L145.139 210.781Z" fill="rgb(255,255,255)" fill-opacity="0.200000003" fill-rule="evenodd" transform="matrix(1,0,0,-1,18,312)" />
</svg>
