<?xml version="1.0" encoding="UTF-8"?>
<svg width="300px" height="300px" viewBox="0 0 300 300" version="1.1" xmlns="http://www.w3.org/2000/svg" xmlns:xlink="http://www.w3.org/1999/xlink">
    <title>屏幕拓展</title>
    <g id="屏幕拓展" stroke="none" stroke-width="1" fill="none" fill-rule="evenodd" opacity="0.301443917">
        <path d="M283.286319,233.35684 L233.35684,233.35684 L233.35684,283.286319 C233.35684,292.51703 225.873871,300 216.64316,300 L16.7136808,300 C7.48297038,300 0,292.51703 0,283.286319 L0,83.3568404 C0,74.1261288 7.48297038,66.6431596 16.7136808,66.6431596 L66.6431596,66.6431596 L66.6431596,16.7136808 C66.6431596,7.48297038 74.1261288,0 83.3568404,0 L283.286319,0 C292.51703,0 300,7.48297038 300,16.7136808 L300,16.7136808 L300,216.64316 C300,225.873871 292.51703,233.35684 283.286319,233.35684 L283.286319,233.35684 Z M50.0352612,99.6473908 C45.6022569,99.7307619 41.3840319,101.572134 38.3089535,104.766248 C35.233875,107.960362 33.5539581,112.245447 33.6389285,116.678421 L33.6389285,249.964739 C33.6389285,259.19545 41.1218977,266.678421 50.3526092,266.678421 L183.638928,266.678421 C192.869639,266.678421 200.352609,259.19545 200.352609,249.964739 L200.352609,249.964739 L200.352609,116.678421 C200.439721,112.135365 198.673373,107.752658 195.460357,104.539643 C192.247342,101.326627 187.864635,99.5602788 183.321579,99.6473908 L50.0352612,99.6473908 Z M266.361072,50.0352612 C266.361072,40.8045496 258.878102,33.3215792 249.647391,33.3215792 L116.678421,33.3215792 C107.447709,33.3215792 99.9647388,40.8045496 99.9647388,50.0352612 L99.9647388,50.0352612 L99.9647388,66.6431596 L216.325812,66.6431596 C225.556522,66.6431596 233.039492,74.1261288 233.039492,83.3568404 L233.039492,199.717913 L249.647391,199.717913 C258.755577,199.717913 266.188132,192.428124 266.361072,183.321579 L266.361072,183.321579 L266.361072,50.0352612 Z" id="形状" fill="#FFFFFF" fill-rule="nonzero"></path>
    </g>
</svg>