<?xml version="1.0" encoding="UTF-8"?>
<svg width="500px" height="500px" viewBox="0 0 500 500" version="1.1" xmlns="http://www.w3.org/2000/svg" xmlns:xlink="http://www.w3.org/1999/xlink">
    <title>ic_Wirednetwork</title>
    <g id="ic_Wirednetwork" stroke="none" stroke-width="1" fill="none" fill-rule="evenodd" fill-opacity="0.05">
        <path d="M415,72 C432.673112,72 447,86.326888 447,104 L447,396 C447,413.673112 432.673112,428 415,428 L85,428 C67.326888,428 53,413.673112 53,396 L53,104 C53,86.326888 67.326888,72 85,72 L415,72 Z M407,104 L93,104 C88.581722,104 85,107.581722 85,112 L85,388 C85,392.418278 88.581722,396 93,396 L407,396 C411.418278,396 415,392.418278 415,388 L415,112 C415,107.581722 411.418278,104 407,104 Z M353,161 C361.836556,161 369,168.163444 369,177 L369,288 C369,296.836556 361.836556,304 353,304 L332.807633,304 C330.483461,304 328.368347,305.342263 327.378721,307.445218 L317.323411,328.812753 C314.684409,334.420631 309.044104,338 302.846311,338 L203.153689,338 C196.955896,338 191.315591,334.420631 188.676589,328.812753 L178.621279,307.445218 C177.631653,305.342263 175.516539,304 173.192367,304 L153,304 C144.163444,304 137,296.836556 137,288 L137,177 C137,168.163444 144.163444,161 153,161 L353,161 Z M177,186 L165,186 C162.790861,186 161,187.790861 161,190 L161,277.299435 C161,278.404005 161.895431,279.299435 163,279.299435 L182.26477,279.299435 C188.947393,279.299435 194.926166,283.452642 197.258577,289.715014 L204.961218,310.396105 C205.544321,311.961698 207.039014,313 208.70967,313 L297.29033,313 C298.960986,313 300.455679,311.961698 301.038782,310.396105 L308.741423,289.715014 C311.073834,283.452642 317.052607,279.299435 323.73523,279.299435 L343,279.299435 C344.104569,279.299435 345,278.404005 345,277.299435 L345,190 C345,187.790861 343.209139,186 341,186 L329,186 L329,238 C329,244.627417 323.627417,250 317,250 C310.372583,250 305,244.627417 305,238 L305,186 L286,186 L286,238 C286,244.627417 280.627417,250 274,250 C267.372583,250 262,244.627417 262,238 L262,186 L244,186 L244,238 C244,244.627417 238.627417,250 232,250 C225.372583,250 220,244.627417 220,238 L220,186 L201,186 L201,238 C201,244.627417 195.627417,250 189,250 C182.372583,250 177,244.627417 177,238 L177,186 Z" id="形状结合" fill="#FFFFFF"></path>
    </g>
</svg>