<svg viewBox="0 0 330 330" xmlns="http://www.w3.org/2000/svg" xmlns:xlink="http://www.w3.org/1999/xlink" width="330" height="330" fill="none">
	<rect id="画板 308" width="330" height="330.000031" x="0" y="0" fill="rgb(0,0,0)" fill-opacity="0" />
	<path id="差集" d="M227.5 7C238.546 7 247.5 15.9543 247.5 27L247.5 303C247.5 314.046 238.546 323 227.5 323L103.5 323C92.4543 323 83.5 314.046 83.5 303L83.5 27C83.5 15.9543 92.4543 7 103.5 7L227.5 7ZM139.652 29.1754C147.307 29.1754 153.512 35.3806 153.512 43.0351C153.512 50.6896 147.307 56.8947 139.652 56.8947L121.336 56.8947C113.682 56.8947 107.477 50.6896 107.477 43.0351C107.477 35.3806 113.682 29.1754 121.336 29.1754L139.652 29.1754ZM208.705 29.1754C216.359 29.1754 222.564 35.3806 222.564 43.0351C222.564 50.6896 216.359 56.8947 208.705 56.8947L190.389 56.8947C182.734 56.8947 176.529 50.6896 176.529 43.0351C176.529 35.3806 182.734 29.1754 190.389 29.1754L208.705 29.1754ZM139.652 202.883C147.307 202.883 153.512 209.088 153.512 216.743C153.512 224.397 147.307 230.602 139.652 230.602L121.336 230.602C113.682 230.602 107.477 224.397 107.477 216.743C107.477 209.088 113.682 202.883 121.336 202.883L139.652 202.883ZM208.705 202.883C216.359 202.883 222.564 209.088 222.564 216.743C222.564 224.397 216.359 230.602 208.705 230.602L190.389 230.602C182.734 230.602 176.529 224.397 176.529 216.743C176.529 209.088 182.734 202.883 190.389 202.883L208.705 202.883ZM139.652 248.158C147.307 248.158 153.512 254.363 153.512 262.018C153.512 269.672 147.307 275.877 139.652 275.877L121.336 275.877C113.682 275.877 107.477 269.672 107.477 262.018C107.477 254.363 113.682 248.158 121.336 248.158L139.652 248.158ZM208.705 248.158C216.359 248.158 222.564 254.363 222.564 262.018C222.564 269.672 216.359 275.877 208.705 275.877L190.389 275.877C182.734 275.877 176.529 269.672 176.529 262.018C176.529 254.363 182.734 248.158 190.389 248.158L208.705 248.158ZM165.02 74.4503C196.801 74.4503 222.564 99.271 222.564 129.889C222.564 160.507 196.801 185.327 165.02 185.327C133.24 185.327 107.477 160.507 107.477 129.889C107.477 99.271 133.24 74.4503 165.02 74.4503ZM165.02 96.6257C184.089 96.6257 199.547 111.518 199.547 129.889C199.547 148.26 184.089 163.152 165.02 163.152C145.952 163.152 130.494 148.26 130.494 129.889C130.494 111.518 145.952 96.6257 165.02 96.6257Z" fill="rgb(255,255,255)" fill-opacity="0.200000003" fill-rule="evenodd" />
</svg>
