<?xml version="1.0" encoding="UTF-8"?>
<svg width="500px" height="500px" viewBox="0 0 500 500" version="1.1" xmlns="http://www.w3.org/2000/svg" xmlns:xlink="http://www.w3.org/1999/xlink">
    <title>ic_set</title>
    <g id="ic_set" stroke="none" stroke-width="1" fill="none" fill-rule="evenodd" fill-opacity="0.1">
        <path d="M275.437855,70 C287.167748,70 297.767127,76.9965769 302.378301,87.7832015 L302.378301,87.7832015 L316.151427,120.002326 L330.390901,128.223721 L365.279875,124.018053 C376.546616,122.65903 387.547216,127.928483 393.566122,137.470979 L393.566122,137.470979 L394.151233,138.439385 L419.063449,181.518478 C424.947627,191.693608 424.182673,204.40053 417.120341,213.796124 L417.120341,213.796124 L396.054884,241.816279 L396.054884,258.179535 L417.120769,286.204112 C423.947413,295.286493 424.889654,307.462935 419.629817,317.455615 L419.629817,317.455615 L419.063558,318.481333 L394.151233,361.560616 C388.280294,371.712855 376.922174,377.386271 365.279875,375.981946 L365.279875,375.981946 L330.390901,371.772093 L316.151427,379.993488 L302.378301,412.216799 C297.915875,422.655468 287.845347,429.544664 276.569313,429.978266 L276.569313,429.978266 L275.437855,430 L225.56284,430 C213.832331,430 203.23252,423.002698 198.621728,412.215243 L198.621728,412.215243 L184.844387,379.993488 L170.604913,371.772093 L135.720124,375.981946 C124.453384,377.34097 113.452784,372.071518 107.433877,362.529021 L107.433877,362.529021 L106.848766,361.560616 L81.9364418,318.481333 C76.0523609,308.30637 76.8171854,295.59968 83.8792298,286.204112 L83.8792298,286.204112 L104.940929,258.179535 L104.940929,241.816279 L83.8796579,213.796124 C77.0527385,204.713717 76.1103676,192.537057 81.3702839,182.544214 L81.3702839,182.544214 L81.936551,181.518478 L106.848766,138.439385 C112.719706,128.287145 124.077826,122.613729 135.720124,124.018053 L135.720124,124.018053 L170.604913,128.223721 L184.844387,120.002326 L198.621728,87.7847577 C203.083784,77.3452838 213.154704,70.4553828 224.431321,70.0217361 L224.431321,70.0217361 L225.56284,70 L275.437855,70 Z M275.437855,95.1162791 L225.56284,95.1162791 C223.887052,95.1162791 222.372794,96.1158936 221.714108,97.6569588 L221.714108,97.6569588 L207.396156,131.155389 C205.617085,135.317722 202.536678,138.791046 198.616912,141.05446 L198.616912,141.05446 L181.955828,150.675166 C178.033405,152.940114 173.482128,153.871303 168.985441,153.328901 L168.985441,153.328901 L132.712947,148.95362 C131.049762,148.753003 129.427173,149.563491 128.588468,151.013811 L128.588468,151.013811 L103.676253,194.092904 C102.835656,195.546494 102.944935,197.361769 103.953839,198.703997 L103.953839,198.703997 L125.857643,227.844413 C128.583416,231.47073 130.057274,235.884603 130.057252,240.421291 L130.057252,240.421291 L130.057155,259.577616 C130.057132,264.114101 128.58336,268.527775 125.857775,272.15398 L125.857775,272.15398 L103.953685,301.295876 C102.944821,302.6381 102.835561,304.45334 103.676143,305.906907 L103.676143,305.906907 L128.588468,348.986189 C129.427173,350.436509 131.049762,351.246998 132.712947,351.046379 L132.712947,351.046379 L168.985441,346.6711 C173.482128,346.128697 178.033405,347.059886 181.955828,349.324834 L181.955828,349.324834 L198.616912,358.945539 C202.536678,361.208953 205.617085,364.682278 207.396156,368.844612 L207.396156,368.844612 L221.714108,402.343042 C222.372794,403.884106 223.887052,404.883721 225.56284,404.883721 L225.56284,404.883721 L275.437855,404.883721 C277.113554,404.883721 278.627751,403.88421 279.286489,402.343263 L279.286489,402.343263 L293.608045,368.84176 C295.387147,364.680018 298.467249,361.207183 302.386519,358.94397 L302.386519,358.94397 L319.043953,349.325011 C322.966439,347.059943 327.517832,346.128692 332.014635,346.671108 L332.014635,346.671108 L368.287052,351.046379 C369.950238,351.246998 371.572827,350.436509 372.411532,348.986189 L372.411532,348.986189 L397.323857,305.906907 C398.16444,304.45334 398.055178,302.6381 397.046315,301.295876 L397.046315,301.295876 L375.142225,272.15398 C372.416639,268.527775 370.942868,264.114101 370.942844,259.577616 L370.942844,259.577616 L370.942749,240.421291 C370.942725,235.884603 372.416584,231.47073 375.142356,227.844413 L375.142356,227.844413 L397.046159,198.703997 C398.055064,197.361769 398.164344,195.546494 397.323746,194.092904 L397.323746,194.092904 L372.411532,151.013811 C371.572827,149.563491 369.950238,148.753003 368.287052,148.95362 L368.287052,148.95362 L332.014635,153.328892 C327.517832,153.871308 322.966439,152.940057 319.043953,150.674988 L319.043953,150.674988 L302.386519,141.056029 C298.467249,138.792817 295.387147,135.319983 293.608045,131.15824 L293.608045,131.15824 L279.286489,97.6567364 C278.627751,96.1157901 277.113554,95.1162791 275.437855,95.1162791 L275.437855,95.1162791 Z M250.5,174.651163 C292.109759,174.651163 325.841133,208.385986 325.841133,250 C325.841133,291.614014 292.109759,325.348837 250.5,325.348837 C208.890241,325.348837 175.158866,291.614014 175.158866,250 C175.158866,208.385986 208.890241,174.651163 250.5,174.651163 Z M250.5,199.767442 C222.760161,199.767442 200.272577,222.257325 200.272577,250 C200.272577,277.742675 222.760161,300.232558 250.5,300.232558 C278.239838,300.232558 300.727422,277.742675 300.727422,250 C300.727422,222.257325 278.239838,199.767442 250.5,199.767442 Z" id="path-1" fill="#FFFFFF" fill-rule="nonzero"></path>
    </g>
</svg>