<svg width="330.000000" height="330.000000" viewBox="0 0 330 330" fill="none" xmlns="http://www.w3.org/2000/svg" xmlns:xlink="http://www.w3.org/1999/xlink">
	<desc>
			Created with Pixso.
	</desc>
	<defs>
		<clipPath id="clip180_24395">
			<rect id="画板 246" width="330.000000" height="330.000031" fill="white" fill-opacity="0"/>
		</clipPath>
	</defs>
	<rect id="画板 246" width="330.000000" height="330.000031" fill="#000000" fill-opacity="0"/>
	<g clip-path="url(#clip180_24395)">
		<path id="path" d="M81.38 176.33L247.26 176.33C248.87 176.33 250.33 176.04 251.64 175.45C283.59 174.73 309.41 148.48 309.41 116.4C309.41 84.33 282.86 57.21 250.18 57.21L133.75 57.21C128.94 40.44 113.62 28.05 95.38 28.05C73.21 28.05 55.26 45.98 55.26 68.14C55.26 90.3 73.21 108.24 95.38 108.24C113.62 108.24 128.94 95.84 133.75 79.08L250.18 79.08C270.75 79.08 287.53 95.84 287.53 116.4C287.53 136.96 270.75 153.73 250.18 153.73L84.29 153.73C82.69 153.73 81.23 154.02 79.92 154.6C47.96 155.33 22 181.58 22 213.66C22 245.73 48.55 272.85 81.23 272.85L197.66 272.85C202.47 289.62 217.79 302.01 236.03 302.01C258.2 302.01 276.15 284.08 276.15 261.92C276.15 239.75 258.2 221.82 236.03 221.82C217.79 221.82 202.47 234.21 197.66 250.98L81.23 250.98C60.66 250.98 43.88 234.21 43.88 213.66C43.88 193.1 60.8 176.33 81.38 176.33ZM95.38 86.22C85.31 86.22 77.14 78.06 77.14 68C77.14 57.94 85.31 49.77 95.38 49.77C105.45 49.77 113.62 57.94 113.62 68C113.62 78.06 105.45 86.22 95.38 86.22ZM236.17 243.84C246.24 243.84 254.41 252 254.41 262.06C254.41 272.12 246.24 280.29 236.17 280.29C226.11 280.29 217.94 272.12 217.94 262.06C217.94 252 226.11 243.84 236.17 243.84Z" fill="#FFFFFF" fill-opacity="0.200000" fill-rule="nonzero"/>
	</g>
</svg>
