<?xml version="1.0" encoding="UTF-8"?>
<svg width="243px" height="171px" viewBox="0 0 243 171" version="1.1" xmlns="http://www.w3.org/2000/svg" xmlns:xlink="http://www.w3.org/1999/xlink">
    <title>WiFi</title>
    <g id="页面-2" stroke="none" stroke-width="1" fill="none" fill-rule="evenodd">
        <g id="画板" transform="translate(-23.000000, 0.000000)" fill="#414141" fill-rule="nonzero">
            <g id="无线网络" transform="translate(23.000000, 0.000000)">
                <path d="M27.9713146,54.8146027 C85.5933548,8.56904932 169.565544,11.2854209 224.101409,62.9704411 C228.52406,67.162861 235.507954,66.9762223 239.700375,62.5535719 C243.892795,58.1309215 243.706156,51.147027 239.283506,46.9546068 C176.672486,-12.3819749 80.3152566,-15.4748732 14.1541276,37.6422934 C10.456097,40.5872705 6.8858166,43.691375 3.44328631,46.9546068 C0.582333001,49.6666271 -0.614451245,53.6989376 0.303750623,57.532606 C1.22195249,61.3662744 4.11564376,64.4188752 7.89479893,65.5405232 C11.6739541,66.6621713 15.7644296,65.6824615 18.6253828,62.9704411 L18.6253828,62.9704411 C21.6241494,60.1240781 24.7372188,57.4054654 27.9645909,54.8146027 L27.9713146,54.8146027 Z" id="路径"></path>
                <path d="M206.4181,84.8627821 C159.461836,37.9079342 83.3321928,37.9079342 36.3759296,84.8627821 L36.3759296,84.8627821 C33.3532185,87.5374048 32.0321164,91.6490453 32.9311932,95.5837689 C33.8302699,99.5184925 36.8060306,102.648308 40.6904055,103.744675 C44.5747804,104.841042 48.7478142,103.728977 51.5714735,100.844998 L51.9614476,100.455024 C70.3712572,82.0443547 95.3408333,71.7012762 121.376844,71.7012762 C147.412854,71.7012762 172.38243,82.0443547 190.792239,100.455024 L190.792239,100.455024 C195.129621,104.580887 201.965768,104.495474 206.198711,100.26253 C210.431655,96.0295868 210.517068,89.1934396 206.391205,84.8560584 L206.4181,84.8627821 Z" id="路径-2"></path>
                <path d="M69.4295993,120.800916 C83.2003927,107.029456 101.877997,99.2926744 121.353311,99.2926744 C140.828625,99.2926744 159.506228,107.029456 173.277022,120.800916 L173.277022,120.800916 C176.133171,123.51774 177.322953,127.551927 176.398188,131.383837 C175.473423,135.215747 172.574606,138.263222 168.793692,139.378307 C165.012779,140.493392 160.92418,139.50668 158.068031,136.789855 C157.933557,136.662105 157.805807,136.534355 157.678056,136.399881 C137.612283,116.335667 105.080891,116.335667 85.0151173,136.399881 C80.7057253,140.709273 73.7188204,140.709273 69.4094284,136.399881 C65.1000364,132.090489 65.1000363,125.103584 69.4094283,120.794192 L69.4094283,120.794192 L69.4295993,120.800916 Z M135.146965,157.209708 C135.146965,164.825876 128.972841,171 121.356672,171 C113.740504,171 107.56638,164.825876 107.56638,157.209708 C107.56638,149.59354 113.740504,143.419416 121.356672,143.419416 L121.356672,143.419416 C128.972841,143.419416 135.146965,149.59354 135.146965,157.209708 L135.146965,157.209708 Z" id="形状"></path>
            </g>
        </g>
    </g>
</svg>