<svg width="330.000000" height="330.000000" viewBox="0 0 330 330" fill="none" xmlns="http://www.w3.org/2000/svg" xmlns:xlink="http://www.w3.org/1999/xlink">
	<desc>
			Created with Pixso.
	</desc>
	<defs>
		<clipPath id="clip180_24388">
			<rect id="画板 244" width="330.000000" height="330.000031" fill="white" fill-opacity="0"/>
		</clipPath>
	</defs>
	<rect id="画板 244" width="330.000000" height="330.000031" fill="#000000" fill-opacity="0"/>
	<g clip-path="url(#clip180_24388)">
		<path id="path" d="M283.66 111.24L46.33 111.24C30.52 111.24 17.6 124.29 17.6 140.24L17.6 159.08C17.6 166.77 20.61 174.16 25.93 179.52L46.33 200.11L55.24 209.24C60.69 214.75 68.02 217.8 75.64 217.8L253.78 217.8C261.39 217.8 268.58 214.75 274.04 209.39L283.38 200.11L303.92 179.52C309.38 174.01 312.4 166.62 312.4 158.94L312.4 140.09C312.4 124.14 299.47 111.24 283.66 111.24ZM236.83 175.46L93.16 175.46C87.27 175.46 82.39 170.53 82.39 164.59C82.39 158.65 87.27 153.72 93.16 153.72L236.83 153.72C242.72 153.72 247.6 158.65 247.6 164.59C247.6 170.53 242.72 175.46 236.83 175.46Z" fill="#FFFFFF" fill-opacity="0.200000" fill-rule="nonzero"/>
	</g>
</svg>
