<svg width="330.000000" height="330.000000" viewBox="0 0 330 330" fill="none" xmlns="http://www.w3.org/2000/svg" xmlns:xlink="http://www.w3.org/1999/xlink">
	<desc>
			Created with Pixso.
	</desc>
	<defs>
		<clipPath id="clip280_33838">
			<rect id="画板 253" width="330.000000" height="330.000031" fill="white" fill-opacity="0"/>
		</clipPath>
	</defs>
	<rect id="画板 253" width="330.000000" height="330.000031" fill="#000000" fill-opacity="0"/>
	<g clip-path="url(#clip280_33838)">
		<path id="path" d="M270.3 258.56L58.56 258.56C30.71 258.56 8 235.97 8 208.28L8 83.27C8 55.58 30.71 33 58.56 33L270.3 33C298.15 33 320.87 55.58 320.87 83.27L320.87 208.28C320.87 235.97 298.15 258.56 270.3 258.56ZM58.56 56.2C43.62 56.2 31.33 68.42 31.33 83.27L31.33 208.28C31.33 223.13 43.62 235.35 58.56 235.35L270.3 235.35C285.24 235.35 297.53 223.13 297.53 208.28L297.53 83.27C297.53 68.42 285.24 56.2 270.3 56.2L58.56 56.2Z" fill="#FFFFFF" fill-opacity="0.200000" fill-rule="nonzero"/>
		<path id="path" d="M257.86 296.3L71.16 296.3C64.78 296.3 59.49 291.04 59.49 284.7C59.49 278.36 64.78 273.1 71.16 273.1L257.86 273.1C264.24 273.1 269.52 278.36 269.52 284.7C269.52 291.04 264.24 296.3 257.86 296.3Z" fill="#FFFFFF" fill-opacity="0.200000" fill-rule="nonzero"/>
		<path id="path" d="M129.97 213.67C122.5 213.67 115.19 210.89 109.59 205.32C98.39 194.18 98.39 175.93 109.59 164.79L133.39 141.12C135.57 138.95 139.31 138.95 141.48 141.12C143.66 143.28 143.66 147 141.48 149.16L117.68 172.83C110.99 179.48 110.99 190.47 117.68 197.12C124.37 203.77 135.42 203.77 142.11 197.12L174.78 164.63C181.47 157.98 181.47 147 174.78 140.34C172.6 138.18 172.6 134.46 174.78 132.3C176.96 130.13 180.69 130.13 182.87 132.3C194.07 143.44 194.07 161.69 182.87 172.83L150.2 205.32C144.6 210.89 137.28 213.67 129.97 213.67Z" fill="#FFFFFF" fill-opacity="0.200000" fill-rule="nonzero"/>
		<path id="path" d="M159.22 162.33C157.82 162.33 156.42 161.86 155.17 160.78C143.66 149.95 143.2 131.69 154.09 120.25L185.98 86.98C196.87 75.54 215.23 75.07 226.74 85.9C238.25 96.73 238.72 114.99 227.83 126.43L204.65 150.57C202.47 152.89 198.74 152.89 196.56 150.72C194.23 148.56 194.23 144.84 196.4 142.68L219.58 118.54C226.12 111.74 225.81 100.75 218.96 94.26C211.96 87.76 201.07 88.07 194.54 94.87L162.64 128.14C156.11 134.94 156.42 145.93 163.27 152.42C165.6 154.59 165.6 158.3 163.42 160.47C162.33 161.71 160.78 162.33 159.22 162.33Z" fill="#FFFFFF" fill-opacity="0.200000" fill-rule="nonzero"/>
	</g>
</svg>
