<?xml version="1.0" encoding="utf-8"?>
<!-- Generator: Adobe Illustrator 26.4.1, SVG Export Plug-In . SVG Version: 6.00 Build 0)  -->
<svg version="1.1" id="图层_1" xmlns="http://www.w3.org/2000/svg" xmlns:xlink="http://www.w3.org/1999/xlink" x="0px" y="0px"
	 viewBox="0 0 90 90" style="enable-background:new 0 0 90 90;" xml:space="preserve">
<style type="text/css">
	.st0{fill:none;}
	.st1{fill-rule:evenodd;clip-rule:evenodd;}
</style>
	<rect id="矩形" y="0" class="st0" width="90" height="90"/>
	<path id="形状结合" class="st1" fill="#FFFFFF" fill-opacity="0.200000" d="M12.9,21.3c1.1-1.4,3.2-1.7,4.6-0.6c0.7,0.5,1.2,1.3,1.3,2.2c0.1,0.9-0.1,1.7-0.6,2.4
	C13.9,31,11.6,37.8,11.6,45s2.3,14,6.6,19.8c0.5,0.7,0.7,1.5,0.6,2.4s-0.6,1.7-1.3,2.2c-0.5,0.4-1.2,0.7-2,0.7c-1.1,0-2-0.5-2.6-1.3
	C7.7,61.8,5,53.7,5,45S7.7,28.2,12.9,21.3z M72.2,20.7c0.7-0.5,1.5-0.7,2.4-0.6s1.7,0.6,2.2,1.3c5.2,6.8,7.9,15,7.9,23.7
	S82,61.8,76.8,68.7c-0.6,0.8-1.6,1.3-2.6,1.3c-0.7,0-1.4-0.2-2-0.6c-0.7-0.5-1.2-1.3-1.3-2.2c-0.1-0.9,0.1-1.7,0.6-2.4
	c4.3-5.7,6.6-12.6,6.6-19.8s-2.3-14-6.6-19.8c-0.5-0.7-0.7-1.5-0.6-2.4C71,22,71.5,21.2,72.2,20.7z M26.9,28.5
	c0.8-0.1,1.7,0.1,2.3,0.6c1.4,1.1,1.7,3.2,0.6,4.6c-2.4,3.2-3.6,7.1-3.6,11.2s1.2,8,3.6,11.2c1.1,1.4,0.8,3.5-0.6,4.6
	c-0.5,0.4-1.2,0.7-1.9,0.7c-1,0-2-0.5-2.6-1.3c-3.2-4.4-4.9-9.7-4.9-15.2s1.7-10.8,4.9-15.2C25.3,29.1,26.1,28.6,26.9,28.5z
	 M60.5,29.2c0.7-0.5,1.5-0.8,2.4-0.6c0.9,0.1,1.6,0.6,2.2,1.3c3.2,4.4,4.9,9.7,4.9,15.2s-1.7,10.8-4.9,15.2
	c-0.6,0.8-1.5,1.3-2.6,1.3c-0.7,0-1.3-0.2-1.9-0.7c-1.4-1.1-1.7-3.2-0.6-4.6c2.4-3.2,3.6-7.1,3.6-11.2s-1.2-8-3.6-11.2
	C58.8,32.3,59.1,30.3,60.5,29.2z M44.3,34.9c5.9,0,10.7,4.8,10.7,10.7s-4.8,10.7-10.7,10.7s-10.7-4.8-10.7-10.7S38.5,34.9,44.3,34.9
	z"/>
</svg>


