<svg viewBox="0 0 330 330" xmlns="http://www.w3.org/2000/svg" xmlns:xlink="http://www.w3.org/1999/xlink" width="330.000000" height="330.000031" fill="none">
	<rect id="画板 327" width="330.000000" height="330.000031" x="0.000000" y="0.000000" />
	<path id="合并" d="M212.847 25C236.223 25 255.174 43.969 255.174 67.3684L255.174 131.842L260.694 131.842C281.022 131.842 297.5 148.337 297.5 168.684L297.5 305L32.5 305L32.5 168.684C32.5 148.337 48.9784 131.842 69.3056 131.842L74.8264 131.842L74.8264 67.3684C74.8264 43.969 93.7766 25 117.153 25L212.847 25ZM231.25 131.842L98.75 131.842L98.75 67.3684C98.75 64.825 99.1992 62.4678 100.098 60.2969C100.996 58.1259 102.343 56.1412 104.14 54.3428C105.937 52.5443 107.919 51.1954 110.088 50.2962C112.257 49.397 114.612 48.9474 117.153 48.9474L212.847 48.9474C215.388 48.9474 217.743 49.397 219.912 50.2962C222.081 51.1955 224.063 52.5444 225.86 54.3428C227.657 56.1412 229.004 58.1259 229.902 60.2968C230.801 62.4678 231.25 64.825 231.25 67.3684L231.25 131.842ZM145.677 98.6842L129.115 98.6842C127.596 98.6842 126.354 97.4408 126.354 95.9211L126.354 79.3421C126.354 77.8224 127.596 76.5789 129.115 76.5789L145.677 76.5789C147.195 76.5789 148.438 77.8224 148.438 79.3421L148.438 95.9211C148.438 97.4408 147.195 98.6842 145.677 98.6842ZM184.323 98.6842L200.885 98.6842C202.404 98.6842 203.646 97.4408 203.646 95.9211L203.646 79.3421C203.646 77.8224 202.404 76.5789 200.885 76.5789L184.323 76.5789C182.805 76.5789 181.562 77.8224 181.562 79.3421L181.562 95.9211C181.562 97.4408 182.805 98.6842 184.323 98.6842Z" fill="rgb(255,255,255)" fill-opacity="0.200000003" fill-rule="evenodd" />
</svg>
