<svg width="330.000000" height="330.000000" viewBox="0 0 330 330" fill="none" xmlns="http://www.w3.org/2000/svg" xmlns:xlink="http://www.w3.org/1999/xlink">
	<desc>
			Created with Pixso.
	</desc>
	<defs>
		<clipPath id="clip486_52912">
			<rect id="画板 321" width="330.000000" height="330.000031" fill="white" fill-opacity="0"/>
		</clipPath>
	</defs>
	<rect id="画板 321" width="330.000000" height="330.000031" fill="#000000" fill-opacity="0"/>
	<g clip-path="url(#clip486_52912)">
		<path id="椭圆 144" d="M86.05 165.05C86.05 121.42 121.42 86.05 165.05 86.05C208.68 86.05 244.05 121.42 244.05 165.05C244.05 208.68 208.68 244.05 165.05 244.05C121.42 244.05 86.05 208.68 86.05 165.05Z" fill="#FFFFFF" fill-opacity="0.200000" fill-rule="evenodd"/>
		<path id="矩形 174" d="M70.26 162.84L70.26 167.15C70.26 174.68 64.15 180.78 56.62 180.77L28.63 180.74C21.1 180.73 15 174.62 15 167.09L15 162.78C15 155.25 21.1 149.15 28.63 149.16L56.62 149.19C64.15 149.2 70.26 155.31 70.26 162.84Z" fill="#FFFFFF" fill-opacity="0.200000" fill-rule="evenodd"/>
		<path id="矩形 175" d="M315 162.84L315 167.15C315 174.68 308.89 180.78 301.36 180.77L273.37 180.74C265.84 180.73 259.73 174.62 259.73 167.09L259.73 162.78C259.73 155.25 265.84 149.15 273.37 149.16L301.36 149.19C308.89 149.2 315 155.31 315 162.84Z" fill="#FFFFFF" fill-opacity="0.200000" fill-rule="evenodd"/>
		<path id="矩形 172" d="M162.84 15L167.15 15C174.68 15 180.78 21.1 180.78 28.63L180.78 56.62C180.78 64.15 174.68 70.26 167.15 70.26L162.84 70.26C155.31 70.26 149.21 64.15 149.21 56.62L149.21 28.63C149.21 21.1 155.31 15 162.84 15Z" fill="#FFFFFF" fill-opacity="0.200000" fill-rule="evenodd"/>
		<path id="矩形 173" d="M162.84 259.73L167.15 259.73C174.68 259.73 180.78 265.84 180.78 273.37L180.78 301.36C180.78 308.89 174.68 315 167.15 315L162.84 315C155.31 315 149.21 308.89 149.21 301.36L149.21 273.37C149.21 265.84 155.31 259.73 162.84 259.73Z" fill="#FFFFFF" fill-opacity="0.200000" fill-rule="evenodd"/>
		<path id="矩形 172" d="M269.54 272.58L272.59 269.54C277.91 264.21 277.91 255.58 272.59 250.25L252.79 230.46C247.47 225.13 238.83 225.13 233.51 230.46L230.46 233.5C225.14 238.83 225.14 247.46 230.46 252.79L250.26 272.58C255.58 277.91 264.21 277.91 269.54 272.58Z" fill="#FFFFFF" fill-opacity="0.200000" fill-rule="evenodd"/>
		<path id="矩形 173" d="M96.48 99.53L99.53 96.48C104.85 91.16 104.85 82.52 99.53 77.2L79.74 57.41C74.41 52.08 65.78 52.08 60.45 57.41L57.41 60.45C52.08 65.78 52.08 74.41 57.41 79.73L77.2 99.53C82.52 104.85 91.16 104.85 96.48 99.53Z" fill="#FFFFFF" fill-opacity="0.200000" fill-rule="evenodd"/>
		<path id="矩形 172" d="M60.45 272.58L57.41 269.54C52.08 264.21 52.08 255.58 57.41 250.25L77.2 230.46C82.52 225.14 91.16 225.14 96.48 230.46L99.53 233.51C104.85 238.83 104.85 247.47 99.53 252.79L79.74 272.58C74.41 277.91 65.78 277.91 60.45 272.58Z" fill="#FFFFFF" fill-opacity="0.200000" fill-rule="evenodd"/>
		<path id="矩形 173" d="M233.51 99.53L230.46 96.48C225.14 91.16 225.14 82.52 230.46 77.2L250.26 57.41C255.58 52.08 264.21 52.08 269.54 57.41L272.59 60.45C277.91 65.78 277.91 74.41 272.59 79.74L252.79 99.53C247.47 104.85 238.83 104.85 233.51 99.53Z" fill="#FFFFFF" fill-opacity="0.200000" fill-rule="evenodd"/>
	</g>
</svg>
