<svg width="330.000000" height="330.000000" viewBox="0 0 330 330" fill="none" xmlns="http://www.w3.org/2000/svg" xmlns:xlink="http://www.w3.org/1999/xlink">
	<desc>
			Created with Pixso.
	</desc>
	<defs>
		<clipPath id="clip180_24384">
			<rect id="画板 242" width="330.000000" height="330.000031" fill="white" fill-opacity="0"/>
		</clipPath>
	</defs>
	<rect id="画板 242" width="330.000000" height="330.000031" fill="#000000" fill-opacity="0"/>
	<g clip-path="url(#clip180_24384)">
		<path id="减去顶层" d="M259.412 299.452L71.8657 299.452C43.1489 299.452 19.7998 276.904 19.7998 249.19L19.7998 81.061C19.7998 53.3472 43.1489 30.7998 71.8657 30.7998L259.412 30.7998C288.129 30.7998 311.479 53.3472 311.479 81.061L311.479 249.19C311.479 276.904 288.129 299.452 259.412 299.452ZM119.56 157.048C118.216 157.16 116.869 157.207 115.521 157.188C114.169 157.21 112.82 157.167 111.473 157.057C110.126 156.947 108.787 156.772 107.458 156.531C106.127 156.29 104.812 155.984 103.513 155.615C102.213 155.245 100.934 154.812 99.6763 154.316C98.4189 153.821 97.1885 153.265 95.9854 152.649C94.7822 152.033 93.6118 151.359 92.4746 150.628C91.3374 149.897 90.2388 149.113 89.1787 148.274C88.1182 147.435 87.1016 146.547 86.1279 145.608C85.1548 144.67 84.2295 143.686 83.3525 142.657C82.4756 141.627 81.6514 140.558 80.8789 139.448C80.1069 138.338 79.3906 137.192 78.7305 136.012C78.0708 134.832 77.4697 133.622 76.9282 132.383C76.3867 131.144 75.9072 129.88 75.4893 128.594C75.0713 127.308 74.7173 126.004 74.4272 124.683C74.2827 124.026 74.1548 123.367 74.0425 122.705C73.9292 122.035 73.8325 121.362 73.7524 120.687C73.5928 119.344 73.499 117.996 73.4712 116.644C73.4976 115.291 73.5903 113.942 73.749 112.598C73.9077 111.254 74.1318 109.921 74.4214 108.599C74.7109 107.277 75.064 105.973 75.4814 104.686C75.8984 103.398 76.3774 102.134 76.9185 100.894C77.46 99.6538 78.0601 98.4429 78.7197 97.2617C79.3794 96.0806 80.0952 94.9341 80.8672 93.8232C81.6392 92.7119 82.4639 91.6416 83.3408 90.6113C84.2178 89.5811 85.1426 88.5962 86.1162 87.6567C86.6113 87.1792 87.1177 86.7144 87.6353 86.2622C88.1357 85.8257 88.646 85.4009 89.167 84.9888C90.2275 84.1489 91.3267 83.3633 92.4644 82.6318C93.6021 81.8999 94.7725 81.2261 95.9761 80.6089C97.1797 79.9922 98.4106 79.436 99.6685 78.9399C100.927 78.4438 102.206 78.0107 103.507 77.6406C104.162 77.4536 104.821 77.2837 105.483 77.1299C106.136 76.978 106.793 76.8428 107.453 76.7227C108.784 76.4814 110.123 76.3062 111.471 76.1963C112.818 76.0864 114.168 76.0425 115.521 76.0654C116.87 76.0459 118.217 76.0928 119.562 76.2056C120.907 76.3184 122.243 76.4971 123.57 76.7407C124.898 76.9844 126.21 77.293 127.507 77.665C128.805 78.0376 130.081 78.4727 131.335 78.9702C132.59 79.4683 133.817 80.0259 135.018 80.6436C136.218 81.2617 137.385 81.937 138.519 82.6694C139.653 83.4014 140.749 84.1875 141.805 85.0273C142.862 85.8672 143.876 86.7568 144.846 87.6958C145.816 88.6348 146.738 89.6191 147.611 90.6489C148.485 91.6782 149.307 92.748 150.075 93.8579C150.844 94.9683 151.557 96.1133 152.214 97.293C152.538 97.8735 152.846 98.4609 153.141 99.0557C153.445 99.6699 153.734 100.292 154.007 100.921C154.546 102.159 155.022 103.421 155.438 104.707C155.853 105.992 156.204 107.294 156.491 108.614C156.779 109.934 157.001 111.264 157.159 112.605C157.316 113.947 157.407 115.293 157.433 116.644C157.406 117.993 157.314 119.339 157.156 120.679C156.998 122.02 156.774 123.35 156.486 124.668C156.197 125.987 155.845 127.289 155.43 128.573C155.014 129.857 154.537 131.119 153.998 132.356C153.458 133.594 152.86 134.802 152.203 135.981C151.546 137.16 150.833 138.304 150.064 139.413C149.294 140.522 148.473 141.591 147.6 142.619C146.726 143.648 145.804 144.631 144.834 145.569C143.864 146.508 142.851 147.396 141.794 148.235C140.737 149.074 139.642 149.859 138.508 150.591C137.375 151.323 136.208 151.997 135.008 152.614C133.809 153.232 132.582 153.789 131.328 154.286C130.074 154.783 128.798 155.218 127.501 155.59C126.205 155.962 124.893 156.27 123.566 156.513C122.24 156.757 120.904 156.935 119.56 157.048ZM97.187 114.84C97.1494 115.44 97.1406 116.042 97.1621 116.644C97.1733 117.233 97.2134 117.821 97.2822 118.407C97.3511 118.993 97.4487 119.574 97.5747 120.15C97.7012 120.727 97.855 121.295 98.0371 121.856C98.2192 122.417 98.4287 122.968 98.665 123.508C98.9014 124.049 99.1636 124.576 99.4517 125.091C99.7397 125.605 100.053 126.104 100.39 126.588C100.728 127.072 101.088 127.538 101.471 127.986C101.854 128.434 102.259 128.862 102.684 129.271C103.109 129.679 103.554 130.065 104.017 130.43C104.48 130.794 104.961 131.135 105.458 131.452C105.955 131.769 106.466 132.061 106.992 132.328C107.518 132.595 108.055 132.835 108.604 133.048C109.154 133.262 109.712 133.448 110.28 133.607C110.848 133.766 111.422 133.896 112.002 133.998C112.583 134.1 113.167 134.173 113.755 134.218C114.343 134.262 114.931 134.278 115.521 134.264C116.122 134.26 116.722 134.227 117.32 134.164C117.918 134.101 118.512 134.008 119.102 133.886C119.69 133.764 120.272 133.614 120.847 133.434C121.421 133.255 121.985 133.047 122.539 132.812C123.092 132.577 123.633 132.315 124.161 132.026C124.689 131.737 125.202 131.423 125.698 131.084C126.195 130.745 126.674 130.381 127.135 129.995C127.596 129.607 128.037 129.199 128.458 128.769C128.878 128.338 129.277 127.888 129.653 127.418C130.029 126.948 130.381 126.461 130.709 125.956C131.038 125.451 131.34 124.932 131.616 124.397C131.893 123.862 132.143 123.315 132.366 122.756C132.588 122.196 132.783 121.627 132.949 121.049C133.116 120.47 133.253 119.885 133.362 119.292C133.47 118.701 133.55 118.104 133.599 117.504C133.649 116.904 133.669 116.303 133.66 115.701C133.65 115.099 133.61 114.499 133.542 113.901C133.473 113.303 133.375 112.709 133.247 112.121C133.12 111.533 132.963 110.952 132.778 110.379C132.593 109.806 132.381 109.244 132.14 108.691C131.9 108.14 131.633 107.601 131.339 107.076C131.045 106.55 130.727 106.04 130.382 105.546C130.039 105.052 129.671 104.577 129.28 104.119C128.889 103.661 128.477 103.224 128.042 102.808C127.608 102.391 127.154 101.997 126.681 101.625C126.44 101.436 126.195 101.252 125.946 101.076C125.705 100.905 125.459 100.741 125.21 100.582C124.703 100.258 124.18 99.9609 123.644 99.689C123.106 99.4175 122.558 99.1729 121.997 98.9556C121.436 98.7383 120.865 98.5488 120.286 98.3882C119.706 98.2271 119.12 98.0952 118.527 97.9922C117.934 97.8892 117.337 97.8159 116.737 97.772C116.138 97.728 115.537 97.7139 114.936 97.7295C114.334 97.7451 113.735 97.79 113.138 97.8652C112.541 97.9399 111.949 98.0439 111.362 98.1772C110.776 98.3105 110.197 98.4727 109.626 98.6631C109.056 98.854 108.496 99.0723 107.947 99.3184C107.397 99.5645 106.862 99.8369 106.34 100.136C105.817 100.435 105.312 100.759 104.821 101.108C104.331 101.457 103.859 101.83 103.406 102.226C102.953 102.621 102.52 103.039 102.108 103.477C101.695 103.916 101.306 104.374 100.939 104.851C100.572 105.328 100.229 105.822 99.9116 106.333C99.5933 106.844 99.3013 107.37 99.0352 107.91C98.769 108.45 98.5298 109.001 98.3184 109.565C98.1064 110.128 97.9229 110.701 97.7681 111.283C97.6128 111.865 97.4868 112.453 97.3896 113.047C97.2925 113.641 97.2251 114.239 97.187 114.84ZM76.4019 246.828C74.9473 247.419 73.4346 247.717 71.8643 247.719C70.2988 247.726 68.7886 247.439 67.3345 246.859C65.8799 246.279 64.5864 245.448 63.4546 244.366C62.9097 243.841 62.4224 243.267 61.9932 242.644C61.5645 242.02 61.2017 241.36 60.9058 240.663C60.6094 239.967 60.3857 239.248 60.2349 238.506C60.084 237.764 60.0083 237.015 60.0083 236.257C60.0083 235.5 60.084 234.751 60.2349 234.009C60.3857 233.268 60.6094 232.548 60.9058 231.852C61.2017 231.155 61.5645 230.495 61.9932 229.871C62.4224 229.248 62.9097 228.674 63.4546 228.148L125.469 168.308L165.638 207.175L257.702 118.218C258.28 117.714 258.899 117.267 259.558 116.875C260.216 116.482 260.904 116.152 261.623 115.883C262.34 115.615 263.076 115.412 263.831 115.276C264.585 115.139 265.345 115.071 266.111 115.071C266.878 115.071 267.638 115.139 268.393 115.276C269.146 115.412 269.883 115.615 270.601 115.883C271.318 116.152 272.007 116.482 272.666 116.875C273.324 117.267 273.943 117.714 274.521 118.218C275.068 118.741 275.558 119.315 275.988 119.938C276.419 120.561 276.784 121.221 277.081 121.917C277.378 122.614 277.603 123.334 277.755 124.076C277.907 124.818 277.983 125.568 277.983 126.326C277.983 127.084 277.907 127.834 277.755 128.577C277.603 129.319 277.378 130.039 277.081 130.735C276.784 131.432 276.419 132.092 275.988 132.715C275.558 133.338 275.068 133.911 274.521 134.435L165.638 239.508L125.469 200.743L80.2744 244.298C79.1475 245.393 77.8569 246.236 76.4019 246.828Z" clip-rule="evenodd" fill="#FFFFFF" fill-opacity="0.200000" fill-rule="evenodd"/>
	</g>
</svg>
