<svg viewBox="0 0 330 330" xmlns="http://www.w3.org/2000/svg" xmlns:xlink="http://www.w3.org/1999/xlink" width="330" height="330" fill="none" customFrame="#000000">
	<mask id="mask_0" width="330" height="330" x="0" y="0" maskUnits="userSpaceOnUse" mask-type="luminance">
		<g id="hms_mask_0">
			<rect id="矩形 616" width="330" height="330" x="0" y="0" fill="rgb(255,255,255)" />
			<g id="组合 3344">
				<path id="矢量 57" d="M151.525 170.913C148.592 169.355 145.704 169.355 142.862 170.913C140.021 172.471 138.6 174.9 138.6 178.2L138.6 229.625C138.6 233.2 139.975 235.813 142.725 237.463C145.475 239.113 148.408 239.067 151.525 237.325L196.075 211.475C198.917 209.734 200.337 207.213 200.337 203.913C200.337 200.613 198.917 198.184 196.075 196.625L151.525 170.913Z" fill="rgb(0,0,0)" fill-rule="nonzero" />
			</g>
		</g>
	</mask>
	<defs>
		<clipPath id="clipPath_0">
			<rect width="330" height="330" x="0" y="0" fill="rgb(255,255,255)" />
		</clipPath>
		<clipPath id="clipPath_1">
			<rect width="330" height="330" x="0" y="0" fill="rgb(255,255,255)" />
		</clipPath>
		<clipPath id="clipPath_2">
			<rect width="330" height="330" x="0" y="0" fill="rgb(255,255,255)" />
		</clipPath>
	</defs>
	<rect id="画板 73" width="330" height="330" x="0" y="0" fill="rgb(255,255,255)" fill-opacity="0" />
	<path id="" d="M61.377 347.077L63.1436 345.425C63.7881 345.952 64.4648 346.538 65.1738 347.183C65.8887 347.827 66.5566 348.466 67.1777 349.099C67.7988 349.726 68.2998 350.291 68.6807 350.795L66.8262 352.72C66.457 352.198 65.9707 351.609 65.3672 350.953C64.7637 350.297 64.1104 349.629 63.4072 348.949C62.71 348.264 62.0332 347.64 61.377 347.077ZM63.293 377.162L62.7832 374.719L63.4863 373.611L70.2363 368.707C70.3477 369.064 70.5029 369.463 70.7021 369.902C70.9014 370.342 71.0771 370.69 71.2295 370.948C69.6299 372.138 68.335 373.102 67.3447 373.84C66.3604 374.572 65.5986 375.149 65.0596 375.571C64.5264 375.993 64.1338 376.318 63.8818 376.547C63.6299 376.775 63.4336 376.98 63.293 377.162ZM58.5645 356.06L64.9541 356.06L64.9541 358.67L58.5645 358.67L58.5645 356.06ZM75.4219 346.066L84.835 346.066L84.835 348.589L75.4219 348.589L75.4219 346.066ZM70.8164 360.665L87.6387 360.665L87.6387 363.196L70.8164 363.196L70.8164 360.665ZM86.7861 360.665L87.2959 360.665L87.7617 360.551L89.4316 361.289C88.6875 363.645 87.6826 365.733 86.417 367.556C85.1572 369.372 83.6982 370.951 82.04 372.293C80.3818 373.629 78.5801 374.757 76.6348 375.677C74.6953 376.603 72.6797 377.341 70.5879 377.892C70.4766 377.546 70.292 377.139 70.0342 376.67C69.7764 376.201 69.5244 375.823 69.2783 375.536C71.2295 375.085 73.1162 374.455 74.9385 373.646C76.7666 372.832 78.457 371.83 80.0098 370.641C81.5684 369.451 82.9307 368.06 84.0967 366.466C85.2627 364.872 86.1592 363.085 86.7861 361.104L86.7861 360.665ZM74.4551 362.572C75.4043 364.758 76.6992 366.727 78.3398 368.479C79.9805 370.23 81.9258 371.71 84.1758 372.917C86.4258 374.118 88.9277 375.006 91.6816 375.58C91.4824 375.762 91.2744 375.996 91.0576 376.283C90.8467 376.576 90.6445 376.866 90.4512 377.153C90.2637 377.446 90.1113 377.722 89.9941 377.979C85.7637 376.954 82.1455 375.193 79.1396 372.697C76.1338 370.195 73.8164 367.087 72.1875 363.372L74.4551 362.572ZM74.6836 346.066L77.2148 346.066L77.2148 350.118C77.2148 351.237 77.0479 352.395 76.7139 353.59C76.3857 354.779 75.7676 355.919 74.8594 357.009C73.9512 358.093 72.627 359.048 70.8867 359.874C70.7812 359.681 70.6172 359.458 70.3945 359.206C70.1777 358.948 69.9551 358.693 69.7266 358.441C69.498 358.189 69.2959 358.002 69.1201 357.879C70.708 357.146 71.8975 356.347 72.6885 355.479C73.4854 354.606 74.0156 353.704 74.2793 352.772C74.5488 351.841 74.6836 350.936 74.6836 350.057L74.6836 346.066ZM83.5869 346.066L86.1533 346.066L86.1533 354.425C86.1533 354.94 86.1914 355.298 86.2676 355.497C86.3496 355.69 86.5283 355.787 86.8037 355.787C86.9561 355.787 87.1992 355.787 87.5332 355.787C87.8672 355.787 88.207 355.787 88.5527 355.787C88.8984 355.787 89.1445 355.787 89.291 355.787C89.543 355.787 89.8359 355.77 90.1699 355.734C90.5039 355.699 90.7764 355.655 90.9873 355.603C91.0166 355.942 91.0547 356.341 91.1016 356.798C91.1484 357.249 91.1982 357.627 91.251 357.932C91.0225 358.002 90.7354 358.052 90.3896 358.081C90.0498 358.11 89.7012 358.125 89.3438 358.125C89.168 358.125 88.8867 358.125 88.5 358.125C88.1191 358.125 87.7471 358.125 87.3838 358.125C87.0205 358.125 86.7656 358.125 86.6191 358.125C85.7812 358.125 85.1455 358.002 84.7119 357.756C84.2783 357.51 83.9824 357.111 83.8242 356.561C83.666 356.004 83.5869 355.274 83.5869 354.372L83.5869 346.066ZM63.293 377.162C63.2168 376.934 63.0938 376.676 62.9238 376.389C62.7598 376.102 62.5811 375.817 62.3877 375.536C62.1943 375.255 62.0098 375.029 61.834 374.859C62.0684 374.701 62.3232 374.473 62.5986 374.174C62.874 373.875 63.1143 373.509 63.3193 373.075C63.5303 372.636 63.6357 372.141 63.6357 371.59L63.6357 356.06L66.2373 356.06L66.2373 373.91C66.2373 373.91 66.0879 374.027 65.7891 374.262C65.4902 374.496 65.1504 374.786 64.7695 375.132C64.3887 375.478 64.0459 375.835 63.7412 376.204C63.4424 376.573 63.293 376.893 63.293 377.162ZM116.449 348.07L116.449 351.313L122.505 351.313L122.505 348.07L116.449 348.07ZM108.029 348.07L108.029 351.313L113.962 351.313L113.962 348.07L108.029 348.07ZM99.7852 348.07L99.7852 351.313L105.533 351.313L105.533 348.07L99.7852 348.07ZM97.2012 346.119L125.203 346.119L125.203 353.282L97.2012 353.282L97.2012 346.119ZM95.4434 355.392L126.205 355.392L126.205 357.483L95.4434 357.483L95.4434 355.392ZM109.418 352.623L112.195 352.781C112.002 354.047 111.756 355.383 111.457 356.789C111.164 358.189 110.886 359.399 110.622 360.419L108.073 360.419C108.249 359.716 108.419 358.916 108.583 358.02C108.747 357.123 108.902 356.203 109.049 355.26C109.201 354.316 109.324 353.438 109.418 352.623ZM95.0654 374.78L127.031 374.78L127.031 376.819L95.0654 376.819L95.0654 374.78ZM101.147 363.486L120.773 363.486L120.773 365.112L101.147 365.112L101.147 363.486ZM101.288 367.187L120.686 367.187L120.686 368.795L101.288 368.795L101.288 367.187ZM101.411 370.939L120.844 370.939L120.844 372.557L101.411 372.557L101.411 370.939ZM99.8555 359.637L122.074 359.637L122.074 375.896L119.42 375.896L119.42 361.465L102.413 361.465L102.413 375.896L99.8555 375.896L99.8555 359.637ZM136.884 354.082L161.528 354.082L161.528 356.859L136.884 356.859L136.884 354.082ZM148.512 344.801L151.368 344.801L151.368 355.348L148.512 355.348L148.512 344.801ZM135.469 345.697L138.272 345.697L138.272 357.686C138.272 359.473 138.211 361.269 138.088 363.073C137.965 364.878 137.71 366.647 137.323 368.382C136.942 370.11 136.365 371.78 135.592 373.392C134.818 375.003 133.781 376.518 132.48 377.936C132.34 377.719 132.146 377.479 131.9 377.215C131.654 376.957 131.394 376.702 131.118 376.45C130.849 376.198 130.6 375.996 130.371 375.844C131.912 374.139 133.04 372.29 133.755 370.298C134.476 368.306 134.941 366.237 135.152 364.093C135.363 361.948 135.469 359.815 135.469 357.694L135.469 345.697ZM136.778 362.607L155.956 362.607L155.956 377.892L153.038 377.892L153.038 365.394L136.778 365.394L136.778 362.607ZM178.069 346.515L199.225 346.515L199.225 348.976L178.069 348.976L178.069 346.515ZM177.173 346.515L179.81 346.515L179.81 356.402C179.81 357.967 179.754 359.672 179.643 361.518C179.531 363.363 179.309 365.244 178.975 367.16C178.641 369.076 178.151 370.942 177.507 372.759C176.862 374.575 176.007 376.233 174.94 377.733C174.788 377.581 174.574 377.411 174.299 377.224C174.023 377.042 173.742 376.863 173.455 376.688C173.168 376.512 172.913 376.383 172.69 376.301C173.71 374.865 174.521 373.301 175.125 371.607C175.729 369.914 176.174 368.183 176.461 366.413C176.754 364.638 176.944 362.897 177.032 361.192C177.126 359.487 177.173 357.891 177.173 356.402L177.173 346.515ZM184.336 360.331L184.336 363.513L195.331 363.513L195.331 360.331L184.336 360.331ZM184.336 355.225L184.336 358.336L195.331 358.336L195.331 355.225L184.336 355.225ZM181.901 353.133L197.854 353.133L197.854 365.596L181.901 365.596L181.901 353.133ZM183.176 367.6L185.602 368.294C185.209 369.167 184.755 370.058 184.239 370.966C183.724 371.874 183.19 372.738 182.64 373.559C182.089 374.373 181.55 375.094 181.022 375.721C180.87 375.574 180.662 375.416 180.398 375.246C180.135 375.082 179.865 374.915 179.59 374.745C179.314 374.575 179.074 374.438 178.869 374.332C179.678 373.447 180.466 372.407 181.233 371.212C182.007 370.017 182.654 368.812 183.176 367.6ZM193.362 368.25L195.709 367.336C196.201 368.068 196.705 368.859 197.221 369.709C197.742 370.553 198.234 371.373 198.697 372.17C199.16 372.967 199.535 373.658 199.822 374.244L197.326 375.369C197.074 374.76 196.723 374.048 196.271 373.233C195.826 372.413 195.352 371.566 194.848 370.693C194.344 369.814 193.849 369 193.362 368.25ZM188.414 349.485L191.394 350.101C191.042 350.892 190.676 351.686 190.295 352.482C189.914 353.279 189.565 353.956 189.249 354.513L187.096 353.88C187.33 353.247 187.573 352.515 187.825 351.683C188.083 350.845 188.279 350.112 188.414 349.485ZM188.379 364.559L190.954 364.559L190.954 375.062C190.954 375.718 190.872 376.233 190.708 376.608C190.544 376.989 190.219 377.276 189.732 377.47C189.24 377.657 188.593 377.774 187.79 377.821C186.987 377.868 185.988 377.88 184.793 377.856C184.74 377.522 184.641 377.136 184.494 376.696C184.354 376.263 184.204 375.873 184.046 375.527C184.901 375.551 185.681 375.562 186.384 375.562C187.087 375.562 187.55 375.562 187.772 375.562C188.177 375.545 188.379 375.357 188.379 375L188.379 364.559ZM168.12 347.042L169.72 345.161C170.37 345.536 171.076 345.958 171.838 346.427C172.6 346.89 173.329 347.35 174.026 347.807C174.724 348.258 175.301 348.656 175.758 349.002L174.132 351.155C173.692 350.792 173.124 350.37 172.427 349.89C171.729 349.409 171 348.914 170.238 348.404C169.482 347.895 168.776 347.44 168.12 347.042ZM166.362 356.754L167.927 354.838C168.589 355.184 169.301 355.576 170.062 356.016C170.83 356.449 171.568 356.874 172.277 357.29C172.986 357.706 173.575 358.084 174.044 358.424L172.453 360.595C172.002 360.243 171.425 359.842 170.722 359.391C170.024 358.939 169.292 358.479 168.524 358.011C167.757 357.536 167.036 357.117 166.362 356.754ZM167.109 375.853C167.648 374.909 168.237 373.793 168.876 372.504C169.521 371.215 170.165 369.85 170.81 368.408C171.46 366.961 172.055 365.561 172.594 364.207L174.773 365.719C174.281 366.984 173.739 368.303 173.147 369.674C172.556 371.045 171.949 372.393 171.328 373.717C170.713 375.035 170.112 376.254 169.526 377.373L167.109 375.853ZM203.584 351.779L234.583 351.779L234.583 354.284L203.584 354.284L203.584 351.779ZM203.399 366.026L234.706 366.026L234.706 368.566L203.399 368.566L203.399 366.026ZM227.851 345.416L230.681 346.312C230.007 347.215 229.289 348.12 228.527 349.028C227.771 349.931 227.068 350.698 226.418 351.331L224.212 350.505C224.622 350.036 225.047 349.503 225.486 348.905C225.932 348.302 226.365 347.692 226.787 347.077C227.209 346.462 227.563 345.908 227.851 345.416ZM217.567 344.792L220.274 344.792L220.274 361.351L217.567 361.351L217.567 344.792ZM207.513 346.611L209.798 345.539C210.571 346.236 211.333 347.042 212.083 347.956C212.833 348.87 213.387 349.69 213.744 350.417L211.345 351.604C211.005 350.9 210.472 350.077 209.745 349.134C209.024 348.185 208.28 347.344 207.513 346.611ZM217.673 362.15L220.512 362.15C220.307 363.814 220.014 365.353 219.633 366.765C219.252 368.177 218.701 369.466 217.98 370.632C217.266 371.798 216.313 372.844 215.124 373.77C213.94 374.689 212.44 375.492 210.624 376.178C208.813 376.863 206.619 377.429 204.041 377.874C203.971 377.64 203.859 377.367 203.707 377.057C203.555 376.746 203.382 376.441 203.188 376.143C203.001 375.85 202.819 375.601 202.644 375.396C205.069 375.015 207.12 374.543 208.796 373.98C210.472 373.412 211.849 372.738 212.927 371.959C214.011 371.18 214.869 370.301 215.502 369.322C216.141 368.344 216.621 367.257 216.943 366.062C217.266 364.866 217.509 363.562 217.673 362.15ZM216.574 352.896L218.736 353.792C217.74 355.216 216.489 356.543 214.983 357.773C213.483 358.998 211.849 360.067 210.079 360.981C208.31 361.89 206.496 362.613 204.639 363.152C204.516 362.924 204.354 362.672 204.155 362.396C203.956 362.121 203.748 361.852 203.531 361.588C203.32 361.318 203.109 361.099 202.898 360.929C204.721 360.483 206.508 359.868 208.26 359.083C210.012 358.292 211.608 357.366 213.05 356.306C214.491 355.239 215.666 354.103 216.574 352.896ZM220.696 366.853C221.833 369.278 223.679 371.191 226.233 372.592C228.794 373.992 231.943 374.915 235.682 375.36C235.471 375.554 235.257 375.797 235.04 376.09C234.823 376.389 234.618 376.696 234.425 377.013C234.231 377.329 234.079 377.616 233.968 377.874C231.343 377.458 229.014 376.811 226.98 375.932C224.953 375.053 223.213 373.91 221.76 372.504C220.307 371.092 219.138 369.398 218.253 367.424L220.696 366.853ZM218.341 355.022L219.606 353.15C220.819 353.707 222.108 354.322 223.474 354.996C224.839 355.67 226.198 356.358 227.552 357.062C228.911 357.759 230.188 358.433 231.384 359.083C232.579 359.733 233.602 360.316 234.451 360.832L233.124 363.029C232.31 362.496 231.313 361.89 230.136 361.21C228.958 360.53 227.689 359.83 226.33 359.109C224.971 358.383 223.603 357.668 222.226 356.965C220.849 356.256 219.554 355.608 218.341 355.022ZM240.621 346.225L256.872 346.225L256.872 348.624L240.621 348.624L240.621 346.225ZM239.426 353.581L257.628 353.581L257.628 355.998L239.426 355.998L239.426 353.581ZM238.696 374.104L271.277 374.104L271.277 376.626L238.696 376.626L238.696 374.104ZM242.449 367.046L267.507 367.046L267.507 369.524L242.449 369.524L242.449 367.046ZM250.983 347.227L253.515 347.227L253.515 363.724L250.983 363.724L250.983 347.227ZM253.822 363.029L256.564 363.029L256.564 375.826L253.822 375.826L253.822 363.029ZM259.869 346.813L262.356 346.813L262.356 358.881L259.869 358.881L259.869 346.813ZM266.584 344.977L269.159 344.977L269.159 361.104C269.159 361.849 269.065 362.414 268.878 362.801C268.69 363.188 268.321 363.492 267.771 363.715C267.231 363.902 266.52 364.022 265.635 364.075C264.75 364.128 263.66 364.154 262.365 364.154C262.312 363.791 262.201 363.378 262.031 362.915C261.867 362.446 261.683 362.039 261.478 361.693C262.509 361.717 263.432 361.731 264.246 361.737C265.061 361.737 265.603 361.726 265.872 361.702C266.165 361.69 266.355 361.641 266.443 361.553C266.537 361.465 266.584 361.301 266.584 361.061L266.584 344.977ZM244.005 347.253L246.51 347.253L246.51 353.379C246.51 354.621 246.369 355.928 246.088 357.299C245.807 358.664 245.262 359.985 244.453 361.263C243.65 362.534 242.467 363.662 240.902 364.646C240.785 364.453 240.615 364.236 240.393 363.996C240.17 363.756 239.941 363.519 239.707 363.284C239.479 363.044 239.282 362.862 239.118 362.739C240.56 361.854 241.623 360.885 242.309 359.83C243 358.77 243.454 357.68 243.671 356.561C243.894 355.441 244.005 354.363 244.005 353.326L244.005 347.253Z" opacity="0" fill="rgb(255,254.745,254.745)" fill-opacity="0.200000003" fill-rule="nonzero" />
	<g id="svg" clip-path="url(#clipPath_0)" customFrame="url(#clipPath_0)">
		<rect id="svg" width="330" height="330" x="0" y="0" />
		<path id="path" d="M58.9425 306.234L271.259 306.234C303.769 306.234 330.202 280.729 330.202 249.381L330.202 59.2013C330.202 27.853 303.769 2.34863 271.259 2.34863L58.9425 2.34863C26.4332 2.34863 0 27.853 0 59.2013L0 249.381C0 280.729 26.4332 306.234 58.9425 306.234Z" opacity="0" fill="rgb(14,14,14)" fill-rule="nonzero" />
		<path id="path" d="M108.364 145.312C109.891 145.334 111.416 145.281 112.937 145.153C114.459 145.026 115.971 144.824 117.473 144.549C118.975 144.273 120.46 143.925 121.928 143.504C123.396 143.083 124.84 142.592 126.26 142.03C127.679 141.467 129.068 140.837 130.426 140.139C131.784 139.441 133.105 138.678 134.389 137.85C135.672 137.023 136.912 136.134 138.108 135.185C139.305 134.236 140.452 133.231 141.55 132.17C142.648 131.109 143.691 129.996 144.681 128.833C145.67 127.669 146.6 126.46 147.47 125.206C148.341 123.951 149.148 122.657 149.892 121.324C150.636 119.99 151.313 118.624 151.924 117.224C152.534 115.824 153.074 114.398 153.545 112.945C154.015 111.492 154.414 110.02 154.74 108.528C155.067 107.036 155.32 105.532 155.499 104.016C155.678 102.499 155.782 100.977 155.813 99.4506C155.784 97.923 155.68 96.4005 155.502 94.883C155.324 93.3656 155.072 91.8604 154.747 90.3677C154.421 88.8749 154.024 87.4016 153.554 85.9477C153.084 84.4939 152.544 83.0665 151.935 81.6656C151.325 80.2646 150.648 78.8968 149.905 77.5621C149.161 76.2274 148.354 74.9323 147.483 73.6767C146.613 72.4211 145.683 71.211 144.694 70.0465C143.705 68.8819 142.661 67.7685 141.563 66.7062C140.465 65.6439 139.318 64.6378 138.121 63.6879C136.924 62.738 135.684 61.8489 134.4 61.0205C133.117 60.1921 131.795 59.4284 130.437 58.7294C129.078 58.0304 127.689 57.3995 126.268 56.8366C124.848 56.2738 123.403 55.7817 121.935 55.3603C120.466 54.9389 118.98 54.5903 117.478 54.3145C115.975 54.0387 114.462 53.837 112.94 53.7093C111.417 53.5817 109.892 53.5287 108.364 53.5505C106.834 53.5249 105.306 53.5742 103.78 53.6985C102.254 53.8228 100.738 54.0214 99.2319 54.2943C97.7257 54.5672 96.2364 54.9132 94.764 55.3322C93.2917 55.7512 91.8434 56.2412 90.4191 56.8022C88.9948 57.3632 87.6013 57.9925 86.2388 58.6902C84.8762 59.3879 83.551 60.1505 82.2632 60.9782C80.9755 61.8058 79.7313 62.6944 78.5306 63.6441C77.33 64.5937 76.1787 65.5998 75.0767 66.6624C73.9747 67.7249 72.9274 68.8388 71.9347 70.0041C70.9419 71.1693 70.0086 72.3804 69.1346 73.6371C68.2607 74.8939 67.4503 76.1905 66.7034 77.5267C65.9566 78.863 65.277 80.2326 64.6644 81.6355C64.0519 83.0384 63.5095 84.4679 63.0372 85.924C62.5649 87.3801 62.1649 88.8559 61.8373 90.3512C61.5097 91.8465 61.2561 93.3543 61.0763 94.8745C60.8966 96.3947 60.7916 97.9201 60.7615 99.4506C60.7929 100.98 60.899 102.505 61.0798 104.024C61.2606 105.543 61.5153 107.05 61.8438 108.544C62.1723 110.039 62.5731 111.513 63.0462 112.968C63.5192 114.424 64.0623 115.852 64.6754 117.254C65.2884 118.656 65.9686 120.024 66.7158 121.359C67.463 122.694 68.2737 123.99 69.1478 125.245C70.022 126.501 70.9555 127.711 71.9482 128.875C72.941 130.039 73.9883 131.152 75.0902 132.214C76.192 133.275 77.3431 134.28 78.5435 135.229C79.7438 136.178 80.9877 137.066 82.2751 137.892C83.5625 138.719 84.8872 139.481 86.2492 140.178C87.6113 140.875 89.0042 141.504 90.4278 142.064C91.8515 142.624 93.2992 143.114 94.7708 143.532C96.2425 143.951 97.7311 144.297 99.2366 144.569C100.742 144.842 102.257 145.04 103.782 145.164C105.307 145.288 106.835 145.338 108.364 145.312ZM87.5817 99.4506C87.5575 98.7699 87.5669 98.0897 87.6099 97.41C87.6529 96.7303 87.7294 96.0544 87.8392 95.3822C87.9491 94.7101 88.0918 94.045 88.2674 93.3869C88.443 92.7289 88.6507 92.0811 88.8903 91.4436C89.13 90.806 89.4005 90.1819 89.7018 89.5711C90.0032 88.9603 90.3339 88.3659 90.6941 87.7878C91.0542 87.2098 91.442 86.6509 91.8573 86.1111C92.2727 85.5714 92.7137 85.0534 93.1803 84.5573C93.6469 84.0612 94.1368 83.5892 94.6501 83.1415C95.1633 82.6938 95.6974 82.2725 96.2523 81.8776C96.8072 81.4827 97.3802 81.1161 97.9714 80.7779C98.5625 80.4396 99.1689 80.1314 99.7905 79.8531C100.412 79.5748 101.046 79.3278 101.692 79.1122C102.338 78.8965 102.993 78.7133 103.657 78.5624C104.321 78.4116 104.991 78.2938 105.667 78.2092C106.343 78.1245 107.021 78.0734 107.702 78.0559C108.383 78.0383 109.063 78.0544 109.742 78.104C110.422 78.1537 111.097 78.2367 111.768 78.3531C112.439 78.4696 113.103 78.6188 113.759 78.8008C114.415 78.9829 115.061 79.1968 115.696 79.4427C116.331 79.6886 116.953 79.9651 117.56 80.2725C118.168 80.5798 118.759 80.9163 119.334 81.2821C119.908 81.6478 120.464 82.041 120.999 82.4617C121.535 82.8823 122.049 83.3284 122.54 83.7998C123.032 84.2712 123.499 84.7657 123.941 85.2833C124.384 85.8009 124.8 86.3391 125.19 86.8978C125.579 87.4565 125.94 88.0331 126.272 88.6275C126.605 89.222 126.907 89.8313 127.179 90.4556C127.452 91.08 127.692 91.7162 127.902 92.3643C128.111 93.0124 128.288 93.6693 128.432 94.3349C128.577 95.0005 128.688 95.6715 128.766 96.3481C128.844 97.0247 128.888 97.7035 128.899 98.3845C128.91 99.0655 128.887 99.7454 128.831 100.424C128.775 101.103 128.685 101.777 128.562 102.447C128.439 103.117 128.284 103.779 128.095 104.434C127.907 105.088 127.686 105.732 127.434 106.364C127.182 106.997 126.9 107.616 126.586 108.221C126.273 108.825 125.931 109.413 125.56 109.984C125.188 110.555 124.79 111.106 124.364 111.638C123.938 112.169 123.487 112.679 123.011 113.166C122.534 113.652 122.035 114.115 121.513 114.552C120.992 114.99 120.449 115.401 119.887 115.785C119.324 116.169 118.744 116.524 118.147 116.851C117.549 117.177 116.937 117.474 116.31 117.74C115.683 118.006 115.044 118.24 114.394 118.443C113.744 118.646 113.085 118.817 112.418 118.954C111.751 119.092 111.079 119.197 110.402 119.268C109.725 119.34 109.046 119.378 108.364 119.382C107.697 119.397 107.031 119.38 106.366 119.33C105.7 119.279 105.039 119.196 104.382 119.081C103.725 118.966 103.075 118.818 102.432 118.639C101.789 118.459 101.157 118.249 100.535 118.007C99.9133 117.765 99.3048 117.493 98.7096 117.192C98.1145 116.89 97.5356 116.56 96.973 116.201C96.4104 115.842 95.8667 115.457 95.3421 115.045C94.8174 114.632 94.3143 114.195 93.8327 113.733C93.3512 113.272 92.8934 112.787 92.4596 112.28C92.0257 111.773 91.6178 111.246 91.2359 110.699C90.854 110.152 90.4998 109.587 90.1735 109.005C89.8472 108.423 89.5503 107.827 89.2828 107.215C89.0152 106.604 88.7784 105.981 88.5722 105.347C88.3661 104.712 88.1916 104.069 88.0488 103.417C87.906 102.765 87.7956 102.108 87.7176 101.445C87.6395 100.783 87.5942 100.118 87.5817 99.4506ZM58.9425 247.716C60.7203 247.713 62.4326 247.377 64.0795 246.708C65.7263 246.038 67.1876 245.084 68.4631 243.846L119.627 194.579L165.101 238.428L288.366 119.575C288.985 118.983 289.538 118.334 290.026 117.63C290.514 116.925 290.927 116.178 291.263 115.39C291.6 114.602 291.854 113.788 292.026 112.948C292.198 112.109 292.284 111.26 292.284 110.403C292.284 109.546 292.198 108.698 292.026 107.858C291.854 107.018 291.6 106.204 291.263 105.416C290.927 104.628 290.514 103.881 290.026 103.177C289.538 102.472 288.985 101.823 288.366 101.231C287.711 100.662 287.01 100.155 286.265 99.7117C285.519 99.2681 284.74 98.8944 283.927 98.5906C283.114 98.2867 282.281 98.0576 281.427 97.9032C280.573 97.7489 279.713 97.6717 278.845 97.6717C277.977 97.6717 277.117 97.7489 276.263 97.9032C275.409 98.0576 274.576 98.2867 273.763 98.5906C272.95 98.8944 272.171 99.2681 271.425 99.7117C270.68 100.155 269.979 100.662 269.324 101.231L165.101 201.855L119.627 157.89L49.4219 225.579C48.805 226.173 48.2537 226.823 47.7679 227.528C47.2821 228.233 46.8716 228.98 46.5364 229.768C46.2012 230.556 45.9481 231.369 45.7771 232.208C45.606 233.047 45.5205 233.895 45.5205 234.751C45.5205 235.608 45.606 236.455 45.7771 237.294C45.9481 238.134 46.2012 238.947 46.5364 239.735C46.8716 240.523 47.2821 241.27 47.7679 241.975C48.2537 242.68 48.805 243.33 49.4219 243.924C50.7036 245.148 52.1677 246.088 53.8142 246.744C55.4607 247.4 57.1702 247.724 58.9425 247.716Z" opacity="0" fill="rgb(14,14,14)" fill-rule="nonzero" />
		<g id="paintpalette_fill" clip-path="url(#clipPath_1)" customFrame="url(#clipPath_1)">
			<rect id="paintpalette_fill" width="330" height="330" x="0" y="0" />
			<rect id="矩形 618" width="330" height="330" x="0" y="0" opacity="0" fill="rgb(0,0,0)" />
			<g id="组合 3348" opacity="0">
				<path id="矢量 60" d="M162.331 315.45C172.335 315.45 180.47 312.872 186.735 307.717C193 302.662 196.991 296.496 198.709 289.218C200.427 281.939 199.972 275.369 197.345 269.506C195.324 264.451 192.899 260.357 190.07 257.223C187.644 253.584 186.785 250.299 187.493 247.367C188.2 244.436 190.171 242.212 193.404 240.696C196.739 239.078 201.084 238.371 206.44 238.573C224.326 239.786 240.797 237.916 255.853 232.963C270.91 228.009 283.44 219.973 293.444 208.853C303.549 197.632 310.168 183.531 313.3 166.548C316.231 150.576 315.372 134.352 310.724 117.875C306.176 101.296 299.76 87.7 291.473 77.0858C270.152 49.8933 245.647 31.9503 217.959 23.2568C190.373 14.4622 163.796 12.6932 138.231 17.9497C112.564 23.1052 91.7477 32.0009 75.7817 44.6368C58.6032 57.9803 44.153 74.6597 32.4312 94.675C20.8104 114.69 15 141.327 15 174.585C15 194.499 21.2651 215.474 33.7953 237.511C46.2245 259.65 63.7567 278.149 86.392 293.008C108.926 307.969 134.239 315.45 162.331 315.45ZM93.9708 114.842C99.5285 114.842 104.328 116.813 108.37 120.756C112.311 124.597 114.282 129.297 114.282 134.857C114.282 140.518 112.311 145.32 108.37 149.262C104.328 153.306 99.5285 155.327 93.9708 155.327C88.413 155.327 83.6131 153.306 79.5711 149.262C75.6301 145.32 73.6597 140.518 73.6597 134.857C73.6597 129.297 75.6301 124.597 79.5711 120.756C83.6131 116.813 88.413 114.842 93.9708 114.842ZM134.29 63.8939C139.949 63.8939 144.749 65.9157 148.689 69.9592C152.731 74.0027 154.752 78.8043 154.752 84.3641C154.752 89.9239 152.731 94.7256 148.689 98.7691C144.749 102.711 139.949 104.683 134.29 104.683C128.732 104.683 124.033 102.711 120.193 98.7691C116.252 94.7256 114.282 89.9239 114.282 84.3641C114.282 78.8043 116.252 74.0027 120.193 69.9592C124.033 65.9157 128.732 63.8939 134.29 63.8939ZM199.164 63.8939C204.722 63.8939 209.421 65.9157 213.261 69.9592C217.202 74.0027 219.172 78.8043 219.172 84.3641C219.172 89.9239 217.202 94.7256 213.261 98.7691C209.421 102.711 204.722 104.683 199.164 104.683C193.505 104.683 188.705 102.711 184.764 98.7691C180.722 94.7256 178.701 89.9239 178.701 84.3641C178.701 78.8043 180.722 74.0027 184.764 69.9592C188.705 65.9157 193.505 63.8939 199.164 63.8939ZM239.483 114.842C245.041 114.842 249.841 116.813 253.883 120.756C257.824 124.597 259.794 129.297 259.794 134.857C259.794 140.518 257.824 145.32 253.883 149.262C249.841 153.306 245.041 155.327 239.483 155.327C233.925 155.327 229.125 153.306 225.083 149.262C221.142 145.32 219.172 140.518 219.172 134.857C219.172 129.297 221.142 124.597 225.083 120.756C229.125 116.813 233.925 114.842 239.483 114.842Z" fill="rgb(255,255,255)" fill-opacity="0.200000003" fill-rule="nonzero" />
			</g>
			<g id="template_fill" clip-path="url(#clipPath_2)" customFrame="url(#clipPath_2)">
				<rect id="template_fill" width="330" height="330" x="0" y="0" />
				<rect id="矩形 615" width="330" height="330" x="0" y="0" opacity="0" fill="rgb(0,0,0)" />
				<g id="mask" mask="url(#mask_0)">
					<g id="组合 3345">
						<path id="矢量 58" d="M95.6746 82.469C98.6074 81.2582 100.681 79.1898 101.894 76.2637C103.108 73.3377 103.108 70.4116 101.894 67.4855L91.2754 39.9401C90.0619 37.014 88.0898 34.9456 85.3593 33.7348C82.5276 32.524 79.5442 32.4231 76.4092 33.4321C73.4764 34.6429 71.4032 36.6608 70.1896 39.486C68.976 42.4121 68.976 45.3382 70.1896 48.2642L80.8084 75.8097L82.1737 78.8367C83.6906 80.7538 85.5615 82.015 87.7864 82.6204C90.1124 83.2258 92.7418 83.1753 95.6746 82.469ZM174.253 82.469C177.186 81.2582 179.259 79.1898 180.473 76.2637C181.687 73.3377 181.838 70.4116 180.928 67.4855L170.006 39.9401C168.792 37.014 166.719 34.9456 163.786 33.7348C160.854 32.524 157.921 32.4231 154.988 33.4321C152.055 34.6429 149.982 36.6608 148.768 39.486C147.555 42.4121 147.454 45.3382 148.465 48.2642L159.387 75.8097L160.146 77.3232C161.562 79.7448 163.483 81.46 165.91 82.469C168.337 83.3771 171.118 83.3771 174.253 82.469ZM252.984 82.469C255.917 81.2582 257.99 79.1898 259.204 76.2637C260.417 73.3377 260.518 70.4116 259.507 67.4855L248.585 39.9401C247.574 37.014 245.551 34.8951 242.517 33.5834C239.483 32.2717 236.55 32.2213 233.719 33.4321C230.786 34.6429 228.713 36.6608 227.499 39.486C226.285 42.4121 226.285 45.3382 227.499 48.2642L238.421 75.8097L238.725 76.5664C239.938 79.2907 241.961 81.1573 244.792 82.1663C247.523 83.2762 250.253 83.3771 252.984 82.469ZM13 115.463L317 115.463L316.241 256.066C316.241 266.963 313.612 277.002 308.353 286.184C302.993 295.366 295.712 302.631 286.509 307.979C277.205 313.326 267.243 316 256.625 316L73.0719 316C62.1497 316 52.0872 313.326 42.8842 307.979C33.6813 302.631 26.3999 295.366 21.0399 286.184C15.68 277.002 13 266.963 13 256.066L13 115.463ZM13 72.9341C13 62.037 15.68 51.9975 21.0399 42.8157C26.3999 33.6339 33.6813 26.3691 42.8842 21.0215C52.0872 15.6738 62.1497 13 73.0719 13L256.625 13C267.243 13 277.205 15.6738 286.509 21.0215C295.712 26.3691 302.993 33.6339 308.353 42.8157C313.612 51.9975 316.241 62.037 316.241 72.9341L316.241 92.6094L13 92.6094L13 72.9341Z" fill="rgb(255,255,255)" fill-opacity="0.200000003" fill-rule="nonzero" />
					</g>
				</g>
			</g>
		</g>
	</g>
</svg>
