<svg width="330.000000" height="330.000000" viewBox="0 0 330 330" fill="none" xmlns="http://www.w3.org/2000/svg" xmlns:xlink="http://www.w3.org/1999/xlink">
	<desc>
			Created with Pixso.
	</desc>
	<defs>
		<clipPath id="clip180_24392">
			<rect id="画板 245" width="330.000000" height="330.000031" fill="white" fill-opacity="0"/>
		</clipPath>
	</defs>
	<rect id="画板 245" width="330.000000" height="330.000031" fill="#000000" fill-opacity="0"/>
	<g clip-path="url(#clip180_24392)">
		<path id="path" d="M248.89 222.48L246.54 220.44L197.09 175.03L181.12 189.59L159.21 209.79L159.21 288.88C159.21 295.3 163.59 301.09 170.01 303.44C172.04 304.23 174.39 304.7 176.58 304.7C181.12 304.7 185.5 302.97 188.79 300L249.05 244.87C255.78 238.61 255.62 228.74 248.89 222.48ZM181.75 277.29L181.12 189.59L229.17 233.75L181.75 277.29Z" fill="#FFFFFF" fill-opacity="0.200000" fill-rule="nonzero"/>
		<path id="path" d="M158.65 193.64L169.87 182.54L185.77 166.59L224.42 127.82L243.59 110.16L246.71 107.34C252.63 101.25 253.26 91.09 246.71 85.15L186.71 29.96C181.72 25.43 174.39 24.02 168 26.52C161.61 29.02 157.41 34.65 157.41 41.06L157.09 137.98L96.47 77.33C92.1 72.8 84.93 72.8 80.57 77.33C76.36 81.71 76.36 88.74 80.73 93.27L153.82 166.59L79.17 241.47C74.8 246.01 74.8 253.04 79.17 257.42C81.35 259.61 84.31 260.7 87.12 260.7C90.08 260.7 93.04 259.61 95.06 257.42L158.65 193.64ZM179.69 139.55L180 52.63L225.51 94.53L190.6 129.54L179.69 139.55Z" fill="#FFFFFF" fill-opacity="0.200000" fill-rule="nonzero"/>
	</g>
</svg>
