<svg width="330.000000" height="330.000000" viewBox="0 0 330 330" fill="none" xmlns="http://www.w3.org/2000/svg" xmlns:xlink="http://www.w3.org/1999/xlink">
	<desc>
			Created with Pixso.
	</desc>
	<defs>
		<clipPath id="clip180_24380">
			<rect id="画板 241" width="330.000000" height="330.000031" fill="white" fill-opacity="0"/>
		</clipPath>
	</defs>
	<rect id="画板 241" width="330.000000" height="330.000031" fill="#000000" fill-opacity="0"/>
	<g clip-path="url(#clip180_24380)">
		<path id="path" d="M49 234.8C48.15 234.8 47.3 234.76 46.46 234.68C45.61 234.6 44.77 234.48 43.94 234.31C43.11 234.15 42.29 233.95 41.48 233.71C40.66 233.47 39.87 233.19 39.08 232.87C38.3 232.55 37.53 232.2 36.79 231.8C36.04 231.41 35.31 230.99 34.61 230.52C33.9 230.06 33.22 229.57 32.56 229.04C31.91 228.51 31.28 227.95 30.68 227.37C30.08 226.78 29.51 226.16 28.97 225.52C28.44 224.88 27.93 224.21 27.46 223.52C26.99 222.83 26.55 222.12 26.15 221.38C25.75 220.65 25.39 219.9 25.07 219.13C24.74 218.36 24.46 217.58 24.21 216.79C23.96 215.99 23.76 215.18 23.59 214.37C23.43 213.55 23.3 212.73 23.22 211.91C23.14 211.08 23.1 210.25 23.1 209.42L23.1 120.57C23.1 119.74 23.14 118.91 23.22 118.09C23.3 117.26 23.43 116.44 23.59 115.62C23.76 114.81 23.96 114 24.21 113.2C24.46 112.41 24.74 111.63 25.07 110.86C25.39 110.09 25.75 109.34 26.15 108.61C26.55 107.87 26.99 107.16 27.46 106.47C27.93 105.78 28.44 105.11 28.97 104.47C29.51 103.83 30.08 103.21 30.68 102.62C31.28 102.04 31.91 101.48 32.56 100.95C33.22 100.42 33.9 99.93 34.61 99.47C35.31 99.01 36.04 98.58 36.79 98.19C37.53 97.79 38.3 97.44 39.08 97.12C39.87 96.8 40.66 96.52 41.48 96.28C42.29 96.04 43.11 95.84 43.94 95.68C44.77 95.51 45.61 95.39 46.46 95.31C47.3 95.23 48.15 95.19 49 95.19L100.8 95.19L155.06 49.1C155.99 48.31 156.98 47.58 158.01 46.93C159.05 46.27 160.13 45.69 161.26 45.19C162.38 44.69 163.53 44.27 164.72 43.92C165.91 43.58 167.11 43.33 168.33 43.15C169.55 42.98 170.78 42.89 172.02 42.89C173.25 42.89 174.48 42.98 175.7 43.15C176.93 43.33 178.13 43.58 179.32 43.92C180.5 44.26 181.66 44.69 182.78 45.19C183.9 45.69 184.98 46.27 186.02 46.92C187.06 47.58 188.05 48.3 188.98 49.09C189.91 49.89 190.79 50.74 191.59 51.66C192.4 52.57 193.14 53.54 193.81 54.56C194.48 55.57 195.07 56.63 195.58 57.73C196.09 58.84 196.52 59.97 196.87 61.13C197.22 62.29 197.48 63.47 197.66 64.67C197.83 65.87 197.92 67.07 197.92 68.28L197.92 261.71C197.92 262.92 197.83 264.12 197.66 265.32C197.48 266.52 197.22 267.7 196.87 268.86C196.52 270.02 196.09 271.15 195.58 272.25C195.07 273.35 194.48 274.42 193.81 275.43C193.14 276.45 192.4 277.42 191.6 278.33C190.79 279.25 189.91 280.1 188.98 280.9C188.05 281.69 187.06 282.41 186.02 283.07C184.98 283.72 183.9 284.3 182.78 284.8C181.66 285.3 180.5 285.73 179.32 286.07C178.13 286.41 176.93 286.66 175.7 286.84C174.48 287.01 173.25 287.1 172.02 287.1C170.78 287.1 169.55 287.01 168.33 286.84C167.11 286.66 165.91 286.41 164.72 286.07C163.53 285.72 162.38 285.3 161.26 284.8C160.13 284.3 159.05 283.72 158.01 283.06C156.98 282.41 155.99 281.68 155.06 280.89L100.8 234.8L49 234.8ZM265.51 75.07C268.82 77.67 271.97 80.43 274.96 83.37C277.95 86.31 280.76 89.41 283.4 92.66C286.04 95.91 288.48 99.29 290.73 102.81C292.98 106.33 295.02 109.96 296.85 113.7C298.68 117.44 300.29 121.27 301.69 125.19C303.08 129.11 304.25 133.1 305.19 137.14C306.12 141.19 306.83 145.28 307.3 149.41C307.77 153.53 308 157.67 308 161.82C308 165.97 307.77 170.11 307.3 174.24C306.83 178.36 306.12 182.45 305.19 186.5C304.25 190.55 303.08 194.53 301.69 198.45C300.29 202.37 298.68 206.2 296.85 209.95C295.02 213.69 292.98 217.32 290.73 220.84C288.48 224.35 286.04 227.74 283.4 230.99C280.76 234.24 277.95 237.33 274.96 240.27C271.97 243.21 268.82 245.98 265.51 248.57C265.01 248.96 264.48 249.3 263.92 249.59C263.35 249.88 262.76 250.11 262.15 250.29C261.54 250.46 260.91 250.58 260.28 250.63C259.64 250.69 259.01 250.68 258.38 250.61C257.74 250.54 257.12 250.41 256.51 250.23C255.9 250.04 255.32 249.79 254.76 249.49C254.2 249.19 253.68 248.84 253.19 248.44C252.7 248.04 252.26 247.59 251.86 247.11C251.46 246.62 251.11 246.1 250.82 245.54C250.52 244.99 250.29 244.41 250.11 243.81C249.93 243.21 249.81 242.6 249.76 241.98C249.7 241.35 249.71 240.73 249.78 240.11C249.85 239.49 249.98 238.88 250.17 238.28C250.36 237.69 250.61 237.12 250.92 236.57C251.22 236.02 251.58 235.51 251.99 235.03C252.4 234.55 252.86 234.11 253.35 233.72C256.1 231.57 258.71 229.28 261.19 226.85C263.67 224.41 266 221.84 268.18 219.15C270.37 216.46 272.4 213.65 274.26 210.74C276.12 207.82 277.82 204.81 279.34 201.71C280.86 198.61 282.19 195.43 283.35 192.18C284.51 188.94 285.47 185.63 286.25 182.28C287.03 178.92 287.61 175.53 288 172.11C288.39 168.69 288.58 165.26 288.58 161.82C288.58 133.5 275.47 107.31 253.35 89.92C252.86 89.53 252.4 89.1 251.99 88.62C251.58 88.14 251.22 87.62 250.92 87.08C250.61 86.53 250.36 85.96 250.17 85.36C249.98 84.76 249.85 84.16 249.78 83.53C249.71 82.91 249.7 82.29 249.76 81.67C249.81 81.04 249.93 80.43 250.11 79.83C250.29 79.23 250.52 78.66 250.82 78.1C251.11 77.55 251.46 77.03 251.86 76.54C252.26 76.05 252.7 75.61 253.19 75.2C253.68 74.8 254.2 74.45 254.76 74.15C255.32 73.85 255.9 73.61 256.51 73.42C257.12 73.23 257.74 73.1 258.38 73.03C259.01 72.97 259.64 72.96 260.28 73.01C260.91 73.07 261.54 73.18 262.15 73.36C262.76 73.53 263.35 73.76 263.92 74.05C264.48 74.34 265.01 74.68 265.51 75.07ZM229.16 112.62C247.97 124.74 259.43 143.97 259.43 165C259.43 186.02 247.97 205.25 229.16 217.37C228.62 217.73 228.06 218.03 227.47 218.28C226.87 218.53 226.26 218.72 225.62 218.85C224.99 218.98 224.35 219.04 223.71 219.05C223.06 219.05 222.42 218.99 221.78 218.87C221.15 218.75 220.53 218.57 219.94 218.33C219.34 218.08 218.77 217.79 218.24 217.43C217.7 217.08 217.2 216.68 216.75 216.23C216.29 215.78 215.89 215.29 215.53 214.76C215.18 214.23 214.88 213.67 214.64 213.08C214.4 212.5 214.22 211.89 214.1 211.27C213.98 210.64 213.93 210.02 213.94 209.38C213.95 208.75 214.02 208.12 214.16 207.5C214.3 206.89 214.49 206.29 214.75 205.71C215.01 205.12 215.33 204.58 215.7 204.06C216.07 203.54 216.49 203.06 216.96 202.63C217.43 202.19 217.94 201.8 218.49 201.47C232.04 192.73 240.01 179.35 240.01 165C240.01 150.64 232.04 137.26 218.49 128.52C217.94 128.19 217.43 127.8 216.96 127.37C216.49 126.93 216.07 126.45 215.7 125.93C215.33 125.41 215.01 124.87 214.75 124.29C214.49 123.71 214.3 123.11 214.16 122.49C214.02 121.87 213.95 121.24 213.94 120.61C213.93 119.97 213.98 119.35 214.1 118.72C214.22 118.1 214.4 117.5 214.64 116.91C214.88 116.32 215.18 115.76 215.53 115.23C215.89 114.7 216.29 114.21 216.75 113.76C217.2 113.31 217.7 112.91 218.24 112.56C218.77 112.21 219.34 111.91 219.94 111.67C220.53 111.42 221.15 111.24 221.78 111.12C222.42 111 223.06 110.94 223.71 110.94C224.35 110.95 224.99 111.01 225.62 111.14C226.26 111.27 226.87 111.46 227.47 111.71C228.06 111.96 228.62 112.26 229.16 112.62Z" fill="#FFFFFF" fill-opacity="0.200000" fill-rule="nonzero"/>
	</g>
</svg>
