<?xml version="1.0" encoding="UTF-8"?>
<svg width="500px" height="500px" viewBox="0 0 500 500" version="1.1" xmlns="http://www.w3.org/2000/svg" xmlns:xlink="http://www.w3.org/1999/xlink">
    <title>ic_photo</title>
    <defs>
        <path d="M394.96888,42.0560748 C429.486677,42.0560748 457.46888,70.0382779 457.46888,104.556075 L457.46812,355.031075 L457.608783,355.17117 L457.608783,395.112823 L457.46612,395.125075 L457.460506,395.958266 C456.908582,429.999357 429.141499,457.424714 394.96888,457.424714 L105.03112,457.424714 C70.5133235,457.424714 42.5311203,429.442511 42.5311203,394.924714 L42.5311203,104.556075 C42.5311203,70.0382779 70.5133235,42.0560748 105.03112,42.0560748 L394.96888,42.0560748 Z M294.01688,250.380856 L118.40512,426.174075 L394.96888,426.174714 C412.227778,426.174714 426.21888,412.183613 426.21888,394.924714 L426.21812,367.965075 L308.755915,250.380856 C304.678198,246.307361 298.08273,246.310784 294.01688,250.380856 Z M394.96888,73.3060748 L105.03112,73.3060748 C87.7722219,73.3060748 73.7811203,87.2971763 73.7811203,104.556075 L73.7811203,394.924714 C73.7811203,403.667204 77.3711335,411.571202 83.157378,417.242925 L271.908329,228.295239 C288.171729,212.014952 314.553599,212.001261 330.833887,228.26466 L330.864466,228.295239 L426.21812,323.748075 L426.21888,104.556075 C426.21888,87.2971763 412.227778,73.3060748 394.96888,73.3060748 Z M156.639004,125.129803 C173.822614,125.129803 187.759336,139.075805 187.759336,156.282451 C187.759336,173.483904 173.822614,187.435099 156.639004,187.435099 C139.455394,187.435099 125.518672,173.483904 125.518672,156.282451 C125.518672,139.075805 139.455394,125.129803 156.639004,125.129803 Z" id="path-1"></path>
    </defs>
    <g id="ic_photo" stroke="none" stroke-width="1" fill="none" fill-rule="evenodd">
        <mask id="mask-2" fill="white">
            <use xlink:href="#path-1"></use>
        </mask>
        <use id="Combined-Shape" fill-opacity="0.1" fill="#FFFFFF" xlink:href="#path-1"></use>
    </g>
</svg>