<svg width="330.000000" height="330.000000" viewBox="0 0 330 330" fill="none" xmlns="http://www.w3.org/2000/svg" xmlns:xlink="http://www.w3.org/1999/xlink">
	<desc>
			Created with Pixso.
	</desc>
	<defs>
		<clipPath id="clip486_52934">
			<rect id="画板 322" width="330.000000" height="330.000000" fill="white" fill-opacity="0"/>
		</clipPath>
	</defs>
	<rect id="画板 322" width="330.000000" height="330.000000" fill="#000000" fill-opacity="0"/>
	<g clip-path="url(#clip486_52934)">
		<path id="path" d="M164.38 261.27C105.39 261.27 42.28 235.28 21.24 202.42C11.2 186.75 13.4 173.96 17.11 165.85C30.86 135.87 77.2 85 163.96 85C239.32 85 291.98 125.56 310.82 165.71C314.53 173.82 317 186.75 306.96 202.56C285.93 235.42 223.36 261.27 164.38 261.27ZM163.96 105.76C97.55 105.76 50.94 141.37 35.82 174.51C34.99 176.3 32.51 181.8 38.57 191.28C53.83 215.07 107.86 240.51 163.96 240.65C220.07 240.65 274.38 215.35 289.5 191.56C295.55 181.93 292.94 176.43 292.11 174.65C280.15 149.07 239.73 105.76 163.96 105.76Z" fill="#FFFFFF" fill-opacity="0.200000" fill-rule="nonzero"/>
		<path id="path" d="M163.96 224.83C135.49 224.83 112.39 201.73 112.39 173.27C112.39 144.81 135.49 121.71 163.96 121.71C192.42 121.71 215.52 144.81 215.52 173.27C215.52 201.73 192.42 224.83 163.96 224.83ZM163.96 142.33C146.91 142.33 133.02 156.22 133.02 173.27C133.02 190.32 146.91 204.21 163.96 204.21C181.01 204.21 194.89 190.32 194.89 173.27C194.89 156.22 181.01 142.33 163.96 142.33Z" fill="#FFFFFF" fill-opacity="0.200000" fill-rule="nonzero"/>
		<path id="星形 1" d="M59.45 257.18L44.86 269.28L26.17 266.09L38.28 280.68L35.09 299.37L49.68 287.26L68.36 290.45L56.26 275.86L59.45 257.18Z" fill="#FFFFFF" fill-opacity="0.200000" fill-rule="evenodd"/>
		<path id="星形 3" d="M231.6 39.25L218.15 52.61L199.25 51.09L212.61 64.54L211.09 83.44L224.54 70.08L243.44 71.6L230.08 58.15L231.6 39.25Z" fill="#FFFFFF" fill-opacity="0.200000" fill-rule="evenodd"/>
		<path id="星形 2" d="M290.04 8.86L271.46 27.97L244.86 26.3L263.96 44.88L262.3 71.47L280.87 52.37L307.47 54.04L288.37 35.46L290.04 8.86Z" fill="#FFFFFF" fill-opacity="0.200000" fill-rule="evenodd"/>
	</g>
</svg>
