<svg width="330.000000" height="330.000000" viewBox="0 0 330 330" fill="none" xmlns="http://www.w3.org/2000/svg" xmlns:xlink="http://www.w3.org/1999/xlink">
	<desc>
			Created with Pixso.
	</desc>
	<defs>
		<clipPath id="clip180_24399">
			<rect id="画板 247" width="330.000000" height="330.000031" fill="white" fill-opacity="0"/>
		</clipPath>
	</defs>
	<rect id="画板 247" width="330.000000" height="330.000031" fill="#000000" fill-opacity="0"/>
	<g clip-path="url(#clip180_24399)">
		<path id="path-1" d="M184.84 24.2C193.99 24.2 202.26 29.66 205.86 38.09L216.6 63.26L227.71 69.68L254.93 66.4C263.72 65.33 272.31 69.45 277 76.9L296.9 111.32C301.49 119.26 300.89 129.19 295.38 136.53L278.95 158.42L278.95 171.2L295.38 193.1C300.71 200.19 301.44 209.71 297.34 217.51L277.46 251.97C272.88 259.9 264.02 264.33 254.93 263.23L227.71 259.95L216.6 266.37L205.86 291.54C202.38 299.7 194.52 305.08 185.72 305.42L145.92 305.43C136.77 305.43 128.5 299.97 124.91 291.54L114.16 266.37L103.05 259.95L75.83 263.23C67.04 264.29 58.46 260.18 53.76 252.72L33.87 218.31C29.28 210.36 29.87 200.44 35.38 193.1L51.81 171.2L51.81 158.42L35.38 136.53C30.06 129.44 29.32 119.92 33.42 112.12L53.3 77.66C57.88 69.73 66.75 65.3 75.83 66.4L103.05 69.68L114.16 63.26L124.91 38.09C128.39 29.93 136.24 24.55 145.04 24.21L184.84 24.2ZM165.38 105.95C132.92 105.95 106.6 132.31 106.6 164.81C106.6 197.32 132.92 223.68 165.38 223.68C197.85 223.68 224.16 197.32 224.16 164.81C224.16 132.31 197.85 105.95 165.38 105.95ZM165.38 125.57C187.02 125.57 204.57 143.14 204.57 164.81C204.57 186.49 187.02 204.06 165.38 204.06C143.74 204.06 126.19 186.49 126.19 164.81C126.19 143.14 143.74 125.57 165.38 125.57Z" fill="#FFFFFF" fill-opacity="0.200000" fill-rule="nonzero"/>
		<path id="path-1" d="M205.86 38.09L216.6 63.26L227.71 69.68L254.93 66.4C263.72 65.33 272.31 69.45 277 76.9L296.9 111.32C301.49 119.26 300.89 129.19 295.38 136.53L278.95 158.42L278.95 171.2L295.38 193.1C300.71 200.19 301.44 209.71 297.34 217.51L277.46 251.97C272.88 259.9 264.02 264.33 254.93 263.23L227.71 259.95L216.6 266.37L205.86 291.54C202.38 299.7 194.52 305.08 185.72 305.42L145.92 305.43C136.77 305.43 128.5 299.97 124.91 291.54L114.16 266.37L103.05 259.95L75.83 263.23C67.04 264.29 58.46 260.18 53.76 252.72L33.87 218.31C29.28 210.36 29.87 200.44 35.38 193.1L51.81 171.2L51.81 158.42L35.38 136.53C30.06 129.44 29.32 119.92 33.42 112.12L53.3 77.66C57.88 69.73 66.75 65.3 75.83 66.4L103.05 69.68L114.16 63.26L124.91 38.09C128.39 29.93 136.24 24.55 145.04 24.21L184.84 24.2C193.99 24.2 202.26 29.66 205.86 38.09ZM106.6 164.81C106.6 197.32 132.92 223.68 165.38 223.68C197.85 223.68 224.16 197.32 224.16 164.81C224.16 132.31 197.85 105.95 165.38 105.95C132.92 105.95 106.6 132.31 106.6 164.81ZM204.57 164.81C204.57 186.49 187.02 204.06 165.38 204.06C143.74 204.06 126.19 186.49 126.19 164.81C126.19 143.14 143.74 125.57 165.38 125.57C187.02 125.57 204.57 143.14 204.57 164.81Z" stroke="#000000" stroke-opacity="0" stroke-width="1.000000"/>
	</g>
</svg>
