<svg width="330.000000" height="330.000000" viewBox="0 0 330 330" fill="none" xmlns="http://www.w3.org/2000/svg" xmlns:xlink="http://www.w3.org/1999/xlink">
	<desc>
			Created with Pixso.
	</desc>
	<defs>
		<clipPath id="clip264_30868">
			<rect id="画板 251" width="330.000000" height="330.000031" fill="white" fill-opacity="0"/>
		</clipPath>
	</defs>
	<rect id="画板 251" width="330.000000" height="330.000031" fill="#000000" fill-opacity="0"/>
	<g clip-path="url(#clip264_30868)">
		<path id="path" d="M165.59 44.02C202.64 44.02 239.7 44.05 276.75 44C290.6 43.98 302.52 47.81 309.16 60.85C311.34 65.16 313 72.71 313.02 77.53C313.29 124.53 313.26 171.52 313.14 218.52C313.09 237.02 299.94 250.19 281.29 250.92C276.1 251.12 270.88 251.12 265.68 250.92C254.2 250.49 246.61 255.75 241.1 265.78C237.89 271.62 233.57 277.54 228.26 281.34C223.72 284.6 217.1 286.19 211.37 286.27C180.56 286.75 149.75 286.6 118.94 286.5C106.02 286.46 96.46 280.13 91.22 268.58C85.38 255.72 76.26 249.66 62.17 250.88C57.63 251.27 53.01 251.18 48.44 250.83C30.43 249.48 17.92 236.88 17.79 218.44C17.42 171.06 17.36 123.65 17.82 76.27C18.03 55.95 32.15 44.09 54.42 44.04C91.47 43.95 128.54 44.02 165.59 44.02ZM60.05 80.91C56.67 80.91 53.93 83.63 53.83 87.01C53.83 87.32 53.82 87.63 53.82 87.93C53.78 100.03 53.8 112.15 53.8 124.25C53.8 152.33 53.91 180.44 53.7 208.53C53.67 212.33 56.73 215.29 60.48 214.83C62.94 214.53 65.5 215.12 67.94 214.53C89.53 209.28 111.14 222.46 118.84 243.38C121.04 249.36 123.34 250.48 127.58 250.47C150.06 250.38 172.55 249.98 195 250.63C204.38 250.91 211.64 249.75 214.9 239.79C215.2 238.86 216.11 238.12 216.76 237.3C230.41 219.83 248.81 213.6 270.22 214.87C275.56 215.19 277.4 213.58 277.38 207.91C277.14 167.63 277.25 127.35 277.24 87.06C277.24 83.66 274.4 80.89 271.02 80.89L60.05 80.91Z" fill="#FFFFFF" fill-opacity="0.200000" fill-rule="nonzero"/>
		<path id="path" d="M105.83 155.19C105.83 162.47 105.93 169.76 105.81 177.04C105.67 184.87 100.33 189.89 92.29 190.03C83.18 190.18 77.47 185.54 77.35 177.21C77.15 162.23 77.15 147.25 77.39 132.26C77.51 124.27 83.5 119.17 91.79 119.27C99.9 119.37 105.68 124.81 105.81 132.72C105.93 140.21 105.83 147.7 105.83 155.19Z" fill="#FFFFFF" fill-opacity="0.200000" fill-rule="nonzero"/>
		<path id="path" d="M204.43 154.3C204.43 161.59 204.52 168.88 204.4 176.16C204.26 184.59 199.11 189.84 190.99 190.03C181.55 190.24 175.91 185.71 175.74 176.85C175.45 162.08 175.47 147.28 175.79 132.5C175.98 123.95 182.01 118.97 190.63 119.31C198.85 119.64 204.26 124.94 204.41 133.06C204.55 140.13 204.43 147.21 204.43 154.3Z" fill="#FFFFFF" fill-opacity="0.200000" fill-rule="nonzero"/>
		<path id="path" d="M253.39 155.03C253.39 162.13 253.48 169.22 253.37 176.32C253.23 185.18 248.16 190.04 239.3 190.04C230.47 190.04 224.98 185.03 224.91 176.51C224.8 162.1 224.8 147.71 224.91 133.31C224.97 124.85 230.65 119.37 239.11 119.27C247.64 119.17 253.24 124.52 253.38 133.11C253.49 140.41 253.41 147.73 253.39 155.03Z" fill="#FFFFFF" fill-opacity="0.200000" fill-rule="nonzero"/>
		<path id="path" d="M154.94 154.88C154.94 162.18 155.1 169.49 154.89 176.78C154.64 185.23 149.47 189.99 140.94 190.03C132.05 190.07 126.46 185.21 126.34 176.63C126.14 162.03 126.13 147.41 126.34 132.81C126.46 124.48 132.64 119.09 141.09 119.28C149.4 119.47 154.68 124.57 154.9 132.96C155.07 140.26 154.94 147.57 154.94 154.88Z" fill="#FFFFFF" fill-opacity="0.200000" fill-rule="nonzero"/>
	</g>
</svg>
