<?xml version="1.0" encoding="UTF-8"?>
<svg width="34px" height="34px" viewBox="0 0 34 34" version="1.1" xmlns="http://www.w3.org/2000/svg" xmlns:xlink="http://www.w3.org/1999/xlink">
    <title>Twitter (Square)@1x</title>
    <defs>
        <polygon id="path-1" points="0 0 34 0 34 34 0 34"></polygon>
    </defs>
    <g id="Twitter-(Square)" stroke="none" stroke-width="1" fill="none" fill-rule="evenodd">
        <g id="编组">
            <mask id="mask-2" fill="white">
                <use xlink:href="#path-1"></use>
            </mask>
            <g id="Clip-2"></g>
            <path d="M19.4026882,16.9427767 L33.4980358,2.90931539 C34.1644946,2.2455629 34.1679133,1.17010137 33.5046833,0.502927472 C32.8399338,-0.165576976 31.7672181,-0.167477756 31.1007593,0.496274741 L17.0016132,14.5312567 L3.02535076,0.501406848 C2.36383009,-0.162155572 1.28769568,-0.165576976 0.621046931,0.497985443 C-0.0438924572,1.16173794 -0.0454118845,2.23872009 0.617818148,2.90589399 L14.5906619,16.9323224 L0.501961814,30.9572302 C-0.164497002,31.6209827 -0.167915714,32.6962542 0.495314319,33.3636181 C0.814014203,33.6852302 1.24800064,33.8658043 1.70060005,33.8654241 C2.13420663,33.8654241 2.56800313,33.7006265 2.89942822,33.3702709 L16.991547,19.3419417 L31.0954413,33.499714 C31.4272463,33.833301 31.8625622,33.9999996 32.2992076,33.9999996 C32.7495279,34.0003796 33.1814251,33.8215161 33.4999351,33.5031354 C34.1644946,32.8391928 34.166204,31.7641115 33.5031639,31.0969376 L19.4026882,16.9427767 Z" id="Fill-1" fill="#F9FEFE" mask="url(#mask-2)"></path>
        </g>
    </g>
</svg>