<?xml version="1.0" encoding="UTF-8"?>
<svg width="202px" height="191px" viewBox="0 0 202 191" version="1.1" xmlns="http://www.w3.org/2000/svg" xmlns:xlink="http://www.w3.org/1999/xlink">
    <title>编组 3</title>
    <g id="R002【应用】【蓝区】设置功能增强需求文档(2.17已提供)" stroke="none" stroke-width="1" fill="none" fill-rule="evenodd" opacity="0.4">
        <g id="网络检测内网连接正常" transform="translate(-1459.000000, -164.000000)" fill="#666666" fill-rule="nonzero">
            <g id="notebook" transform="translate(1459.000000, 164.000000)">
                <path d="M193.879638,191 L8.12036158,191 C3.63560972,191 0,187.365241 0,182.881539 C0,178.397837 3.63560972,174.763078 8.12036158,174.763078 L193.879638,174.763078 C198.36439,174.763078 202,178.397837 202,182.881539 C202,187.365241 198.36439,191 193.879638,191 L193.879638,191 Z M185.807326,0 L16.2887726,0 C7.31926886,0 0.048049426,7.2695174 0.048049426,16.2369216 L0.048049426,142.193159 C0.048049426,151.160563 7.31926886,158.430081 16.2887726,158.430081 L185.807326,158.430081 C194.701682,158.324839 201.855852,151.086056 201.855852,142.193159 L201.855852,16.2369216 C201.855852,7.34402494 194.701682,0.10524135 185.807326,0 Z M185.807326,16.2369216 L185.807326,142.193159 L16.2887726,142.193159 L16.2887726,16.2369216 L185.807326,16.2369216 Z" id="形状"></path>
            </g>
        </g>
    </g>
</svg>