<?xml version="1.0" encoding="UTF-8"?>
<svg width="209px" height="197px" viewBox="0 0 209 197" version="1.1" xmlns="http://www.w3.org/2000/svg" xmlns:xlink="http://www.w3.org/1999/xlink">
    <title>互联网</title>
    <g id="R002【应用】【蓝区】设置功能增强需求文档(2.17已提供)" stroke="none" stroke-width="1" fill="none" fill-rule="evenodd">
        <g id="网络检测内网连接异常" transform="translate(-1461.000000, -737.000000)">
            <g id="互联网" transform="translate(1461.000000, 737.000000)">
                <g id="编组-5" fill="#666666" fill-rule="nonzero" opacity="0.4">
                    <g id="互联网">
                        <path d="M98.5,0 C126.08,0 149.72,10.5066667 168.106667,28.8933333 C185.18,47.28 197,70.92 197,98.5 C197,126.08 186.493333,149.72 168.106667,168.106667 C149.72,185.18 126.08,197 98.5,197 C70.92,197 47.28,186.493333 28.8933333,168.106667 C10.5066667,149.72 0,126.08 0,98.5 C0,70.92 10.5066667,47.28 28.8933333,28.8933333 C47.28,10.5066667 72.2333333,0 98.5,0 Z M85.3666667,15.76 C85.3666667,17.0733333 85.3666667,18.3866667 84.0533333,21.0133333 C82.74,30.2066667 80.1133333,42.0266667 74.86,47.28 C72.2333333,49.9066667 60.4133333,59.1 60.4133333,61.7266667 C60.4133333,63.04 63.04,63.04 73.5466667,63.04 C78.8,63.04 86.68,64.3533333 91.9333333,68.2933333 C95.8733333,70.92 99.8133333,73.5466667 102.44,77.4866667 C105.066667,81.4266667 106.38,86.68 105.066667,91.9333333 C105.066667,95.8733333 103.753333,98.5 99.8133333,102.44 C89.3066667,114.26 89.3066667,115.573333 89.3066667,122.14 C89.3066667,124.766667 90.62,127.393333 90.62,132.646667 L90.62,154.973333 C87.9933333,177.3 68.2933333,161.54 61.7266667,153.66 C53.8466667,145.78 47.28,135.273333 44.6533333,130.02 C44.6533333,128.706667 40.7133333,127.393333 38.0866667,126.08 C32.8333333,122.14 24.9533333,118.2 23.64,105.066667 C23.64,97.1866667 24.9533333,90.62 26.2666667,86.68 C26.2666667,84.0533333 28.8933333,84.0533333 27.58,84.0533333 C26.2666667,84.0533333 23.64,84.0533333 21.0133333,85.3666667 L15.76,85.3666667 C15.76,89.3066667 14.4466667,93.2466667 14.4466667,98.5 C14.4466667,122.14 23.64,141.84 39.4,157.6 C48.5933333,165.48 59.1,173.36 70.92,177.3 C77.4866667,175.986667 85.3666667,172.046667 91.9333333,170.733333 C107.693333,168.106667 122.14,165.48 137.9,170.733333 C144.466667,166.793333 151.033333,162.853333 156.286667,157.6 C160.226667,153.66 164.166667,148.406667 166.793333,144.466667 C162.853333,147.093333 160.226667,149.72 157.6,151.033333 C153.66,152.346667 149.72,153.66 147.093333,151.033333 C145.78,151.033333 145.78,149.72 145.78,149.72 C139.213333,141.84 141.84,131.333333 145.78,120.826667 C149.72,109.006667 153.66,97.1866667 139.213333,93.2466667 C136.586667,91.9333333 133.96,91.9333333 132.646667,90.62 C127.393333,87.9933333 122.14,82.74 119.513333,78.8 C112.946667,66.98 116.886667,60.4133333 124.766667,52.5333333 C126.08,51.22 127.393333,49.9066667 127.393333,48.5933333 C122.14,48.5933333 114.26,49.9066667 110.32,39.4 C110.32,38.0866667 109.006667,36.7733333 109.006667,34.1466667 C109.006667,24.9533333 105.066667,21.0133333 98.5,15.76 L85.3666667,15.76 Z M18.3866667,76.1733333 C23.64,74.86 27.58,73.5466667 31.52,76.1733333 C39.4,78.8 38.0866667,82.74 35.46,90.62 C34.1466667,93.2466667 32.8333333,98.5 32.8333333,105.066667 C32.8333333,112.946667 38.0866667,115.573333 43.34,116.886667 C48.5933333,119.513333 52.5333333,120.826667 53.8466667,126.08 C55.16,130.02 61.7266667,139.213333 68.2933333,147.093333 C69.6066667,149.72 80.1133333,161.54 81.4266667,153.66 L81.4266667,140.526667 L81.4266667,132.646667 C81.4266667,128.706667 81.4266667,124.766667 80.1133333,123.453333 C80.1133333,114.26 80.1133333,111.633333 93.2466667,97.1866667 C95.8733333,94.56 97.1866667,91.9333333 97.1866667,90.62 C98.5,87.9933333 97.1866667,85.3666667 95.8733333,82.74 C94.56,80.1133333 90.62,77.4866667 87.9933333,74.86 C82.74,72.2333333 77.4866667,70.92 73.5466667,70.92 C56.4733333,70.92 51.22,70.92 51.22,61.7266667 C51.22,53.8466667 63.04,47.28 68.2933333,40.7133333 C72.2333333,38.0866667 73.5466667,27.58 74.86,19.7 L74.86,18.3866667 C61.7266667,22.3266667 48.5933333,28.8933333 39.4,39.4 C30.2066667,49.9066667 22.3266667,61.7266667 18.3866667,76.1733333 L18.3866667,76.1733333 Z M124.766667,177.3 C114.26,175.986667 103.753333,178.613333 93.2466667,179.926667 C91.9333333,179.926667 90.62,181.24 89.3066667,181.24 L98.5,181.24 C107.693333,181.24 116.886667,179.926667 124.766667,177.3 L124.766667,177.3 Z M178.613333,115.573333 L179.926667,114.26 C181.24,109.006667 181.24,103.753333 181.24,98.5 C181.24,76.1733333 172.046667,55.16 156.286667,39.4 C145.78,27.58 130.02,19.7 111.633333,15.76 C115.573333,21.0133333 118.2,26.2666667 119.513333,32.8333333 L119.513333,35.46 C120.826667,39.4 124.766667,39.4 127.393333,38.0866667 C132.646667,38.0866667 136.586667,38.0866667 137.9,43.34 C139.213333,48.5933333 135.273333,52.5333333 131.333333,57.7866667 C127.393333,63.04 123.453333,65.6666667 127.393333,72.2333333 C130.02,74.86 132.646667,78.8 136.586667,81.4266667 C137.9,82.74 140.526667,82.74 141.84,84.0533333 C165.48,90.62 160.226667,107.693333 154.973333,123.453333 C152.346667,131.333333 149.72,139.213333 152.346667,143.153333 L154.973333,141.84 C157.6,140.526667 160.226667,139.213333 162.853333,136.586667 C168.106667,131.333333 174.673333,124.766667 178.613333,115.573333 L178.613333,115.573333 Z" id="形状"></path>
                    </g>
                </g>
                <path d="M171,148 C171,158.493346 179.506615,167 189.999913,167 C200.493385,167 209,158.493346 209,148 C209,137.50648 200.493385,129 189.999913,129 C179.506615,129 171,137.50648 171,148" id="Fill-3" fill="#F5222D"></path>
                <path d="M189.046317,145.312688 L195.864078,138.730665 C196.50952,138.106734 197.538388,138.124332 198.162143,138.769594 L198.544147,139.166172 C199.167547,139.811967 199.149238,140.84083 198.50344,141.464228 L191.687279,148.046251 L198.26951,154.863982 C198.893265,155.509421 198.875845,156.538285 198.23058,157.162037 L197.834001,157.544217 C197.188025,158.167437 196.159157,158.149305 195.535757,157.503511 L188.953704,150.687202 L182.137543,157.269403 C181.492101,157.893156 180.463233,157.875736 179.839477,157.230474 L179.455874,156.833718 C178.832474,156.188101 178.850783,155.159238 179.496403,154.535841 L186.312742,147.953639 L179.730511,141.137508 C179.106755,140.492069 179.124176,139.463206 179.76944,138.839453 L180.16602,138.455851 C180.811818,137.832454 181.840686,137.850763 182.464086,138.496558 L182.464264,138.496558 L189.046317,145.312688 Z" id="Fill-5" fill="#FFFFFF"></path>
            </g>
        </g>
    </g>
</svg>