<?xml version="1.0" encoding="UTF-8"?>
<svg width="184px" height="152px" viewBox="0 0 184 152" version="1.1" xmlns="http://www.w3.org/2000/svg" xmlns:xlink="http://www.w3.org/1999/xlink">
    <title>编组 4</title>
    <g id="R002【应用】【蓝区】设置功能增强需求文档(2.17已提供)" stroke="none" stroke-width="1" fill="none" fill-rule="evenodd" opacity="0.4">
        <g id="网络检测内网连接正常" transform="translate(-1468.000000, -474.000000)" fill="#666666" fill-rule="nonzero">
            <g id="路由器" transform="translate(1468.000000, 474.000000)">
                <polygon id="路径" points="59 60 125 60 125 70 59 70"></polygon>
                <path d="M170.857143,59.8787879 L151.142857,59.8787879 L151.142857,69.7489177 L164.285714,69.7489177 L170.2,84.8831169 L144.571429,84.8831169 L144.571429,0 L131.428571,0 L131.428571,84.8831169 L52.5714286,84.8831169 L52.5714286,0 L39.4285714,0 L39.4285714,84.8831169 L13.8,84.8831169 L19.7142857,69.7489177 L32.8571429,69.7489177 L32.8571429,59.8787879 L13.8,59.8787879 L0,84.8831169 L0,152 L184,152 L184,84.8831169 L170.857143,59.8787879 Z M170.857143,138.181818 L13.1428571,138.181818 L13.1428571,98.7012987 L170.857143,98.7012987 L170.857143,138.181818 Z" id="形状"></path>
                <path d="M144.8,112 L158,112 L158,125 L144.8,125 L144.8,112 Z M118.4,112 L131.6,112 L131.6,125 L118.4,125 L118.4,112 Z M92,112 L105.2,112 L105.2,125 L92,125 L92,112 Z" id="形状"></path>
            </g>
        </g>
    </g>
</svg>