<?xml version="1.0" encoding="UTF-8"?>
<svg width="202px" height="171px" viewBox="0 0 202 171" version="1.1" xmlns="http://www.w3.org/2000/svg" xmlns:xlink="http://www.w3.org/1999/xlink">
    <title>路由器</title>
    <g id="R002【应用】【蓝区】设置功能增强需求文档(2.17已提供)" stroke="none" stroke-width="1" fill="none" fill-rule="evenodd">
        <g id="网络检测内网连接异常" transform="translate(-1468.000000, -474.000000)">
            <g id="路由器" transform="translate(1468.000000, 474.000000)">
                <g id="编组-4" fill="#666666" fill-rule="nonzero" opacity="0.4">
                    <g id="路由器">
                        <polygon id="路径" points="59 60 125 60 125 70 59 70"></polygon>
                        <path d="M170.857143,59.8787879 L151.142857,59.8787879 L151.142857,69.7489177 L164.285714,69.7489177 L170.2,84.8831169 L144.571429,84.8831169 L144.571429,0 L131.428571,0 L131.428571,84.8831169 L52.5714286,84.8831169 L52.5714286,0 L39.4285714,0 L39.4285714,84.8831169 L13.8,84.8831169 L19.7142857,69.7489177 L32.8571429,69.7489177 L32.8571429,59.8787879 L13.8,59.8787879 L0,84.8831169 L0,152 L184,152 L184,84.8831169 L170.857143,59.8787879 Z M170.857143,138.181818 L13.1428571,138.181818 L13.1428571,98.7012987 L170.857143,98.7012987 L170.857143,138.181818 Z" id="形状"></path>
                        <path d="M144.8,112 L158,112 L158,125 L144.8,125 L144.8,112 Z M118.4,112 L131.6,112 L131.6,125 L118.4,125 L118.4,112 Z M92,112 L105.2,112 L105.2,125 L92,125 L92,112 Z" id="形状"></path>
                    </g>
                </g>
                <g id="编组" transform="translate(164.000000, 133.000000)">
                    <path d="M0,19 C0,29.4933463 8.5066149,38 18.9999134,38 C29.4933851,38 38,29.4933463 38,19 C38,8.50648049 29.4933851,0 18.9999134,0 C8.5066149,0 0,8.50648049 0,19" id="Fill-3" fill="#F5222D"></path>
                    <path d="M19.0463165,16.3126885 L25.8640775,9.7306649 C26.5095197,9.10673429 27.5383877,9.12433233 28.1621433,9.76959391 L28.544147,10.166172 C29.1675471,10.8119669 29.1492379,11.8408302 28.5034402,12.4642276 L21.687279,19.0462512 L28.2695096,25.8639819 C28.8932652,26.5094212 28.8758449,27.5382846 28.2305804,28.1620374 L27.8340005,28.5442171 C27.1880251,29.1674367 26.1591571,29.1493054 25.535757,28.5035106 L18.9537042,21.6872019 L12.137543,28.2694033 C11.4921008,28.8931561 10.4632329,28.8757358 9.83947724,28.2304743 L9.45587375,27.8337184 C8.83247364,27.1881013 8.8507828,26.1592379 9.49640276,25.5358406 L16.3127417,18.9536392 L9.7305111,12.1375084 C9.10675547,11.492069 9.12417583,10.4632057 9.76944028,9.83945281 L10.1660202,9.45585102 C10.8118179,8.83245368 11.8406858,8.85076276 12.4640859,9.4965576 L12.4642637,9.4965576 L19.0463165,16.3126885 Z" id="Fill-5" fill="#FFFFFF"></path>
                </g>
            </g>
        </g>
    </g>
</svg>