<?xml version="1.0" encoding="UTF-8"?>
<svg width="242px" height="195px" viewBox="0 0 242 195" version="1.1" xmlns="http://www.w3.org/2000/svg" xmlns:xlink="http://www.w3.org/1999/xlink">
    <title>编组</title>
    <g id="R002-设置功能增强需求文档(2.17已提供)" stroke="none" stroke-width="1" fill="none" fill-rule="evenodd" opacity="0.86">
        <g id="网络未连接状态" transform="translate(-839.000000, -351.000000)" fill="#FFFFFF" fill-rule="nonzero">
            <g id="编组" transform="translate(839.000000, 351.000000)">
                <g id="无网络" transform="translate(0.000000, 0.000000)">
                    <path d="M121,160.295472 C130.557822,160.295472 138.305967,168.020688 138.305967,177.550226 C138.305967,187.079763 130.557822,194.804979 121,194.804979 C111.442178,194.804979 103.694033,187.079763 103.694033,177.550226 C103.694033,168.020688 111.442178,160.295472 121,160.295472 Z M238.761339,48.6342085 C243.133658,53.1478094 243.071128,60.322403 238.620797,64.7595638 C234.170466,69.1967245 226.974578,69.2590703 222.44758,64.8996898 C179.644155,22.2229323 116.523523,12.1519076 64.1268228,34.6808645 L90.6280274,60.2524096 C128.418491,49.7040035 170.673895,59.2516338 200.405547,88.8953008 C204.910467,93.3900659 204.907884,100.674945 200.399778,105.166533 C195.891672,109.658122 188.585171,109.655547 184.080251,105.160782 C164.833804,85.9370509 137.821014,76.5539929 110.760636,79.6927653 L180.942102,147.429177 C185.394389,151.710982 185.667459,158.731836 181.561115,163.344553 C177.454772,167.957271 170.430441,168.520209 165.637858,164.620663 L164.893702,163.959231 L147.09163,146.796503 C146.498189,146.390491 145.943931,145.930297 145.436026,145.421874 C138.420147,138.425498 128.903815,134.494869 118.980971,134.494869 C109.058126,134.494869 99.5417944,138.425498 92.5259152,145.421874 C87.9989176,149.781255 80.8030292,149.718909 76.3526985,145.281748 C71.9023679,140.844587 71.8398371,133.669994 76.2121566,129.156393 C85.6097452,119.755744 97.8664196,113.724423 111.066375,112.005168 L84.8478343,86.7096985 C75.0757313,91.023387 65.9266434,97.1775826 57.9139806,105.160782 C53.3869824,109.520159 46.191097,109.457811 41.7407679,105.020652 C37.2904387,100.583493 37.2279062,93.4089022 41.600222,88.8953008 C49.1866493,81.3177294 57.8236974,74.8639553 67.2476655,69.7310209 L42.7770277,46.1035115 C34.4022921,51.5484077 26.618808,57.84775 19.5524196,64.8996898 C15.025422,69.2590703 7.82953357,69.1967245 3.37920295,64.7595638 C-1.07112767,60.322403 -1.13365847,53.1478094 3.23866101,48.6342085 C10.1992529,41.6883167 17.7604649,35.3677813 25.8344858,29.7460049 L20.6773075,24.7708841 C16.2250217,20.489079 15.9519532,13.4682256 20.0582961,8.85550911 C24.164639,4.2427926 31.1889685,3.67985331 35.9815512,7.57939787 L36.7257078,8.24083 L46.376669,17.5526455 C108.764681,-13.6266945 186.704989,-3.26809074 238.761339,48.6342085 L238.761339,48.6342085 Z" id="形状"></path>
                </g>
            </g>
        </g>
    </g>
</svg>