<svg width="96.000000" height="96.000000" viewBox="0 0 96 96" fill="none" xmlns="http://www.w3.org/2000/svg" xmlns:xlink="http://www.w3.org/1999/xlink">
	<desc>
			Created with Pixso.
	</desc>
	<defs>
		<clipPath id="clip487_54369">
			<rect id="属性 1=组件集 61" rx="48.000000" width="96.000000" height="96.000000" fill="white" fill-opacity="0"/>
		</clipPath>
	</defs>
	<rect id="属性 1=组件集 61" rx="48.000000" width="96.000000" height="96.000000" fill="#FFFFFF" fill-opacity="0.200000"/>
	<g clip-path="url(#clip487_54369)">
		<path id="path" d="M54.15 59.12C52.1 59.5 49.98 59.7 47.83 59.7C37.6 59.67 27.73 55.05 24.95 50.72C23.85 49 24.33 48 24.48 47.67C25.98 44.42 29.13 41.02 33.63 38.6L30.85 35.82C25.63 38.95 22.43 43.1 21.05 46.12C20.4 47.57 19.98 49.9 21.8 52.75C25.63 58.72 37.03 63.42 47.75 63.45C50.93 63.45 54.25 63.02 57.33 62.3L54.15 59.12ZM74.45 46.1C71.03 38.8 61.45 31.42 47.75 31.42C44.23 31.42 41.08 31.87 38.28 32.65L41.43 35.8C43.4 35.4 45.53 35.17 47.75 35.17C54.63 35.17 59.93 37.15 63.75 39.7C67.58 42.25 69.98 45.37 71.08 47.7C71.23 48.02 71.7 49.02 70.58 50.77C69.25 52.9 66.25 55.05 62.33 56.7L65.18 59.55C69 57.72 72.08 55.37 73.75 52.77C74.73 51.25 75.05 49.9 75.05 48.72C75.05 47.67 74.78 46.8 74.45 46.1Z" fill="#FFFFFF" fill-opacity="0.860000" fill-rule="nonzero"/>
		<path id="path" d="M48.08 53.05L47.78 53.05C44.68 53.05 42.15 50.52 42.15 47.42C42.15 47.32 42.15 47.25 42.18 47.15L39.05 44.02C38.63 45.07 38.4 46.22 38.4 47.42C38.4 52.6 42.6 56.8 47.78 56.8C48.98 56.8 50.13 56.57 51.18 56.15L48.08 53.05ZM47.78 38.05C46.55 38.05 45.4 38.27 44.35 38.72L47.45 41.82C47.45 41.82 47.68 41.8 47.78 41.8C50.88 41.8 53.4 44.32 53.4 47.42C53.4 47.52 53.4 47.65 53.38 47.75L56.5 50.87C56.93 49.8 57.15 48.65 57.15 47.42C57.15 42.27 52.95 38.05 47.78 38.05Z" fill="#FFFFFF" fill-opacity="0.860000" fill-rule="nonzero"/>
		<path id="path" d="M66.85 66.55C66.6 66.8 66.28 66.93 65.98 66.93C65.67 66.93 65.38 66.83 65.15 66.6L60.08 61.55L57.03 58.5L53.42 54.9L50.73 52.2L36 37.48L33.1 34.58L28.65 30.13C28.2 29.63 28.17 28.83 28.65 28.35C29.13 27.88 29.92 27.88 30.42 28.35L38.6 36.53L42.08 40L52.53 50.45L55.17 53.13L62.67 60.63L66.85 64.8C67.33 65.28 67.33 66.08 66.85 66.55Z" fill="#FFFFFF" fill-opacity="0.860000" fill-rule="nonzero"/>
	</g>
</svg>
