<svg width="96.000000" height="96.000000" viewBox="0 0 96 96" fill="none" xmlns="http://www.w3.org/2000/svg" xmlns:xlink="http://www.w3.org/1999/xlink">
	<desc>
			Created with Pixso.
	</desc>
	<defs>
		<clipPath id="clip487_54393">
			<rect id="属性 1=组件集 63" rx="48.000000" width="96.000000" height="96.000000" fill="white" fill-opacity="0"/>
		</clipPath>
	</defs>
	<rect id="属性 1=组件集 63" rx="48.000000" width="96.000000" height="96.000000" fill="#FFFFFF" fill-opacity="0.860000"/>
	<g clip-path="url(#clip487_54393)">
		<path id="path" d="M47.83 65.05C37.11 65.05 25.63 60.32 21.81 54.34C19.98 51.5 20.38 49.17 21.06 47.69C23.56 42.25 31.98 33 47.76 33C61.46 33 71.03 40.37 74.46 47.67C75.13 49.15 75.58 51.5 73.76 54.37C69.93 60.34 58.56 65.05 47.83 65.05ZM47.76 36.77C35.68 36.77 27.21 43.25 24.46 49.27C24.31 49.59 23.86 50.59 24.96 52.32C27.73 56.65 37.56 61.27 47.76 61.3C57.96 61.3 67.83 56.69 70.58 52.37C71.68 50.62 71.21 49.62 71.06 49.3C68.88 44.65 61.53 36.77 47.76 36.77Z" fill="#000000" fill-opacity="0.860000" fill-rule="nonzero"/>
		<path id="path" d="M47.76 58.42C42.58 58.42 38.38 54.22 38.38 49.05C38.38 43.87 42.58 39.67 47.76 39.67C52.93 39.67 57.13 43.87 57.13 49.05C57.13 54.22 52.93 58.42 47.76 58.42ZM47.76 43.42C44.66 43.42 42.13 45.95 42.13 49.05C42.13 52.15 44.66 54.67 47.76 54.67C50.86 54.67 53.38 52.15 53.38 49.05C53.38 45.95 50.86 43.42 47.76 43.42Z" fill="#000000" fill-opacity="0.860000" fill-rule="nonzero"/>
	</g>
</svg>
