<svg viewBox="0 0 330 330" xmlns="http://www.w3.org/2000/svg" xmlns:xlink="http://www.w3.org/1999/xlink" width="330.000000" height="330.000000" fill="none">
	<rect id="待机模式" width="330.000000" height="330.000031" x="0.000000" y="0.000000" />
	<path id="合并" d="M270.207 258.26L235.836 258.26C229.406 258.26 224.102 252.943 224.102 246.499C224.102 240.081 229.406 234.764 235.836 234.764L270.207 234.764C285.209 234.764 297.559 222.385 297.559 207.348L297.559 78.9123C297.559 63.8749 285.209 51.4959 270.207 51.4959L60.793 51.4959C45.7909 51.4959 33.4409 63.8749 33.4409 78.9123L33.4409 207.348C33.4409 222.385 45.7909 234.764 60.793 234.764L95.1908 234.764C101.594 234.764 106.898 240.081 106.898 246.499C106.898 252.943 101.594 258.26 95.1908 258.26L60.793 258.26C32.8247 258.26 10 235.382 10 207.348L10 78.9123C10 50.8783 32.8247 28 60.793 28L270.207 28C298.175 28 321 50.8783 321 78.9123L321 207.348C321 235.382 298.175 258.26 270.207 258.26ZM272.216 81.4356C272.377 81.1133 273.475 79.717 273.636 79.3948C273.636 78.9114 274.091 77.5151 274.091 77.0586C274.091 76.5753 273.931 75.1521 273.636 74.6956C273.475 74.3734 272.538 72.8159 272.377 72.6548C272.056 72.4937 270.662 71.3927 270.341 71.2585C269.886 71.0974 268.466 70.7751 267.85 70.7751L214.565 70.7751C211.109 70.7751 208.296 73.5946 208.296 77.0586C208.296 80.4957 211.109 83.3152 214.565 83.3152L252.07 83.3152L208.618 124.346C206.126 126.709 205.966 130.602 208.296 133.288C209.1 134.066 210.038 134.523 210.975 134.845C211.913 135.302 212.851 135.785 214.083 135.785L267.367 135.785C270.823 135.785 273.636 132.965 273.636 129.528C273.636 126.064 270.823 123.245 267.367 123.245L228.147 123.245L272.216 81.4356ZM190.48 155.521C190.641 155.199 191.739 153.776 191.9 153.48C191.9 152.997 192.355 151.601 192.355 151.117C192.355 150.661 192.221 149.238 191.9 148.781C191.739 148.459 190.802 146.901 190.641 146.74C190.346 146.579 188.926 145.317 188.605 145.317C188.149 145.317 186.73 144.861 186.274 144.861L146.117 144.861C142.661 144.861 139.848 147.68 139.848 151.117C139.848 154.581 142.661 157.374 146.117 157.374L170.495 157.374L140.652 185.73C138.133 188.093 137.973 192.014 140.33 194.672C141.107 195.451 141.884 195.934 142.821 196.229C143.759 196.713 144.697 197.035 145.795 197.035L185.953 197.035C189.409 197.035 192.221 194.189 192.221 190.752C192.221 187.314 189.409 184.495 185.953 184.495L160.181 184.495L190.48 155.521ZM152.68 228.991L113.782 274.103C104.405 285.059 112.067 301.976 126.587 301.976L204.25 301.976C218.636 301.976 226.459 285.059 217.082 274.103L178.157 228.991C171.433 221.15 159.404 221.15 152.68 228.991Z" fill="rgb(255,255,255)" fill-opacity="0.200000003" fill-rule="evenodd" />
</svg>
