<svg viewBox="0 0 330 330" xmlns="http://www.w3.org/2000/svg" xmlns:xlink="http://www.w3.org/1999/xlink" width="330.000000" height="330.000000" fill="none">
	<rect id="待机" width="330.000000" height="330.000031" x="0.000000" y="0.000000" />
	<path id="Fill-1" d="M0 330L330 330L330 0L0 0L0 330Z" fill="rgb(0,0,0)" fill-opacity="0" fill-rule="nonzero" />
	<path id="合并" d="M307.062 121.625L307.062 121.625C304.598 114.133 301.519 106.842 297.828 99.754C295.16 94.6321 289.039 92.7038 283.918 95.3714C278.796 98.0391 276.867 104.16 279.535 109.281C282.712 115.381 285.36 121.655 287.479 128.102L287.479 128.103L287.482 128.11C289.548 134.399 291.111 140.852 292.171 147.472C293.14 153.52 293.668 159.575 293.757 165.637L293.757 165.638C293.86 172.701 293.366 179.774 292.274 186.855C291.193 193.862 289.557 200.686 287.365 207.327L287.365 207.327C285.442 213.153 283.091 218.838 280.313 224.382C277.307 230.379 273.871 236.068 270.005 241.447L269.989 241.469C266.035 246.97 261.631 252.147 256.777 257.001C250.613 263.164 243.962 268.582 236.823 273.254L236.813 273.26C230.012 277.711 222.767 281.485 215.08 284.582C208.327 287.303 201.443 289.421 194.429 290.936L194.416 290.938L194.415 290.939C185.617 292.837 176.614 293.787 167.406 293.786C158.198 293.786 149.194 292.837 140.396 290.938L140.395 290.938C133.377 289.424 126.49 287.305 119.732 284.582C112.042 281.484 104.795 277.708 97.9907 273.255L97.9902 273.255C90.8508 268.582 84.1993 263.164 78.0358 257.001C71.8731 250.838 66.4557 244.188 61.7837 237.049C57.3299 230.244 53.5534 222.996 50.4543 215.304C47.7322 208.548 45.6139 201.662 44.0993 194.646L44.0981 194.64C42.1994 185.842 41.25 176.838 41.25 167.63C41.25 158.422 42.1994 149.419 44.0982 140.62L44.0982 140.62C45.6129 133.602 47.7315 126.714 50.4543 119.956C53.5533 112.265 57.3296 105.017 61.7831 98.2122L61.7833 98.212C66.4554 91.0734 71.8729 84.4227 78.0358 78.2598C82.8334 73.4622 87.948 69.1039 93.3796 65.1849L93.3799 65.1847L93.3802 65.1845C98.894 61.2062 104.734 57.6807 110.902 54.6079C116.467 51.8348 122.173 49.4915 128.02 47.578C134.741 45.3786 141.648 43.747 148.74 42.6834C155.968 41.5994 163.182 41.1363 170.383 41.2939L170.384 41.2939L170.385 41.294C176.403 41.4258 182.412 41.9913 188.41 42.9903C195.178 44.1175 201.768 45.7704 208.179 47.9492C214.553 50.1155 220.751 52.8017 226.772 56.0078C231.869 58.722 238.007 56.8495 240.721 51.7521C243.435 46.6546 241.563 40.5169 236.466 37.8027C229.452 34.0684 222.233 30.9398 214.808 28.4168L214.807 28.4163L214.796 28.4125C207.338 25.8791 199.672 23.9568 191.799 22.6456C184.726 21.4677 177.643 20.8079 170.55 20.6663C162.274 20.5012 153.985 21.0412 145.681 22.2865C137.515 23.5112 129.56 25.3843 121.816 27.9058L121.815 27.9059C114.945 30.1428 108.241 32.89 101.704 36.1475C94.5336 39.7199 87.7431 43.8182 81.3317 48.4423L81.3316 48.4424L81.3314 48.4426C75.0018 53.0078 69.0419 58.0855 63.4517 63.6757C56.2976 70.8298 50.0056 78.5491 44.5757 86.8333L44.5753 86.834C39.364 94.7849 34.9468 103.256 31.3238 112.248C28.1031 120.241 25.6095 128.39 23.8431 136.692C21.6977 146.777 20.625 157.089 20.625 167.63C20.625 178.171 21.6977 188.483 23.843 198.567L23.8431 198.568C25.6095 206.871 28.1031 215.019 31.3238 223.012C34.9464 232.003 39.363 240.474 44.5735 248.424L44.5755 248.427C50.0054 256.711 56.2975 264.431 63.4517 271.585C70.6019 278.735 78.3167 285.024 86.5959 290.452L86.6104 290.462C94.5612 295.673 103.032 300.09 112.024 303.713C120.018 306.933 128.166 309.427 136.469 311.193C146.553 313.339 156.866 314.411 167.406 314.411C177.945 314.411 188.255 313.339 198.337 311.195L198.343 311.194C206.646 309.427 214.795 306.934 222.788 303.713C231.78 300.09 240.251 295.673 248.201 290.462L248.203 290.461C256.487 285.031 264.207 278.739 271.361 271.585C277.005 265.94 282.127 259.92 286.727 253.524L286.728 253.522L286.73 253.52C291.239 247.249 295.246 240.617 298.751 233.623C302.01 227.12 304.763 220.451 307.01 213.616L307.018 213.591C309.533 205.936 311.413 198.072 312.658 189.999C313.913 181.857 314.489 173.724 314.385 165.6L314.385 165.578L314.385 165.577C314.292 158.448 313.676 151.326 312.537 144.21C311.3 136.488 309.475 128.96 307.062 121.625ZM175.656 166.285L175.656 89.3927C175.656 83.6177 171.119 79.0802 165.344 79.0802C159.569 79.0802 155.031 83.6177 155.031 89.3927L155.031 171.533C154.715 175.399 156.622 179.224 160.274 181.285L231.636 221.573C236.665 224.412 242.847 222.691 245.686 217.663C248.526 212.634 246.805 206.452 241.776 203.612L175.656 166.285Z" fill="rgb(255,255,255)" fill-opacity="0.200000003" fill-rule="evenodd" />
</svg>
