<svg viewBox="0 0 330 330" xmlns="http://www.w3.org/2000/svg" xmlns:xlink="http://www.w3.org/1999/xlink" width="330.000000" height="330.000000" fill="none">
	<rect id="开机模式" width="330.000000" height="330.000031" x="0.000000" y="0.000000" />
	<path id="合并" d="M153.504 152.256C153.504 158.839 158.904 164.264 165.487 164.264C172.095 164.264 177.495 158.839 177.495 152.256L177.495 26.2584C177.495 19.6499 172.095 14.25 165.487 14.25C158.904 14.25 153.504 19.6499 153.504 26.2584L153.504 152.256ZM15.5 164.261C15.5 246.905 82.8438 314.25 165.513 314.25C248.156 314.25 315.5 246.905 315.5 164.261C315.5 110.854 286.701 61.046 240.494 34.355C234.811 30.9094 227.457 32.9922 224.14 38.7007C220.848 44.4091 222.803 51.7633 228.511 55.0546C267.339 77.5542 291.509 119.262 291.509 164.107C291.509 233.534 234.939 290.105 165.513 290.105C96.0606 290.105 39.5165 233.534 39.5165 164.107C39.5165 119.391 63.6615 77.5542 102.515 55.0546C108.197 51.7633 110.152 44.4091 106.86 38.7007C103.543 32.9922 96.1891 31.0379 90.5064 34.355C44.2992 61.046 15.5 110.854 15.5 164.261Z" fill="rgb(255,255,255)" fill-opacity="0.200000003" fill-rule="evenodd" />
</svg>
