<?xml version="1.0" encoding="UTF-8"?>
<svg width="170px" height="300px" viewBox="0 0 170 300" version="1.1" xmlns="http://www.w3.org/2000/svg" xmlns:xlink="http://www.w3.org/1999/xlink">
    <title>U盘</title>
    <g id="R002【应用】【蓝区】设置功能增强需求文档(2.17)" stroke="none" stroke-width="1" fill="none" fill-rule="evenodd" opacity="0.3">
        <g id="U盘本地升级" transform="translate(-1382.000000, -390.000000)" fill="#FFFFFF" fill-opacity="0.200000">
            <g id="U盘" transform="translate(1382.000000, 390.000000)">
                <g transform="translate(0.000000, 0.000000)">
                    <path d="M21.9641302,0 L21.9641302,65.8830098 L4.76096801e-15,65.8830098 L4.76096801e-15,300 L169.226989,300 L169.226989,65.8830098 L147.262859,65.8830098 L147.262859,0 L21.9641302,0 Z M45.0807406,65.8830098 L124.146249,65.8830098 L124.146249,23.1206307 L45.0807406,23.1206307 L45.0807406,65.8830098 Z M23.1139303,276.879369 L146.114399,276.879369 L146.114399,88.9996203 L23.1139303,88.9996203 L23.1139303,276.879369 Z" id="Fill-1"></path>
                    <path d="M38.0654859,242.054497 L130.27061,242.054497 L130.27061,218.937887 L38.0654859,218.937887 L38.0654859,242.054497 Z M95.1199607,50.9759453 L113.130815,50.9759453 L113.130815,37.7130413 L95.1199607,37.7130413 L95.1199607,50.9759453 Z M56.0964421,50.9759453 L74.1072968,50.9759453 L74.1072968,37.7130413 L56.0964421,37.7130413 L56.0964421,50.9759453 Z" id="Fill-2"></path>
                </g>
            </g>
        </g>
    </g>
</svg>