<svg width="160.000000" height="160.000000" viewBox="0 0 160 160" fill="none" xmlns="http://www.w3.org/2000/svg" xmlns:xlink="http://www.w3.org/1999/xlink">
	<desc>
			Created with Pixso.
	</desc>
	<defs/>
	<circle id="椭圆 207" cx="80.000000" cy="80.000000" r="80.000000" fill="#FFFFFF" fill-opacity="0.200000"/>
	<path id="椭圆 212" d="M74.69 42.24Q86.57 40.61 96.13 47.82Q105.7 55.03 107.33 66.86L104.36 67.27Q102.89 56.67 94.33 50.21Q85.75 43.75 75.1 45.21L74.69 42.24ZM75.11 45.19L75.1 45.21C74.26 45.33 73.52 44.76 73.41 43.93C73.29 43.1 73.85 42.35 74.69 42.24L74.71 42.26L75.11 45.19ZM107.31 66.84L107.33 66.86C107.45 67.69 106.89 68.44 106.05 68.55C105.22 68.66 104.48 68.1 104.36 67.27L104.38 67.25L107.31 66.84Z" fill="#FFFFFF" fill-opacity="0.860000" fill-rule="evenodd"/>
	<path id="椭圆 213" d="M75.88 50.85Q77.92 50.57 79.97 50.71Q81.96 50.83 83.89 51.35Q85.79 51.86 87.55 52.72Q89.3 53.58 90.85 54.75Q92.41 55.92 93.71 57.36Q95.02 58.82 96.02 60.5Q97.05 62.21 97.71 64.08Q98.39 66.01 98.68 68.05L95.7 68.46Q95.46 66.72 94.88 65.08Q94.32 63.49 93.45 62.04Q92.6 60.61 91.48 59.37Q90.37 58.14 89.05 57.14Q87.72 56.14 86.23 55.42Q84.73 54.68 83.12 54.25Q81.48 53.81 79.78 53.7Q78.04 53.59 76.29 53.83L75.88 50.85ZM76.31 53.8L76.29 53.83C75.46 53.94 74.71 53.37 74.6 52.54C74.48 51.71 75.05 50.97 75.88 50.85L75.9 50.87L76.31 53.8ZM98.65 68.03L98.68 68.05C98.79 68.88 98.23 69.62 97.4 69.74C96.56 69.85 95.82 69.29 95.7 68.46L95.72 68.43L98.65 68.03Z" fill="#FFFFFF" fill-opacity="0.860000" fill-rule="evenodd"/>
	<path id="合并" d="M64.9077 101.042C47.0425 90.7803 40.1985 68.8188 48.5073 50.5005C49.4194 48.4893 51.8918 47.8394 53.8076 48.9399L115.809 84.5557C117.725 85.6562 118.395 88.1118 117.101 89.9033C105.311 106.222 82.7729 111.305 64.9077 101.042ZM64.6116 106.837C63.6077 106.261 62.6384 105.647 61.7048 104.999L56.9797 113.142C55.4324 115.809 57.3562 119.149 60.4395 119.149L77.187 119.149C80.27 119.149 82.1941 115.809 80.6465 113.142L79.9192 111.889C74.6777 111.285 69.4717 109.629 64.6116 106.837Z" clip-rule="evenodd" fill="#FFFFFF" fill-opacity="0.860000" fill-rule="evenodd"/>
</svg>
