<svg width="176.000000" height="176.000000" viewBox="0 0 176 176" fill="none" xmlns="http://www.w3.org/2000/svg" xmlns:xlink="http://www.w3.org/1999/xlink">
	<desc>
			Created with Pixso.
	</desc>
	<defs/>
	<circle id="椭圆 207" cx="88.000000" cy="88.000000" r="80.000000" fill="#FFFFFF" fill-opacity="0.860000"/>
	<path id="椭圆 212 (边框)" d="M82.69 50.24C86.68 49.69 90.47 49.89 94.07 50.84C97.62 51.78 100.97 53.44 104.13 55.82C110.51 60.63 114.24 66.97 115.33 74.86C115.45 75.69 114.89 76.44 114.05 76.55C113.22 76.66 112.48 76.1 112.36 75.27C111.88 71.77 110.81 68.61 109.16 65.78C107.49 62.91 105.21 60.39 102.33 58.21C99.49 56.08 96.49 54.59 93.32 53.75C90.09 52.9 86.68 52.72 83.1 53.21C82.27 53.33 81.52 52.76 81.41 51.93C81.29 51.1 81.85 50.35 82.69 50.24Z" fill="#000000" fill-opacity="0.860000" fill-rule="evenodd"/>
	<path id="椭圆 213 (边框)" d="M83.88 58.85C84.85 58.72 85.82 58.66 86.78 58.66C87.18 58.67 87.57 58.68 87.97 58.71C88.66 58.75 89.34 58.83 90.01 58.94C90.64 59.05 91.27 59.18 91.89 59.35C92.46 59.5 93.02 59.68 93.57 59.88C94.24 60.13 94.9 60.41 95.55 60.72C96.12 61 96.67 61.3 97.2 61.63C97.77 61.97 98.32 62.35 98.85 62.75C99.43 63.19 99.99 63.65 100.51 64.15C100.93 64.53 101.33 64.94 101.71 65.36C102.58 66.34 103.36 67.38 104.03 68.5C104.71 69.64 105.27 70.83 105.71 72.08C105.85 72.47 105.98 72.87 106.09 73.26C106.35 74.17 106.55 75.1 106.68 76.05C106.79 76.88 106.23 77.62 105.4 77.74C104.56 77.85 103.82 77.29 103.71 76.46C103.54 75.3 103.27 74.17 102.88 73.08C102.51 72.02 102.03 71 101.45 70.04C101.23 69.66 100.99 69.29 100.73 68.93C100.35 68.39 99.93 67.87 99.48 67.37C99.16 67.02 98.83 66.68 98.49 66.36C98.03 65.93 97.55 65.52 97.05 65.14C96.59 64.8 96.12 64.48 95.64 64.18C95.18 63.91 94.71 63.65 94.23 63.42C93.67 63.14 93.1 62.9 92.52 62.69C92.06 62.52 91.59 62.38 91.12 62.25C90.59 62.11 90.06 61.99 89.53 61.9C88.95 61.8 88.37 61.74 87.78 61.7C87.48 61.68 87.19 61.67 86.89 61.66C86.03 61.65 85.16 61.71 84.29 61.83C83.46 61.94 82.71 61.38 82.6 60.54C82.48 59.71 83.05 58.97 83.88 58.85Z" fill="#000000" fill-opacity="0.860000" fill-rule="evenodd"/>
	<path id="合并" d="M72.9 109.04C55.04 98.78 48.19 76.81 56.5 58.5C57.41 56.48 59.89 55.83 61.8 56.93L123.8 92.55C125.72 93.65 126.39 96.11 125.1 97.9C113.31 114.22 90.77 119.3 72.9 109.04ZM72.61 114.83C71.6 114.26 70.63 113.64 69.7 112.99L64.97 121.14C63.43 123.8 65.35 127.14 68.43 127.14L85.18 127.14C88.27 127.14 90.19 123.8 88.64 121.14L87.91 119.88C82.67 119.28 77.47 117.62 72.61 114.83Z" fill="#000000" fill-opacity="0.860000" fill-rule="evenodd"/>
	<circle id="椭圆 221" r="87.000000" transform="matrix(-1 0 0 -1 88 88)" stroke="#FFFFFF" stroke-opacity="0.860000" stroke-width="2.000000"/>
</svg>
