<svg viewBox="0 0 100 124" xmlns="http://www.w3.org/2000/svg" xmlns:xlink="http://www.w3.org/1999/xlink" width="100" height="124" fill="none" customFrame="#000000">
	<path id="合并" d="M23 27L23 38L12 38C5.37258 38 0 43.3726 0 50L0 112C0 118.627 5.37258 124 12 124L88 124C94.6274 124 100 118.627 100 112L100 50C100 43.3726 94.6274 38 88 38L77 38L77 27C77 12.0883 64.9117 0 50 0C35.0883 0 23 12.0883 23 27ZM65 38L65 27C65 18.7157 58.2843 12 50 12C41.7157 12 35 18.7157 35 27L35 38L65 38ZM66 81C66 72.1634 58.8366 65 50 65C41.1634 65 34 72.1634 34 81C34 89.8366 41.1634 97 50 97C58.8366 97 66 89.8366 66 81Z" fill="rgb(255,254.745,254.745)" fill-opacity="0.899999976" fill-rule="evenodd" />
</svg>
