<svg width="160.000000" height="160.000000" viewBox="0 0 160 160" fill="none" xmlns="http://www.w3.org/2000/svg" xmlns:xlink="http://www.w3.org/1999/xlink">
	<desc>
			Created with Pixso.
	</desc>
	<defs/>
	<circle id="椭圆 214" cx="80.000000" cy="80.000000" r="80.000000" fill="#FFFFFF" fill-opacity="0.200000"/>
	<path id="直线 21" d="M57.43 109.99L103.68 109.99" stroke="#FFFFFF" stroke-opacity="0.860000" stroke-width="6.000000" stroke-linecap="round"/>
	<path id="合并" d="M109 49L51 49C46.5818 49 43 52.5815 43 57L43 92.792C43 97.2104 46.5818 100.792 51 100.792L109 100.792C113.418 100.792 117 97.2104 117 92.792L117 57C117 52.5815 113.418 49 109 49ZM91.5857 71.4131L77.1301 63.1875C74.4636 61.6704 71.1519 63.5962 71.1519 66.6646L71.1519 83.1152C71.1519 86.1831 74.4636 88.1089 77.1301 86.5918L91.5857 78.3662C94.2812 76.8325 94.2812 72.9468 91.5857 71.4131Z" clip-rule="evenodd" fill="#FFFFFF" fill-opacity="0.860000" fill-rule="evenodd"/>
</svg>
