<svg width="176.000000" height="176.000000" viewBox="0 0 176 176" fill="none" xmlns="http://www.w3.org/2000/svg" xmlns:xlink="http://www.w3.org/1999/xlink">
	<desc>
			Created with Pixso.
	</desc>
	<defs>
		<linearGradient x1="83.027969" y1="123.925720" x2="94.310211" y2="118.117798" id="paint_linear_199_25974_0" gradientUnits="userSpaceOnUse">
			<stop stop-color="#206BFF"/>
			<stop offset="1.000000" stop-color="#6194F9"/>
		</linearGradient>
		<linearGradient x1="79.142395" y1="108.159317" x2="97.193993" y2="58.025219" id="paint_linear_199_25978_0" gradientUnits="userSpaceOnUse">
			<stop stop-color="#206BFF"/>
			<stop offset="1.000000" stop-color="#6194F9"/>
		</linearGradient>
		<linearGradient x1="173.735382" y1="3.756178" x2="121.323532" y2="118.048805" id="paint_linear_199_25982_0" gradientUnits="userSpaceOnUse">
			<stop stop-color="#FFFFFF"/>
			<stop offset="1.000000" stop-color="#FFFFFF" stop-opacity="0.000000"/>
		</linearGradient>
		<linearGradient x1="85.735382" y1="-84.243820" x2="33.323532" y2="30.048805" id="paint_linear_199_25983_0" gradientUnits="userSpaceOnUse">
			<stop stop-color="#FFFFFF"/>
			<stop offset="1.000000" stop-color="#FFFFFF" stop-opacity="0.000000"/>
		</linearGradient>
	</defs>
	<circle id="椭圆 214" cx="88.000000" cy="88.000000" r="80.000000" fill="#FFFFFF" fill-opacity="0.860000"/>
	<path id="直线 21" d="M65.43 117.99L111.68 117.99" stroke="url(#paint_linear_199_25974_0)" stroke-opacity="0.900000" stroke-width="6.000000" stroke-linecap="round"/>
	<path id="合并" d="M117 57L59 57C54.5818 57 51 60.5815 51 65L51 100.792C51 105.21 54.5818 108.792 59 108.792L117 108.792C121.418 108.792 125 105.21 125 100.792L125 65C125 60.5815 121.418 57 117 57ZM99.5857 79.4131L85.1301 71.1875C82.4636 69.6704 79.1519 71.5962 79.1519 74.6646L79.1519 91.1152C79.1519 94.1831 82.4636 96.1089 85.1301 94.5918L99.5857 86.3662C102.281 84.8325 102.281 80.9468 99.5857 79.4131Z" clip-rule="evenodd" fill="url(#paint_linear_199_25978_0)" fill-opacity="0.900000" fill-rule="evenodd"/>
	<circle id="椭圆 222" cx="88.000000" cy="88.000000" r="87.000000" stroke="url(#paint_linear_199_25982_0)" stroke-opacity="0.860000" stroke-width="2.000000"/>
	<circle id="椭圆 223" r="87.000000" transform="matrix(-1 0 0 -1 88 88)" stroke="url(#paint_linear_199_25983_0)" stroke-opacity="0.860000" stroke-width="2.000000"/>
</svg>
