<svg width="176.000000" height="176.000000" viewBox="0 0 176 176" fill="none" xmlns="http://www.w3.org/2000/svg" xmlns:xlink="http://www.w3.org/1999/xlink">
	<desc>
			Created with Pixso.
	</desc>
	<defs/>
	<circle id="椭圆 214" cx="88.000000" cy="88.000000" r="80.000000" fill="#FFFFFF" fill-opacity="0.860000"/>
	<path id="直线 21 (边框)" d="M65.43 114.99L111.68 114.99C113.36 114.99 114.68 116.31 114.68 117.99C114.68 119.67 113.36 120.99 111.68 120.99L65.43 120.99C63.75 120.99 62.43 119.67 62.43 117.99C62.43 116.31 63.75 114.99 65.43 114.99Z" fill="#000000" fill-opacity="0.860000" fill-rule="evenodd"/>
	<path id="合并" d="M117 57L59 57C54.58 57 51 60.58 51 65L51 100.79C51 105.21 54.58 108.79 59 108.79L117 108.79C121.41 108.79 125 105.21 125 100.79L125 65C125 60.58 121.41 57 117 57ZM99.58 79.41L85.13 71.18C82.46 69.67 79.15 71.59 79.15 74.66L79.15 91.11C79.15 94.18 82.46 96.1 85.13 94.59L99.58 86.36C102.28 84.83 102.28 80.94 99.58 79.41Z" fill="#000000" fill-opacity="0.860000" fill-rule="evenodd"/>
	<circle id="椭圆 223" r="87.000000" transform="matrix(-1 0 0 -1 88 88)" stroke="#FFFFFF" stroke-opacity="0.860000" stroke-width="2.000000"/>
</svg>
