<svg width="160.000000" height="160.000000" viewBox="0 0 160 160" fill="none" xmlns="http://www.w3.org/2000/svg" xmlns:xlink="http://www.w3.org/1999/xlink">
	<desc>
			Created with Pixso.
	</desc>
	<defs/>
	<circle id="椭圆 24" cx="80.000000" cy="80.000000" r="80.000000" fill="#FFFFFF" fill-opacity="0.200000"/>
	<path id="path" d="M115.42 64.04L44.57 64.04C39.85 64.04 36 67.95 36 72.73L36 78.39C36 80.69 36.9 82.91 38.48 84.52L44.57 90.69L47.23 93.43C48.86 95.08 51.05 96 53.32 96L106.5 96C108.77 96 110.92 95.08 112.55 93.47L115.33 90.69L121.47 84.52C123.1 82.86 124 80.65 124 78.34L124 72.69C124 67.91 120.14 64.04 115.42 64.04ZM101.44 83.3L58.55 83.3C56.79 83.3 55.34 81.82 55.34 80.04C55.34 78.26 56.79 76.78 58.55 76.78L101.44 76.78C103.2 76.78 104.65 78.26 104.65 80.04C104.65 81.82 103.2 83.3 101.44 83.3Z" fill="#FFFFFF" fill-opacity="0.860000" fill-rule="nonzero"/>
</svg>
