<svg width="184.000000" height="184.000000" viewBox="0 0 184 184" fill="none" xmlns="http://www.w3.org/2000/svg" xmlns:xlink="http://www.w3.org/1999/xlink">
	<desc>
			Created with Pixso.
	</desc>
	<defs>
		<linearGradient x1="177.735382" y1="7.756178" x2="125.323532" y2="122.048805" id="paint_linear_440_48422_0" gradientUnits="userSpaceOnUse">
			<stop stop-color="#FFFFFF"/>
			<stop offset="1.000000" stop-color="#FFFFFF" stop-opacity="0.000000"/>
		</linearGradient>
	</defs>
	<circle id="椭圆 24" cx="92.000000" cy="92.000000" r="80.000000" fill="#FFFFFF" fill-opacity="0.860000"/>
	<path id="path" d="M127.42 76.04L56.57 76.04C51.85 76.04 48 79.95 48 84.73L48 90.39C48 92.69 48.9 94.91 50.48 96.52L56.57 102.69L59.23 105.43C60.86 107.08 63.05 108 65.32 108L118.5 108C120.77 108 122.92 107.08 124.55 105.47L127.33 102.69L133.47 96.52C135.09 94.86 136 92.65 136 90.34L136 84.69C136 79.91 132.14 76.04 127.42 76.04ZM113.44 95.3L70.55 95.3C68.79 95.3 67.34 93.82 67.34 92.04C67.34 90.26 68.79 88.78 70.55 88.78L113.44 88.78C115.2 88.78 116.65 90.26 116.65 92.04C116.65 93.82 115.2 95.3 113.44 95.3Z" fill="#000000" fill-opacity="0.860000" fill-rule="nonzero"/>
	<circle id="椭圆 218" cx="92.000000" cy="92.000000" r="87.000000" stroke="url(#paint_linear_440_48422_0)" stroke-opacity="0.860000" stroke-width="2.000000"/>
	<circle id="椭圆 219" r="87.000000" transform="matrix(-1 0 0 -1 92 92)" stroke="#FFFFFF" stroke-opacity="0.860000" stroke-width="2.000000"/>
</svg>
