<?xml version="1.0" encoding="UTF-8"?>
<svg width="500px" height="500px" viewBox="0 0 500 500" version="1.1" xmlns="http://www.w3.org/2000/svg" xmlns:xlink="http://www.w3.org/1999/xlink">
    <title>ic_WiFi</title>
    <defs>
        <path d="M249.974654,256.245746 C283.29444,256.245746 315.23083,269.262703 338.671659,292.397768 C344.580457,298.22949 344.531613,307.63686 338.562563,313.409717 C332.593513,319.182574 322.964615,319.134853 317.055817,313.303131 C299.327619,295.80618 275.174265,285.961513 249.974654,285.961513 C224.775043,285.961513 200.621689,295.80618 182.89349,313.303131 C176.984693,319.134853 167.355794,319.182574 161.386744,313.409717 C155.417694,307.63686 155.36885,298.22949 161.277648,292.397768 C184.718478,269.262703 216.654868,256.245746 249.974654,256.245746 Z M249.949307,180.715255 C303.754933,180.715255 355.336196,201.691816 393.250342,238.991512 C399.16871,244.813965 399.135316,254.221399 393.175754,260.003605 C387.216193,265.785812 377.587229,265.753186 371.668861,259.930733 C339.464677,228.248461 295.651677,210.431021 249.949307,210.431021 C204.246938,210.431021 160.433938,228.248461 128.229754,259.930733 C122.311386,265.753186 112.682422,265.785812 106.722861,260.003605 C100.763299,254.221399 100.729905,244.813965 106.648273,238.991512 C144.562419,201.691816 196.143681,180.715255 249.949307,180.715255 Z M250,104.166667 C324.580353,104.166667 396.086396,133.201908 448.69643,184.847942 C454.621213,190.664163 454.598191,200.071627 448.645008,205.860102 C442.691825,211.648576 433.06283,211.626083 427.138047,205.809863 C380.236154,159.767376 316.488452,133.882433 250,133.882433 C183.511548,133.882433 119.763846,159.767376 72.8619532,205.809863 C66.9371697,211.626083 57.3081753,211.648576 51.3549922,205.860102 C45.4018091,200.071627 45.3787867,190.664163 51.3035702,184.847942 C103.913604,133.201908 175.419647,104.166667 250,104.166667 Z M250,401.041667 C267.258898,401.041667 281.25,387.050565 281.25,369.791667 C281.25,352.532768 267.258898,338.541667 250,338.541667 C232.741102,338.541667 218.75,352.532768 218.75,369.791667 C218.75,387.050565 232.741102,401.041667 250,401.041667 Z" id="path-1"></path>
    </defs>
    <g id="ic_WiFi" stroke="none" stroke-width="1" fill="none" fill-rule="evenodd">
        <mask id="mask-2" fill="white">
            <use xlink:href="#path-1"></use>
        </mask>
        <use id="Combined-Shape" fill-opacity="0.1" fill="#FFFFFF" fill-rule="nonzero" xlink:href="#path-1"></use>
    </g>
</svg>