<svg width="160.000000" height="160.000000" viewBox="0 0 160 160" fill="none" xmlns="http://www.w3.org/2000/svg" xmlns:xlink="http://www.w3.org/1999/xlink">
	<desc>
			Created with Pixso.
	</desc>
	<defs/>
	<circle id="椭圆 214" cx="80.000000" cy="80.000000" r="80.000000" fill="#FFFFFF" fill-opacity="0.200000"/>
	<path id="直线 21" d="M57.43 109.99L103.68 109.99" stroke="#FFFFFF" stroke-opacity="0.860000" stroke-width="6.000000" stroke-linecap="round"/>
	<path id="合并" d="M109 48.9999L51 48.9999C46.5817 48.9999 43 52.5817 43 56.9999L43 92.792C43 97.2103 46.5817 100.792 51 100.792L109 100.792C113.418 100.792 117 97.2103 117 92.792L117 56.9999C117 52.5817 113.418 48.9999 109 48.9999ZM91.5856 71.413L77.1302 63.1877C74.4636 61.6703 71.1519 63.5962 71.1519 66.6643L71.1519 83.115C71.1519 86.183 74.4636 88.1089 77.1302 86.5916L91.5856 78.3662C94.2813 76.8323 94.2813 72.9469 91.5856 71.413Z" clip-rule="evenodd" fill="#FFFFFF" fill-opacity="0.860000" fill-rule="evenodd"/>
</svg>
