<svg width="60.000000" height="60.000000" viewBox="0 0 60 60" fill="none" xmlns="http://www.w3.org/2000/svg" xmlns:xlink="http://www.w3.org/1999/xlink">
	<desc>
			Created with Pixso.
	</desc>
	<defs/>
	<path id="path" d="M28.61 43.25C28.33 43.25 28.05 43.25 27.77 43.23C27.5 43.21 27.22 43.19 26.94 43.16C26.66 43.12 26.39 43.08 26.11 43.04C25.84 42.99 25.56 42.93 25.29 42.87C25.02 42.81 24.75 42.73 24.48 42.66C24.21 42.58 23.95 42.49 23.68 42.4C23.42 42.3 23.16 42.2 22.91 42.09C22.65 41.98 22.39 41.86 22.14 41.74C21.89 41.62 21.65 41.49 21.4 41.35C21.16 41.21 20.92 41.07 20.69 40.91C20.45 40.76 20.22 40.6 20 40.44C19.77 40.27 19.55 40.1 19.34 39.93C19.12 39.75 18.91 39.57 18.7 39.38C18.5 39.19 18.3 38.99 18.11 38.79C17.91 38.59 17.72 38.38 17.54 38.17C17.36 37.96 17.18 37.75 17.01 37.52C16.84 37.3 16.68 37.08 16.52 36.84C16.37 36.61 16.21 36.38 16.07 36.14C15.93 35.9 15.79 35.66 15.66 35.41C15.53 35.16 15.41 34.91 15.29 34.65C15.18 34.4 15.07 34.14 14.97 33.88C14.87 33.62 14.78 33.36 14.69 33.09C14.61 32.83 14.53 32.56 14.46 32.29C14.39 32.02 14.33 31.75 14.27 31.47C14.22 31.2 14.17 30.92 14.13 30.64C14.1 30.37 14.07 30.09 14.04 29.81C14.02 29.53 14.01 29.25 14 28.98C13.99 28.7 13.99 28.42 14 28.14C14.01 27.86 14.03 27.58 14.05 27.3C14.08 27.02 14.11 26.75 14.15 26.47C14.2 26.19 14.25 25.92 14.3 25.65C14.36 25.37 14.42 25.1 14.5 24.83C14.57 24.56 14.65 24.29 14.74 24.03C14.82 23.76 14.92 23.5 15.02 23.24C15.12 22.98 15.23 22.72 15.35 22.47C15.47 22.22 15.59 21.97 15.73 21.72C15.86 21.48 16 21.23 16.14 21C16.29 20.76 16.44 20.52 16.6 20.29C16.76 20.06 16.92 19.84 17.09 19.62C17.27 19.4 17.45 19.18 17.63 18.97C17.81 18.76 18 18.56 18.2 18.36C18.4 18.16 18.6 17.97 18.8 17.78C19.01 17.59 19.22 17.41 19.44 17.24C19.66 17.06 19.88 16.89 20.11 16.73C20.33 16.57 20.57 16.41 20.8 16.26C21.04 16.11 21.28 15.97 21.52 15.83C21.77 15.7 22.01 15.57 22.27 15.45C22.52 15.33 22.77 15.21 23.03 15.11C23.29 15 23.55 14.9 23.81 14.81C24.08 14.72 24.34 14.63 24.61 14.56C24.88 14.48 25.15 14.41 25.42 14.35C25.69 14.29 25.97 14.24 26.24 14.19C26.52 14.14 26.8 14.11 27.07 14.08C27.35 14.05 27.63 14.03 27.91 14.01C28.19 14 28.47 13.99 28.75 14C29.03 14 29.3 14.01 29.58 14.03C29.86 14.05 30.14 14.07 30.42 14.11C30.69 14.14 30.97 14.18 31.24 14.23C31.52 14.28 31.79 14.34 32.06 14.41C32.33 14.47 32.6 14.55 32.87 14.63C33.14 14.71 33.4 14.8 33.66 14.89C33.93 14.99 34.19 15.09 34.44 15.2C34.7 15.32 34.95 15.43 35.2 15.56C35.45 15.69 35.7 15.82 35.94 15.96C36.18 16.1 36.42 16.25 36.65 16.4C36.88 16.55 37.11 16.71 37.34 16.88C37.56 17.04 37.78 17.22 37.99 17.4C38.21 17.58 38.42 17.76 38.62 17.95C38.83 18.14 39.02 18.34 39.21 18.54C39.41 18.74 39.59 18.95 39.77 19.16C39.96 19.38 40.13 19.6 40.3 19.82C40.47 20.04 40.63 20.27 40.78 20.5C40.94 20.74 41.09 20.97 41.23 21.21C41.37 21.45 41.5 21.7 41.63 21.95C41.76 22.19 41.88 22.45 41.99 22.7C42.1 22.96 42.21 23.22 42.31 23.48C42.41 23.74 42.5 24 42.58 24.27C42.66 24.54 42.74 24.81 42.81 25.08C42.87 25.35 42.93 25.62 42.99 25.89C43.04 26.17 43.08 26.44 43.12 26.72C43.16 27 43.18 27.28 43.2 27.55C43.22 27.83 43.24 28.11 43.24 28.39C43.25 28.67 43.24 28.95 43.23 29.23C43.22 29.51 43.2 29.79 43.17 30.06C43.14 30.34 43.11 30.62 43.07 30.9C43.02 31.17 42.97 31.45 42.91 31.72C42.85 31.99 42.79 32.26 42.71 32.53C42.64 32.8 42.55 33.07 42.46 33.33C42.37 33.6 42.28 33.86 42.17 34.12C42.07 34.38 41.96 34.63 41.84 34.88C41.72 35.14 41.59 35.39 41.46 35.63C41.32 35.88 41.18 36.12 41.04 36.35C40.89 36.59 40.73 36.82 40.57 37.05C40.41 37.28 40.24 37.5 40.07 37.72C39.9 37.94 39.72 38.16 39.53 38.36C39.34 38.57 39.15 38.77 38.96 38.97C38.62 39.31 38.26 39.63 37.89 39.94C37.52 40.24 37.14 40.53 36.74 40.79C36.34 41.06 35.93 41.31 35.51 41.53C35.09 41.76 34.65 41.96 34.21 42.15C33.77 42.33 33.32 42.49 32.86 42.63C32.4 42.77 31.94 42.88 31.46 42.98C31 43.07 30.52 43.14 30.04 43.18C29.57 43.23 29.09 43.25 28.61 43.25ZM28.61 18.7C28.42 18.7 28.23 18.71 28.04 18.72C27.85 18.73 27.67 18.75 27.48 18.77C27.29 18.79 27.1 18.82 26.92 18.85C26.73 18.88 26.54 18.92 26.36 18.96C26.18 19.01 25.99 19.06 25.81 19.11C25.63 19.16 25.45 19.22 25.27 19.29C25.09 19.35 24.92 19.42 24.74 19.5C24.57 19.57 24.4 19.65 24.23 19.73C24.06 19.82 23.89 19.91 23.73 20C23.56 20.09 23.4 20.19 23.24 20.3C23.08 20.4 22.93 20.51 22.78 20.62C22.62 20.73 22.47 20.85 22.33 20.97C22.18 21.09 22.04 21.21 21.9 21.34C21.76 21.47 21.62 21.6 21.49 21.74C21.36 21.87 21.24 22.01 21.11 22.16C20.99 22.3 20.87 22.45 20.75 22.6C20.64 22.75 20.53 22.9 20.42 23.06C20.32 23.22 20.21 23.38 20.12 23.54C20.02 23.7 19.93 23.87 19.84 24.03C19.75 24.2 19.67 24.37 19.59 24.55C19.52 24.72 19.44 24.89 19.37 25.07C19.31 25.25 19.25 25.42 19.19 25.61C19.13 25.79 19.08 25.97 19.03 26.15C18.98 26.33 18.94 26.52 18.9 26.71C18.87 26.89 18.84 27.08 18.81 27.26C18.79 27.45 18.76 27.64 18.75 27.83C18.73 28.02 18.72 28.21 18.72 28.4C18.72 28.59 18.72 28.78 18.72 28.96C18.73 29.15 18.74 29.34 18.76 29.53C18.78 29.72 18.8 29.91 18.83 30.09C18.85 30.28 18.89 30.47 18.93 30.65C18.97 30.84 19.01 31.02 19.06 31.21C19.11 31.39 19.16 31.57 19.22 31.75C19.28 31.93 19.35 32.11 19.42 32.28C19.49 32.46 19.56 32.63 19.64 32.81C19.72 32.98 19.81 33.15 19.89 33.31C19.98 33.48 20.08 33.65 20.18 33.81C20.28 33.97 20.38 34.13 20.49 34.28C20.6 34.44 20.71 34.59 20.82 34.74C20.94 34.89 21.06 35.03 21.19 35.18C21.31 35.32 21.44 35.46 21.57 35.59C21.71 35.73 21.84 35.86 21.98 35.99C22.12 36.11 22.27 36.24 22.41 36.35C22.56 36.47 22.71 36.59 22.87 36.7C23.02 36.81 23.18 36.91 23.34 37.01C23.5 37.11 23.66 37.21 23.83 37.3C23.99 37.4 24.16 37.48 24.33 37.57C24.5 37.65 24.67 37.72 24.85 37.8C25.02 37.87 25.2 37.94 25.38 38C25.56 38.06 25.74 38.12 25.92 38.17C26.1 38.22 26.29 38.27 26.47 38.31C26.66 38.35 26.84 38.39 27.03 38.42C27.21 38.45 27.4 38.47 27.59 38.49C27.78 38.51 27.97 38.53 28.16 38.54C28.35 38.55 28.54 38.55 28.72 38.55C28.91 38.55 29.1 38.54 29.29 38.53C29.48 38.51 29.67 38.5 29.86 38.47C30.04 38.45 30.23 38.42 30.42 38.39C30.6 38.35 30.79 38.32 30.97 38.27C31.16 38.23 31.34 38.18 31.52 38.12C31.7 38.07 31.88 38 32.06 37.94C32.24 37.88 32.41 37.81 32.59 37.73C32.76 37.65 32.93 37.57 33.1 37.49C33.27 37.4 33.44 37.31 33.6 37.22C33.76 37.12 33.93 37.02 34.08 36.92C34.24 36.82 34.4 36.71 34.55 36.6C34.7 36.48 34.85 36.37 35 36.25C35.14 36.12 35.28 36 35.42 35.87C35.56 35.74 35.69 35.61 35.82 35.47C35.95 35.33 36.08 35.19 36.2 35.05C36.33 34.9 36.44 34.75 36.56 34.6C36.67 34.45 36.78 34.3 36.89 34.14C36.99 33.98 37.09 33.82 37.19 33.66C37.29 33.5 37.38 33.33 37.46 33.16C37.55 32.99 37.63 32.82 37.71 32.65C37.79 32.48 37.86 32.3 37.92 32.12C37.99 31.95 38.05 31.77 38.11 31.59C38.16 31.41 38.22 31.22 38.26 31.04C38.31 30.86 38.35 30.67 38.38 30.49C38.42 30.3 38.45 30.11 38.48 29.92C38.5 29.74 38.52 29.55 38.53 29.36C38.55 29.17 38.56 28.98 38.56 28.79C38.56 28.6 38.56 28.41 38.55 28.23C38.54 28.04 38.53 27.85 38.51 27.66C38.5 27.47 38.47 27.28 38.44 27.1C38.41 26.91 38.38 26.72 38.34 26.54C38.3 26.35 38.25 26.17 38.2 25.99C38.15 25.8 38.1 25.62 38.04 25.44C37.98 25.26 37.91 25.09 37.84 24.91C37.77 24.74 37.69 24.56 37.61 24.39C37.53 24.22 37.45 24.05 37.36 23.88C37.27 23.72 37.17 23.55 37.07 23.39C36.97 23.23 36.87 23.07 36.76 22.92C36.65 22.76 36.54 22.61 36.42 22.46C36.3 22.32 36.18 22.17 36.05 22.03C35.93 21.89 35.8 21.75 35.66 21.62C35.43 21.38 35.19 21.16 34.94 20.96C34.69 20.75 34.43 20.55 34.16 20.37C33.88 20.19 33.6 20.02 33.32 19.87C33.03 19.71 32.73 19.57 32.43 19.45C32.13 19.32 31.82 19.21 31.51 19.12C31.2 19.02 30.88 18.95 30.56 18.88C30.24 18.82 29.91 18.77 29.59 18.74C29.26 18.71 28.94 18.7 28.61 18.7ZM39.68 41.25L41.26 39.68C42.13 38.8 43.54 38.8 44.42 39.68C45.29 40.55 45.29 41.96 44.42 42.83L42.84 44.41C41.97 45.29 40.55 45.29 39.68 44.41C38.81 43.54 38.81 42.13 39.68 41.25Z" fill="#FFFFFF" fill-opacity="0.600000" fill-rule="nonzero"/>
</svg>
