<svg width="24.000000" height="24.000000" viewBox="0 0 24 24" fill="none" xmlns="http://www.w3.org/2000/svg" xmlns:xlink="http://www.w3.org/1999/xlink">
	<desc>
			Created with Pixso.
	</desc>
	<defs>
		<filter id="filter_89_7748_dd" x="3.216461" y="6.530243" width="18.464539" height="14.518036" filterUnits="userSpaceOnUse" color-interpolation-filters="sRGB">
			<feFlood flood-opacity="0" result="BackgroundImageFix"/>
			<feColorMatrix in="SourceAlpha" type="matrix" values="0 0 0 0 0 0 0 0 0 0 0 0 0 0 0 0 0 0 127 0" result="hardAlpha"/>
			<feOffset dx="0.0493555" dy="1.41335"/>
			<feGaussianBlur stdDeviation="0.666667"/>
			<feComposite in2="hardAlpha" operator="out" k2="-1" k3="1"/>
			<feColorMatrix type="matrix" values="0 0 0 0 0 0 0 0 0 0 0 0 0 0 0 0 0 0 0.1 0"/>
			<feBlend mode="normal" in2="BackgroundImageFix" result="effect_dropShadow_1"/>
			<feBlend mode="normal" in="SourceGraphic" in2="effect_dropShadow_1" result="shape"/>
		</filter>
	</defs>
	<rect id="Rectangle 2375 Copy" rx="12.000000" width="24.000000" height="24.000000" fill="#FFFFFF" fill-opacity="0.200000"/>
	<g filter="url(#filter_89_7748_dd)">
		<path id="Rectangle 62" d="M19.2501 7.43927C18.7654 6.98727 18.006 7.01379 17.554 7.49847L10.8017 14.7395L7.18552 11.3673C6.70081 10.9153 5.94147 10.9418 5.4895 11.4265C5.03751 11.9112 5.06403 12.6706 5.54871 13.1226L9.93683 17.2145C9.95621 17.2326 9.97601 17.2499 9.99625 17.2664C10.0114 17.2821 10.0269 17.2975 10.0431 17.3125C10.5278 17.7645 11.2871 17.738 11.7391 17.2533L19.3093 9.13528C19.7613 8.65057 19.7347 7.89124 19.2501 7.43927Z" clip-rule="evenodd" fill="#FFFFFF" fill-opacity="0.600000" fill-rule="evenodd"/>
	</g>
</svg>
