<svg viewBox="0 0 48 48" xmlns="http://www.w3.org/2000/svg" xmlns:xlink="http://www.w3.org/1999/xlink" width="48" height="48" fill="none">
	<rect id="容器 1" width="48" height="48" x="0" y="0" />
	<rect id="rect" width="24" height="48" x="0" y="0" opacity="0" fill="rgb(0,0,0)" fill-opacity="0.600000024" transform="matrix(0,-1,1,0,0,24)" />
	<g id="g">
		<path id="path" d="M0.42 24.96C0.806667 25.28 1.19333 25.44 1.58 25.44C1.96667 25.44 2.3 25.28 2.58 24.96L13.14 14.26C13.4333 13.8733 13.78 13.2267 13.78 12.72C13.78 12.08 13.5667 11.5667 13.14 11.18L2.58 0.44C2.3 0.146667 1.95333 0 1.54 0C1.11333 0 0.76 0.146667 0.48 0.44C0.226667 0.693333 0.0866666 1.01333 0.0599999 1.4C0.0466666 1.77333 0.153333 2.12 0.38 2.44L10.5 12.72L0.42 22.84C0.14 23.1333 0 23.4867 0 23.9C0 24.3133 0.14 24.6667 0.42 24.96Z" fill="rgb(0,0,0)" fill-opacity="0.600000024" fill-rule="nonzero" transform="matrix(0,-1,1,0,11,18)" />
	</g>
	<rect id="rect" width="24" height="48" x="0" y="0" opacity="0" fill="rgb(0,0,0)" fill-opacity="0.600000024" transform="matrix(0,1,1,0,0,24)" />
	<g id="g">
		<path id="path" d="M0.42 24.96C0.806667 25.28 1.19333 25.44 1.58 25.44C1.96667 25.44 2.3 25.28 2.58 24.96L13.14 14.26C13.4333 13.8733 13.78 13.2267 13.78 12.72C13.78 12.08 13.5667 11.5667 13.14 11.18L2.58 0.44C2.3 0.146667 1.95333 0 1.54 0C1.11333 0 0.76 0.146667 0.48 0.44C0.226667 0.693333 0.0866666 1.01333 0.0599999 1.4C0.0466666 1.77333 0.153333 2.12 0.38 2.44L10.5 12.72L0.42 22.84C0.14 23.1333 0 23.4867 0 23.9C0 24.3133 0.14 24.6667 0.42 24.96Z" fill="rgb(0,0,0)" fill-opacity="0.600000024" fill-rule="nonzero" transform="matrix(0,1,1,0,11,30)" />
	</g>
</svg>
